G04 #@! TF.GenerationSoftware,KiCad,Pcbnew,(5.1.4-0-10_14)*
G04 #@! TF.CreationDate,2019-09-27T20:48:50-06:00*
G04 #@! TF.ProjectId,LED suit power,4c454420-7375-4697-9420-706f7765722e,rev?*
G04 #@! TF.SameCoordinates,Original*
G04 #@! TF.FileFunction,Legend,Top*
G04 #@! TF.FilePolarity,Positive*
%FSLAX46Y46*%
G04 Gerber Fmt 4.6, Leading zero omitted, Abs format (unit mm)*
G04 Created by KiCad (PCBNEW (5.1.4-0-10_14)) date 2019-09-27 20:48:50*
%MOMM*%
%LPD*%
G04 APERTURE LIST*
%ADD10C,0.120000*%
%ADD11C,0.150000*%
%ADD12C,0.203200*%
%ADD13C,0.152400*%
G04 APERTURE END LIST*
D10*
X141958578Y-113690000D02*
X141441422Y-113690000D01*
X141958578Y-115110000D02*
X141441422Y-115110000D01*
X141958578Y-115590000D02*
X141441422Y-115590000D01*
X141958578Y-117010000D02*
X141441422Y-117010000D01*
X152641422Y-119460000D02*
X153158578Y-119460000D01*
X152641422Y-118040000D02*
X153158578Y-118040000D01*
X147091422Y-115210000D02*
X147608578Y-115210000D01*
X147091422Y-113790000D02*
X147608578Y-113790000D01*
X152641422Y-116410000D02*
X153158578Y-116410000D01*
X152641422Y-114990000D02*
X153158578Y-114990000D01*
D11*
X145025000Y-123725000D02*
X149675000Y-123725000D01*
X143950000Y-115625000D02*
X149675000Y-115625000D01*
X145025000Y-123725000D02*
X145025000Y-123700000D01*
X149675000Y-123725000D02*
X149675000Y-123700000D01*
X149675000Y-115675000D02*
X149675000Y-115700000D01*
D10*
X176250000Y-122600000D02*
X178750000Y-122600000D01*
X176250000Y-120100000D02*
X176250000Y-122600000D01*
X181750000Y-112950000D02*
X181750000Y-117250000D01*
X178800000Y-112950000D02*
X181750000Y-112950000D01*
X178800000Y-112200000D02*
X178800000Y-112950000D01*
X181750000Y-121550000D02*
X181750000Y-117250000D01*
X178800000Y-121550000D02*
X181750000Y-121550000D01*
X178800000Y-122300000D02*
X178800000Y-121550000D01*
X176550000Y-112200000D02*
X176550000Y-114000000D01*
X177300000Y-112200000D02*
X176550000Y-112200000D01*
X177300000Y-114000000D02*
X177300000Y-112200000D01*
X176550000Y-114000000D02*
X177300000Y-114000000D01*
X176550000Y-120500000D02*
X176550000Y-122300000D01*
X177300000Y-120500000D02*
X176550000Y-120500000D01*
X177300000Y-122300000D02*
X177300000Y-120500000D01*
X176550000Y-122300000D02*
X177300000Y-122300000D01*
X176550000Y-115500000D02*
X176550000Y-119000000D01*
X177300000Y-115500000D02*
X176550000Y-115500000D01*
X177300000Y-119000000D02*
X177300000Y-115500000D01*
X176550000Y-119000000D02*
X177300000Y-119000000D01*
X176550000Y-112200000D02*
X176550000Y-122300000D01*
X182500000Y-112200000D02*
X176550000Y-112200000D01*
X182500000Y-122300000D02*
X182500000Y-112200000D01*
X176550000Y-122300000D02*
X182500000Y-122300000D01*
D11*
X142250000Y-200850000D02*
X142250000Y-182600000D01*
X157750000Y-200850000D02*
X157750000Y-182600000D01*
X157750000Y-200850000D02*
X142250000Y-200850000D01*
X157750000Y-182600000D02*
X142250000Y-182600000D01*
X97500000Y-173250000D02*
X115750000Y-173250000D01*
X97500000Y-188750000D02*
X115750000Y-188750000D01*
X97500000Y-188750000D02*
X97500000Y-173250000D01*
X115750000Y-188750000D02*
X115750000Y-173250000D01*
X97500000Y-153250000D02*
X115750000Y-153250000D01*
X97500000Y-168750000D02*
X115750000Y-168750000D01*
X97500000Y-168750000D02*
X97500000Y-153250000D01*
X115750000Y-168750000D02*
X115750000Y-153250000D01*
X97500000Y-133250000D02*
X115750000Y-133250000D01*
X97500000Y-148750000D02*
X115750000Y-148750000D01*
X97500000Y-148750000D02*
X97500000Y-133250000D01*
X115750000Y-148750000D02*
X115750000Y-133250000D01*
X202500000Y-169750000D02*
X184250000Y-169750000D01*
X202500000Y-154250000D02*
X184250000Y-154250000D01*
X202500000Y-154250000D02*
X202500000Y-169750000D01*
X184250000Y-154250000D02*
X184250000Y-169750000D01*
X202500000Y-189750000D02*
X184250000Y-189750000D01*
X202500000Y-174250000D02*
X184250000Y-174250000D01*
X202500000Y-174250000D02*
X202500000Y-189750000D01*
X184250000Y-174250000D02*
X184250000Y-189750000D01*
D10*
X150700000Y-137425000D02*
X150700000Y-138425000D01*
X152400000Y-138425000D02*
X152400000Y-137425000D01*
X159600000Y-137000000D02*
X159600000Y-139000000D01*
X159600000Y-137000000D02*
X156400000Y-137000000D01*
X156400000Y-139000000D02*
X159600000Y-139000000D01*
D12*
X173500000Y-143800000D02*
X173500000Y-139400000D01*
X166700000Y-143800000D02*
X173500000Y-143800000D01*
X166700000Y-139400000D02*
X166700000Y-143800000D01*
X173500000Y-139400000D02*
X166700000Y-139400000D01*
X173300000Y-137400000D02*
G75*
G03X173300000Y-137400000I-200000J0D01*
G01*
D10*
X180800000Y-186050000D02*
X180800000Y-183250000D01*
X182200000Y-186050000D02*
X182200000Y-183250000D01*
X180800000Y-186050000D02*
X182200000Y-186050000D01*
X119700000Y-157200000D02*
X118300000Y-157200000D01*
X118300000Y-157200000D02*
X118300000Y-160000000D01*
X119700000Y-157200000D02*
X119700000Y-160000000D01*
X119700000Y-137200000D02*
X119700000Y-140000000D01*
X118300000Y-137200000D02*
X118300000Y-140000000D01*
X119700000Y-137200000D02*
X118300000Y-137200000D01*
X180800000Y-166050000D02*
X182200000Y-166050000D01*
X182200000Y-166050000D02*
X182200000Y-163250000D01*
X180800000Y-166050000D02*
X180800000Y-163250000D01*
X119700000Y-177200000D02*
X119700000Y-180000000D01*
X118300000Y-177200000D02*
X118300000Y-180000000D01*
X119700000Y-177200000D02*
X118300000Y-177200000D01*
X182380000Y-167150000D02*
X182380000Y-168350000D01*
X180620000Y-168350000D02*
X180620000Y-167150000D01*
X180620000Y-188350000D02*
X180620000Y-187150000D01*
X182380000Y-187150000D02*
X182380000Y-188350000D01*
X118120000Y-176100000D02*
X118120000Y-174900000D01*
X119880000Y-174900000D02*
X119880000Y-176100000D01*
X119880000Y-154900000D02*
X119880000Y-156100000D01*
X118120000Y-156100000D02*
X118120000Y-154900000D01*
X118120000Y-136100000D02*
X118120000Y-134900000D01*
X119880000Y-134900000D02*
X119880000Y-136100000D01*
D11*
X161925000Y-100330000D02*
X161925000Y-99060000D01*
X161925000Y-99060000D02*
X169545000Y-99060000D01*
X169545000Y-99060000D02*
X169545000Y-100330000D01*
X160655000Y-111760000D02*
X160655000Y-115570000D01*
X160655000Y-115570000D02*
X163195000Y-115570000D01*
X163195000Y-115570000D02*
X163195000Y-111760000D01*
X163195000Y-111760000D02*
X160655000Y-111760000D01*
X161925000Y-105410000D02*
X169545000Y-105410000D01*
X169545000Y-105410000D02*
X169545000Y-100330000D01*
X161925000Y-105410000D02*
X161925000Y-100330000D01*
X160655000Y-106680000D02*
X160655000Y-109220000D01*
X160655000Y-109220000D02*
X163195000Y-109220000D01*
X163195000Y-109220000D02*
X163195000Y-106680000D01*
X163195000Y-106680000D02*
X160655000Y-106680000D01*
X168275000Y-133350000D02*
X163195000Y-133350000D01*
X163195000Y-133350000D02*
X163195000Y-130810000D01*
X163195000Y-130810000D02*
X168275000Y-130810000D01*
X168275000Y-130810000D02*
X168275000Y-133350000D01*
X160655000Y-127000000D02*
X170815000Y-127000000D01*
X170815000Y-118110000D02*
X160655000Y-118110000D01*
X170815000Y-127000000D02*
X170815000Y-118110000D01*
X160655000Y-127000000D02*
X160655000Y-118110000D01*
X174625000Y-100330000D02*
X174625000Y-135890000D01*
X174625000Y-135890000D02*
X156845000Y-135890000D01*
X156845000Y-135890000D02*
X156845000Y-100330000D01*
X156845000Y-100330000D02*
X174625000Y-100330000D01*
D10*
X146890000Y-130800000D02*
X141050000Y-130800000D01*
X147650000Y-130040000D02*
X146890000Y-130800000D01*
X146890000Y-124200000D02*
X147650000Y-124960000D01*
X141050000Y-124200000D02*
X146890000Y-124200000D01*
X147650000Y-130040000D02*
X147650000Y-128620000D01*
X147650000Y-124960000D02*
X147650000Y-126380000D01*
X141050000Y-130800000D02*
X141050000Y-128620000D01*
X141050000Y-124200000D02*
X141050000Y-126380000D01*
X185850000Y-131130000D02*
X184650000Y-131130000D01*
X184650000Y-129370000D02*
X185850000Y-129370000D01*
X132380000Y-111400000D02*
X132380000Y-112600000D01*
X130620000Y-112600000D02*
X130620000Y-111400000D01*
X145120000Y-112600000D02*
X145120000Y-111400000D01*
X146880000Y-111400000D02*
X146880000Y-112600000D01*
X149380000Y-111400000D02*
X149380000Y-112600000D01*
X147620000Y-112600000D02*
X147620000Y-111400000D01*
X116120000Y-112600000D02*
X116120000Y-111400000D01*
X117880000Y-111400000D02*
X117880000Y-112600000D01*
X189100000Y-122880000D02*
X187900000Y-122880000D01*
X187900000Y-121120000D02*
X189100000Y-121120000D01*
X187900000Y-106620000D02*
X189100000Y-106620000D01*
X189100000Y-108380000D02*
X187900000Y-108380000D01*
X184650000Y-126870000D02*
X185850000Y-126870000D01*
X185850000Y-128630000D02*
X184650000Y-128630000D01*
X133120000Y-112600000D02*
X133120000Y-111400000D01*
X134880000Y-111400000D02*
X134880000Y-112600000D01*
X120380000Y-111400000D02*
X120380000Y-112600000D01*
X118620000Y-112600000D02*
X118620000Y-111400000D01*
X187900000Y-123620000D02*
X189100000Y-123620000D01*
X189100000Y-125380000D02*
X187900000Y-125380000D01*
X189100000Y-110880000D02*
X187900000Y-110880000D01*
X187900000Y-109120000D02*
X189100000Y-109120000D01*
X137250000Y-119350000D02*
X137250000Y-118350000D01*
X135550000Y-118350000D02*
X135550000Y-119350000D01*
X134550000Y-123700000D02*
X133550000Y-123700000D01*
X133550000Y-125400000D02*
X134550000Y-125400000D01*
X132394999Y-116894999D02*
X133494999Y-116894999D01*
X132394999Y-116624999D02*
X132394999Y-116894999D01*
X130894999Y-116624999D02*
X132394999Y-116624999D01*
X132394999Y-123254999D02*
X135224999Y-123254999D01*
X132394999Y-123524999D02*
X132394999Y-123254999D01*
X130894999Y-123524999D02*
X132394999Y-123524999D01*
X176250000Y-136350000D02*
X178750000Y-136350000D01*
X176250000Y-133850000D02*
X176250000Y-136350000D01*
X181750000Y-124200000D02*
X181750000Y-129750000D01*
X178800000Y-124200000D02*
X181750000Y-124200000D01*
X178800000Y-123450000D02*
X178800000Y-124200000D01*
X181750000Y-135300000D02*
X181750000Y-129750000D01*
X178800000Y-135300000D02*
X181750000Y-135300000D01*
X178800000Y-136050000D02*
X178800000Y-135300000D01*
X176550000Y-123450000D02*
X176550000Y-125250000D01*
X177300000Y-123450000D02*
X176550000Y-123450000D01*
X177300000Y-125250000D02*
X177300000Y-123450000D01*
X176550000Y-125250000D02*
X177300000Y-125250000D01*
X176550000Y-134250000D02*
X176550000Y-136050000D01*
X177300000Y-134250000D02*
X176550000Y-134250000D01*
X177300000Y-136050000D02*
X177300000Y-134250000D01*
X176550000Y-136050000D02*
X177300000Y-136050000D01*
X176550000Y-126750000D02*
X176550000Y-132750000D01*
X177300000Y-126750000D02*
X176550000Y-126750000D01*
X177300000Y-132750000D02*
X177300000Y-126750000D01*
X176550000Y-132750000D02*
X177300000Y-132750000D01*
X176550000Y-123450000D02*
X176550000Y-136050000D01*
X182500000Y-123450000D02*
X176550000Y-123450000D01*
X182500000Y-136050000D02*
X182500000Y-123450000D01*
X176550000Y-136050000D02*
X182500000Y-136050000D01*
X147250000Y-98150000D02*
X153600000Y-98150000D01*
X153600000Y-98150000D02*
X153600000Y-109950000D01*
X153600000Y-109950000D02*
X152400000Y-109950000D01*
X152400000Y-109950000D02*
X152400000Y-105450000D01*
X152400000Y-105450000D02*
X147250000Y-105450000D01*
X147250000Y-98150000D02*
X140900000Y-98150000D01*
X140900000Y-98150000D02*
X140900000Y-109950000D01*
X140900000Y-109950000D02*
X142100000Y-109950000D01*
X142100000Y-109950000D02*
X142100000Y-105450000D01*
X142100000Y-105450000D02*
X147250000Y-105450000D01*
X151000000Y-109000000D02*
X151300000Y-109600000D01*
X151300000Y-109600000D02*
X150700000Y-109600000D01*
X150700000Y-109600000D02*
X151000000Y-109000000D01*
X136200000Y-109600000D02*
X136500000Y-109000000D01*
X136800000Y-109600000D02*
X136200000Y-109600000D01*
X136500000Y-109000000D02*
X136800000Y-109600000D01*
X127600000Y-105450000D02*
X132750000Y-105450000D01*
X127600000Y-109950000D02*
X127600000Y-105450000D01*
X126400000Y-109950000D02*
X127600000Y-109950000D01*
X126400000Y-98150000D02*
X126400000Y-109950000D01*
X132750000Y-98150000D02*
X126400000Y-98150000D01*
X137900000Y-105450000D02*
X132750000Y-105450000D01*
X137900000Y-109950000D02*
X137900000Y-105450000D01*
X139100000Y-109950000D02*
X137900000Y-109950000D01*
X139100000Y-98150000D02*
X139100000Y-109950000D01*
X132750000Y-98150000D02*
X139100000Y-98150000D01*
X118250000Y-98150000D02*
X124600000Y-98150000D01*
X124600000Y-98150000D02*
X124600000Y-109950000D01*
X124600000Y-109950000D02*
X123400000Y-109950000D01*
X123400000Y-109950000D02*
X123400000Y-105450000D01*
X123400000Y-105450000D02*
X118250000Y-105450000D01*
X118250000Y-98150000D02*
X111900000Y-98150000D01*
X111900000Y-98150000D02*
X111900000Y-109950000D01*
X111900000Y-109950000D02*
X113100000Y-109950000D01*
X113100000Y-109950000D02*
X113100000Y-105450000D01*
X113100000Y-105450000D02*
X118250000Y-105450000D01*
X122000000Y-109000000D02*
X122300000Y-109600000D01*
X122300000Y-109600000D02*
X121700000Y-109600000D01*
X121700000Y-109600000D02*
X122000000Y-109000000D01*
X190900000Y-126700000D02*
X191500000Y-127000000D01*
X190900000Y-127300000D02*
X190900000Y-126700000D01*
X191500000Y-127000000D02*
X190900000Y-127300000D01*
X195050000Y-118100000D02*
X195050000Y-123250000D01*
X190550000Y-118100000D02*
X195050000Y-118100000D01*
X190550000Y-116900000D02*
X190550000Y-118100000D01*
X202350000Y-116900000D02*
X190550000Y-116900000D01*
X202350000Y-123250000D02*
X202350000Y-116900000D01*
X195050000Y-128400000D02*
X195050000Y-123250000D01*
X190550000Y-128400000D02*
X195050000Y-128400000D01*
X190550000Y-129600000D02*
X190550000Y-128400000D01*
X202350000Y-129600000D02*
X190550000Y-129600000D01*
X202350000Y-123250000D02*
X202350000Y-129600000D01*
X190900000Y-112200000D02*
X191500000Y-112500000D01*
X190900000Y-112800000D02*
X190900000Y-112200000D01*
X191500000Y-112500000D02*
X190900000Y-112800000D01*
X195050000Y-103600000D02*
X195050000Y-108750000D01*
X190550000Y-103600000D02*
X195050000Y-103600000D01*
X190550000Y-102400000D02*
X190550000Y-103600000D01*
X202350000Y-102400000D02*
X190550000Y-102400000D01*
X202350000Y-108750000D02*
X202350000Y-102400000D01*
X195050000Y-113900000D02*
X195050000Y-108750000D01*
X190550000Y-113900000D02*
X195050000Y-113900000D01*
X190550000Y-115100000D02*
X190550000Y-113900000D01*
X202350000Y-115100000D02*
X190550000Y-115100000D01*
X202350000Y-108750000D02*
X202350000Y-115100000D01*
X173950000Y-141900000D02*
X173950000Y-142900000D01*
X175650000Y-142900000D02*
X175650000Y-141900000D01*
X152250000Y-133925000D02*
X152250000Y-132925000D01*
X150550000Y-132925000D02*
X150550000Y-133925000D01*
X97631222Y-111966787D02*
X97631222Y-127206787D01*
X115661222Y-127206787D02*
X106671222Y-127196787D01*
X115661222Y-127206787D02*
X115661222Y-111966787D01*
X115661222Y-111966787D02*
X106661222Y-111966787D01*
X104331222Y-127196787D02*
X97631222Y-127206787D01*
X104341222Y-111966787D02*
X97631222Y-111966787D01*
X155185000Y-150530000D02*
X155185000Y-151730000D01*
X153425000Y-151730000D02*
X153425000Y-150530000D01*
X153425000Y-147920000D02*
X153425000Y-146720000D01*
X155185000Y-146720000D02*
X155185000Y-147920000D01*
X145634461Y-138105109D02*
X147134461Y-138105109D01*
X147134461Y-138105109D02*
X147134461Y-137835109D01*
X147134461Y-137835109D02*
X149964461Y-137835109D01*
X145634461Y-131205109D02*
X147134461Y-131205109D01*
X147134461Y-131205109D02*
X147134461Y-131475109D01*
X147134461Y-131475109D02*
X148234461Y-131475109D01*
X117730000Y-183400000D02*
X117730000Y-185400000D01*
X119770000Y-185400000D02*
X119770000Y-183400000D01*
X120020000Y-165400000D02*
X120020000Y-163400000D01*
X117980000Y-163400000D02*
X117980000Y-165400000D01*
X119820000Y-145400000D02*
X119820000Y-143400000D01*
X117780000Y-143400000D02*
X117780000Y-145400000D01*
X180380000Y-157850000D02*
X180380000Y-159850000D01*
X182420000Y-159850000D02*
X182420000Y-157850000D01*
X180180000Y-177650000D02*
X180180000Y-179650000D01*
X182220000Y-179650000D02*
X182220000Y-177650000D01*
X118145000Y-171620000D02*
X119345000Y-171620000D01*
X119345000Y-173380000D02*
X118145000Y-173380000D01*
X118145000Y-151520000D02*
X119345000Y-151520000D01*
X119345000Y-153280000D02*
X118145000Y-153280000D01*
X118145000Y-131620000D02*
X119345000Y-131620000D01*
X119345000Y-133380000D02*
X118145000Y-133380000D01*
X181575000Y-171755000D02*
X180375000Y-171755000D01*
X180375000Y-169995000D02*
X181575000Y-169995000D01*
X181850000Y-191880000D02*
X180650000Y-191880000D01*
X180650000Y-190120000D02*
X181850000Y-190120000D01*
X202305001Y-148348343D02*
X202305001Y-133108343D01*
X184275001Y-133108343D02*
X193265001Y-133118343D01*
X184275001Y-133108343D02*
X184275001Y-148348343D01*
X184275001Y-148348343D02*
X193275001Y-148348343D01*
X195605001Y-133118343D02*
X202305001Y-133108343D01*
X195595001Y-148348343D02*
X202305001Y-148348343D01*
X179900000Y-138883344D02*
X181100000Y-138883344D01*
X181100000Y-140643344D02*
X179900000Y-140643344D01*
X179900000Y-141333344D02*
X181100000Y-141333344D01*
X181100000Y-143093344D02*
X179900000Y-143093344D01*
X179900000Y-143883344D02*
X181100000Y-143883344D01*
X181100000Y-145643344D02*
X179900000Y-145643344D01*
X179900000Y-146383344D02*
X181100000Y-146383344D01*
X181100000Y-148143344D02*
X179900000Y-148143344D01*
X119036223Y-125361786D02*
X117836223Y-125361786D01*
X117836223Y-123601786D02*
X119036223Y-123601786D01*
X119036223Y-122861786D02*
X117836223Y-122861786D01*
X117836223Y-121101786D02*
X119036223Y-121101786D01*
X119036223Y-120361786D02*
X117836223Y-120361786D01*
X117836223Y-118601786D02*
X119036223Y-118601786D01*
X119036223Y-117861786D02*
X117836223Y-117861786D01*
X117836223Y-116101786D02*
X119036223Y-116101786D01*
X154940000Y-156200000D02*
X162060000Y-156200000D01*
X154940000Y-162300000D02*
X162060000Y-162300000D01*
X164145000Y-173850000D02*
X172545000Y-173850000D01*
X164145000Y-178650000D02*
X172545000Y-178650000D01*
X164145000Y-173850000D02*
X164145000Y-178650000D01*
X164145000Y-153850000D02*
X172545000Y-153850000D01*
X164145000Y-158650000D02*
X172545000Y-158650000D01*
X164145000Y-153850000D02*
X164145000Y-158650000D01*
X135755000Y-149400000D02*
X127355000Y-149400000D01*
X135755000Y-144600000D02*
X127355000Y-144600000D01*
X135755000Y-149400000D02*
X135755000Y-144600000D01*
X135755000Y-169400000D02*
X127355000Y-169400000D01*
X135755000Y-164600000D02*
X127355000Y-164600000D01*
X135755000Y-169400000D02*
X135755000Y-164600000D01*
X135855000Y-189300000D02*
X127455000Y-189300000D01*
X135855000Y-184500000D02*
X127455000Y-184500000D01*
X135855000Y-189300000D02*
X135855000Y-184500000D01*
X154940000Y-171200000D02*
X162060000Y-171200000D01*
X154940000Y-177300000D02*
X162060000Y-177300000D01*
X144760000Y-147050000D02*
X137640000Y-147050000D01*
X144760000Y-140950000D02*
X137640000Y-140950000D01*
X144760000Y-167050000D02*
X137640000Y-167050000D01*
X144760000Y-160950000D02*
X137640000Y-160950000D01*
X144560000Y-181050000D02*
X137440000Y-181050000D01*
X144560000Y-174950000D02*
X137440000Y-174950000D01*
D11*
X178350000Y-179900000D02*
X165650000Y-179900000D01*
X165650000Y-179900000D02*
X165650000Y-192600000D01*
X165650000Y-192600000D02*
X178350000Y-192600000D01*
X178350000Y-179900000D02*
X178350000Y-192600000D01*
X167200000Y-179900000D02*
X165650000Y-181450000D01*
X178350000Y-159900000D02*
X165650000Y-159900000D01*
X165650000Y-159900000D02*
X165650000Y-172600000D01*
X165650000Y-172600000D02*
X178350000Y-172600000D01*
X178350000Y-159900000D02*
X178350000Y-172600000D01*
X167200000Y-159900000D02*
X165650000Y-161450000D01*
X121650000Y-143350000D02*
X134350000Y-143350000D01*
X134350000Y-143350000D02*
X134350000Y-130650000D01*
X134350000Y-130650000D02*
X121650000Y-130650000D01*
X121650000Y-143350000D02*
X121650000Y-130650000D01*
X132800000Y-143350000D02*
X134350000Y-141800000D01*
X121650000Y-163350000D02*
X134350000Y-163350000D01*
X134350000Y-163350000D02*
X134350000Y-150650000D01*
X134350000Y-150650000D02*
X121650000Y-150650000D01*
X121650000Y-163350000D02*
X121650000Y-150650000D01*
X132800000Y-163350000D02*
X134350000Y-161800000D01*
X121650000Y-183350000D02*
X134350000Y-183350000D01*
X134350000Y-183350000D02*
X134350000Y-170650000D01*
X134350000Y-170650000D02*
X121650000Y-170650000D01*
X121650000Y-183350000D02*
X121650000Y-170650000D01*
X132800000Y-183350000D02*
X134350000Y-181800000D01*
X141057142Y-113202380D02*
X140723809Y-112726190D01*
X140485714Y-113202380D02*
X140485714Y-112202380D01*
X140866666Y-112202380D01*
X140961904Y-112250000D01*
X141009523Y-112297619D01*
X141057142Y-112392857D01*
X141057142Y-112535714D01*
X141009523Y-112630952D01*
X140961904Y-112678571D01*
X140866666Y-112726190D01*
X140485714Y-112726190D01*
X141390476Y-112202380D02*
X142009523Y-112202380D01*
X141676190Y-112583333D01*
X141819047Y-112583333D01*
X141914285Y-112630952D01*
X141961904Y-112678571D01*
X142009523Y-112773809D01*
X142009523Y-113011904D01*
X141961904Y-113107142D01*
X141914285Y-113154761D01*
X141819047Y-113202380D01*
X141533333Y-113202380D01*
X141438095Y-113154761D01*
X141390476Y-113107142D01*
X142866666Y-112202380D02*
X142676190Y-112202380D01*
X142580952Y-112250000D01*
X142533333Y-112297619D01*
X142438095Y-112440476D01*
X142390476Y-112630952D01*
X142390476Y-113011904D01*
X142438095Y-113107142D01*
X142485714Y-113154761D01*
X142580952Y-113202380D01*
X142771428Y-113202380D01*
X142866666Y-113154761D01*
X142914285Y-113107142D01*
X142961904Y-113011904D01*
X142961904Y-112773809D01*
X142914285Y-112678571D01*
X142866666Y-112630952D01*
X142771428Y-112583333D01*
X142580952Y-112583333D01*
X142485714Y-112630952D01*
X142438095Y-112678571D01*
X142390476Y-112773809D01*
X141057142Y-118402380D02*
X140723809Y-117926190D01*
X140485714Y-118402380D02*
X140485714Y-117402380D01*
X140866666Y-117402380D01*
X140961904Y-117450000D01*
X141009523Y-117497619D01*
X141057142Y-117592857D01*
X141057142Y-117735714D01*
X141009523Y-117830952D01*
X140961904Y-117878571D01*
X140866666Y-117926190D01*
X140485714Y-117926190D01*
X141390476Y-117402380D02*
X142009523Y-117402380D01*
X141676190Y-117783333D01*
X141819047Y-117783333D01*
X141914285Y-117830952D01*
X141961904Y-117878571D01*
X142009523Y-117973809D01*
X142009523Y-118211904D01*
X141961904Y-118307142D01*
X141914285Y-118354761D01*
X141819047Y-118402380D01*
X141533333Y-118402380D01*
X141438095Y-118354761D01*
X141390476Y-118307142D01*
X142914285Y-117402380D02*
X142438095Y-117402380D01*
X142390476Y-117878571D01*
X142438095Y-117830952D01*
X142533333Y-117783333D01*
X142771428Y-117783333D01*
X142866666Y-117830952D01*
X142914285Y-117878571D01*
X142961904Y-117973809D01*
X142961904Y-118211904D01*
X142914285Y-118307142D01*
X142866666Y-118354761D01*
X142771428Y-118402380D01*
X142533333Y-118402380D01*
X142438095Y-118354761D01*
X142390476Y-118307142D01*
X152257142Y-121202380D02*
X151923809Y-120726190D01*
X151685714Y-121202380D02*
X151685714Y-120202380D01*
X152066666Y-120202380D01*
X152161904Y-120250000D01*
X152209523Y-120297619D01*
X152257142Y-120392857D01*
X152257142Y-120535714D01*
X152209523Y-120630952D01*
X152161904Y-120678571D01*
X152066666Y-120726190D01*
X151685714Y-120726190D01*
X152590476Y-120202380D02*
X153209523Y-120202380D01*
X152876190Y-120583333D01*
X153019047Y-120583333D01*
X153114285Y-120630952D01*
X153161904Y-120678571D01*
X153209523Y-120773809D01*
X153209523Y-121011904D01*
X153161904Y-121107142D01*
X153114285Y-121154761D01*
X153019047Y-121202380D01*
X152733333Y-121202380D01*
X152638095Y-121154761D01*
X152590476Y-121107142D01*
X154066666Y-120535714D02*
X154066666Y-121202380D01*
X153828571Y-120154761D02*
X153590476Y-120869047D01*
X154209523Y-120869047D01*
X143857142Y-114952380D02*
X143523809Y-114476190D01*
X143285714Y-114952380D02*
X143285714Y-113952380D01*
X143666666Y-113952380D01*
X143761904Y-114000000D01*
X143809523Y-114047619D01*
X143857142Y-114142857D01*
X143857142Y-114285714D01*
X143809523Y-114380952D01*
X143761904Y-114428571D01*
X143666666Y-114476190D01*
X143285714Y-114476190D01*
X144190476Y-113952380D02*
X144809523Y-113952380D01*
X144476190Y-114333333D01*
X144619047Y-114333333D01*
X144714285Y-114380952D01*
X144761904Y-114428571D01*
X144809523Y-114523809D01*
X144809523Y-114761904D01*
X144761904Y-114857142D01*
X144714285Y-114904761D01*
X144619047Y-114952380D01*
X144333333Y-114952380D01*
X144238095Y-114904761D01*
X144190476Y-114857142D01*
X145142857Y-113952380D02*
X145761904Y-113952380D01*
X145428571Y-114333333D01*
X145571428Y-114333333D01*
X145666666Y-114380952D01*
X145714285Y-114428571D01*
X145761904Y-114523809D01*
X145761904Y-114761904D01*
X145714285Y-114857142D01*
X145666666Y-114904761D01*
X145571428Y-114952380D01*
X145285714Y-114952380D01*
X145190476Y-114904761D01*
X145142857Y-114857142D01*
X152257142Y-114407142D02*
X152209523Y-114454761D01*
X152066666Y-114502380D01*
X151971428Y-114502380D01*
X151828571Y-114454761D01*
X151733333Y-114359523D01*
X151685714Y-114264285D01*
X151638095Y-114073809D01*
X151638095Y-113930952D01*
X151685714Y-113740476D01*
X151733333Y-113645238D01*
X151828571Y-113550000D01*
X151971428Y-113502380D01*
X152066666Y-113502380D01*
X152209523Y-113550000D01*
X152257142Y-113597619D01*
X153209523Y-114502380D02*
X152638095Y-114502380D01*
X152923809Y-114502380D02*
X152923809Y-113502380D01*
X152828571Y-113645238D01*
X152733333Y-113740476D01*
X152638095Y-113788095D01*
X153542857Y-113502380D02*
X154209523Y-113502380D01*
X153780952Y-114502380D01*
X150011904Y-123952380D02*
X150011904Y-124761904D01*
X150059523Y-124857142D01*
X150107142Y-124904761D01*
X150202380Y-124952380D01*
X150392857Y-124952380D01*
X150488095Y-124904761D01*
X150535714Y-124857142D01*
X150583333Y-124761904D01*
X150583333Y-123952380D01*
X151583333Y-124952380D02*
X151011904Y-124952380D01*
X151297619Y-124952380D02*
X151297619Y-123952380D01*
X151202380Y-124095238D01*
X151107142Y-124190476D01*
X151011904Y-124238095D01*
X152202380Y-123952380D02*
X152297619Y-123952380D01*
X152392857Y-124000000D01*
X152440476Y-124047619D01*
X152488095Y-124142857D01*
X152535714Y-124333333D01*
X152535714Y-124571428D01*
X152488095Y-124761904D01*
X152440476Y-124857142D01*
X152392857Y-124904761D01*
X152297619Y-124952380D01*
X152202380Y-124952380D01*
X152107142Y-124904761D01*
X152059523Y-124857142D01*
X152011904Y-124761904D01*
X151964285Y-124571428D01*
X151964285Y-124333333D01*
X152011904Y-124142857D01*
X152059523Y-124047619D01*
X152107142Y-124000000D01*
X152202380Y-123952380D01*
X174952380Y-118059523D02*
X175666666Y-118059523D01*
X175809523Y-118107142D01*
X175904761Y-118202380D01*
X175952380Y-118345238D01*
X175952380Y-118440476D01*
X175952380Y-117059523D02*
X175952380Y-117630952D01*
X175952380Y-117345238D02*
X174952380Y-117345238D01*
X175095238Y-117440476D01*
X175190476Y-117535714D01*
X175238095Y-117630952D01*
X174952380Y-116440476D02*
X174952380Y-116345238D01*
X175000000Y-116250000D01*
X175047619Y-116202380D01*
X175142857Y-116154761D01*
X175333333Y-116107142D01*
X175571428Y-116107142D01*
X175761904Y-116154761D01*
X175857142Y-116202380D01*
X175904761Y-116250000D01*
X175952380Y-116345238D01*
X175952380Y-116440476D01*
X175904761Y-116535714D01*
X175857142Y-116583333D01*
X175761904Y-116630952D01*
X175571428Y-116678571D01*
X175333333Y-116678571D01*
X175142857Y-116630952D01*
X175047619Y-116583333D01*
X175000000Y-116535714D01*
X174952380Y-116440476D01*
X149666666Y-194402380D02*
X149666666Y-195116666D01*
X149619047Y-195259523D01*
X149523809Y-195354761D01*
X149380952Y-195402380D01*
X149285714Y-195402380D01*
X150047619Y-194402380D02*
X150714285Y-194402380D01*
X150285714Y-195402380D01*
X102852380Y-181333333D02*
X103566666Y-181333333D01*
X103709523Y-181380952D01*
X103804761Y-181476190D01*
X103852380Y-181619047D01*
X103852380Y-181714285D01*
X103852380Y-180333333D02*
X103852380Y-180904761D01*
X103852380Y-180619047D02*
X102852380Y-180619047D01*
X102995238Y-180714285D01*
X103090476Y-180809523D01*
X103138095Y-180904761D01*
X102852380Y-161333333D02*
X103566666Y-161333333D01*
X103709523Y-161380952D01*
X103804761Y-161476190D01*
X103852380Y-161619047D01*
X103852380Y-161714285D01*
X102947619Y-160904761D02*
X102900000Y-160857142D01*
X102852380Y-160761904D01*
X102852380Y-160523809D01*
X102900000Y-160428571D01*
X102947619Y-160380952D01*
X103042857Y-160333333D01*
X103138095Y-160333333D01*
X103280952Y-160380952D01*
X103852380Y-160952380D01*
X103852380Y-160333333D01*
X102852380Y-141333333D02*
X103566666Y-141333333D01*
X103709523Y-141380952D01*
X103804761Y-141476190D01*
X103852380Y-141619047D01*
X103852380Y-141714285D01*
X102852380Y-140952380D02*
X102852380Y-140333333D01*
X103233333Y-140666666D01*
X103233333Y-140523809D01*
X103280952Y-140428571D01*
X103328571Y-140380952D01*
X103423809Y-140333333D01*
X103661904Y-140333333D01*
X103757142Y-140380952D01*
X103804761Y-140428571D01*
X103852380Y-140523809D01*
X103852380Y-140809523D01*
X103804761Y-140904761D01*
X103757142Y-140952380D01*
X196052380Y-162333333D02*
X196766666Y-162333333D01*
X196909523Y-162380952D01*
X197004761Y-162476190D01*
X197052380Y-162619047D01*
X197052380Y-162714285D01*
X196052380Y-161380952D02*
X196052380Y-161857142D01*
X196528571Y-161904761D01*
X196480952Y-161857142D01*
X196433333Y-161761904D01*
X196433333Y-161523809D01*
X196480952Y-161428571D01*
X196528571Y-161380952D01*
X196623809Y-161333333D01*
X196861904Y-161333333D01*
X196957142Y-161380952D01*
X197004761Y-161428571D01*
X197052380Y-161523809D01*
X197052380Y-161761904D01*
X197004761Y-161857142D01*
X196957142Y-161904761D01*
X196052380Y-182333333D02*
X196766666Y-182333333D01*
X196909523Y-182380952D01*
X197004761Y-182476190D01*
X197052380Y-182619047D01*
X197052380Y-182714285D01*
X196052380Y-181428571D02*
X196052380Y-181619047D01*
X196100000Y-181714285D01*
X196147619Y-181761904D01*
X196290476Y-181857142D01*
X196480952Y-181904761D01*
X196861904Y-181904761D01*
X196957142Y-181857142D01*
X197004761Y-181809523D01*
X197052380Y-181714285D01*
X197052380Y-181523809D01*
X197004761Y-181428571D01*
X196957142Y-181380952D01*
X196861904Y-181333333D01*
X196623809Y-181333333D01*
X196528571Y-181380952D01*
X196480952Y-181428571D01*
X196433333Y-181523809D01*
X196433333Y-181714285D01*
X196480952Y-181809523D01*
X196528571Y-181857142D01*
X196623809Y-181904761D01*
X151807142Y-141767857D02*
X151854761Y-141815476D01*
X151902380Y-141958333D01*
X151902380Y-142053571D01*
X151854761Y-142196428D01*
X151759523Y-142291666D01*
X151664285Y-142339285D01*
X151473809Y-142386904D01*
X151330952Y-142386904D01*
X151140476Y-142339285D01*
X151045238Y-142291666D01*
X150950000Y-142196428D01*
X150902380Y-142053571D01*
X150902380Y-141958333D01*
X150950000Y-141815476D01*
X150997619Y-141767857D01*
X151902380Y-140815476D02*
X151902380Y-141386904D01*
X151902380Y-141101190D02*
X150902380Y-141101190D01*
X151045238Y-141196428D01*
X151140476Y-141291666D01*
X151188095Y-141386904D01*
X151235714Y-139958333D02*
X151902380Y-139958333D01*
X150854761Y-140196428D02*
X151569047Y-140434523D01*
X151569047Y-139815476D01*
X156661904Y-140452380D02*
X156661904Y-139452380D01*
X156900000Y-139452380D01*
X157042857Y-139500000D01*
X157138095Y-139595238D01*
X157185714Y-139690476D01*
X157233333Y-139880952D01*
X157233333Y-140023809D01*
X157185714Y-140214285D01*
X157138095Y-140309523D01*
X157042857Y-140404761D01*
X156900000Y-140452380D01*
X156661904Y-140452380D01*
X158090476Y-139452380D02*
X157900000Y-139452380D01*
X157804761Y-139500000D01*
X157757142Y-139547619D01*
X157661904Y-139690476D01*
X157614285Y-139880952D01*
X157614285Y-140261904D01*
X157661904Y-140357142D01*
X157709523Y-140404761D01*
X157804761Y-140452380D01*
X157995238Y-140452380D01*
X158090476Y-140404761D01*
X158138095Y-140357142D01*
X158185714Y-140261904D01*
X158185714Y-140023809D01*
X158138095Y-139928571D01*
X158090476Y-139880952D01*
X157995238Y-139833333D01*
X157804761Y-139833333D01*
X157709523Y-139880952D01*
X157661904Y-139928571D01*
X157614285Y-140023809D01*
D13*
X165582714Y-142305571D02*
X166199571Y-142305571D01*
X166272142Y-142269285D01*
X166308428Y-142233000D01*
X166344714Y-142160428D01*
X166344714Y-142015285D01*
X166308428Y-141942714D01*
X166272142Y-141906428D01*
X166199571Y-141870142D01*
X165582714Y-141870142D01*
X165909285Y-141398428D02*
X165873000Y-141471000D01*
X165836714Y-141507285D01*
X165764142Y-141543571D01*
X165727857Y-141543571D01*
X165655285Y-141507285D01*
X165619000Y-141471000D01*
X165582714Y-141398428D01*
X165582714Y-141253285D01*
X165619000Y-141180714D01*
X165655285Y-141144428D01*
X165727857Y-141108142D01*
X165764142Y-141108142D01*
X165836714Y-141144428D01*
X165873000Y-141180714D01*
X165909285Y-141253285D01*
X165909285Y-141398428D01*
X165945571Y-141471000D01*
X165981857Y-141507285D01*
X166054428Y-141543571D01*
X166199571Y-141543571D01*
X166272142Y-141507285D01*
X166308428Y-141471000D01*
X166344714Y-141398428D01*
X166344714Y-141253285D01*
X166308428Y-141180714D01*
X166272142Y-141144428D01*
X166199571Y-141108142D01*
X166054428Y-141108142D01*
X165981857Y-141144428D01*
X165945571Y-141180714D01*
X165909285Y-141253285D01*
D11*
X179952380Y-185238095D02*
X178952380Y-185238095D01*
X178952380Y-185000000D01*
X179000000Y-184857142D01*
X179095238Y-184761904D01*
X179190476Y-184714285D01*
X179380952Y-184666666D01*
X179523809Y-184666666D01*
X179714285Y-184714285D01*
X179809523Y-184761904D01*
X179904761Y-184857142D01*
X179952380Y-185000000D01*
X179952380Y-185238095D01*
X179047619Y-184285714D02*
X179000000Y-184238095D01*
X178952380Y-184142857D01*
X178952380Y-183904761D01*
X179000000Y-183809523D01*
X179047619Y-183761904D01*
X179142857Y-183714285D01*
X179238095Y-183714285D01*
X179380952Y-183761904D01*
X179952380Y-184333333D01*
X179952380Y-183714285D01*
X121452380Y-159738095D02*
X120452380Y-159738095D01*
X120452380Y-159500000D01*
X120500000Y-159357142D01*
X120595238Y-159261904D01*
X120690476Y-159214285D01*
X120880952Y-159166666D01*
X121023809Y-159166666D01*
X121214285Y-159214285D01*
X121309523Y-159261904D01*
X121404761Y-159357142D01*
X121452380Y-159500000D01*
X121452380Y-159738095D01*
X120785714Y-158309523D02*
X121452380Y-158309523D01*
X120404761Y-158547619D02*
X121119047Y-158785714D01*
X121119047Y-158166666D01*
X121452380Y-139738095D02*
X120452380Y-139738095D01*
X120452380Y-139500000D01*
X120500000Y-139357142D01*
X120595238Y-139261904D01*
X120690476Y-139214285D01*
X120880952Y-139166666D01*
X121023809Y-139166666D01*
X121214285Y-139214285D01*
X121309523Y-139261904D01*
X121404761Y-139357142D01*
X121452380Y-139500000D01*
X121452380Y-139738095D01*
X120452380Y-138261904D02*
X120452380Y-138738095D01*
X120928571Y-138785714D01*
X120880952Y-138738095D01*
X120833333Y-138642857D01*
X120833333Y-138404761D01*
X120880952Y-138309523D01*
X120928571Y-138261904D01*
X121023809Y-138214285D01*
X121261904Y-138214285D01*
X121357142Y-138261904D01*
X121404761Y-138309523D01*
X121452380Y-138404761D01*
X121452380Y-138642857D01*
X121404761Y-138738095D01*
X121357142Y-138785714D01*
X180452380Y-164988095D02*
X179452380Y-164988095D01*
X179452380Y-164750000D01*
X179500000Y-164607142D01*
X179595238Y-164511904D01*
X179690476Y-164464285D01*
X179880952Y-164416666D01*
X180023809Y-164416666D01*
X180214285Y-164464285D01*
X180309523Y-164511904D01*
X180404761Y-164607142D01*
X180452380Y-164750000D01*
X180452380Y-164988095D01*
X180452380Y-163464285D02*
X180452380Y-164035714D01*
X180452380Y-163750000D02*
X179452380Y-163750000D01*
X179595238Y-163845238D01*
X179690476Y-163940476D01*
X179738095Y-164035714D01*
X121452380Y-179738095D02*
X120452380Y-179738095D01*
X120452380Y-179500000D01*
X120500000Y-179357142D01*
X120595238Y-179261904D01*
X120690476Y-179214285D01*
X120880952Y-179166666D01*
X121023809Y-179166666D01*
X121214285Y-179214285D01*
X121309523Y-179261904D01*
X121404761Y-179357142D01*
X121452380Y-179500000D01*
X121452380Y-179738095D01*
X120452380Y-178833333D02*
X120452380Y-178214285D01*
X120833333Y-178547619D01*
X120833333Y-178404761D01*
X120880952Y-178309523D01*
X120928571Y-178261904D01*
X121023809Y-178214285D01*
X121261904Y-178214285D01*
X121357142Y-178261904D01*
X121404761Y-178309523D01*
X121452380Y-178404761D01*
X121452380Y-178690476D01*
X121404761Y-178785714D01*
X121357142Y-178833333D01*
X192666666Y-190252380D02*
X192666666Y-189252380D01*
X193000000Y-189966666D01*
X193333333Y-189252380D01*
X193333333Y-190252380D01*
X193809523Y-190252380D02*
X193809523Y-189252380D01*
X193809523Y-189728571D02*
X194380952Y-189728571D01*
X194380952Y-190252380D02*
X194380952Y-189252380D01*
X195285714Y-189585714D02*
X195285714Y-190252380D01*
X195047619Y-189204761D02*
X194809523Y-189919047D01*
X195428571Y-189919047D01*
X179666666Y-102252380D02*
X179666666Y-101252380D01*
X180000000Y-101966666D01*
X180333333Y-101252380D01*
X180333333Y-102252380D01*
X180809523Y-102252380D02*
X180809523Y-101252380D01*
X180809523Y-101728571D02*
X181380952Y-101728571D01*
X181380952Y-102252380D02*
X181380952Y-101252380D01*
X181809523Y-101347619D02*
X181857142Y-101300000D01*
X181952380Y-101252380D01*
X182190476Y-101252380D01*
X182285714Y-101300000D01*
X182333333Y-101347619D01*
X182380952Y-101442857D01*
X182380952Y-101538095D01*
X182333333Y-101680952D01*
X181761904Y-102252380D01*
X182380952Y-102252380D01*
X120666666Y-190252380D02*
X120666666Y-189252380D01*
X121000000Y-189966666D01*
X121333333Y-189252380D01*
X121333333Y-190252380D01*
X121809523Y-190252380D02*
X121809523Y-189252380D01*
X121809523Y-189728571D02*
X122380952Y-189728571D01*
X122380952Y-190252380D02*
X122380952Y-189252380D01*
X123380952Y-190252380D02*
X122809523Y-190252380D01*
X123095238Y-190252380D02*
X123095238Y-189252380D01*
X123000000Y-189395238D01*
X122904761Y-189490476D01*
X122809523Y-189538095D01*
X104666666Y-102252380D02*
X104666666Y-101252380D01*
X105000000Y-101966666D01*
X105333333Y-101252380D01*
X105333333Y-102252380D01*
X105809523Y-102252380D02*
X105809523Y-101252380D01*
X105809523Y-101728571D02*
X106380952Y-101728571D01*
X106380952Y-102252380D02*
X106380952Y-101252380D01*
X106761904Y-101252380D02*
X107380952Y-101252380D01*
X107047619Y-101633333D01*
X107190476Y-101633333D01*
X107285714Y-101680952D01*
X107333333Y-101728571D01*
X107380952Y-101823809D01*
X107380952Y-102061904D01*
X107333333Y-102157142D01*
X107285714Y-102204761D01*
X107190476Y-102252380D01*
X106904761Y-102252380D01*
X106809523Y-102204761D01*
X106761904Y-102157142D01*
X183952380Y-168392857D02*
X183476190Y-168726190D01*
X183952380Y-168964285D02*
X182952380Y-168964285D01*
X182952380Y-168583333D01*
X183000000Y-168488095D01*
X183047619Y-168440476D01*
X183142857Y-168392857D01*
X183285714Y-168392857D01*
X183380952Y-168440476D01*
X183428571Y-168488095D01*
X183476190Y-168583333D01*
X183476190Y-168964285D01*
X183047619Y-168011904D02*
X183000000Y-167964285D01*
X182952380Y-167869047D01*
X182952380Y-167630952D01*
X183000000Y-167535714D01*
X183047619Y-167488095D01*
X183142857Y-167440476D01*
X183238095Y-167440476D01*
X183380952Y-167488095D01*
X183952380Y-168059523D01*
X183952380Y-167440476D01*
X183380952Y-166869047D02*
X183333333Y-166964285D01*
X183285714Y-167011904D01*
X183190476Y-167059523D01*
X183142857Y-167059523D01*
X183047619Y-167011904D01*
X183000000Y-166964285D01*
X182952380Y-166869047D01*
X182952380Y-166678571D01*
X183000000Y-166583333D01*
X183047619Y-166535714D01*
X183142857Y-166488095D01*
X183190476Y-166488095D01*
X183285714Y-166535714D01*
X183333333Y-166583333D01*
X183380952Y-166678571D01*
X183380952Y-166869047D01*
X183428571Y-166964285D01*
X183476190Y-167011904D01*
X183571428Y-167059523D01*
X183761904Y-167059523D01*
X183857142Y-167011904D01*
X183904761Y-166964285D01*
X183952380Y-166869047D01*
X183952380Y-166678571D01*
X183904761Y-166583333D01*
X183857142Y-166535714D01*
X183761904Y-166488095D01*
X183571428Y-166488095D01*
X183476190Y-166535714D01*
X183428571Y-166583333D01*
X183380952Y-166678571D01*
X183952380Y-188392857D02*
X183476190Y-188726190D01*
X183952380Y-188964285D02*
X182952380Y-188964285D01*
X182952380Y-188583333D01*
X183000000Y-188488095D01*
X183047619Y-188440476D01*
X183142857Y-188392857D01*
X183285714Y-188392857D01*
X183380952Y-188440476D01*
X183428571Y-188488095D01*
X183476190Y-188583333D01*
X183476190Y-188964285D01*
X183047619Y-188011904D02*
X183000000Y-187964285D01*
X182952380Y-187869047D01*
X182952380Y-187630952D01*
X183000000Y-187535714D01*
X183047619Y-187488095D01*
X183142857Y-187440476D01*
X183238095Y-187440476D01*
X183380952Y-187488095D01*
X183952380Y-188059523D01*
X183952380Y-187440476D01*
X183952380Y-186964285D02*
X183952380Y-186773809D01*
X183904761Y-186678571D01*
X183857142Y-186630952D01*
X183714285Y-186535714D01*
X183523809Y-186488095D01*
X183142857Y-186488095D01*
X183047619Y-186535714D01*
X183000000Y-186583333D01*
X182952380Y-186678571D01*
X182952380Y-186869047D01*
X183000000Y-186964285D01*
X183047619Y-187011904D01*
X183142857Y-187059523D01*
X183380952Y-187059523D01*
X183476190Y-187011904D01*
X183523809Y-186964285D01*
X183571428Y-186869047D01*
X183571428Y-186678571D01*
X183523809Y-186583333D01*
X183476190Y-186535714D01*
X183380952Y-186488095D01*
X117452380Y-176142857D02*
X116976190Y-176476190D01*
X117452380Y-176714285D02*
X116452380Y-176714285D01*
X116452380Y-176333333D01*
X116500000Y-176238095D01*
X116547619Y-176190476D01*
X116642857Y-176142857D01*
X116785714Y-176142857D01*
X116880952Y-176190476D01*
X116928571Y-176238095D01*
X116976190Y-176333333D01*
X116976190Y-176714285D01*
X116452380Y-175809523D02*
X116452380Y-175190476D01*
X116833333Y-175523809D01*
X116833333Y-175380952D01*
X116880952Y-175285714D01*
X116928571Y-175238095D01*
X117023809Y-175190476D01*
X117261904Y-175190476D01*
X117357142Y-175238095D01*
X117404761Y-175285714D01*
X117452380Y-175380952D01*
X117452380Y-175666666D01*
X117404761Y-175761904D01*
X117357142Y-175809523D01*
X116452380Y-174571428D02*
X116452380Y-174476190D01*
X116500000Y-174380952D01*
X116547619Y-174333333D01*
X116642857Y-174285714D01*
X116833333Y-174238095D01*
X117071428Y-174238095D01*
X117261904Y-174285714D01*
X117357142Y-174333333D01*
X117404761Y-174380952D01*
X117452380Y-174476190D01*
X117452380Y-174571428D01*
X117404761Y-174666666D01*
X117357142Y-174714285D01*
X117261904Y-174761904D01*
X117071428Y-174809523D01*
X116833333Y-174809523D01*
X116642857Y-174761904D01*
X116547619Y-174714285D01*
X116500000Y-174666666D01*
X116452380Y-174571428D01*
X117452380Y-156642857D02*
X116976190Y-156976190D01*
X117452380Y-157214285D02*
X116452380Y-157214285D01*
X116452380Y-156833333D01*
X116500000Y-156738095D01*
X116547619Y-156690476D01*
X116642857Y-156642857D01*
X116785714Y-156642857D01*
X116880952Y-156690476D01*
X116928571Y-156738095D01*
X116976190Y-156833333D01*
X116976190Y-157214285D01*
X116452380Y-156309523D02*
X116452380Y-155690476D01*
X116833333Y-156023809D01*
X116833333Y-155880952D01*
X116880952Y-155785714D01*
X116928571Y-155738095D01*
X117023809Y-155690476D01*
X117261904Y-155690476D01*
X117357142Y-155738095D01*
X117404761Y-155785714D01*
X117452380Y-155880952D01*
X117452380Y-156166666D01*
X117404761Y-156261904D01*
X117357142Y-156309523D01*
X117452380Y-154738095D02*
X117452380Y-155309523D01*
X117452380Y-155023809D02*
X116452380Y-155023809D01*
X116595238Y-155119047D01*
X116690476Y-155214285D01*
X116738095Y-155309523D01*
X117802380Y-136142857D02*
X117326190Y-136476190D01*
X117802380Y-136714285D02*
X116802380Y-136714285D01*
X116802380Y-136333333D01*
X116850000Y-136238095D01*
X116897619Y-136190476D01*
X116992857Y-136142857D01*
X117135714Y-136142857D01*
X117230952Y-136190476D01*
X117278571Y-136238095D01*
X117326190Y-136333333D01*
X117326190Y-136714285D01*
X116802380Y-135809523D02*
X116802380Y-135190476D01*
X117183333Y-135523809D01*
X117183333Y-135380952D01*
X117230952Y-135285714D01*
X117278571Y-135238095D01*
X117373809Y-135190476D01*
X117611904Y-135190476D01*
X117707142Y-135238095D01*
X117754761Y-135285714D01*
X117802380Y-135380952D01*
X117802380Y-135666666D01*
X117754761Y-135761904D01*
X117707142Y-135809523D01*
X116897619Y-134809523D02*
X116850000Y-134761904D01*
X116802380Y-134666666D01*
X116802380Y-134428571D01*
X116850000Y-134333333D01*
X116897619Y-134285714D01*
X116992857Y-134238095D01*
X117088095Y-134238095D01*
X117230952Y-134285714D01*
X117802380Y-134857142D01*
X117802380Y-134238095D01*
X175347380Y-118871904D02*
X176156904Y-118871904D01*
X176252142Y-118824285D01*
X176299761Y-118776666D01*
X176347380Y-118681428D01*
X176347380Y-118490952D01*
X176299761Y-118395714D01*
X176252142Y-118348095D01*
X176156904Y-118300476D01*
X175347380Y-118300476D01*
X175347380Y-117919523D02*
X175347380Y-117252857D01*
X176347380Y-117681428D01*
X139357142Y-128392857D02*
X139404761Y-128440476D01*
X139452380Y-128583333D01*
X139452380Y-128678571D01*
X139404761Y-128821428D01*
X139309523Y-128916666D01*
X139214285Y-128964285D01*
X139023809Y-129011904D01*
X138880952Y-129011904D01*
X138690476Y-128964285D01*
X138595238Y-128916666D01*
X138500000Y-128821428D01*
X138452380Y-128678571D01*
X138452380Y-128583333D01*
X138500000Y-128440476D01*
X138547619Y-128392857D01*
X139452380Y-127440476D02*
X139452380Y-128011904D01*
X139452380Y-127726190D02*
X138452380Y-127726190D01*
X138595238Y-127821428D01*
X138690476Y-127916666D01*
X138738095Y-128011904D01*
X138452380Y-126583333D02*
X138452380Y-126773809D01*
X138500000Y-126869047D01*
X138547619Y-126916666D01*
X138690476Y-127011904D01*
X138880952Y-127059523D01*
X139261904Y-127059523D01*
X139357142Y-127011904D01*
X139404761Y-126964285D01*
X139452380Y-126869047D01*
X139452380Y-126678571D01*
X139404761Y-126583333D01*
X139357142Y-126535714D01*
X139261904Y-126488095D01*
X139023809Y-126488095D01*
X138928571Y-126535714D01*
X138880952Y-126583333D01*
X138833333Y-126678571D01*
X138833333Y-126869047D01*
X138880952Y-126964285D01*
X138928571Y-127011904D01*
X139023809Y-127059523D01*
X148249047Y-124561428D02*
X149010952Y-124561428D01*
X148630000Y-124942380D02*
X148630000Y-124180476D01*
X184607142Y-132702380D02*
X184273809Y-132226190D01*
X184035714Y-132702380D02*
X184035714Y-131702380D01*
X184416666Y-131702380D01*
X184511904Y-131750000D01*
X184559523Y-131797619D01*
X184607142Y-131892857D01*
X184607142Y-132035714D01*
X184559523Y-132130952D01*
X184511904Y-132178571D01*
X184416666Y-132226190D01*
X184035714Y-132226190D01*
X184988095Y-131797619D02*
X185035714Y-131750000D01*
X185130952Y-131702380D01*
X185369047Y-131702380D01*
X185464285Y-131750000D01*
X185511904Y-131797619D01*
X185559523Y-131892857D01*
X185559523Y-131988095D01*
X185511904Y-132130952D01*
X184940476Y-132702380D01*
X185559523Y-132702380D01*
X186511904Y-132702380D02*
X185940476Y-132702380D01*
X186226190Y-132702380D02*
X186226190Y-131702380D01*
X186130952Y-131845238D01*
X186035714Y-131940476D01*
X185940476Y-131988095D01*
X129952380Y-112642857D02*
X129476190Y-112976190D01*
X129952380Y-113214285D02*
X128952380Y-113214285D01*
X128952380Y-112833333D01*
X129000000Y-112738095D01*
X129047619Y-112690476D01*
X129142857Y-112642857D01*
X129285714Y-112642857D01*
X129380952Y-112690476D01*
X129428571Y-112738095D01*
X129476190Y-112833333D01*
X129476190Y-113214285D01*
X129047619Y-112261904D02*
X129000000Y-112214285D01*
X128952380Y-112119047D01*
X128952380Y-111880952D01*
X129000000Y-111785714D01*
X129047619Y-111738095D01*
X129142857Y-111690476D01*
X129238095Y-111690476D01*
X129380952Y-111738095D01*
X129952380Y-112309523D01*
X129952380Y-111690476D01*
X128952380Y-111357142D02*
X128952380Y-110738095D01*
X129333333Y-111071428D01*
X129333333Y-110928571D01*
X129380952Y-110833333D01*
X129428571Y-110785714D01*
X129523809Y-110738095D01*
X129761904Y-110738095D01*
X129857142Y-110785714D01*
X129904761Y-110833333D01*
X129952380Y-110928571D01*
X129952380Y-111214285D01*
X129904761Y-111309523D01*
X129857142Y-111357142D01*
X144452380Y-112642857D02*
X143976190Y-112976190D01*
X144452380Y-113214285D02*
X143452380Y-113214285D01*
X143452380Y-112833333D01*
X143500000Y-112738095D01*
X143547619Y-112690476D01*
X143642857Y-112642857D01*
X143785714Y-112642857D01*
X143880952Y-112690476D01*
X143928571Y-112738095D01*
X143976190Y-112833333D01*
X143976190Y-113214285D01*
X143547619Y-112261904D02*
X143500000Y-112214285D01*
X143452380Y-112119047D01*
X143452380Y-111880952D01*
X143500000Y-111785714D01*
X143547619Y-111738095D01*
X143642857Y-111690476D01*
X143738095Y-111690476D01*
X143880952Y-111738095D01*
X144452380Y-112309523D01*
X144452380Y-111690476D01*
X143547619Y-111309523D02*
X143500000Y-111261904D01*
X143452380Y-111166666D01*
X143452380Y-110928571D01*
X143500000Y-110833333D01*
X143547619Y-110785714D01*
X143642857Y-110738095D01*
X143738095Y-110738095D01*
X143880952Y-110785714D01*
X144452380Y-111357142D01*
X144452380Y-110738095D01*
X150602380Y-112642857D02*
X150126190Y-112976190D01*
X150602380Y-113214285D02*
X149602380Y-113214285D01*
X149602380Y-112833333D01*
X149650000Y-112738095D01*
X149697619Y-112690476D01*
X149792857Y-112642857D01*
X149935714Y-112642857D01*
X150030952Y-112690476D01*
X150078571Y-112738095D01*
X150126190Y-112833333D01*
X150126190Y-113214285D01*
X150602380Y-111690476D02*
X150602380Y-112261904D01*
X150602380Y-111976190D02*
X149602380Y-111976190D01*
X149745238Y-112071428D01*
X149840476Y-112166666D01*
X149888095Y-112261904D01*
X149697619Y-111309523D02*
X149650000Y-111261904D01*
X149602380Y-111166666D01*
X149602380Y-110928571D01*
X149650000Y-110833333D01*
X149697619Y-110785714D01*
X149792857Y-110738095D01*
X149888095Y-110738095D01*
X150030952Y-110785714D01*
X150602380Y-111357142D01*
X150602380Y-110738095D01*
X115452380Y-112642857D02*
X114976190Y-112976190D01*
X115452380Y-113214285D02*
X114452380Y-113214285D01*
X114452380Y-112833333D01*
X114500000Y-112738095D01*
X114547619Y-112690476D01*
X114642857Y-112642857D01*
X114785714Y-112642857D01*
X114880952Y-112690476D01*
X114928571Y-112738095D01*
X114976190Y-112833333D01*
X114976190Y-113214285D01*
X114547619Y-112261904D02*
X114500000Y-112214285D01*
X114452380Y-112119047D01*
X114452380Y-111880952D01*
X114500000Y-111785714D01*
X114547619Y-111738095D01*
X114642857Y-111690476D01*
X114738095Y-111690476D01*
X114880952Y-111738095D01*
X115452380Y-112309523D01*
X115452380Y-111690476D01*
X114785714Y-110833333D02*
X115452380Y-110833333D01*
X114404761Y-111071428D02*
X115119047Y-111309523D01*
X115119047Y-110690476D01*
X187857142Y-120452380D02*
X187523809Y-119976190D01*
X187285714Y-120452380D02*
X187285714Y-119452380D01*
X187666666Y-119452380D01*
X187761904Y-119500000D01*
X187809523Y-119547619D01*
X187857142Y-119642857D01*
X187857142Y-119785714D01*
X187809523Y-119880952D01*
X187761904Y-119928571D01*
X187666666Y-119976190D01*
X187285714Y-119976190D01*
X188238095Y-119547619D02*
X188285714Y-119500000D01*
X188380952Y-119452380D01*
X188619047Y-119452380D01*
X188714285Y-119500000D01*
X188761904Y-119547619D01*
X188809523Y-119642857D01*
X188809523Y-119738095D01*
X188761904Y-119880952D01*
X188190476Y-120452380D01*
X188809523Y-120452380D01*
X189714285Y-119452380D02*
X189238095Y-119452380D01*
X189190476Y-119928571D01*
X189238095Y-119880952D01*
X189333333Y-119833333D01*
X189571428Y-119833333D01*
X189666666Y-119880952D01*
X189714285Y-119928571D01*
X189761904Y-120023809D01*
X189761904Y-120261904D01*
X189714285Y-120357142D01*
X189666666Y-120404761D01*
X189571428Y-120452380D01*
X189333333Y-120452380D01*
X189238095Y-120404761D01*
X189190476Y-120357142D01*
X187857142Y-105952380D02*
X187523809Y-105476190D01*
X187285714Y-105952380D02*
X187285714Y-104952380D01*
X187666666Y-104952380D01*
X187761904Y-105000000D01*
X187809523Y-105047619D01*
X187857142Y-105142857D01*
X187857142Y-105285714D01*
X187809523Y-105380952D01*
X187761904Y-105428571D01*
X187666666Y-105476190D01*
X187285714Y-105476190D01*
X188238095Y-105047619D02*
X188285714Y-105000000D01*
X188380952Y-104952380D01*
X188619047Y-104952380D01*
X188714285Y-105000000D01*
X188761904Y-105047619D01*
X188809523Y-105142857D01*
X188809523Y-105238095D01*
X188761904Y-105380952D01*
X188190476Y-105952380D01*
X188809523Y-105952380D01*
X189666666Y-104952380D02*
X189476190Y-104952380D01*
X189380952Y-105000000D01*
X189333333Y-105047619D01*
X189238095Y-105190476D01*
X189190476Y-105380952D01*
X189190476Y-105761904D01*
X189238095Y-105857142D01*
X189285714Y-105904761D01*
X189380952Y-105952380D01*
X189571428Y-105952380D01*
X189666666Y-105904761D01*
X189714285Y-105857142D01*
X189761904Y-105761904D01*
X189761904Y-105523809D01*
X189714285Y-105428571D01*
X189666666Y-105380952D01*
X189571428Y-105333333D01*
X189380952Y-105333333D01*
X189285714Y-105380952D01*
X189238095Y-105428571D01*
X189190476Y-105523809D01*
X184607142Y-125702380D02*
X184273809Y-125226190D01*
X184035714Y-125702380D02*
X184035714Y-124702380D01*
X184416666Y-124702380D01*
X184511904Y-124750000D01*
X184559523Y-124797619D01*
X184607142Y-124892857D01*
X184607142Y-125035714D01*
X184559523Y-125130952D01*
X184511904Y-125178571D01*
X184416666Y-125226190D01*
X184035714Y-125226190D01*
X184988095Y-124797619D02*
X185035714Y-124750000D01*
X185130952Y-124702380D01*
X185369047Y-124702380D01*
X185464285Y-124750000D01*
X185511904Y-124797619D01*
X185559523Y-124892857D01*
X185559523Y-124988095D01*
X185511904Y-125130952D01*
X184940476Y-125702380D01*
X185559523Y-125702380D01*
X185892857Y-124702380D02*
X186559523Y-124702380D01*
X186130952Y-125702380D01*
X136452380Y-112642857D02*
X135976190Y-112976190D01*
X136452380Y-113214285D02*
X135452380Y-113214285D01*
X135452380Y-112833333D01*
X135500000Y-112738095D01*
X135547619Y-112690476D01*
X135642857Y-112642857D01*
X135785714Y-112642857D01*
X135880952Y-112690476D01*
X135928571Y-112738095D01*
X135976190Y-112833333D01*
X135976190Y-113214285D01*
X136452380Y-111690476D02*
X136452380Y-112261904D01*
X136452380Y-111976190D02*
X135452380Y-111976190D01*
X135595238Y-112071428D01*
X135690476Y-112166666D01*
X135738095Y-112261904D01*
X135452380Y-111357142D02*
X135452380Y-110690476D01*
X136452380Y-111119047D01*
X121602380Y-112642857D02*
X121126190Y-112976190D01*
X121602380Y-113214285D02*
X120602380Y-113214285D01*
X120602380Y-112833333D01*
X120650000Y-112738095D01*
X120697619Y-112690476D01*
X120792857Y-112642857D01*
X120935714Y-112642857D01*
X121030952Y-112690476D01*
X121078571Y-112738095D01*
X121126190Y-112833333D01*
X121126190Y-113214285D01*
X121602380Y-111690476D02*
X121602380Y-112261904D01*
X121602380Y-111976190D02*
X120602380Y-111976190D01*
X120745238Y-112071428D01*
X120840476Y-112166666D01*
X120888095Y-112261904D01*
X121030952Y-111119047D02*
X120983333Y-111214285D01*
X120935714Y-111261904D01*
X120840476Y-111309523D01*
X120792857Y-111309523D01*
X120697619Y-111261904D01*
X120650000Y-111214285D01*
X120602380Y-111119047D01*
X120602380Y-110928571D01*
X120650000Y-110833333D01*
X120697619Y-110785714D01*
X120792857Y-110738095D01*
X120840476Y-110738095D01*
X120935714Y-110785714D01*
X120983333Y-110833333D01*
X121030952Y-110928571D01*
X121030952Y-111119047D01*
X121078571Y-111214285D01*
X121126190Y-111261904D01*
X121221428Y-111309523D01*
X121411904Y-111309523D01*
X121507142Y-111261904D01*
X121554761Y-111214285D01*
X121602380Y-111119047D01*
X121602380Y-110928571D01*
X121554761Y-110833333D01*
X121507142Y-110785714D01*
X121411904Y-110738095D01*
X121221428Y-110738095D01*
X121126190Y-110785714D01*
X121078571Y-110833333D01*
X121030952Y-110928571D01*
X187857142Y-126602380D02*
X187523809Y-126126190D01*
X187285714Y-126602380D02*
X187285714Y-125602380D01*
X187666666Y-125602380D01*
X187761904Y-125650000D01*
X187809523Y-125697619D01*
X187857142Y-125792857D01*
X187857142Y-125935714D01*
X187809523Y-126030952D01*
X187761904Y-126078571D01*
X187666666Y-126126190D01*
X187285714Y-126126190D01*
X188809523Y-126602380D02*
X188238095Y-126602380D01*
X188523809Y-126602380D02*
X188523809Y-125602380D01*
X188428571Y-125745238D01*
X188333333Y-125840476D01*
X188238095Y-125888095D01*
X189285714Y-126602380D02*
X189476190Y-126602380D01*
X189571428Y-126554761D01*
X189619047Y-126507142D01*
X189714285Y-126364285D01*
X189761904Y-126173809D01*
X189761904Y-125792857D01*
X189714285Y-125697619D01*
X189666666Y-125650000D01*
X189571428Y-125602380D01*
X189380952Y-125602380D01*
X189285714Y-125650000D01*
X189238095Y-125697619D01*
X189190476Y-125792857D01*
X189190476Y-126030952D01*
X189238095Y-126126190D01*
X189285714Y-126173809D01*
X189380952Y-126221428D01*
X189571428Y-126221428D01*
X189666666Y-126173809D01*
X189714285Y-126126190D01*
X189761904Y-126030952D01*
X187857142Y-112102380D02*
X187523809Y-111626190D01*
X187285714Y-112102380D02*
X187285714Y-111102380D01*
X187666666Y-111102380D01*
X187761904Y-111150000D01*
X187809523Y-111197619D01*
X187857142Y-111292857D01*
X187857142Y-111435714D01*
X187809523Y-111530952D01*
X187761904Y-111578571D01*
X187666666Y-111626190D01*
X187285714Y-111626190D01*
X188238095Y-111197619D02*
X188285714Y-111150000D01*
X188380952Y-111102380D01*
X188619047Y-111102380D01*
X188714285Y-111150000D01*
X188761904Y-111197619D01*
X188809523Y-111292857D01*
X188809523Y-111388095D01*
X188761904Y-111530952D01*
X188190476Y-112102380D01*
X188809523Y-112102380D01*
X189428571Y-111102380D02*
X189523809Y-111102380D01*
X189619047Y-111150000D01*
X189666666Y-111197619D01*
X189714285Y-111292857D01*
X189761904Y-111483333D01*
X189761904Y-111721428D01*
X189714285Y-111911904D01*
X189666666Y-112007142D01*
X189619047Y-112054761D01*
X189523809Y-112102380D01*
X189428571Y-112102380D01*
X189333333Y-112054761D01*
X189285714Y-112007142D01*
X189238095Y-111911904D01*
X189190476Y-111721428D01*
X189190476Y-111483333D01*
X189238095Y-111292857D01*
X189285714Y-111197619D01*
X189333333Y-111150000D01*
X189428571Y-111102380D01*
X138357142Y-120142857D02*
X138404761Y-120190476D01*
X138452380Y-120333333D01*
X138452380Y-120428571D01*
X138404761Y-120571428D01*
X138309523Y-120666666D01*
X138214285Y-120714285D01*
X138023809Y-120761904D01*
X137880952Y-120761904D01*
X137690476Y-120714285D01*
X137595238Y-120666666D01*
X137500000Y-120571428D01*
X137452380Y-120428571D01*
X137452380Y-120333333D01*
X137500000Y-120190476D01*
X137547619Y-120142857D01*
X138452380Y-119190476D02*
X138452380Y-119761904D01*
X138452380Y-119476190D02*
X137452380Y-119476190D01*
X137595238Y-119571428D01*
X137690476Y-119666666D01*
X137738095Y-119761904D01*
X138452380Y-118238095D02*
X138452380Y-118809523D01*
X138452380Y-118523809D02*
X137452380Y-118523809D01*
X137595238Y-118619047D01*
X137690476Y-118714285D01*
X137738095Y-118809523D01*
X133833333Y-126357142D02*
X133785714Y-126404761D01*
X133642857Y-126452380D01*
X133547619Y-126452380D01*
X133404761Y-126404761D01*
X133309523Y-126309523D01*
X133261904Y-126214285D01*
X133214285Y-126023809D01*
X133214285Y-125880952D01*
X133261904Y-125690476D01*
X133309523Y-125595238D01*
X133404761Y-125500000D01*
X133547619Y-125452380D01*
X133642857Y-125452380D01*
X133785714Y-125500000D01*
X133833333Y-125547619D01*
X134690476Y-125785714D02*
X134690476Y-126452380D01*
X134452380Y-125404761D02*
X134214285Y-126119047D01*
X134833333Y-126119047D01*
X129163094Y-124027379D02*
X129163094Y-124836903D01*
X129210713Y-124932141D01*
X129258332Y-124979760D01*
X129353570Y-125027379D01*
X129544046Y-125027379D01*
X129639284Y-124979760D01*
X129686903Y-124932141D01*
X129734522Y-124836903D01*
X129734522Y-124027379D01*
X130639284Y-124360713D02*
X130639284Y-125027379D01*
X130401189Y-123979760D02*
X130163094Y-124694046D01*
X130782141Y-124694046D01*
X174952380Y-130559523D02*
X175666666Y-130559523D01*
X175809523Y-130607142D01*
X175904761Y-130702380D01*
X175952380Y-130845238D01*
X175952380Y-130940476D01*
X175952380Y-129559523D02*
X175952380Y-130130952D01*
X175952380Y-129845238D02*
X174952380Y-129845238D01*
X175095238Y-129940476D01*
X175190476Y-130035714D01*
X175238095Y-130130952D01*
X174952380Y-128702380D02*
X174952380Y-128892857D01*
X175000000Y-128988095D01*
X175047619Y-129035714D01*
X175190476Y-129130952D01*
X175380952Y-129178571D01*
X175761904Y-129178571D01*
X175857142Y-129130952D01*
X175904761Y-129083333D01*
X175952380Y-128988095D01*
X175952380Y-128797619D01*
X175904761Y-128702380D01*
X175857142Y-128654761D01*
X175761904Y-128607142D01*
X175523809Y-128607142D01*
X175428571Y-128654761D01*
X175380952Y-128702380D01*
X175333333Y-128797619D01*
X175333333Y-128988095D01*
X175380952Y-129083333D01*
X175428571Y-129130952D01*
X175523809Y-129178571D01*
X140666666Y-110452380D02*
X140666666Y-111166666D01*
X140619047Y-111309523D01*
X140523809Y-111404761D01*
X140380952Y-111452380D01*
X140285714Y-111452380D01*
X141571428Y-110785714D02*
X141571428Y-111452380D01*
X141333333Y-110404761D02*
X141095238Y-111119047D01*
X141714285Y-111119047D01*
X126190476Y-110452380D02*
X126190476Y-111166666D01*
X126142857Y-111309523D01*
X126047619Y-111404761D01*
X125904761Y-111452380D01*
X125809523Y-111452380D01*
X127190476Y-111452380D02*
X126619047Y-111452380D01*
X126904761Y-111452380D02*
X126904761Y-110452380D01*
X126809523Y-110595238D01*
X126714285Y-110690476D01*
X126619047Y-110738095D01*
X127571428Y-110547619D02*
X127619047Y-110500000D01*
X127714285Y-110452380D01*
X127952380Y-110452380D01*
X128047619Y-110500000D01*
X128095238Y-110547619D01*
X128142857Y-110642857D01*
X128142857Y-110738095D01*
X128095238Y-110880952D01*
X127523809Y-111452380D01*
X128142857Y-111452380D01*
X109190476Y-108452380D02*
X109190476Y-109166666D01*
X109142857Y-109309523D01*
X109047619Y-109404761D01*
X108904761Y-109452380D01*
X108809523Y-109452380D01*
X110190476Y-109452380D02*
X109619047Y-109452380D01*
X109904761Y-109452380D02*
X109904761Y-108452380D01*
X109809523Y-108595238D01*
X109714285Y-108690476D01*
X109619047Y-108738095D01*
X110523809Y-108452380D02*
X111142857Y-108452380D01*
X110809523Y-108833333D01*
X110952380Y-108833333D01*
X111047619Y-108880952D01*
X111095238Y-108928571D01*
X111142857Y-109023809D01*
X111142857Y-109261904D01*
X111095238Y-109357142D01*
X111047619Y-109404761D01*
X110952380Y-109452380D01*
X110666666Y-109452380D01*
X110571428Y-109404761D01*
X110523809Y-109357142D01*
X190452380Y-124059523D02*
X191166666Y-124059523D01*
X191309523Y-124107142D01*
X191404761Y-124202380D01*
X191452380Y-124345238D01*
X191452380Y-124440476D01*
X191452380Y-123059523D02*
X191452380Y-123630952D01*
X191452380Y-123345238D02*
X190452380Y-123345238D01*
X190595238Y-123440476D01*
X190690476Y-123535714D01*
X190738095Y-123630952D01*
X190785714Y-122202380D02*
X191452380Y-122202380D01*
X190404761Y-122440476D02*
X191119047Y-122678571D01*
X191119047Y-122059523D01*
X190452380Y-109559523D02*
X191166666Y-109559523D01*
X191309523Y-109607142D01*
X191404761Y-109702380D01*
X191452380Y-109845238D01*
X191452380Y-109940476D01*
X191452380Y-108559523D02*
X191452380Y-109130952D01*
X191452380Y-108845238D02*
X190452380Y-108845238D01*
X190595238Y-108940476D01*
X190690476Y-109035714D01*
X190738095Y-109130952D01*
X190452380Y-107654761D02*
X190452380Y-108130952D01*
X190928571Y-108178571D01*
X190880952Y-108130952D01*
X190833333Y-108035714D01*
X190833333Y-107797619D01*
X190880952Y-107702380D01*
X190928571Y-107654761D01*
X191023809Y-107607142D01*
X191261904Y-107607142D01*
X191357142Y-107654761D01*
X191404761Y-107702380D01*
X191452380Y-107797619D01*
X191452380Y-108035714D01*
X191404761Y-108130952D01*
X191357142Y-108178571D01*
X175107142Y-145416666D02*
X175154761Y-145464285D01*
X175202380Y-145607142D01*
X175202380Y-145702380D01*
X175154761Y-145845238D01*
X175059523Y-145940476D01*
X174964285Y-145988095D01*
X174773809Y-146035714D01*
X174630952Y-146035714D01*
X174440476Y-145988095D01*
X174345238Y-145940476D01*
X174250000Y-145845238D01*
X174202380Y-145702380D01*
X174202380Y-145607142D01*
X174250000Y-145464285D01*
X174297619Y-145416666D01*
X174202380Y-145083333D02*
X174202380Y-144416666D01*
X175202380Y-144845238D01*
X152007142Y-130567857D02*
X152054761Y-130615476D01*
X152102380Y-130758333D01*
X152102380Y-130853571D01*
X152054761Y-130996428D01*
X151959523Y-131091666D01*
X151864285Y-131139285D01*
X151673809Y-131186904D01*
X151530952Y-131186904D01*
X151340476Y-131139285D01*
X151245238Y-131091666D01*
X151150000Y-130996428D01*
X151102380Y-130853571D01*
X151102380Y-130758333D01*
X151150000Y-130615476D01*
X151197619Y-130567857D01*
X152102380Y-129615476D02*
X152102380Y-130186904D01*
X152102380Y-129901190D02*
X151102380Y-129901190D01*
X151245238Y-129996428D01*
X151340476Y-130091666D01*
X151388095Y-130186904D01*
X151102380Y-128710714D02*
X151102380Y-129186904D01*
X151578571Y-129234523D01*
X151530952Y-129186904D01*
X151483333Y-129091666D01*
X151483333Y-128853571D01*
X151530952Y-128758333D01*
X151578571Y-128710714D01*
X151673809Y-128663095D01*
X151911904Y-128663095D01*
X152007142Y-128710714D01*
X152054761Y-128758333D01*
X152102380Y-128853571D01*
X152102380Y-129091666D01*
X152054761Y-129186904D01*
X152007142Y-129234523D01*
X100123602Y-120170120D02*
X100837888Y-120170120D01*
X100980745Y-120217739D01*
X101075983Y-120312977D01*
X101123602Y-120455834D01*
X101123602Y-120551072D01*
X101123602Y-119646310D02*
X101123602Y-119455834D01*
X101075983Y-119360596D01*
X101028364Y-119312977D01*
X100885507Y-119217739D01*
X100695031Y-119170120D01*
X100314079Y-119170120D01*
X100218841Y-119217739D01*
X100171222Y-119265358D01*
X100123602Y-119360596D01*
X100123602Y-119551072D01*
X100171222Y-119646310D01*
X100218841Y-119693929D01*
X100314079Y-119741548D01*
X100552174Y-119741548D01*
X100647412Y-119693929D01*
X100695031Y-119646310D01*
X100742650Y-119551072D01*
X100742650Y-119360596D01*
X100695031Y-119265358D01*
X100647412Y-119217739D01*
X100552174Y-119170120D01*
X152452380Y-153642857D02*
X151976190Y-153976190D01*
X152452380Y-154214285D02*
X151452380Y-154214285D01*
X151452380Y-153833333D01*
X151500000Y-153738095D01*
X151547619Y-153690476D01*
X151642857Y-153642857D01*
X151785714Y-153642857D01*
X151880952Y-153690476D01*
X151928571Y-153738095D01*
X151976190Y-153833333D01*
X151976190Y-154214285D01*
X152452380Y-152690476D02*
X152452380Y-153261904D01*
X152452380Y-152976190D02*
X151452380Y-152976190D01*
X151595238Y-153071428D01*
X151690476Y-153166666D01*
X151738095Y-153261904D01*
X151452380Y-151785714D02*
X151452380Y-152261904D01*
X151928571Y-152309523D01*
X151880952Y-152261904D01*
X151833333Y-152166666D01*
X151833333Y-151928571D01*
X151880952Y-151833333D01*
X151928571Y-151785714D01*
X152023809Y-151738095D01*
X152261904Y-151738095D01*
X152357142Y-151785714D01*
X152404761Y-151833333D01*
X152452380Y-151928571D01*
X152452380Y-152166666D01*
X152404761Y-152261904D01*
X152357142Y-152309523D01*
X152452380Y-147962857D02*
X151976190Y-148296190D01*
X152452380Y-148534285D02*
X151452380Y-148534285D01*
X151452380Y-148153333D01*
X151500000Y-148058095D01*
X151547619Y-148010476D01*
X151642857Y-147962857D01*
X151785714Y-147962857D01*
X151880952Y-148010476D01*
X151928571Y-148058095D01*
X151976190Y-148153333D01*
X151976190Y-148534285D01*
X152452380Y-147010476D02*
X152452380Y-147581904D01*
X152452380Y-147296190D02*
X151452380Y-147296190D01*
X151595238Y-147391428D01*
X151690476Y-147486666D01*
X151738095Y-147581904D01*
X151452380Y-146153333D02*
X151452380Y-146343809D01*
X151500000Y-146439047D01*
X151547619Y-146486666D01*
X151690476Y-146581904D01*
X151880952Y-146629523D01*
X152261904Y-146629523D01*
X152357142Y-146581904D01*
X152404761Y-146534285D01*
X152452380Y-146439047D01*
X152452380Y-146248571D01*
X152404761Y-146153333D01*
X152357142Y-146105714D01*
X152261904Y-146058095D01*
X152023809Y-146058095D01*
X151928571Y-146105714D01*
X151880952Y-146153333D01*
X151833333Y-146248571D01*
X151833333Y-146439047D01*
X151880952Y-146534285D01*
X151928571Y-146581904D01*
X152023809Y-146629523D01*
X143902556Y-138607489D02*
X143902556Y-139417013D01*
X143950175Y-139512251D01*
X143997794Y-139559870D01*
X144093032Y-139607489D01*
X144283508Y-139607489D01*
X144378746Y-139559870D01*
X144426365Y-139512251D01*
X144473984Y-139417013D01*
X144473984Y-138607489D01*
X144997794Y-139607489D02*
X145188270Y-139607489D01*
X145283508Y-139559870D01*
X145331127Y-139512251D01*
X145426365Y-139369394D01*
X145473984Y-139178918D01*
X145473984Y-138797966D01*
X145426365Y-138702728D01*
X145378746Y-138655109D01*
X145283508Y-138607489D01*
X145093032Y-138607489D01*
X144997794Y-138655109D01*
X144950175Y-138702728D01*
X144902556Y-138797966D01*
X144902556Y-139036061D01*
X144950175Y-139131299D01*
X144997794Y-139178918D01*
X145093032Y-139226537D01*
X145283508Y-139226537D01*
X145378746Y-139178918D01*
X145426365Y-139131299D01*
X145473984Y-139036061D01*
X116857142Y-184566666D02*
X116904761Y-184614285D01*
X116952380Y-184757142D01*
X116952380Y-184852380D01*
X116904761Y-184995238D01*
X116809523Y-185090476D01*
X116714285Y-185138095D01*
X116523809Y-185185714D01*
X116380952Y-185185714D01*
X116190476Y-185138095D01*
X116095238Y-185090476D01*
X116000000Y-184995238D01*
X115952380Y-184852380D01*
X115952380Y-184757142D01*
X116000000Y-184614285D01*
X116047619Y-184566666D01*
X116380952Y-183995238D02*
X116333333Y-184090476D01*
X116285714Y-184138095D01*
X116190476Y-184185714D01*
X116142857Y-184185714D01*
X116047619Y-184138095D01*
X116000000Y-184090476D01*
X115952380Y-183995238D01*
X115952380Y-183804761D01*
X116000000Y-183709523D01*
X116047619Y-183661904D01*
X116142857Y-183614285D01*
X116190476Y-183614285D01*
X116285714Y-183661904D01*
X116333333Y-183709523D01*
X116380952Y-183804761D01*
X116380952Y-183995238D01*
X116428571Y-184090476D01*
X116476190Y-184138095D01*
X116571428Y-184185714D01*
X116761904Y-184185714D01*
X116857142Y-184138095D01*
X116904761Y-184090476D01*
X116952380Y-183995238D01*
X116952380Y-183804761D01*
X116904761Y-183709523D01*
X116857142Y-183661904D01*
X116761904Y-183614285D01*
X116571428Y-183614285D01*
X116476190Y-183661904D01*
X116428571Y-183709523D01*
X116380952Y-183804761D01*
X121357142Y-164566666D02*
X121404761Y-164614285D01*
X121452380Y-164757142D01*
X121452380Y-164852380D01*
X121404761Y-164995238D01*
X121309523Y-165090476D01*
X121214285Y-165138095D01*
X121023809Y-165185714D01*
X120880952Y-165185714D01*
X120690476Y-165138095D01*
X120595238Y-165090476D01*
X120500000Y-164995238D01*
X120452380Y-164852380D01*
X120452380Y-164757142D01*
X120500000Y-164614285D01*
X120547619Y-164566666D01*
X121452380Y-164090476D02*
X121452380Y-163900000D01*
X121404761Y-163804761D01*
X121357142Y-163757142D01*
X121214285Y-163661904D01*
X121023809Y-163614285D01*
X120642857Y-163614285D01*
X120547619Y-163661904D01*
X120500000Y-163709523D01*
X120452380Y-163804761D01*
X120452380Y-163995238D01*
X120500000Y-164090476D01*
X120547619Y-164138095D01*
X120642857Y-164185714D01*
X120880952Y-164185714D01*
X120976190Y-164138095D01*
X121023809Y-164090476D01*
X121071428Y-163995238D01*
X121071428Y-163804761D01*
X121023809Y-163709523D01*
X120976190Y-163661904D01*
X120880952Y-163614285D01*
X121357142Y-145642857D02*
X121404761Y-145690476D01*
X121452380Y-145833333D01*
X121452380Y-145928571D01*
X121404761Y-146071428D01*
X121309523Y-146166666D01*
X121214285Y-146214285D01*
X121023809Y-146261904D01*
X120880952Y-146261904D01*
X120690476Y-146214285D01*
X120595238Y-146166666D01*
X120500000Y-146071428D01*
X120452380Y-145928571D01*
X120452380Y-145833333D01*
X120500000Y-145690476D01*
X120547619Y-145642857D01*
X121452380Y-144690476D02*
X121452380Y-145261904D01*
X121452380Y-144976190D02*
X120452380Y-144976190D01*
X120595238Y-145071428D01*
X120690476Y-145166666D01*
X120738095Y-145261904D01*
X120452380Y-144071428D02*
X120452380Y-143976190D01*
X120500000Y-143880952D01*
X120547619Y-143833333D01*
X120642857Y-143785714D01*
X120833333Y-143738095D01*
X121071428Y-143738095D01*
X121261904Y-143785714D01*
X121357142Y-143833333D01*
X121404761Y-143880952D01*
X121452380Y-143976190D01*
X121452380Y-144071428D01*
X121404761Y-144166666D01*
X121357142Y-144214285D01*
X121261904Y-144261904D01*
X121071428Y-144309523D01*
X120833333Y-144309523D01*
X120642857Y-144261904D01*
X120547619Y-144214285D01*
X120500000Y-144166666D01*
X120452380Y-144071428D01*
X179857142Y-159492857D02*
X179904761Y-159540476D01*
X179952380Y-159683333D01*
X179952380Y-159778571D01*
X179904761Y-159921428D01*
X179809523Y-160016666D01*
X179714285Y-160064285D01*
X179523809Y-160111904D01*
X179380952Y-160111904D01*
X179190476Y-160064285D01*
X179095238Y-160016666D01*
X179000000Y-159921428D01*
X178952380Y-159778571D01*
X178952380Y-159683333D01*
X179000000Y-159540476D01*
X179047619Y-159492857D01*
X179952380Y-158540476D02*
X179952380Y-159111904D01*
X179952380Y-158826190D02*
X178952380Y-158826190D01*
X179095238Y-158921428D01*
X179190476Y-159016666D01*
X179238095Y-159111904D01*
X179047619Y-158159523D02*
X179000000Y-158111904D01*
X178952380Y-158016666D01*
X178952380Y-157778571D01*
X179000000Y-157683333D01*
X179047619Y-157635714D01*
X179142857Y-157588095D01*
X179238095Y-157588095D01*
X179380952Y-157635714D01*
X179952380Y-158207142D01*
X179952380Y-157588095D01*
X179357142Y-179292857D02*
X179404761Y-179340476D01*
X179452380Y-179483333D01*
X179452380Y-179578571D01*
X179404761Y-179721428D01*
X179309523Y-179816666D01*
X179214285Y-179864285D01*
X179023809Y-179911904D01*
X178880952Y-179911904D01*
X178690476Y-179864285D01*
X178595238Y-179816666D01*
X178500000Y-179721428D01*
X178452380Y-179578571D01*
X178452380Y-179483333D01*
X178500000Y-179340476D01*
X178547619Y-179292857D01*
X179452380Y-178340476D02*
X179452380Y-178911904D01*
X179452380Y-178626190D02*
X178452380Y-178626190D01*
X178595238Y-178721428D01*
X178690476Y-178816666D01*
X178738095Y-178911904D01*
X178452380Y-178007142D02*
X178452380Y-177388095D01*
X178833333Y-177721428D01*
X178833333Y-177578571D01*
X178880952Y-177483333D01*
X178928571Y-177435714D01*
X179023809Y-177388095D01*
X179261904Y-177388095D01*
X179357142Y-177435714D01*
X179404761Y-177483333D01*
X179452380Y-177578571D01*
X179452380Y-177864285D01*
X179404761Y-177959523D01*
X179357142Y-178007142D01*
X118578333Y-170952380D02*
X118245000Y-170476190D01*
X118006904Y-170952380D02*
X118006904Y-169952380D01*
X118387857Y-169952380D01*
X118483095Y-170000000D01*
X118530714Y-170047619D01*
X118578333Y-170142857D01*
X118578333Y-170285714D01*
X118530714Y-170380952D01*
X118483095Y-170428571D01*
X118387857Y-170476190D01*
X118006904Y-170476190D01*
X119054523Y-170952380D02*
X119245000Y-170952380D01*
X119340238Y-170904761D01*
X119387857Y-170857142D01*
X119483095Y-170714285D01*
X119530714Y-170523809D01*
X119530714Y-170142857D01*
X119483095Y-170047619D01*
X119435476Y-170000000D01*
X119340238Y-169952380D01*
X119149761Y-169952380D01*
X119054523Y-170000000D01*
X119006904Y-170047619D01*
X118959285Y-170142857D01*
X118959285Y-170380952D01*
X119006904Y-170476190D01*
X119054523Y-170523809D01*
X119149761Y-170571428D01*
X119340238Y-170571428D01*
X119435476Y-170523809D01*
X119483095Y-170476190D01*
X119530714Y-170380952D01*
X118102142Y-151452380D02*
X117768809Y-150976190D01*
X117530714Y-151452380D02*
X117530714Y-150452380D01*
X117911666Y-150452380D01*
X118006904Y-150500000D01*
X118054523Y-150547619D01*
X118102142Y-150642857D01*
X118102142Y-150785714D01*
X118054523Y-150880952D01*
X118006904Y-150928571D01*
X117911666Y-150976190D01*
X117530714Y-150976190D01*
X119054523Y-151452380D02*
X118483095Y-151452380D01*
X118768809Y-151452380D02*
X118768809Y-150452380D01*
X118673571Y-150595238D01*
X118578333Y-150690476D01*
X118483095Y-150738095D01*
X119673571Y-150452380D02*
X119768809Y-150452380D01*
X119864047Y-150500000D01*
X119911666Y-150547619D01*
X119959285Y-150642857D01*
X120006904Y-150833333D01*
X120006904Y-151071428D01*
X119959285Y-151261904D01*
X119911666Y-151357142D01*
X119864047Y-151404761D01*
X119768809Y-151452380D01*
X119673571Y-151452380D01*
X119578333Y-151404761D01*
X119530714Y-151357142D01*
X119483095Y-151261904D01*
X119435476Y-151071428D01*
X119435476Y-150833333D01*
X119483095Y-150642857D01*
X119530714Y-150547619D01*
X119578333Y-150500000D01*
X119673571Y-150452380D01*
X118357142Y-130952380D02*
X118023809Y-130476190D01*
X117785714Y-130952380D02*
X117785714Y-129952380D01*
X118166666Y-129952380D01*
X118261904Y-130000000D01*
X118309523Y-130047619D01*
X118357142Y-130142857D01*
X118357142Y-130285714D01*
X118309523Y-130380952D01*
X118261904Y-130428571D01*
X118166666Y-130476190D01*
X117785714Y-130476190D01*
X119309523Y-130952380D02*
X118738095Y-130952380D01*
X119023809Y-130952380D02*
X119023809Y-129952380D01*
X118928571Y-130095238D01*
X118833333Y-130190476D01*
X118738095Y-130238095D01*
X120261904Y-130952380D02*
X119690476Y-130952380D01*
X119976190Y-130952380D02*
X119976190Y-129952380D01*
X119880952Y-130095238D01*
X119785714Y-130190476D01*
X119690476Y-130238095D01*
X180332142Y-173452380D02*
X179998809Y-172976190D01*
X179760714Y-173452380D02*
X179760714Y-172452380D01*
X180141666Y-172452380D01*
X180236904Y-172500000D01*
X180284523Y-172547619D01*
X180332142Y-172642857D01*
X180332142Y-172785714D01*
X180284523Y-172880952D01*
X180236904Y-172928571D01*
X180141666Y-172976190D01*
X179760714Y-172976190D01*
X181284523Y-173452380D02*
X180713095Y-173452380D01*
X180998809Y-173452380D02*
X180998809Y-172452380D01*
X180903571Y-172595238D01*
X180808333Y-172690476D01*
X180713095Y-172738095D01*
X181617857Y-172452380D02*
X182236904Y-172452380D01*
X181903571Y-172833333D01*
X182046428Y-172833333D01*
X182141666Y-172880952D01*
X182189285Y-172928571D01*
X182236904Y-173023809D01*
X182236904Y-173261904D01*
X182189285Y-173357142D01*
X182141666Y-173404761D01*
X182046428Y-173452380D01*
X181760714Y-173452380D01*
X181665476Y-173404761D01*
X181617857Y-173357142D01*
X180607142Y-193452380D02*
X180273809Y-192976190D01*
X180035714Y-193452380D02*
X180035714Y-192452380D01*
X180416666Y-192452380D01*
X180511904Y-192500000D01*
X180559523Y-192547619D01*
X180607142Y-192642857D01*
X180607142Y-192785714D01*
X180559523Y-192880952D01*
X180511904Y-192928571D01*
X180416666Y-192976190D01*
X180035714Y-192976190D01*
X181559523Y-193452380D02*
X180988095Y-193452380D01*
X181273809Y-193452380D02*
X181273809Y-192452380D01*
X181178571Y-192595238D01*
X181083333Y-192690476D01*
X180988095Y-192738095D01*
X182416666Y-192785714D02*
X182416666Y-193452380D01*
X182178571Y-192404761D02*
X181940476Y-193119047D01*
X182559523Y-193119047D01*
X198717381Y-140811676D02*
X199431667Y-140811676D01*
X199574524Y-140859295D01*
X199669762Y-140954533D01*
X199717381Y-141097390D01*
X199717381Y-141192628D01*
X199145953Y-140192628D02*
X199098334Y-140287866D01*
X199050715Y-140335485D01*
X198955477Y-140383104D01*
X198907858Y-140383104D01*
X198812620Y-140335485D01*
X198765001Y-140287866D01*
X198717381Y-140192628D01*
X198717381Y-140002152D01*
X198765001Y-139906914D01*
X198812620Y-139859295D01*
X198907858Y-139811676D01*
X198955477Y-139811676D01*
X199050715Y-139859295D01*
X199098334Y-139906914D01*
X199145953Y-140002152D01*
X199145953Y-140192628D01*
X199193572Y-140287866D01*
X199241191Y-140335485D01*
X199336429Y-140383104D01*
X199526905Y-140383104D01*
X199622143Y-140335485D01*
X199669762Y-140287866D01*
X199717381Y-140192628D01*
X199717381Y-140002152D01*
X199669762Y-139906914D01*
X199622143Y-139859295D01*
X199526905Y-139811676D01*
X199336429Y-139811676D01*
X199241191Y-139859295D01*
X199193572Y-139906914D01*
X199145953Y-140002152D01*
X177333333Y-140452380D02*
X177000000Y-139976190D01*
X176761904Y-140452380D02*
X176761904Y-139452380D01*
X177142857Y-139452380D01*
X177238095Y-139500000D01*
X177285714Y-139547619D01*
X177333333Y-139642857D01*
X177333333Y-139785714D01*
X177285714Y-139880952D01*
X177238095Y-139928571D01*
X177142857Y-139976190D01*
X176761904Y-139976190D01*
X178285714Y-140452380D02*
X177714285Y-140452380D01*
X178000000Y-140452380D02*
X178000000Y-139452380D01*
X177904761Y-139595238D01*
X177809523Y-139690476D01*
X177714285Y-139738095D01*
X177333333Y-142952380D02*
X177000000Y-142476190D01*
X176761904Y-142952380D02*
X176761904Y-141952380D01*
X177142857Y-141952380D01*
X177238095Y-142000000D01*
X177285714Y-142047619D01*
X177333333Y-142142857D01*
X177333333Y-142285714D01*
X177285714Y-142380952D01*
X177238095Y-142428571D01*
X177142857Y-142476190D01*
X176761904Y-142476190D01*
X177714285Y-142047619D02*
X177761904Y-142000000D01*
X177857142Y-141952380D01*
X178095238Y-141952380D01*
X178190476Y-142000000D01*
X178238095Y-142047619D01*
X178285714Y-142142857D01*
X178285714Y-142238095D01*
X178238095Y-142380952D01*
X177666666Y-142952380D01*
X178285714Y-142952380D01*
X177333333Y-145202380D02*
X177000000Y-144726190D01*
X176761904Y-145202380D02*
X176761904Y-144202380D01*
X177142857Y-144202380D01*
X177238095Y-144250000D01*
X177285714Y-144297619D01*
X177333333Y-144392857D01*
X177333333Y-144535714D01*
X177285714Y-144630952D01*
X177238095Y-144678571D01*
X177142857Y-144726190D01*
X176761904Y-144726190D01*
X177666666Y-144202380D02*
X178285714Y-144202380D01*
X177952380Y-144583333D01*
X178095238Y-144583333D01*
X178190476Y-144630952D01*
X178238095Y-144678571D01*
X178285714Y-144773809D01*
X178285714Y-145011904D01*
X178238095Y-145107142D01*
X178190476Y-145154761D01*
X178095238Y-145202380D01*
X177809523Y-145202380D01*
X177714285Y-145154761D01*
X177666666Y-145107142D01*
X177333333Y-147702380D02*
X177000000Y-147226190D01*
X176761904Y-147702380D02*
X176761904Y-146702380D01*
X177142857Y-146702380D01*
X177238095Y-146750000D01*
X177285714Y-146797619D01*
X177333333Y-146892857D01*
X177333333Y-147035714D01*
X177285714Y-147130952D01*
X177238095Y-147178571D01*
X177142857Y-147226190D01*
X176761904Y-147226190D01*
X178190476Y-147035714D02*
X178190476Y-147702380D01*
X177952380Y-146654761D02*
X177714285Y-147369047D01*
X178333333Y-147369047D01*
X121833333Y-124952380D02*
X121500000Y-124476190D01*
X121261904Y-124952380D02*
X121261904Y-123952380D01*
X121642857Y-123952380D01*
X121738095Y-124000000D01*
X121785714Y-124047619D01*
X121833333Y-124142857D01*
X121833333Y-124285714D01*
X121785714Y-124380952D01*
X121738095Y-124428571D01*
X121642857Y-124476190D01*
X121261904Y-124476190D01*
X122738095Y-123952380D02*
X122261904Y-123952380D01*
X122214285Y-124428571D01*
X122261904Y-124380952D01*
X122357142Y-124333333D01*
X122595238Y-124333333D01*
X122690476Y-124380952D01*
X122738095Y-124428571D01*
X122785714Y-124523809D01*
X122785714Y-124761904D01*
X122738095Y-124857142D01*
X122690476Y-124904761D01*
X122595238Y-124952380D01*
X122357142Y-124952380D01*
X122261904Y-124904761D01*
X122214285Y-124857142D01*
X121833333Y-122452380D02*
X121500000Y-121976190D01*
X121261904Y-122452380D02*
X121261904Y-121452380D01*
X121642857Y-121452380D01*
X121738095Y-121500000D01*
X121785714Y-121547619D01*
X121833333Y-121642857D01*
X121833333Y-121785714D01*
X121785714Y-121880952D01*
X121738095Y-121928571D01*
X121642857Y-121976190D01*
X121261904Y-121976190D01*
X122690476Y-121452380D02*
X122500000Y-121452380D01*
X122404761Y-121500000D01*
X122357142Y-121547619D01*
X122261904Y-121690476D01*
X122214285Y-121880952D01*
X122214285Y-122261904D01*
X122261904Y-122357142D01*
X122309523Y-122404761D01*
X122404761Y-122452380D01*
X122595238Y-122452380D01*
X122690476Y-122404761D01*
X122738095Y-122357142D01*
X122785714Y-122261904D01*
X122785714Y-122023809D01*
X122738095Y-121928571D01*
X122690476Y-121880952D01*
X122595238Y-121833333D01*
X122404761Y-121833333D01*
X122309523Y-121880952D01*
X122261904Y-121928571D01*
X122214285Y-122023809D01*
X121833333Y-119952380D02*
X121500000Y-119476190D01*
X121261904Y-119952380D02*
X121261904Y-118952380D01*
X121642857Y-118952380D01*
X121738095Y-119000000D01*
X121785714Y-119047619D01*
X121833333Y-119142857D01*
X121833333Y-119285714D01*
X121785714Y-119380952D01*
X121738095Y-119428571D01*
X121642857Y-119476190D01*
X121261904Y-119476190D01*
X122166666Y-118952380D02*
X122833333Y-118952380D01*
X122404761Y-119952380D01*
X121833333Y-117452380D02*
X121500000Y-116976190D01*
X121261904Y-117452380D02*
X121261904Y-116452380D01*
X121642857Y-116452380D01*
X121738095Y-116500000D01*
X121785714Y-116547619D01*
X121833333Y-116642857D01*
X121833333Y-116785714D01*
X121785714Y-116880952D01*
X121738095Y-116928571D01*
X121642857Y-116976190D01*
X121261904Y-116976190D01*
X122404761Y-116880952D02*
X122309523Y-116833333D01*
X122261904Y-116785714D01*
X122214285Y-116690476D01*
X122214285Y-116642857D01*
X122261904Y-116547619D01*
X122309523Y-116500000D01*
X122404761Y-116452380D01*
X122595238Y-116452380D01*
X122690476Y-116500000D01*
X122738095Y-116547619D01*
X122785714Y-116642857D01*
X122785714Y-116690476D01*
X122738095Y-116785714D01*
X122690476Y-116833333D01*
X122595238Y-116880952D01*
X122404761Y-116880952D01*
X122309523Y-116928571D01*
X122261904Y-116976190D01*
X122214285Y-117071428D01*
X122214285Y-117261904D01*
X122261904Y-117357142D01*
X122309523Y-117404761D01*
X122404761Y-117452380D01*
X122595238Y-117452380D01*
X122690476Y-117404761D01*
X122738095Y-117357142D01*
X122785714Y-117261904D01*
X122785714Y-117071428D01*
X122738095Y-116976190D01*
X122690476Y-116928571D01*
X122595238Y-116880952D01*
X158166666Y-155048571D02*
X157833333Y-155048571D01*
X157833333Y-155572380D02*
X157833333Y-154572380D01*
X158309523Y-154572380D01*
X159166666Y-154572380D02*
X158690476Y-154572380D01*
X158642857Y-155048571D01*
X158690476Y-155000952D01*
X158785714Y-154953333D01*
X159023809Y-154953333D01*
X159119047Y-155000952D01*
X159166666Y-155048571D01*
X159214285Y-155143809D01*
X159214285Y-155381904D01*
X159166666Y-155477142D01*
X159119047Y-155524761D01*
X159023809Y-155572380D01*
X158785714Y-155572380D01*
X158690476Y-155524761D01*
X158642857Y-155477142D01*
X175333333Y-176357142D02*
X175285714Y-176404761D01*
X175142857Y-176452380D01*
X175047619Y-176452380D01*
X174904761Y-176404761D01*
X174809523Y-176309523D01*
X174761904Y-176214285D01*
X174714285Y-176023809D01*
X174714285Y-175880952D01*
X174761904Y-175690476D01*
X174809523Y-175595238D01*
X174904761Y-175500000D01*
X175047619Y-175452380D01*
X175142857Y-175452380D01*
X175285714Y-175500000D01*
X175333333Y-175547619D01*
X176190476Y-175452380D02*
X176000000Y-175452380D01*
X175904761Y-175500000D01*
X175857142Y-175547619D01*
X175761904Y-175690476D01*
X175714285Y-175880952D01*
X175714285Y-176261904D01*
X175761904Y-176357142D01*
X175809523Y-176404761D01*
X175904761Y-176452380D01*
X176095238Y-176452380D01*
X176190476Y-176404761D01*
X176238095Y-176357142D01*
X176285714Y-176261904D01*
X176285714Y-176023809D01*
X176238095Y-175928571D01*
X176190476Y-175880952D01*
X176095238Y-175833333D01*
X175904761Y-175833333D01*
X175809523Y-175880952D01*
X175761904Y-175928571D01*
X175714285Y-176023809D01*
X175333333Y-156357142D02*
X175285714Y-156404761D01*
X175142857Y-156452380D01*
X175047619Y-156452380D01*
X174904761Y-156404761D01*
X174809523Y-156309523D01*
X174761904Y-156214285D01*
X174714285Y-156023809D01*
X174714285Y-155880952D01*
X174761904Y-155690476D01*
X174809523Y-155595238D01*
X174904761Y-155500000D01*
X175047619Y-155452380D01*
X175142857Y-155452380D01*
X175285714Y-155500000D01*
X175333333Y-155547619D01*
X176238095Y-155452380D02*
X175761904Y-155452380D01*
X175714285Y-155928571D01*
X175761904Y-155880952D01*
X175857142Y-155833333D01*
X176095238Y-155833333D01*
X176190476Y-155880952D01*
X176238095Y-155928571D01*
X176285714Y-156023809D01*
X176285714Y-156261904D01*
X176238095Y-156357142D01*
X176190476Y-156404761D01*
X176095238Y-156452380D01*
X175857142Y-156452380D01*
X175761904Y-156404761D01*
X175714285Y-156357142D01*
X136833333Y-149357142D02*
X136785714Y-149404761D01*
X136642857Y-149452380D01*
X136547619Y-149452380D01*
X136404761Y-149404761D01*
X136309523Y-149309523D01*
X136261904Y-149214285D01*
X136214285Y-149023809D01*
X136214285Y-148880952D01*
X136261904Y-148690476D01*
X136309523Y-148595238D01*
X136404761Y-148500000D01*
X136547619Y-148452380D01*
X136642857Y-148452380D01*
X136785714Y-148500000D01*
X136833333Y-148547619D01*
X137166666Y-148452380D02*
X137785714Y-148452380D01*
X137452380Y-148833333D01*
X137595238Y-148833333D01*
X137690476Y-148880952D01*
X137738095Y-148928571D01*
X137785714Y-149023809D01*
X137785714Y-149261904D01*
X137738095Y-149357142D01*
X137690476Y-149404761D01*
X137595238Y-149452380D01*
X137309523Y-149452380D01*
X137214285Y-149404761D01*
X137166666Y-149357142D01*
X136833333Y-169357142D02*
X136785714Y-169404761D01*
X136642857Y-169452380D01*
X136547619Y-169452380D01*
X136404761Y-169404761D01*
X136309523Y-169309523D01*
X136261904Y-169214285D01*
X136214285Y-169023809D01*
X136214285Y-168880952D01*
X136261904Y-168690476D01*
X136309523Y-168595238D01*
X136404761Y-168500000D01*
X136547619Y-168452380D01*
X136642857Y-168452380D01*
X136785714Y-168500000D01*
X136833333Y-168547619D01*
X137214285Y-168547619D02*
X137261904Y-168500000D01*
X137357142Y-168452380D01*
X137595238Y-168452380D01*
X137690476Y-168500000D01*
X137738095Y-168547619D01*
X137785714Y-168642857D01*
X137785714Y-168738095D01*
X137738095Y-168880952D01*
X137166666Y-169452380D01*
X137785714Y-169452380D01*
X130938333Y-191157142D02*
X130890714Y-191204761D01*
X130747857Y-191252380D01*
X130652619Y-191252380D01*
X130509761Y-191204761D01*
X130414523Y-191109523D01*
X130366904Y-191014285D01*
X130319285Y-190823809D01*
X130319285Y-190680952D01*
X130366904Y-190490476D01*
X130414523Y-190395238D01*
X130509761Y-190300000D01*
X130652619Y-190252380D01*
X130747857Y-190252380D01*
X130890714Y-190300000D01*
X130938333Y-190347619D01*
X131890714Y-191252380D02*
X131319285Y-191252380D01*
X131605000Y-191252380D02*
X131605000Y-190252380D01*
X131509761Y-190395238D01*
X131414523Y-190490476D01*
X131319285Y-190538095D01*
X158166666Y-170048571D02*
X157833333Y-170048571D01*
X157833333Y-170572380D02*
X157833333Y-169572380D01*
X158309523Y-169572380D01*
X159119047Y-169572380D02*
X158928571Y-169572380D01*
X158833333Y-169620000D01*
X158785714Y-169667619D01*
X158690476Y-169810476D01*
X158642857Y-170000952D01*
X158642857Y-170381904D01*
X158690476Y-170477142D01*
X158738095Y-170524761D01*
X158833333Y-170572380D01*
X159023809Y-170572380D01*
X159119047Y-170524761D01*
X159166666Y-170477142D01*
X159214285Y-170381904D01*
X159214285Y-170143809D01*
X159166666Y-170048571D01*
X159119047Y-170000952D01*
X159023809Y-169953333D01*
X158833333Y-169953333D01*
X158738095Y-170000952D01*
X158690476Y-170048571D01*
X158642857Y-170143809D01*
X140866666Y-148058571D02*
X140533333Y-148058571D01*
X140533333Y-148582380D02*
X140533333Y-147582380D01*
X141009523Y-147582380D01*
X141295238Y-147582380D02*
X141914285Y-147582380D01*
X141580952Y-147963333D01*
X141723809Y-147963333D01*
X141819047Y-148010952D01*
X141866666Y-148058571D01*
X141914285Y-148153809D01*
X141914285Y-148391904D01*
X141866666Y-148487142D01*
X141819047Y-148534761D01*
X141723809Y-148582380D01*
X141438095Y-148582380D01*
X141342857Y-148534761D01*
X141295238Y-148487142D01*
X140866666Y-168058571D02*
X140533333Y-168058571D01*
X140533333Y-168582380D02*
X140533333Y-167582380D01*
X141009523Y-167582380D01*
X141342857Y-167677619D02*
X141390476Y-167630000D01*
X141485714Y-167582380D01*
X141723809Y-167582380D01*
X141819047Y-167630000D01*
X141866666Y-167677619D01*
X141914285Y-167772857D01*
X141914285Y-167868095D01*
X141866666Y-168010952D01*
X141295238Y-168582380D01*
X141914285Y-168582380D01*
X140666666Y-182058571D02*
X140333333Y-182058571D01*
X140333333Y-182582380D02*
X140333333Y-181582380D01*
X140809523Y-181582380D01*
X141714285Y-182582380D02*
X141142857Y-182582380D01*
X141428571Y-182582380D02*
X141428571Y-181582380D01*
X141333333Y-181725238D01*
X141238095Y-181820476D01*
X141142857Y-181868095D01*
X163238095Y-183452380D02*
X163238095Y-184261904D01*
X163285714Y-184357142D01*
X163333333Y-184404761D01*
X163428571Y-184452380D01*
X163619047Y-184452380D01*
X163714285Y-184404761D01*
X163761904Y-184357142D01*
X163809523Y-184261904D01*
X163809523Y-183452380D01*
X164714285Y-183452380D02*
X164523809Y-183452380D01*
X164428571Y-183500000D01*
X164380952Y-183547619D01*
X164285714Y-183690476D01*
X164238095Y-183880952D01*
X164238095Y-184261904D01*
X164285714Y-184357142D01*
X164333333Y-184404761D01*
X164428571Y-184452380D01*
X164619047Y-184452380D01*
X164714285Y-184404761D01*
X164761904Y-184357142D01*
X164809523Y-184261904D01*
X164809523Y-184023809D01*
X164761904Y-183928571D01*
X164714285Y-183880952D01*
X164619047Y-183833333D01*
X164428571Y-183833333D01*
X164333333Y-183880952D01*
X164285714Y-183928571D01*
X164238095Y-184023809D01*
X162738095Y-163952380D02*
X162738095Y-164761904D01*
X162785714Y-164857142D01*
X162833333Y-164904761D01*
X162928571Y-164952380D01*
X163119047Y-164952380D01*
X163214285Y-164904761D01*
X163261904Y-164857142D01*
X163309523Y-164761904D01*
X163309523Y-163952380D01*
X164261904Y-163952380D02*
X163785714Y-163952380D01*
X163738095Y-164428571D01*
X163785714Y-164380952D01*
X163880952Y-164333333D01*
X164119047Y-164333333D01*
X164214285Y-164380952D01*
X164261904Y-164428571D01*
X164309523Y-164523809D01*
X164309523Y-164761904D01*
X164261904Y-164857142D01*
X164214285Y-164904761D01*
X164119047Y-164952380D01*
X163880952Y-164952380D01*
X163785714Y-164904761D01*
X163738095Y-164857142D01*
X135238095Y-138452380D02*
X135238095Y-139261904D01*
X135285714Y-139357142D01*
X135333333Y-139404761D01*
X135428571Y-139452380D01*
X135619047Y-139452380D01*
X135714285Y-139404761D01*
X135761904Y-139357142D01*
X135809523Y-139261904D01*
X135809523Y-138452380D01*
X136190476Y-138452380D02*
X136809523Y-138452380D01*
X136476190Y-138833333D01*
X136619047Y-138833333D01*
X136714285Y-138880952D01*
X136761904Y-138928571D01*
X136809523Y-139023809D01*
X136809523Y-139261904D01*
X136761904Y-139357142D01*
X136714285Y-139404761D01*
X136619047Y-139452380D01*
X136333333Y-139452380D01*
X136238095Y-139404761D01*
X136190476Y-139357142D01*
X135238095Y-158452380D02*
X135238095Y-159261904D01*
X135285714Y-159357142D01*
X135333333Y-159404761D01*
X135428571Y-159452380D01*
X135619047Y-159452380D01*
X135714285Y-159404761D01*
X135761904Y-159357142D01*
X135809523Y-159261904D01*
X135809523Y-158452380D01*
X136238095Y-158547619D02*
X136285714Y-158500000D01*
X136380952Y-158452380D01*
X136619047Y-158452380D01*
X136714285Y-158500000D01*
X136761904Y-158547619D01*
X136809523Y-158642857D01*
X136809523Y-158738095D01*
X136761904Y-158880952D01*
X136190476Y-159452380D01*
X136809523Y-159452380D01*
X136238095Y-172452380D02*
X136238095Y-173261904D01*
X136285714Y-173357142D01*
X136333333Y-173404761D01*
X136428571Y-173452380D01*
X136619047Y-173452380D01*
X136714285Y-173404761D01*
X136761904Y-173357142D01*
X136809523Y-173261904D01*
X136809523Y-172452380D01*
X137809523Y-173452380D02*
X137238095Y-173452380D01*
X137523809Y-173452380D02*
X137523809Y-172452380D01*
X137428571Y-172595238D01*
X137333333Y-172690476D01*
X137238095Y-172738095D01*
M02*
