G04 #@! TF.GenerationSoftware,KiCad,Pcbnew,(5.0.0-3-g5ebb6b6)*
G04 #@! TF.CreationDate,2018-10-08T20:22:15-06:00*
G04 #@! TF.ProjectId,LED suit power,4C4544207375697420706F7765722E6B,rev?*
G04 #@! TF.SameCoordinates,Original*
G04 #@! TF.FileFunction,Paste,Top*
G04 #@! TF.FilePolarity,Positive*
%FSLAX46Y46*%
G04 Gerber Fmt 4.6, Leading zero omitted, Abs format (unit mm)*
G04 Created by KiCad (PCBNEW (5.0.0-3-g5ebb6b6)) date Monday, October 08, 2018 at 08:22:15 PM*
%MOMM*%
%LPD*%
G01*
G04 APERTURE LIST*
%ADD10R,1.200000X1.200000*%
%ADD11R,1.300000X0.700000*%
%ADD12R,1.600000X3.500000*%
%ADD13R,0.700000X1.300000*%
%ADD14R,1.250000X1.000000*%
%ADD15R,2.750000X3.050000*%
%ADD16R,1.200000X2.200000*%
%ADD17R,1.000000X1.250000*%
%ADD18R,1.600000X1.000000*%
%ADD19R,1.549200X0.249200*%
%ADD20R,2.300000X5.600000*%
%ADD21R,2.550000X2.700000*%
%ADD22R,1.270000X1.270000*%
%ADD23R,4.060000X2.030000*%
%ADD24R,1.780000X4.060000*%
G04 APERTURE END LIST*
D10*
G04 #@! TO.C,D2*
X181500000Y-185350000D03*
X181500000Y-183150000D03*
G04 #@! TD*
G04 #@! TO.C,D4*
X119000000Y-160100000D03*
X119000000Y-157900000D03*
G04 #@! TD*
G04 #@! TO.C,D5*
X119000000Y-137900000D03*
X119000000Y-140100000D03*
G04 #@! TD*
G04 #@! TO.C,D1*
X181500000Y-163150000D03*
X181500000Y-165350000D03*
G04 #@! TD*
G04 #@! TO.C,D3*
X119000000Y-177900000D03*
X119000000Y-180100000D03*
G04 #@! TD*
D11*
G04 #@! TO.C,R28*
X181500000Y-168700000D03*
X181500000Y-166800000D03*
G04 #@! TD*
G04 #@! TO.C,R29*
X181500000Y-186800000D03*
X181500000Y-188700000D03*
G04 #@! TD*
G04 #@! TO.C,R30*
X119000000Y-174550000D03*
X119000000Y-176450000D03*
G04 #@! TD*
G04 #@! TO.C,R31*
X119000000Y-156450000D03*
X119000000Y-154550000D03*
G04 #@! TD*
G04 #@! TO.C,R32*
X119000000Y-134550000D03*
X119000000Y-136450000D03*
G04 #@! TD*
D12*
G04 #@! TO.C,C16*
X157000000Y-143950000D03*
X157000000Y-138550000D03*
G04 #@! TD*
D11*
G04 #@! TO.C,R21*
X170000000Y-138750000D03*
X170000000Y-136850000D03*
G04 #@! TD*
G04 #@! TO.C,R23*
X131500000Y-112950000D03*
X131500000Y-111050000D03*
G04 #@! TD*
G04 #@! TO.C,R22*
X146000000Y-111050000D03*
X146000000Y-112950000D03*
G04 #@! TD*
G04 #@! TO.C,R12*
X148500000Y-112950000D03*
X148500000Y-111050000D03*
G04 #@! TD*
G04 #@! TO.C,R24*
X117000000Y-111050000D03*
X117000000Y-112950000D03*
G04 #@! TD*
D13*
G04 #@! TO.C,R25*
X187550000Y-122000000D03*
X189450000Y-122000000D03*
G04 #@! TD*
G04 #@! TO.C,R26*
X189450000Y-107500000D03*
X187550000Y-107500000D03*
G04 #@! TD*
D11*
G04 #@! TO.C,R27*
X167500000Y-136850000D03*
X167500000Y-138750000D03*
G04 #@! TD*
G04 #@! TO.C,R17*
X134000000Y-111050000D03*
X134000000Y-112950000D03*
G04 #@! TD*
G04 #@! TO.C,R18*
X119500000Y-112950000D03*
X119500000Y-111050000D03*
G04 #@! TD*
D13*
G04 #@! TO.C,R19*
X189450000Y-124500000D03*
X187550000Y-124500000D03*
G04 #@! TD*
G04 #@! TO.C,R20*
X187550000Y-110000000D03*
X189450000Y-110000000D03*
G04 #@! TD*
D14*
G04 #@! TO.C,C11*
X126600000Y-118200000D03*
X126600000Y-120200000D03*
G04 #@! TD*
G04 #@! TO.C,C4*
X136200000Y-117200000D03*
X136200000Y-119200000D03*
G04 #@! TD*
D15*
G04 #@! TO.C,U4*
X129949999Y-122900001D03*
X132999999Y-126250001D03*
X132999999Y-122900001D03*
X129949999Y-126250001D03*
D16*
X129194999Y-118275001D03*
X131474999Y-118275001D03*
X133754999Y-118275001D03*
G04 #@! TD*
D17*
G04 #@! TO.C,C7*
X150000000Y-123000000D03*
X148000000Y-123000000D03*
G04 #@! TD*
D14*
G04 #@! TO.C,C15*
X152250000Y-136500000D03*
X152250000Y-138500000D03*
G04 #@! TD*
D11*
G04 #@! TO.C,R15*
X154305000Y-152080000D03*
X154305000Y-150180000D03*
G04 #@! TD*
G04 #@! TO.C,R16*
X154305000Y-146370000D03*
X154305000Y-148270000D03*
G04 #@! TD*
D17*
G04 #@! TO.C,C14*
X147300000Y-138400000D03*
X145300000Y-138400000D03*
G04 #@! TD*
D16*
G04 #@! TO.C,U9*
X144720000Y-136200000D03*
X147000000Y-136200000D03*
X149280000Y-136200000D03*
D15*
X148525000Y-128225000D03*
X145475000Y-131575000D03*
X145475000Y-128225000D03*
X148525000Y-131575000D03*
G04 #@! TD*
D18*
G04 #@! TO.C,C8*
X118750000Y-185900000D03*
X118750000Y-182900000D03*
G04 #@! TD*
G04 #@! TO.C,C9*
X119000000Y-162900000D03*
X119000000Y-165900000D03*
G04 #@! TD*
G04 #@! TO.C,C10*
X118800000Y-142900000D03*
X118800000Y-145900000D03*
G04 #@! TD*
G04 #@! TO.C,C12*
X181400000Y-160350000D03*
X181400000Y-157350000D03*
G04 #@! TD*
G04 #@! TO.C,C13*
X181200000Y-180150000D03*
X181200000Y-177150000D03*
G04 #@! TD*
D13*
G04 #@! TO.C,R9*
X119695000Y-172500000D03*
X117795000Y-172500000D03*
G04 #@! TD*
G04 #@! TO.C,R10*
X119695000Y-152400000D03*
X117795000Y-152400000D03*
G04 #@! TD*
G04 #@! TO.C,R11*
X119695000Y-132500000D03*
X117795000Y-132500000D03*
G04 #@! TD*
G04 #@! TO.C,R13*
X180025000Y-170875000D03*
X181925000Y-170875000D03*
G04 #@! TD*
G04 #@! TO.C,R14*
X180300000Y-191000000D03*
X182200000Y-191000000D03*
G04 #@! TD*
D19*
G04 #@! TO.C,U8*
X144700000Y-115075000D03*
X144700000Y-115725000D03*
X150300000Y-117675000D03*
X150300000Y-118325000D03*
X150300000Y-118975000D03*
X150300000Y-119625000D03*
X150300000Y-120275000D03*
X150300000Y-120925000D03*
X150300000Y-117025000D03*
X150300000Y-116375000D03*
X150300000Y-115725000D03*
X150300000Y-115075000D03*
X144700000Y-116375000D03*
X144700000Y-117025000D03*
X144700000Y-117675000D03*
X144700000Y-118325000D03*
X144700000Y-118975000D03*
X144700000Y-119625000D03*
X144700000Y-120925000D03*
X144700000Y-120275000D03*
G04 #@! TD*
D13*
G04 #@! TO.C,R1*
X181450000Y-139763344D03*
X179550000Y-139763344D03*
G04 #@! TD*
G04 #@! TO.C,R2*
X181450000Y-142213344D03*
X179550000Y-142213344D03*
G04 #@! TD*
G04 #@! TO.C,R3*
X181450000Y-144763344D03*
X179550000Y-144763344D03*
G04 #@! TD*
G04 #@! TO.C,R4*
X181450000Y-147263344D03*
X179550000Y-147263344D03*
G04 #@! TD*
G04 #@! TO.C,R5*
X117486223Y-124481786D03*
X119386223Y-124481786D03*
G04 #@! TD*
G04 #@! TO.C,R6*
X117486223Y-121981786D03*
X119386223Y-121981786D03*
G04 #@! TD*
G04 #@! TO.C,R7*
X117486223Y-119481786D03*
X119386223Y-119481786D03*
G04 #@! TD*
G04 #@! TO.C,R8*
X117486223Y-116981786D03*
X119386223Y-116981786D03*
G04 #@! TD*
D20*
G04 #@! TO.C,F5*
X154300000Y-159250000D03*
X161700000Y-159250000D03*
G04 #@! TD*
D21*
G04 #@! TO.C,C6*
X165720000Y-176250000D03*
X172070000Y-176250000D03*
G04 #@! TD*
G04 #@! TO.C,C5*
X165720000Y-156250000D03*
X172070000Y-156250000D03*
G04 #@! TD*
G04 #@! TO.C,C3*
X134180000Y-147000000D03*
X127830000Y-147000000D03*
G04 #@! TD*
G04 #@! TO.C,C2*
X134180000Y-167000000D03*
X127830000Y-167000000D03*
G04 #@! TD*
G04 #@! TO.C,C1*
X134280000Y-186900000D03*
X127930000Y-186900000D03*
G04 #@! TD*
D20*
G04 #@! TO.C,F6*
X154300000Y-174250000D03*
X161700000Y-174250000D03*
G04 #@! TD*
G04 #@! TO.C,F3*
X145400000Y-144000000D03*
X138000000Y-144000000D03*
G04 #@! TD*
G04 #@! TO.C,F2*
X145400000Y-164000000D03*
X138000000Y-164000000D03*
G04 #@! TD*
G04 #@! TO.C,F1*
X145700000Y-178000000D03*
X138300000Y-178000000D03*
G04 #@! TD*
D22*
G04 #@! TO.C,U6*
X167430000Y-186250000D03*
X176570000Y-186250000D03*
D23*
X168570000Y-181680000D03*
X173140000Y-181680000D03*
D24*
X176570000Y-182820000D03*
D22*
X167430000Y-188540000D03*
X167430000Y-190820000D03*
X169710000Y-190820000D03*
X172000000Y-190820000D03*
X174290000Y-190820000D03*
X176570000Y-190820000D03*
X176570000Y-188540000D03*
G04 #@! TD*
G04 #@! TO.C,U5*
X167430000Y-166250000D03*
X176570000Y-166250000D03*
D23*
X168570000Y-161680000D03*
X173140000Y-161680000D03*
D24*
X176570000Y-162820000D03*
D22*
X167430000Y-168540000D03*
X167430000Y-170820000D03*
X169710000Y-170820000D03*
X172000000Y-170820000D03*
X174290000Y-170820000D03*
X176570000Y-170820000D03*
X176570000Y-168540000D03*
G04 #@! TD*
G04 #@! TO.C,U3*
X132570000Y-137000000D03*
X123430000Y-137000000D03*
D23*
X131430000Y-141570000D03*
X126860000Y-141570000D03*
D24*
X123430000Y-140430000D03*
D22*
X132570000Y-134710000D03*
X132570000Y-132430000D03*
X130290000Y-132430000D03*
X128000000Y-132430000D03*
X125710000Y-132430000D03*
X123430000Y-132430000D03*
X123430000Y-134710000D03*
G04 #@! TD*
G04 #@! TO.C,U2*
X132570000Y-157000000D03*
X123430000Y-157000000D03*
D23*
X131430000Y-161570000D03*
X126860000Y-161570000D03*
D24*
X123430000Y-160430000D03*
D22*
X132570000Y-154710000D03*
X132570000Y-152430000D03*
X130290000Y-152430000D03*
X128000000Y-152430000D03*
X125710000Y-152430000D03*
X123430000Y-152430000D03*
X123430000Y-154710000D03*
G04 #@! TD*
G04 #@! TO.C,U1*
X132570000Y-177000000D03*
X123430000Y-177000000D03*
D23*
X131430000Y-181570000D03*
X126860000Y-181570000D03*
D24*
X123430000Y-180430000D03*
D22*
X132570000Y-174710000D03*
X132570000Y-172430000D03*
X130290000Y-172430000D03*
X128000000Y-172430000D03*
X125710000Y-172430000D03*
X123430000Y-172430000D03*
X123430000Y-174710000D03*
G04 #@! TD*
M02*
