G04 #@! TF.GenerationSoftware,KiCad,Pcbnew,(5.1.4-0-10_14)*
G04 #@! TF.CreationDate,2019-09-27T20:48:50-06:00*
G04 #@! TF.ProjectId,LED suit power,4c454420-7375-4697-9420-706f7765722e,rev?*
G04 #@! TF.SameCoordinates,Original*
G04 #@! TF.FileFunction,Paste,Top*
G04 #@! TF.FilePolarity,Positive*
%FSLAX46Y46*%
G04 Gerber Fmt 4.6, Leading zero omitted, Abs format (unit mm)*
G04 Created by KiCad (PCBNEW (5.1.4-0-10_14)) date 2019-09-27 20:48:50*
%MOMM*%
%LPD*%
G04 APERTURE LIST*
%ADD10C,0.100000*%
%ADD11C,0.975000*%
%ADD12R,1.100000X0.400000*%
%ADD13R,1.250000X1.000000*%
%ADD14R,1.050000X1.500000*%
%ADD15R,2.400000X1.500000*%
%ADD16R,0.249200X1.549200*%
%ADD17R,1.200000X1.200000*%
%ADD18R,1.300000X0.700000*%
%ADD19R,3.500000X1.600000*%
%ADD20R,0.700000X1.300000*%
%ADD21R,1.000000X1.250000*%
%ADD22R,3.050000X2.750000*%
%ADD23R,2.200000X1.200000*%
%ADD24R,1.600000X1.000000*%
%ADD25R,2.300000X5.600000*%
%ADD26R,2.550000X2.700000*%
%ADD27R,1.270000X1.270000*%
%ADD28R,4.060000X2.030000*%
%ADD29R,1.780000X4.060000*%
G04 APERTURE END LIST*
D10*
G36*
X141030142Y-113701174D02*
G01*
X141053803Y-113704684D01*
X141077007Y-113710496D01*
X141099529Y-113718554D01*
X141121153Y-113728782D01*
X141141670Y-113741079D01*
X141160883Y-113755329D01*
X141178607Y-113771393D01*
X141194671Y-113789117D01*
X141208921Y-113808330D01*
X141221218Y-113828847D01*
X141231446Y-113850471D01*
X141239504Y-113872993D01*
X141245316Y-113896197D01*
X141248826Y-113919858D01*
X141250000Y-113943750D01*
X141250000Y-114856250D01*
X141248826Y-114880142D01*
X141245316Y-114903803D01*
X141239504Y-114927007D01*
X141231446Y-114949529D01*
X141221218Y-114971153D01*
X141208921Y-114991670D01*
X141194671Y-115010883D01*
X141178607Y-115028607D01*
X141160883Y-115044671D01*
X141141670Y-115058921D01*
X141121153Y-115071218D01*
X141099529Y-115081446D01*
X141077007Y-115089504D01*
X141053803Y-115095316D01*
X141030142Y-115098826D01*
X141006250Y-115100000D01*
X140518750Y-115100000D01*
X140494858Y-115098826D01*
X140471197Y-115095316D01*
X140447993Y-115089504D01*
X140425471Y-115081446D01*
X140403847Y-115071218D01*
X140383330Y-115058921D01*
X140364117Y-115044671D01*
X140346393Y-115028607D01*
X140330329Y-115010883D01*
X140316079Y-114991670D01*
X140303782Y-114971153D01*
X140293554Y-114949529D01*
X140285496Y-114927007D01*
X140279684Y-114903803D01*
X140276174Y-114880142D01*
X140275000Y-114856250D01*
X140275000Y-113943750D01*
X140276174Y-113919858D01*
X140279684Y-113896197D01*
X140285496Y-113872993D01*
X140293554Y-113850471D01*
X140303782Y-113828847D01*
X140316079Y-113808330D01*
X140330329Y-113789117D01*
X140346393Y-113771393D01*
X140364117Y-113755329D01*
X140383330Y-113741079D01*
X140403847Y-113728782D01*
X140425471Y-113718554D01*
X140447993Y-113710496D01*
X140471197Y-113704684D01*
X140494858Y-113701174D01*
X140518750Y-113700000D01*
X141006250Y-113700000D01*
X141030142Y-113701174D01*
X141030142Y-113701174D01*
G37*
D11*
X140762500Y-114400000D03*
D10*
G36*
X142905142Y-113701174D02*
G01*
X142928803Y-113704684D01*
X142952007Y-113710496D01*
X142974529Y-113718554D01*
X142996153Y-113728782D01*
X143016670Y-113741079D01*
X143035883Y-113755329D01*
X143053607Y-113771393D01*
X143069671Y-113789117D01*
X143083921Y-113808330D01*
X143096218Y-113828847D01*
X143106446Y-113850471D01*
X143114504Y-113872993D01*
X143120316Y-113896197D01*
X143123826Y-113919858D01*
X143125000Y-113943750D01*
X143125000Y-114856250D01*
X143123826Y-114880142D01*
X143120316Y-114903803D01*
X143114504Y-114927007D01*
X143106446Y-114949529D01*
X143096218Y-114971153D01*
X143083921Y-114991670D01*
X143069671Y-115010883D01*
X143053607Y-115028607D01*
X143035883Y-115044671D01*
X143016670Y-115058921D01*
X142996153Y-115071218D01*
X142974529Y-115081446D01*
X142952007Y-115089504D01*
X142928803Y-115095316D01*
X142905142Y-115098826D01*
X142881250Y-115100000D01*
X142393750Y-115100000D01*
X142369858Y-115098826D01*
X142346197Y-115095316D01*
X142322993Y-115089504D01*
X142300471Y-115081446D01*
X142278847Y-115071218D01*
X142258330Y-115058921D01*
X142239117Y-115044671D01*
X142221393Y-115028607D01*
X142205329Y-115010883D01*
X142191079Y-114991670D01*
X142178782Y-114971153D01*
X142168554Y-114949529D01*
X142160496Y-114927007D01*
X142154684Y-114903803D01*
X142151174Y-114880142D01*
X142150000Y-114856250D01*
X142150000Y-113943750D01*
X142151174Y-113919858D01*
X142154684Y-113896197D01*
X142160496Y-113872993D01*
X142168554Y-113850471D01*
X142178782Y-113828847D01*
X142191079Y-113808330D01*
X142205329Y-113789117D01*
X142221393Y-113771393D01*
X142239117Y-113755329D01*
X142258330Y-113741079D01*
X142278847Y-113728782D01*
X142300471Y-113718554D01*
X142322993Y-113710496D01*
X142346197Y-113704684D01*
X142369858Y-113701174D01*
X142393750Y-113700000D01*
X142881250Y-113700000D01*
X142905142Y-113701174D01*
X142905142Y-113701174D01*
G37*
D11*
X142637500Y-114400000D03*
D10*
G36*
X141030142Y-115601174D02*
G01*
X141053803Y-115604684D01*
X141077007Y-115610496D01*
X141099529Y-115618554D01*
X141121153Y-115628782D01*
X141141670Y-115641079D01*
X141160883Y-115655329D01*
X141178607Y-115671393D01*
X141194671Y-115689117D01*
X141208921Y-115708330D01*
X141221218Y-115728847D01*
X141231446Y-115750471D01*
X141239504Y-115772993D01*
X141245316Y-115796197D01*
X141248826Y-115819858D01*
X141250000Y-115843750D01*
X141250000Y-116756250D01*
X141248826Y-116780142D01*
X141245316Y-116803803D01*
X141239504Y-116827007D01*
X141231446Y-116849529D01*
X141221218Y-116871153D01*
X141208921Y-116891670D01*
X141194671Y-116910883D01*
X141178607Y-116928607D01*
X141160883Y-116944671D01*
X141141670Y-116958921D01*
X141121153Y-116971218D01*
X141099529Y-116981446D01*
X141077007Y-116989504D01*
X141053803Y-116995316D01*
X141030142Y-116998826D01*
X141006250Y-117000000D01*
X140518750Y-117000000D01*
X140494858Y-116998826D01*
X140471197Y-116995316D01*
X140447993Y-116989504D01*
X140425471Y-116981446D01*
X140403847Y-116971218D01*
X140383330Y-116958921D01*
X140364117Y-116944671D01*
X140346393Y-116928607D01*
X140330329Y-116910883D01*
X140316079Y-116891670D01*
X140303782Y-116871153D01*
X140293554Y-116849529D01*
X140285496Y-116827007D01*
X140279684Y-116803803D01*
X140276174Y-116780142D01*
X140275000Y-116756250D01*
X140275000Y-115843750D01*
X140276174Y-115819858D01*
X140279684Y-115796197D01*
X140285496Y-115772993D01*
X140293554Y-115750471D01*
X140303782Y-115728847D01*
X140316079Y-115708330D01*
X140330329Y-115689117D01*
X140346393Y-115671393D01*
X140364117Y-115655329D01*
X140383330Y-115641079D01*
X140403847Y-115628782D01*
X140425471Y-115618554D01*
X140447993Y-115610496D01*
X140471197Y-115604684D01*
X140494858Y-115601174D01*
X140518750Y-115600000D01*
X141006250Y-115600000D01*
X141030142Y-115601174D01*
X141030142Y-115601174D01*
G37*
D11*
X140762500Y-116300000D03*
D10*
G36*
X142905142Y-115601174D02*
G01*
X142928803Y-115604684D01*
X142952007Y-115610496D01*
X142974529Y-115618554D01*
X142996153Y-115628782D01*
X143016670Y-115641079D01*
X143035883Y-115655329D01*
X143053607Y-115671393D01*
X143069671Y-115689117D01*
X143083921Y-115708330D01*
X143096218Y-115728847D01*
X143106446Y-115750471D01*
X143114504Y-115772993D01*
X143120316Y-115796197D01*
X143123826Y-115819858D01*
X143125000Y-115843750D01*
X143125000Y-116756250D01*
X143123826Y-116780142D01*
X143120316Y-116803803D01*
X143114504Y-116827007D01*
X143106446Y-116849529D01*
X143096218Y-116871153D01*
X143083921Y-116891670D01*
X143069671Y-116910883D01*
X143053607Y-116928607D01*
X143035883Y-116944671D01*
X143016670Y-116958921D01*
X142996153Y-116971218D01*
X142974529Y-116981446D01*
X142952007Y-116989504D01*
X142928803Y-116995316D01*
X142905142Y-116998826D01*
X142881250Y-117000000D01*
X142393750Y-117000000D01*
X142369858Y-116998826D01*
X142346197Y-116995316D01*
X142322993Y-116989504D01*
X142300471Y-116981446D01*
X142278847Y-116971218D01*
X142258330Y-116958921D01*
X142239117Y-116944671D01*
X142221393Y-116928607D01*
X142205329Y-116910883D01*
X142191079Y-116891670D01*
X142178782Y-116871153D01*
X142168554Y-116849529D01*
X142160496Y-116827007D01*
X142154684Y-116803803D01*
X142151174Y-116780142D01*
X142150000Y-116756250D01*
X142150000Y-115843750D01*
X142151174Y-115819858D01*
X142154684Y-115796197D01*
X142160496Y-115772993D01*
X142168554Y-115750471D01*
X142178782Y-115728847D01*
X142191079Y-115708330D01*
X142205329Y-115689117D01*
X142221393Y-115671393D01*
X142239117Y-115655329D01*
X142258330Y-115641079D01*
X142278847Y-115628782D01*
X142300471Y-115618554D01*
X142322993Y-115610496D01*
X142346197Y-115604684D01*
X142369858Y-115601174D01*
X142393750Y-115600000D01*
X142881250Y-115600000D01*
X142905142Y-115601174D01*
X142905142Y-115601174D01*
G37*
D11*
X142637500Y-116300000D03*
D10*
G36*
X154105142Y-118051174D02*
G01*
X154128803Y-118054684D01*
X154152007Y-118060496D01*
X154174529Y-118068554D01*
X154196153Y-118078782D01*
X154216670Y-118091079D01*
X154235883Y-118105329D01*
X154253607Y-118121393D01*
X154269671Y-118139117D01*
X154283921Y-118158330D01*
X154296218Y-118178847D01*
X154306446Y-118200471D01*
X154314504Y-118222993D01*
X154320316Y-118246197D01*
X154323826Y-118269858D01*
X154325000Y-118293750D01*
X154325000Y-119206250D01*
X154323826Y-119230142D01*
X154320316Y-119253803D01*
X154314504Y-119277007D01*
X154306446Y-119299529D01*
X154296218Y-119321153D01*
X154283921Y-119341670D01*
X154269671Y-119360883D01*
X154253607Y-119378607D01*
X154235883Y-119394671D01*
X154216670Y-119408921D01*
X154196153Y-119421218D01*
X154174529Y-119431446D01*
X154152007Y-119439504D01*
X154128803Y-119445316D01*
X154105142Y-119448826D01*
X154081250Y-119450000D01*
X153593750Y-119450000D01*
X153569858Y-119448826D01*
X153546197Y-119445316D01*
X153522993Y-119439504D01*
X153500471Y-119431446D01*
X153478847Y-119421218D01*
X153458330Y-119408921D01*
X153439117Y-119394671D01*
X153421393Y-119378607D01*
X153405329Y-119360883D01*
X153391079Y-119341670D01*
X153378782Y-119321153D01*
X153368554Y-119299529D01*
X153360496Y-119277007D01*
X153354684Y-119253803D01*
X153351174Y-119230142D01*
X153350000Y-119206250D01*
X153350000Y-118293750D01*
X153351174Y-118269858D01*
X153354684Y-118246197D01*
X153360496Y-118222993D01*
X153368554Y-118200471D01*
X153378782Y-118178847D01*
X153391079Y-118158330D01*
X153405329Y-118139117D01*
X153421393Y-118121393D01*
X153439117Y-118105329D01*
X153458330Y-118091079D01*
X153478847Y-118078782D01*
X153500471Y-118068554D01*
X153522993Y-118060496D01*
X153546197Y-118054684D01*
X153569858Y-118051174D01*
X153593750Y-118050000D01*
X154081250Y-118050000D01*
X154105142Y-118051174D01*
X154105142Y-118051174D01*
G37*
D11*
X153837500Y-118750000D03*
D10*
G36*
X152230142Y-118051174D02*
G01*
X152253803Y-118054684D01*
X152277007Y-118060496D01*
X152299529Y-118068554D01*
X152321153Y-118078782D01*
X152341670Y-118091079D01*
X152360883Y-118105329D01*
X152378607Y-118121393D01*
X152394671Y-118139117D01*
X152408921Y-118158330D01*
X152421218Y-118178847D01*
X152431446Y-118200471D01*
X152439504Y-118222993D01*
X152445316Y-118246197D01*
X152448826Y-118269858D01*
X152450000Y-118293750D01*
X152450000Y-119206250D01*
X152448826Y-119230142D01*
X152445316Y-119253803D01*
X152439504Y-119277007D01*
X152431446Y-119299529D01*
X152421218Y-119321153D01*
X152408921Y-119341670D01*
X152394671Y-119360883D01*
X152378607Y-119378607D01*
X152360883Y-119394671D01*
X152341670Y-119408921D01*
X152321153Y-119421218D01*
X152299529Y-119431446D01*
X152277007Y-119439504D01*
X152253803Y-119445316D01*
X152230142Y-119448826D01*
X152206250Y-119450000D01*
X151718750Y-119450000D01*
X151694858Y-119448826D01*
X151671197Y-119445316D01*
X151647993Y-119439504D01*
X151625471Y-119431446D01*
X151603847Y-119421218D01*
X151583330Y-119408921D01*
X151564117Y-119394671D01*
X151546393Y-119378607D01*
X151530329Y-119360883D01*
X151516079Y-119341670D01*
X151503782Y-119321153D01*
X151493554Y-119299529D01*
X151485496Y-119277007D01*
X151479684Y-119253803D01*
X151476174Y-119230142D01*
X151475000Y-119206250D01*
X151475000Y-118293750D01*
X151476174Y-118269858D01*
X151479684Y-118246197D01*
X151485496Y-118222993D01*
X151493554Y-118200471D01*
X151503782Y-118178847D01*
X151516079Y-118158330D01*
X151530329Y-118139117D01*
X151546393Y-118121393D01*
X151564117Y-118105329D01*
X151583330Y-118091079D01*
X151603847Y-118078782D01*
X151625471Y-118068554D01*
X151647993Y-118060496D01*
X151671197Y-118054684D01*
X151694858Y-118051174D01*
X151718750Y-118050000D01*
X152206250Y-118050000D01*
X152230142Y-118051174D01*
X152230142Y-118051174D01*
G37*
D11*
X151962500Y-118750000D03*
D10*
G36*
X148555142Y-113801174D02*
G01*
X148578803Y-113804684D01*
X148602007Y-113810496D01*
X148624529Y-113818554D01*
X148646153Y-113828782D01*
X148666670Y-113841079D01*
X148685883Y-113855329D01*
X148703607Y-113871393D01*
X148719671Y-113889117D01*
X148733921Y-113908330D01*
X148746218Y-113928847D01*
X148756446Y-113950471D01*
X148764504Y-113972993D01*
X148770316Y-113996197D01*
X148773826Y-114019858D01*
X148775000Y-114043750D01*
X148775000Y-114956250D01*
X148773826Y-114980142D01*
X148770316Y-115003803D01*
X148764504Y-115027007D01*
X148756446Y-115049529D01*
X148746218Y-115071153D01*
X148733921Y-115091670D01*
X148719671Y-115110883D01*
X148703607Y-115128607D01*
X148685883Y-115144671D01*
X148666670Y-115158921D01*
X148646153Y-115171218D01*
X148624529Y-115181446D01*
X148602007Y-115189504D01*
X148578803Y-115195316D01*
X148555142Y-115198826D01*
X148531250Y-115200000D01*
X148043750Y-115200000D01*
X148019858Y-115198826D01*
X147996197Y-115195316D01*
X147972993Y-115189504D01*
X147950471Y-115181446D01*
X147928847Y-115171218D01*
X147908330Y-115158921D01*
X147889117Y-115144671D01*
X147871393Y-115128607D01*
X147855329Y-115110883D01*
X147841079Y-115091670D01*
X147828782Y-115071153D01*
X147818554Y-115049529D01*
X147810496Y-115027007D01*
X147804684Y-115003803D01*
X147801174Y-114980142D01*
X147800000Y-114956250D01*
X147800000Y-114043750D01*
X147801174Y-114019858D01*
X147804684Y-113996197D01*
X147810496Y-113972993D01*
X147818554Y-113950471D01*
X147828782Y-113928847D01*
X147841079Y-113908330D01*
X147855329Y-113889117D01*
X147871393Y-113871393D01*
X147889117Y-113855329D01*
X147908330Y-113841079D01*
X147928847Y-113828782D01*
X147950471Y-113818554D01*
X147972993Y-113810496D01*
X147996197Y-113804684D01*
X148019858Y-113801174D01*
X148043750Y-113800000D01*
X148531250Y-113800000D01*
X148555142Y-113801174D01*
X148555142Y-113801174D01*
G37*
D11*
X148287500Y-114500000D03*
D10*
G36*
X146680142Y-113801174D02*
G01*
X146703803Y-113804684D01*
X146727007Y-113810496D01*
X146749529Y-113818554D01*
X146771153Y-113828782D01*
X146791670Y-113841079D01*
X146810883Y-113855329D01*
X146828607Y-113871393D01*
X146844671Y-113889117D01*
X146858921Y-113908330D01*
X146871218Y-113928847D01*
X146881446Y-113950471D01*
X146889504Y-113972993D01*
X146895316Y-113996197D01*
X146898826Y-114019858D01*
X146900000Y-114043750D01*
X146900000Y-114956250D01*
X146898826Y-114980142D01*
X146895316Y-115003803D01*
X146889504Y-115027007D01*
X146881446Y-115049529D01*
X146871218Y-115071153D01*
X146858921Y-115091670D01*
X146844671Y-115110883D01*
X146828607Y-115128607D01*
X146810883Y-115144671D01*
X146791670Y-115158921D01*
X146771153Y-115171218D01*
X146749529Y-115181446D01*
X146727007Y-115189504D01*
X146703803Y-115195316D01*
X146680142Y-115198826D01*
X146656250Y-115200000D01*
X146168750Y-115200000D01*
X146144858Y-115198826D01*
X146121197Y-115195316D01*
X146097993Y-115189504D01*
X146075471Y-115181446D01*
X146053847Y-115171218D01*
X146033330Y-115158921D01*
X146014117Y-115144671D01*
X145996393Y-115128607D01*
X145980329Y-115110883D01*
X145966079Y-115091670D01*
X145953782Y-115071153D01*
X145943554Y-115049529D01*
X145935496Y-115027007D01*
X145929684Y-115003803D01*
X145926174Y-114980142D01*
X145925000Y-114956250D01*
X145925000Y-114043750D01*
X145926174Y-114019858D01*
X145929684Y-113996197D01*
X145935496Y-113972993D01*
X145943554Y-113950471D01*
X145953782Y-113928847D01*
X145966079Y-113908330D01*
X145980329Y-113889117D01*
X145996393Y-113871393D01*
X146014117Y-113855329D01*
X146033330Y-113841079D01*
X146053847Y-113828782D01*
X146075471Y-113818554D01*
X146097993Y-113810496D01*
X146121197Y-113804684D01*
X146144858Y-113801174D01*
X146168750Y-113800000D01*
X146656250Y-113800000D01*
X146680142Y-113801174D01*
X146680142Y-113801174D01*
G37*
D11*
X146412500Y-114500000D03*
D10*
G36*
X154105142Y-115001174D02*
G01*
X154128803Y-115004684D01*
X154152007Y-115010496D01*
X154174529Y-115018554D01*
X154196153Y-115028782D01*
X154216670Y-115041079D01*
X154235883Y-115055329D01*
X154253607Y-115071393D01*
X154269671Y-115089117D01*
X154283921Y-115108330D01*
X154296218Y-115128847D01*
X154306446Y-115150471D01*
X154314504Y-115172993D01*
X154320316Y-115196197D01*
X154323826Y-115219858D01*
X154325000Y-115243750D01*
X154325000Y-116156250D01*
X154323826Y-116180142D01*
X154320316Y-116203803D01*
X154314504Y-116227007D01*
X154306446Y-116249529D01*
X154296218Y-116271153D01*
X154283921Y-116291670D01*
X154269671Y-116310883D01*
X154253607Y-116328607D01*
X154235883Y-116344671D01*
X154216670Y-116358921D01*
X154196153Y-116371218D01*
X154174529Y-116381446D01*
X154152007Y-116389504D01*
X154128803Y-116395316D01*
X154105142Y-116398826D01*
X154081250Y-116400000D01*
X153593750Y-116400000D01*
X153569858Y-116398826D01*
X153546197Y-116395316D01*
X153522993Y-116389504D01*
X153500471Y-116381446D01*
X153478847Y-116371218D01*
X153458330Y-116358921D01*
X153439117Y-116344671D01*
X153421393Y-116328607D01*
X153405329Y-116310883D01*
X153391079Y-116291670D01*
X153378782Y-116271153D01*
X153368554Y-116249529D01*
X153360496Y-116227007D01*
X153354684Y-116203803D01*
X153351174Y-116180142D01*
X153350000Y-116156250D01*
X153350000Y-115243750D01*
X153351174Y-115219858D01*
X153354684Y-115196197D01*
X153360496Y-115172993D01*
X153368554Y-115150471D01*
X153378782Y-115128847D01*
X153391079Y-115108330D01*
X153405329Y-115089117D01*
X153421393Y-115071393D01*
X153439117Y-115055329D01*
X153458330Y-115041079D01*
X153478847Y-115028782D01*
X153500471Y-115018554D01*
X153522993Y-115010496D01*
X153546197Y-115004684D01*
X153569858Y-115001174D01*
X153593750Y-115000000D01*
X154081250Y-115000000D01*
X154105142Y-115001174D01*
X154105142Y-115001174D01*
G37*
D11*
X153837500Y-115700000D03*
D10*
G36*
X152230142Y-115001174D02*
G01*
X152253803Y-115004684D01*
X152277007Y-115010496D01*
X152299529Y-115018554D01*
X152321153Y-115028782D01*
X152341670Y-115041079D01*
X152360883Y-115055329D01*
X152378607Y-115071393D01*
X152394671Y-115089117D01*
X152408921Y-115108330D01*
X152421218Y-115128847D01*
X152431446Y-115150471D01*
X152439504Y-115172993D01*
X152445316Y-115196197D01*
X152448826Y-115219858D01*
X152450000Y-115243750D01*
X152450000Y-116156250D01*
X152448826Y-116180142D01*
X152445316Y-116203803D01*
X152439504Y-116227007D01*
X152431446Y-116249529D01*
X152421218Y-116271153D01*
X152408921Y-116291670D01*
X152394671Y-116310883D01*
X152378607Y-116328607D01*
X152360883Y-116344671D01*
X152341670Y-116358921D01*
X152321153Y-116371218D01*
X152299529Y-116381446D01*
X152277007Y-116389504D01*
X152253803Y-116395316D01*
X152230142Y-116398826D01*
X152206250Y-116400000D01*
X151718750Y-116400000D01*
X151694858Y-116398826D01*
X151671197Y-116395316D01*
X151647993Y-116389504D01*
X151625471Y-116381446D01*
X151603847Y-116371218D01*
X151583330Y-116358921D01*
X151564117Y-116344671D01*
X151546393Y-116328607D01*
X151530329Y-116310883D01*
X151516079Y-116291670D01*
X151503782Y-116271153D01*
X151493554Y-116249529D01*
X151485496Y-116227007D01*
X151479684Y-116203803D01*
X151476174Y-116180142D01*
X151475000Y-116156250D01*
X151475000Y-115243750D01*
X151476174Y-115219858D01*
X151479684Y-115196197D01*
X151485496Y-115172993D01*
X151493554Y-115150471D01*
X151503782Y-115128847D01*
X151516079Y-115108330D01*
X151530329Y-115089117D01*
X151546393Y-115071393D01*
X151564117Y-115055329D01*
X151583330Y-115041079D01*
X151603847Y-115028782D01*
X151625471Y-115018554D01*
X151647993Y-115010496D01*
X151671197Y-115004684D01*
X151694858Y-115001174D01*
X151718750Y-115000000D01*
X152206250Y-115000000D01*
X152230142Y-115001174D01*
X152230142Y-115001174D01*
G37*
D11*
X151962500Y-115700000D03*
D12*
X150200000Y-116125000D03*
X150200000Y-116775000D03*
X150200000Y-117425000D03*
X150200000Y-118075000D03*
X150200000Y-118725000D03*
X150200000Y-119375000D03*
X150200000Y-120025000D03*
X150200000Y-120675000D03*
X150200000Y-121325000D03*
X150200000Y-121975000D03*
X150200000Y-122625000D03*
X150200000Y-123275000D03*
X144500000Y-123275000D03*
X144500000Y-122625000D03*
X144500000Y-121975000D03*
X144500000Y-121325000D03*
X144500000Y-120675000D03*
X144500000Y-120025000D03*
X144500000Y-119375000D03*
X144500000Y-118725000D03*
X144500000Y-118075000D03*
X144500000Y-117425000D03*
X144500000Y-116775000D03*
X144500000Y-116125000D03*
D13*
X151550000Y-138925000D03*
X151550000Y-136925000D03*
D14*
X155875000Y-138000000D03*
D15*
X158250000Y-138000000D03*
D16*
X167175000Y-144400000D03*
X167825000Y-144400000D03*
X169775000Y-138800000D03*
X170425000Y-138800000D03*
X171075000Y-138800000D03*
X171725000Y-138800000D03*
X172375000Y-138800000D03*
X173025000Y-138800000D03*
X169125000Y-138800000D03*
X168475000Y-138800000D03*
X167825000Y-138800000D03*
X167175000Y-138800000D03*
X168475000Y-144400000D03*
X169125000Y-144400000D03*
X169775000Y-144400000D03*
X170425000Y-144400000D03*
X171075000Y-144400000D03*
X171725000Y-144400000D03*
X173025000Y-144400000D03*
X172375000Y-144400000D03*
D17*
X181500000Y-185350000D03*
X181500000Y-183150000D03*
X119000000Y-160100000D03*
X119000000Y-157900000D03*
X119000000Y-137900000D03*
X119000000Y-140100000D03*
X181500000Y-163150000D03*
X181500000Y-165350000D03*
X119000000Y-177900000D03*
X119000000Y-180100000D03*
D18*
X181500000Y-168700000D03*
X181500000Y-166800000D03*
X181500000Y-186800000D03*
X181500000Y-188700000D03*
X119000000Y-174550000D03*
X119000000Y-176450000D03*
X119000000Y-156450000D03*
X119000000Y-154550000D03*
X119000000Y-134550000D03*
X119000000Y-136450000D03*
D19*
X141650000Y-127500000D03*
X147050000Y-127500000D03*
D20*
X184300000Y-130250000D03*
X186200000Y-130250000D03*
D18*
X131500000Y-112950000D03*
X131500000Y-111050000D03*
X146000000Y-111050000D03*
X146000000Y-112950000D03*
X148500000Y-112950000D03*
X148500000Y-111050000D03*
X117000000Y-111050000D03*
X117000000Y-112950000D03*
D20*
X187550000Y-122000000D03*
X189450000Y-122000000D03*
X189450000Y-107500000D03*
X187550000Y-107500000D03*
X186200000Y-127750000D03*
X184300000Y-127750000D03*
D18*
X134000000Y-111050000D03*
X134000000Y-112950000D03*
X119500000Y-112950000D03*
X119500000Y-111050000D03*
D20*
X189450000Y-124500000D03*
X187550000Y-124500000D03*
X187550000Y-110000000D03*
X189450000Y-110000000D03*
D13*
X136400000Y-117850000D03*
X136400000Y-119850000D03*
D21*
X133050000Y-124550000D03*
X135050000Y-124550000D03*
D22*
X129499999Y-118549999D03*
X126149999Y-121599999D03*
X129499999Y-121599999D03*
X126149999Y-118549999D03*
D23*
X134124999Y-117794999D03*
X134124999Y-120074999D03*
X134124999Y-122354999D03*
D13*
X174800000Y-143400000D03*
X174800000Y-141400000D03*
X151400000Y-132425000D03*
X151400000Y-134425000D03*
D18*
X154305000Y-152080000D03*
X154305000Y-150180000D03*
X154305000Y-146370000D03*
X154305000Y-148270000D03*
D23*
X148864461Y-136935109D03*
X148864461Y-134655109D03*
X148864461Y-132375109D03*
D22*
X140889461Y-133130109D03*
X144239461Y-136180109D03*
X140889461Y-136180109D03*
X144239461Y-133130109D03*
D24*
X118750000Y-185900000D03*
X118750000Y-182900000D03*
X119000000Y-162900000D03*
X119000000Y-165900000D03*
X118800000Y-142900000D03*
X118800000Y-145900000D03*
X181400000Y-160350000D03*
X181400000Y-157350000D03*
X181200000Y-180150000D03*
X181200000Y-177150000D03*
D20*
X119695000Y-172500000D03*
X117795000Y-172500000D03*
X119695000Y-152400000D03*
X117795000Y-152400000D03*
X119695000Y-132500000D03*
X117795000Y-132500000D03*
X180025000Y-170875000D03*
X181925000Y-170875000D03*
X180300000Y-191000000D03*
X182200000Y-191000000D03*
X181450000Y-139763344D03*
X179550000Y-139763344D03*
X181450000Y-142213344D03*
X179550000Y-142213344D03*
X181450000Y-144763344D03*
X179550000Y-144763344D03*
X181450000Y-147263344D03*
X179550000Y-147263344D03*
X117486223Y-124481786D03*
X119386223Y-124481786D03*
X117486223Y-121981786D03*
X119386223Y-121981786D03*
X117486223Y-119481786D03*
X119386223Y-119481786D03*
X117486223Y-116981786D03*
X119386223Y-116981786D03*
D25*
X154800000Y-159250000D03*
X162200000Y-159250000D03*
D26*
X165720000Y-176250000D03*
X172070000Y-176250000D03*
X165720000Y-156250000D03*
X172070000Y-156250000D03*
X134180000Y-147000000D03*
X127830000Y-147000000D03*
X134180000Y-167000000D03*
X127830000Y-167000000D03*
X134280000Y-186900000D03*
X127930000Y-186900000D03*
D25*
X154800000Y-174250000D03*
X162200000Y-174250000D03*
X144900000Y-144000000D03*
X137500000Y-144000000D03*
X144900000Y-164000000D03*
X137500000Y-164000000D03*
X144700000Y-178000000D03*
X137300000Y-178000000D03*
D27*
X167430000Y-186250000D03*
X176570000Y-186250000D03*
D28*
X168570000Y-181680000D03*
X173140000Y-181680000D03*
D29*
X176570000Y-182820000D03*
D27*
X167430000Y-188540000D03*
X167430000Y-190820000D03*
X169710000Y-190820000D03*
X172000000Y-190820000D03*
X174290000Y-190820000D03*
X176570000Y-190820000D03*
X176570000Y-188540000D03*
X167430000Y-166250000D03*
X176570000Y-166250000D03*
D28*
X168570000Y-161680000D03*
X173140000Y-161680000D03*
D29*
X176570000Y-162820000D03*
D27*
X167430000Y-168540000D03*
X167430000Y-170820000D03*
X169710000Y-170820000D03*
X172000000Y-170820000D03*
X174290000Y-170820000D03*
X176570000Y-170820000D03*
X176570000Y-168540000D03*
X132570000Y-137000000D03*
X123430000Y-137000000D03*
D28*
X131430000Y-141570000D03*
X126860000Y-141570000D03*
D29*
X123430000Y-140430000D03*
D27*
X132570000Y-134710000D03*
X132570000Y-132430000D03*
X130290000Y-132430000D03*
X128000000Y-132430000D03*
X125710000Y-132430000D03*
X123430000Y-132430000D03*
X123430000Y-134710000D03*
X132570000Y-157000000D03*
X123430000Y-157000000D03*
D28*
X131430000Y-161570000D03*
X126860000Y-161570000D03*
D29*
X123430000Y-160430000D03*
D27*
X132570000Y-154710000D03*
X132570000Y-152430000D03*
X130290000Y-152430000D03*
X128000000Y-152430000D03*
X125710000Y-152430000D03*
X123430000Y-152430000D03*
X123430000Y-154710000D03*
X132570000Y-177000000D03*
X123430000Y-177000000D03*
D28*
X131430000Y-181570000D03*
X126860000Y-181570000D03*
D29*
X123430000Y-180430000D03*
D27*
X132570000Y-174710000D03*
X132570000Y-172430000D03*
X130290000Y-172430000D03*
X128000000Y-172430000D03*
X125710000Y-172430000D03*
X123430000Y-172430000D03*
X123430000Y-174710000D03*
M02*
