G04 #@! TF.GenerationSoftware,KiCad,Pcbnew,(5.0.0-3-g5ebb6b6)*
G04 #@! TF.CreationDate,2018-10-08T20:22:15-06:00*
G04 #@! TF.ProjectId,LED suit power,4C4544207375697420706F7765722E6B,rev?*
G04 #@! TF.SameCoordinates,Original*
G04 #@! TF.FileFunction,Copper,L2,Bot,Signal*
G04 #@! TF.FilePolarity,Positive*
%FSLAX46Y46*%
G04 Gerber Fmt 4.6, Leading zero omitted, Abs format (unit mm)*
G04 Created by KiCad (PCBNEW (5.0.0-3-g5ebb6b6)) date Monday, October 08, 2018 at 08:22:15 PM*
%MOMM*%
%LPD*%
G01*
G04 APERTURE LIST*
G04 #@! TA.AperFunction,ComponentPad*
%ADD10C,1.000000*%
G04 #@! TD*
G04 #@! TA.AperFunction,ComponentPad*
%ADD11O,1.600000X2.600000*%
G04 #@! TD*
G04 #@! TA.AperFunction,ComponentPad*
%ADD12C,5.500000*%
G04 #@! TD*
G04 #@! TA.AperFunction,ComponentPad*
%ADD13O,2.600000X1.600000*%
G04 #@! TD*
G04 #@! TA.AperFunction,ComponentPad*
%ADD14C,6.400000*%
G04 #@! TD*
G04 #@! TA.AperFunction,ComponentPad*
%ADD15C,0.800000*%
G04 #@! TD*
G04 #@! TA.AperFunction,ComponentPad*
%ADD16C,1.600000*%
G04 #@! TD*
G04 #@! TA.AperFunction,ComponentPad*
%ADD17R,1.600000X1.600000*%
G04 #@! TD*
G04 #@! TA.AperFunction,ComponentPad*
%ADD18C,1.750000*%
G04 #@! TD*
G04 #@! TA.AperFunction,ComponentPad*
%ADD19R,1.750000X1.750000*%
G04 #@! TD*
G04 #@! TA.AperFunction,WasherPad*
%ADD20C,3.650000*%
G04 #@! TD*
G04 #@! TA.AperFunction,ComponentPad*
%ADD21R,1.500000X1.500000*%
G04 #@! TD*
G04 #@! TA.AperFunction,ComponentPad*
%ADD22C,1.500000*%
G04 #@! TD*
G04 #@! TA.AperFunction,ViaPad*
%ADD23C,0.800000*%
G04 #@! TD*
G04 #@! TA.AperFunction,Conductor*
%ADD24C,1.270000*%
G04 #@! TD*
G04 #@! TA.AperFunction,Conductor*
%ADD25C,0.250000*%
G04 #@! TD*
G04 #@! TA.AperFunction,Conductor*
%ADD26C,0.400000*%
G04 #@! TD*
G04 #@! TA.AperFunction,Conductor*
%ADD27C,0.900000*%
G04 #@! TD*
G04 #@! TA.AperFunction,Conductor*
%ADD28C,0.254000*%
G04 #@! TD*
G04 APERTURE END LIST*
D10*
G04 #@! TO.P,J7,2*
G04 #@! TO.N,GND*
X155000000Y-186950000D03*
X152200000Y-186950000D03*
X152200000Y-189750000D03*
X155000000Y-189750000D03*
X155600000Y-188350000D03*
X151600000Y-188350000D03*
X153600000Y-186350000D03*
X153600000Y-190350000D03*
D11*
G04 #@! TO.P,J7,*
G04 #@! TO.N,*
X156800000Y-194350000D03*
X143200000Y-194350000D03*
D10*
G04 #@! TO.P,J7,1*
G04 #@! TO.N,VIN*
X147800000Y-189750000D03*
X147800000Y-186950000D03*
X145000000Y-186950000D03*
X145000000Y-189750000D03*
X146400000Y-190350000D03*
X146400000Y-186350000D03*
X144400000Y-188350000D03*
X148400000Y-188350000D03*
D12*
G04 #@! TO.P,J7,2*
G04 #@! TO.N,GND*
X153600000Y-188350000D03*
G04 #@! TO.P,J7,1*
G04 #@! TO.N,VIN*
X146400000Y-188350000D03*
G04 #@! TD*
D10*
G04 #@! TO.P,J1,2*
G04 #@! TO.N,GND*
X111400000Y-178800000D03*
X111400000Y-176000000D03*
X108600000Y-176000000D03*
X108600000Y-178800000D03*
X110000000Y-179400000D03*
X110000000Y-175400000D03*
X112000000Y-177400000D03*
X108000000Y-177400000D03*
D13*
G04 #@! TO.P,J1,*
G04 #@! TO.N,*
X104000000Y-187800000D03*
X104000000Y-174200000D03*
D10*
G04 #@! TO.P,J1,1*
G04 #@! TO.N,Net-(C8-Pad2)*
X108600000Y-186000000D03*
X111400000Y-186000000D03*
X111400000Y-183200000D03*
X108600000Y-183200000D03*
X108000000Y-184600000D03*
X112000000Y-184600000D03*
X110000000Y-182600000D03*
X110000000Y-186600000D03*
D12*
G04 #@! TO.P,J1,2*
G04 #@! TO.N,GND*
X110000000Y-177400000D03*
G04 #@! TO.P,J1,1*
G04 #@! TO.N,Net-(C8-Pad2)*
X110000000Y-184600000D03*
G04 #@! TD*
G04 #@! TO.P,J2,1*
G04 #@! TO.N,Net-(C9-Pad1)*
X110000000Y-164600000D03*
G04 #@! TO.P,J2,2*
G04 #@! TO.N,GND*
X110000000Y-157400000D03*
D10*
G04 #@! TO.P,J2,1*
G04 #@! TO.N,Net-(C9-Pad1)*
X110000000Y-166600000D03*
X110000000Y-162600000D03*
X112000000Y-164600000D03*
X108000000Y-164600000D03*
X108600000Y-163200000D03*
X111400000Y-163200000D03*
X111400000Y-166000000D03*
X108600000Y-166000000D03*
D13*
G04 #@! TO.P,J2,*
G04 #@! TO.N,*
X104000000Y-154200000D03*
X104000000Y-167800000D03*
D10*
G04 #@! TO.P,J2,2*
G04 #@! TO.N,GND*
X108000000Y-157400000D03*
X112000000Y-157400000D03*
X110000000Y-155400000D03*
X110000000Y-159400000D03*
X108600000Y-158800000D03*
X108600000Y-156000000D03*
X111400000Y-156000000D03*
X111400000Y-158800000D03*
G04 #@! TD*
G04 #@! TO.P,J3,2*
G04 #@! TO.N,GND*
X111400000Y-138800000D03*
X111400000Y-136000000D03*
X108600000Y-136000000D03*
X108600000Y-138800000D03*
X110000000Y-139400000D03*
X110000000Y-135400000D03*
X112000000Y-137400000D03*
X108000000Y-137400000D03*
D13*
G04 #@! TO.P,J3,*
G04 #@! TO.N,*
X104000000Y-147800000D03*
X104000000Y-134200000D03*
D10*
G04 #@! TO.P,J3,1*
G04 #@! TO.N,Net-(C10-Pad1)*
X108600000Y-146000000D03*
X111400000Y-146000000D03*
X111400000Y-143200000D03*
X108600000Y-143200000D03*
X108000000Y-144600000D03*
X112000000Y-144600000D03*
X110000000Y-142600000D03*
X110000000Y-146600000D03*
D12*
G04 #@! TO.P,J3,2*
G04 #@! TO.N,GND*
X110000000Y-137400000D03*
G04 #@! TO.P,J3,1*
G04 #@! TO.N,Net-(C10-Pad1)*
X110000000Y-144600000D03*
G04 #@! TD*
G04 #@! TO.P,J5,1*
G04 #@! TO.N,Net-(C12-Pad1)*
X190000000Y-158400000D03*
G04 #@! TO.P,J5,2*
G04 #@! TO.N,GND*
X190000000Y-165600000D03*
D10*
G04 #@! TO.P,J5,1*
G04 #@! TO.N,Net-(C12-Pad1)*
X190000000Y-156400000D03*
X190000000Y-160400000D03*
X188000000Y-158400000D03*
X192000000Y-158400000D03*
X191400000Y-159800000D03*
X188600000Y-159800000D03*
X188600000Y-157000000D03*
X191400000Y-157000000D03*
D13*
G04 #@! TO.P,J5,*
G04 #@! TO.N,*
X196000000Y-168800000D03*
X196000000Y-155200000D03*
D10*
G04 #@! TO.P,J5,2*
G04 #@! TO.N,GND*
X192000000Y-165600000D03*
X188000000Y-165600000D03*
X190000000Y-167600000D03*
X190000000Y-163600000D03*
X191400000Y-164200000D03*
X191400000Y-167000000D03*
X188600000Y-167000000D03*
X188600000Y-164200000D03*
G04 #@! TD*
G04 #@! TO.P,J6,2*
G04 #@! TO.N,GND*
X188600000Y-184200000D03*
X188600000Y-187000000D03*
X191400000Y-187000000D03*
X191400000Y-184200000D03*
X190000000Y-183600000D03*
X190000000Y-187600000D03*
X188000000Y-185600000D03*
X192000000Y-185600000D03*
D13*
G04 #@! TO.P,J6,*
G04 #@! TO.N,*
X196000000Y-175200000D03*
X196000000Y-188800000D03*
D10*
G04 #@! TO.P,J6,1*
G04 #@! TO.N,Net-(C13-Pad1)*
X191400000Y-177000000D03*
X188600000Y-177000000D03*
X188600000Y-179800000D03*
X191400000Y-179800000D03*
X192000000Y-178400000D03*
X188000000Y-178400000D03*
X190000000Y-180400000D03*
X190000000Y-176400000D03*
D12*
G04 #@! TO.P,J6,2*
G04 #@! TO.N,GND*
X190000000Y-185600000D03*
G04 #@! TO.P,J6,1*
G04 #@! TO.N,Net-(C13-Pad1)*
X190000000Y-178400000D03*
G04 #@! TD*
D14*
G04 #@! TO.P,MH4,1*
G04 #@! TO.N,Net-(MH4-Pad1)*
X194000000Y-194000000D03*
D15*
X196400000Y-194000000D03*
X195697056Y-195697056D03*
X194000000Y-196400000D03*
X192302944Y-195697056D03*
X191600000Y-194000000D03*
X192302944Y-192302944D03*
X194000000Y-191600000D03*
X195697056Y-192302944D03*
G04 #@! TD*
G04 #@! TO.P,MH2,1*
G04 #@! TO.N,Net-(MH2-Pad1)*
X182697056Y-104302944D03*
X181000000Y-103600000D03*
X179302944Y-104302944D03*
X178600000Y-106000000D03*
X179302944Y-107697056D03*
X181000000Y-108400000D03*
X182697056Y-107697056D03*
X183400000Y-106000000D03*
D14*
X181000000Y-106000000D03*
G04 #@! TD*
G04 #@! TO.P,MH1,1*
G04 #@! TO.N,Net-(MH1-Pad1)*
X122000000Y-194000000D03*
D15*
X124400000Y-194000000D03*
X123697056Y-195697056D03*
X122000000Y-196400000D03*
X120302944Y-195697056D03*
X119600000Y-194000000D03*
X120302944Y-192302944D03*
X122000000Y-191600000D03*
X123697056Y-192302944D03*
G04 #@! TD*
G04 #@! TO.P,MH3,1*
G04 #@! TO.N,Net-(MH3-Pad1)*
X107697056Y-104302944D03*
X106000000Y-103600000D03*
X104302944Y-104302944D03*
X103600000Y-106000000D03*
X104302944Y-107697056D03*
X106000000Y-108400000D03*
X107697056Y-107697056D03*
X108400000Y-106000000D03*
D14*
X106000000Y-106000000D03*
G04 #@! TD*
D16*
G04 #@! TO.P,U7,17*
G04 #@! TO.N,GND*
X165735000Y-134620000D03*
G04 #@! TO.P,U7,18*
G04 #@! TO.N,Net-(U7-Pad18)*
X168275000Y-134620000D03*
G04 #@! TO.P,U7,19*
G04 #@! TO.N,BATT_LEVEL*
X170815000Y-134620000D03*
G04 #@! TO.P,U7,20*
G04 #@! TO.N,PIN13*
X173355000Y-134620000D03*
G04 #@! TO.P,U7,14*
G04 #@! TO.N,PIN12*
X158115000Y-134620000D03*
G04 #@! TO.P,U7,21*
G04 #@! TO.N,PIN14*
X173355000Y-132080000D03*
G04 #@! TO.P,U7,22*
G04 #@! TO.N,PIN15*
X173355000Y-129540000D03*
G04 #@! TO.P,U7,23*
G04 #@! TO.N,PIN16*
X173355000Y-127000000D03*
G04 #@! TO.P,U7,24*
G04 #@! TO.N,PIN17*
X173355000Y-124460000D03*
G04 #@! TO.P,U7,25*
G04 #@! TO.N,PIN18*
X173355000Y-121920000D03*
G04 #@! TO.P,U7,26*
G04 #@! TO.N,PIN19*
X173355000Y-119380000D03*
G04 #@! TO.P,U7,27*
G04 #@! TO.N,PIN20*
X173355000Y-116840000D03*
G04 #@! TO.P,U7,28*
G04 #@! TO.N,PIN21*
X173355000Y-114300000D03*
G04 #@! TO.P,U7,29*
G04 #@! TO.N,PIN22*
X173355000Y-111760000D03*
G04 #@! TO.P,U7,30*
G04 #@! TO.N,PIN23*
X173355000Y-109220000D03*
G04 #@! TO.P,U7,31*
G04 #@! TO.N,3.3V_TEENSY*
X173355000Y-106680000D03*
G04 #@! TO.P,U7,32*
G04 #@! TO.N,AGND*
X173355000Y-104140000D03*
G04 #@! TO.P,U7,33*
G04 #@! TO.N,+5V*
X173355000Y-101600000D03*
G04 #@! TO.P,U7,34*
G04 #@! TO.N,Net-(U7-Pad34)*
X170815000Y-104140000D03*
G04 #@! TO.P,U7,35*
G04 #@! TO.N,Net-(U7-Pad35)*
X170815000Y-109220000D03*
G04 #@! TO.P,U7,36*
G04 #@! TO.N,Net-(U7-Pad36)*
X170815000Y-111760000D03*
G04 #@! TO.P,U7,37*
G04 #@! TO.N,Net-(U7-Pad37)*
X170815000Y-114300000D03*
G04 #@! TO.P,U7,13*
G04 #@! TO.N,PIN11*
X158115000Y-132080000D03*
G04 #@! TO.P,U7,12*
G04 #@! TO.N,PIN10*
X158115000Y-129540000D03*
G04 #@! TO.P,U7,11*
G04 #@! TO.N,PIN9*
X158115000Y-127000000D03*
G04 #@! TO.P,U7,10*
G04 #@! TO.N,PIN8*
X158115000Y-124460000D03*
G04 #@! TO.P,U7,9*
G04 #@! TO.N,PIN7*
X158115000Y-121920000D03*
G04 #@! TO.P,U7,8*
G04 #@! TO.N,PIN6*
X158115000Y-119380000D03*
G04 #@! TO.P,U7,7*
G04 #@! TO.N,PIN5*
X158115000Y-116840000D03*
G04 #@! TO.P,U7,6*
G04 #@! TO.N,PIN4*
X158115000Y-114300000D03*
G04 #@! TO.P,U7,5*
G04 #@! TO.N,PIN3*
X158115000Y-111760000D03*
G04 #@! TO.P,U7,4*
G04 #@! TO.N,PIN2*
X158115000Y-109220000D03*
G04 #@! TO.P,U7,3*
G04 #@! TO.N,PIN1*
X158115000Y-106680000D03*
G04 #@! TO.P,U7,2*
G04 #@! TO.N,PIN0*
X158115000Y-104140000D03*
D17*
G04 #@! TO.P,U7,1*
G04 #@! TO.N,GND*
X158115000Y-101600000D03*
G04 #@! TD*
D18*
G04 #@! TO.P,J16,4*
G04 #@! TO.N,GND*
X165000000Y-143500000D03*
G04 #@! TO.P,J16,3*
G04 #@! TO.N,PIN19*
X167500000Y-143500000D03*
G04 #@! TO.P,J16,2*
G04 #@! TO.N,PIN18*
X170000000Y-143500000D03*
D19*
G04 #@! TO.P,J16,1*
G04 #@! TO.N,+3V3*
X172500000Y-143500000D03*
G04 #@! TD*
G04 #@! TO.P,J4,1*
G04 #@! TO.N,+3V3*
X151000000Y-107500000D03*
D18*
G04 #@! TO.P,J4,2*
G04 #@! TO.N,PIN3*
X148500000Y-107500000D03*
G04 #@! TO.P,J4,3*
G04 #@! TO.N,PIN4*
X146000000Y-107500000D03*
G04 #@! TO.P,J4,4*
G04 #@! TO.N,GND*
X143500000Y-107500000D03*
G04 #@! TD*
G04 #@! TO.P,J12,4*
G04 #@! TO.N,GND*
X129000000Y-107500000D03*
G04 #@! TO.P,J12,3*
G04 #@! TO.N,PIN10*
X131500000Y-107500000D03*
G04 #@! TO.P,J12,2*
G04 #@! TO.N,PIN9*
X134000000Y-107500000D03*
D19*
G04 #@! TO.P,J12,1*
G04 #@! TO.N,+3V3*
X136500000Y-107500000D03*
G04 #@! TD*
G04 #@! TO.P,J13,1*
G04 #@! TO.N,+3V3*
X122000000Y-107500000D03*
D18*
G04 #@! TO.P,J13,2*
G04 #@! TO.N,PIN11*
X119500000Y-107500000D03*
G04 #@! TO.P,J13,3*
G04 #@! TO.N,PIN12*
X117000000Y-107500000D03*
G04 #@! TO.P,J13,4*
G04 #@! TO.N,GND*
X114500000Y-107500000D03*
G04 #@! TD*
G04 #@! TO.P,J14,4*
G04 #@! TO.N,GND*
X193000000Y-119500000D03*
G04 #@! TO.P,J14,3*
G04 #@! TO.N,PIN16*
X193000000Y-122000000D03*
G04 #@! TO.P,J14,2*
G04 #@! TO.N,PIN15*
X193000000Y-124500000D03*
D19*
G04 #@! TO.P,J14,1*
G04 #@! TO.N,+3V3*
X193000000Y-127000000D03*
G04 #@! TD*
D18*
G04 #@! TO.P,J15,4*
G04 #@! TO.N,GND*
X193000000Y-105000000D03*
G04 #@! TO.P,J15,3*
G04 #@! TO.N,PIN23*
X193000000Y-107500000D03*
G04 #@! TO.P,J15,2*
G04 #@! TO.N,PIN22*
X193000000Y-110000000D03*
D19*
G04 #@! TO.P,J15,1*
G04 #@! TO.N,+3V3*
X193000000Y-112500000D03*
G04 #@! TD*
D20*
G04 #@! TO.P,J9,Hole*
G04 #@! TO.N,*
X105501222Y-125516787D03*
X105501222Y-113646787D03*
D21*
G04 #@! TO.P,J9,1*
G04 #@! TO.N,GND*
X111851222Y-115136787D03*
D22*
G04 #@! TO.P,J9,2*
G04 #@! TO.N,Net-(J9-Pad2)*
X114391222Y-116406787D03*
G04 #@! TO.P,J9,3*
G04 #@! TO.N,GND*
X111851222Y-117676787D03*
G04 #@! TO.P,J9,4*
G04 #@! TO.N,Net-(J9-Pad4)*
X114391222Y-118946787D03*
G04 #@! TO.P,J9,5*
G04 #@! TO.N,GND*
X111851222Y-120216787D03*
G04 #@! TO.P,J9,6*
G04 #@! TO.N,Net-(J9-Pad6)*
X114391222Y-121486787D03*
G04 #@! TO.P,J9,7*
G04 #@! TO.N,GND*
X111851222Y-122756787D03*
G04 #@! TO.P,J9,8*
G04 #@! TO.N,Net-(J9-Pad8)*
X114391222Y-124026787D03*
G04 #@! TD*
D20*
G04 #@! TO.P,J8,Hole*
G04 #@! TO.N,*
X194435001Y-134798343D03*
X194435001Y-146668343D03*
D21*
G04 #@! TO.P,J8,1*
G04 #@! TO.N,GND*
X188085001Y-145178343D03*
D22*
G04 #@! TO.P,J8,2*
G04 #@! TO.N,Net-(J8-Pad2)*
X185545001Y-143908343D03*
G04 #@! TO.P,J8,3*
G04 #@! TO.N,GND*
X188085001Y-142638343D03*
G04 #@! TO.P,J8,4*
G04 #@! TO.N,Net-(J8-Pad4)*
X185545001Y-141368343D03*
G04 #@! TO.P,J8,5*
G04 #@! TO.N,GND*
X188085001Y-140098343D03*
G04 #@! TO.P,J8,6*
G04 #@! TO.N,Net-(J8-Pad6)*
X185545001Y-138828343D03*
G04 #@! TO.P,J8,7*
G04 #@! TO.N,GND*
X188085001Y-137558343D03*
G04 #@! TO.P,J8,8*
G04 #@! TO.N,Net-(J8-Pad8)*
X185545001Y-136288343D03*
G04 #@! TD*
D23*
G04 #@! TO.N,*
X2000000Y-135500000D03*
G04 #@! TO.N,GND*
X130000000Y-126000000D03*
X131500000Y-126000000D03*
X133000000Y-126000000D03*
X133000000Y-123000000D03*
X131500000Y-123000000D03*
X130000000Y-123000000D03*
X130000000Y-124500000D03*
X133000000Y-124500000D03*
X131500000Y-124500000D03*
X148500000Y-128500000D03*
X147000000Y-128500000D03*
X145500000Y-128500000D03*
X145500000Y-130000000D03*
X147000000Y-130000000D03*
X148500000Y-130000000D03*
X148500000Y-131500000D03*
X147000000Y-131500000D03*
X145500000Y-131500000D03*
X160020000Y-153670000D03*
X160500000Y-178750000D03*
X123000000Y-185000000D03*
X123000000Y-188000000D03*
X126000000Y-190000000D03*
X123000000Y-165000000D03*
X123000000Y-169000000D03*
X123000000Y-145000000D03*
X123000000Y-149000000D03*
X177000000Y-154250000D03*
X177000000Y-158250000D03*
X169000000Y-155250000D03*
X181000000Y-175250000D03*
X181500000Y-155250000D03*
X118500000Y-188000000D03*
X118500000Y-168000000D03*
X118500000Y-148000000D03*
X116000000Y-152500000D03*
X117000000Y-166000000D03*
X116000000Y-132500000D03*
X177000000Y-174250000D03*
X177000000Y-178250000D03*
X169000000Y-175250000D03*
X140000000Y-159000000D03*
X140000000Y-157000000D03*
X140000000Y-155000000D03*
X140000000Y-153000000D03*
X140000000Y-151000000D03*
X140000000Y-149000000D03*
X140000000Y-169500000D03*
X140000000Y-171500000D03*
X140000000Y-173500000D03*
X134000000Y-170000000D03*
X162000000Y-192750000D03*
X162000000Y-181750000D03*
X184000000Y-170750000D03*
X183500000Y-154500000D03*
X171450000Y-198120000D03*
X135890000Y-129540000D03*
X139700000Y-139700000D03*
X113030000Y-132080000D03*
X110490000Y-132080000D03*
X107950000Y-132080000D03*
X105410000Y-132080000D03*
X102870000Y-132080000D03*
X146685000Y-120015000D03*
X146685000Y-122555000D03*
X151765000Y-114300000D03*
X160020000Y-148590000D03*
X153035000Y-144780000D03*
X155575000Y-144780000D03*
X158750000Y-148590000D03*
X161290000Y-148590000D03*
X160020000Y-147320000D03*
X160020000Y-152400000D03*
X147000000Y-134000000D03*
X150500000Y-138500000D03*
X152500000Y-140500000D03*
X125250000Y-120750000D03*
X131500000Y-120000000D03*
X155500000Y-143500000D03*
X157000000Y-146500000D03*
X164000000Y-149000000D03*
X167000000Y-149000000D03*
X169500000Y-149000000D03*
X172000000Y-149000000D03*
X174500000Y-149000000D03*
X184000000Y-149000000D03*
X186500000Y-149000000D03*
X189000000Y-149000000D03*
X191500000Y-149000000D03*
X197000000Y-149000000D03*
X199000000Y-149000000D03*
X163000000Y-111500000D03*
X163000000Y-116000000D03*
X168000000Y-116000000D03*
X168000000Y-109500000D03*
X168000000Y-104000000D03*
X164000000Y-105500000D03*
X160500000Y-101500000D03*
X155500000Y-101500000D03*
X155500000Y-104000000D03*
X155500000Y-107000000D03*
X163000000Y-119500000D03*
X163000000Y-122000000D03*
X170000000Y-119500000D03*
X165500000Y-124500000D03*
X169000000Y-127500000D03*
X171000000Y-125000000D03*
X171000000Y-129500000D03*
X176000000Y-117500000D03*
X176000000Y-125000000D03*
X183000000Y-125000000D03*
X186000000Y-122000000D03*
X186000000Y-117500000D03*
X197500000Y-106500000D03*
X197000000Y-111000000D03*
X197000000Y-121000000D03*
X197000000Y-125500000D03*
X197000000Y-138500000D03*
X197000000Y-143000000D03*
X145000000Y-103000000D03*
X149500000Y-103000000D03*
X135000000Y-103000000D03*
X130500000Y-103000000D03*
X120500000Y-103000000D03*
X116000000Y-103000000D03*
X102500000Y-117000000D03*
X102500000Y-121500000D03*
X198500000Y-195500000D03*
X198000000Y-198000000D03*
X195500000Y-198500000D03*
X176000000Y-128500000D03*
X182500000Y-128500000D03*
X176000000Y-131000000D03*
X182500000Y-131000000D03*
X180500000Y-135500000D03*
X176000000Y-135500000D03*
X188000000Y-128000000D03*
X191500000Y-130000000D03*
X188500000Y-133500000D03*
X192000000Y-115000000D03*
X189000000Y-102000000D03*
X197500000Y-102000000D03*
X198500000Y-104000000D03*
X195000000Y-101500000D03*
X102000000Y-102000000D03*
X104000000Y-101500000D03*
X101500000Y-104000000D03*
X136500000Y-136500000D03*
X138000000Y-138000000D03*
X126500000Y-128000000D03*
X124000000Y-128000000D03*
X121500000Y-128000000D03*
X119000000Y-128000000D03*
X116500000Y-128000000D03*
X114000000Y-128000000D03*
X111500000Y-128000000D03*
X108500000Y-128000000D03*
X142500000Y-133500000D03*
X141000000Y-132000000D03*
X141000000Y-128000000D03*
X142500000Y-130000000D03*
X155500000Y-134500000D03*
X177000000Y-108000000D03*
X185000000Y-109000000D03*
X186000000Y-105000000D03*
X178000000Y-111500000D03*
X184000000Y-111500000D03*
X190000000Y-105000000D03*
X184000000Y-101750000D03*
X176750000Y-101750000D03*
X164000000Y-153000000D03*
X167000000Y-153000000D03*
X170000000Y-153000000D03*
X173000000Y-153000000D03*
X176000000Y-153000000D03*
X179000000Y-153000000D03*
X182000000Y-153000000D03*
X185000000Y-153000000D03*
X188000000Y-153000000D03*
X191000000Y-153000000D03*
X194000000Y-153000000D03*
X197000000Y-153000000D03*
X134000000Y-198000000D03*
X137000000Y-198000000D03*
X140000000Y-198000000D03*
X143000000Y-198000000D03*
X146000000Y-198000000D03*
X149000000Y-198000000D03*
X152000000Y-198000000D03*
X155000000Y-198000000D03*
X158000000Y-198000000D03*
X161000000Y-198000000D03*
X164000000Y-198000000D03*
X167000000Y-198000000D03*
X179000000Y-198000000D03*
X182000000Y-198000000D03*
X185000000Y-198000000D03*
X188000000Y-198000000D03*
X131000000Y-198000000D03*
X128000000Y-198000000D03*
X125000000Y-198000000D03*
X118000000Y-198000000D03*
X115000000Y-198000000D03*
X112000000Y-198000000D03*
X109000000Y-198000000D03*
X106000000Y-198000000D03*
X103000000Y-198000000D03*
X102000000Y-196000000D03*
X191000000Y-198000000D03*
X198000000Y-191000000D03*
X154000000Y-142000000D03*
X160000000Y-140500000D03*
X176200000Y-142400000D03*
X166000000Y-131500000D03*
X169000000Y-132500000D03*
X166000000Y-136500000D03*
X190000000Y-139000000D03*
X190000000Y-141500000D03*
X190000000Y-144000000D03*
X109500000Y-116500000D03*
X109500000Y-119000000D03*
X109500000Y-121500000D03*
X161290000Y-148590000D03*
X161290000Y-148590000D03*
X173200000Y-138400000D03*
X162400000Y-137400000D03*
X165400000Y-141000000D03*
X162400000Y-142800000D03*
X128000000Y-132430000D03*
X156000000Y-185000000D03*
X157250000Y-186500000D03*
X157750000Y-188500000D03*
X157250000Y-190250000D03*
X154250000Y-192500000D03*
X152250000Y-192250000D03*
X151000000Y-191500000D03*
X149750000Y-192500000D03*
X147500000Y-193250000D03*
X145500000Y-193500000D03*
X140000000Y-191500000D03*
X140000000Y-189000000D03*
X140000000Y-186500000D03*
X140000000Y-184250000D03*
X140000000Y-182250000D03*
X137750000Y-184000000D03*
X131000000Y-186250000D03*
X131000000Y-189250000D03*
X134500000Y-190500000D03*
X137750000Y-188250000D03*
X159000000Y-185000000D03*
X163000000Y-186000000D03*
X187000000Y-163000000D03*
X193000000Y-163000000D03*
X193000000Y-168500000D03*
X187000000Y-168500000D03*
X187000000Y-182500000D03*
X193000000Y-182500000D03*
X193000000Y-188500000D03*
X187000000Y-188500000D03*
X107000000Y-174500000D03*
X113000000Y-174500000D03*
X113000000Y-180500000D03*
X107000000Y-180500000D03*
X107000000Y-154500000D03*
X113000000Y-154500000D03*
X113000000Y-160500000D03*
X107000000Y-160500000D03*
X107000000Y-134500000D03*
X113000000Y-134500000D03*
X113000000Y-140500000D03*
X107000000Y-140500000D03*
G04 #@! TO.N,Net-(R8-Pad2)*
X120500000Y-117000000D03*
X141750000Y-114250000D03*
G04 #@! TO.N,Net-(R7-Pad2)*
X141000000Y-115250000D03*
X120500000Y-119500000D03*
G04 #@! TO.N,Net-(R6-Pad2)*
X120500000Y-121750000D03*
X140250000Y-116250000D03*
G04 #@! TO.N,Net-(R5-Pad2)*
X140000000Y-117750000D03*
X120500000Y-124500000D03*
G04 #@! TO.N,Net-(R4-Pad2)*
X140000000Y-119000000D03*
X177500000Y-148000000D03*
G04 #@! TO.N,Net-(R3-Pad2)*
X141000000Y-119500000D03*
X177500000Y-146500000D03*
G04 #@! TO.N,Net-(R2-Pad2)*
X142000000Y-120000000D03*
X177500000Y-145000000D03*
G04 #@! TO.N,Net-(R1-Pad2)*
X143000000Y-120500000D03*
X177500000Y-143500000D03*
G04 #@! TO.N,PIN5*
X153200000Y-115500000D03*
G04 #@! TO.N,PIN21*
X155448000Y-115570000D03*
G04 #@! TO.N,PIN20*
X155200000Y-118200000D03*
G04 #@! TO.N,PIN14*
X155575000Y-122555000D03*
G04 #@! TO.N,PIN8*
X153537347Y-118762653D03*
G04 #@! TO.N,PIN18*
X164700000Y-129500000D03*
G04 #@! TO.N,PIN19*
X164500000Y-128000000D03*
G04 #@! TO.N,VIN*
X148000000Y-178000000D03*
X143500000Y-178000000D03*
X148000000Y-179500000D03*
X148000000Y-176500000D03*
X143500000Y-176500000D03*
X143500000Y-179500000D03*
X148000000Y-175000000D03*
X143500000Y-175000000D03*
X143500000Y-181000000D03*
X148000000Y-181000000D03*
X144500000Y-174000000D03*
X147000000Y-174000000D03*
X143000000Y-164000000D03*
X143000000Y-162500000D03*
X143000000Y-161000000D03*
X144000000Y-160000000D03*
X146500000Y-160000000D03*
X148000000Y-164000000D03*
X148000000Y-162500000D03*
X148000000Y-161000000D03*
X148000000Y-165500000D03*
X148000000Y-167000000D03*
X146500000Y-168000000D03*
X144000000Y-168000000D03*
X143000000Y-167000000D03*
X143000000Y-165500000D03*
X148000000Y-144000000D03*
X148000000Y-142500000D03*
X148000000Y-147000000D03*
X146500000Y-148000000D03*
X144500000Y-148000000D03*
X143000000Y-147000000D03*
X143000000Y-144000000D03*
X143000000Y-142500000D03*
X143000000Y-149000000D03*
X143000000Y-151000000D03*
X143000000Y-153000000D03*
X143000000Y-155000000D03*
X143000000Y-157000000D03*
X143000000Y-159000000D03*
X143000000Y-169500000D03*
X143000000Y-172000000D03*
X150000000Y-156000000D03*
X150000000Y-153500000D03*
X150000000Y-151000000D03*
X152000000Y-162500000D03*
X152000000Y-161000000D03*
X152000000Y-159500000D03*
X152000000Y-158000000D03*
X152000000Y-156500000D03*
X157000000Y-156500000D03*
X157000000Y-158000000D03*
X157000000Y-159500000D03*
X157000000Y-161000000D03*
X157000000Y-162500000D03*
X155500000Y-163500000D03*
X153500000Y-163500000D03*
X153500000Y-155000000D03*
X155500000Y-155000000D03*
X157000000Y-153000000D03*
X153500000Y-170000000D03*
X155000000Y-170000000D03*
X157000000Y-174000000D03*
X157000000Y-172500000D03*
X157000000Y-171000000D03*
X157000000Y-175500000D03*
X157000000Y-177000000D03*
X155000000Y-178500000D03*
X153500000Y-178500000D03*
X152000000Y-174000000D03*
X152000000Y-172500000D03*
X152000000Y-171000000D03*
X152000000Y-175500000D03*
X152000000Y-177000000D03*
X149000000Y-185000000D03*
X147500000Y-184500000D03*
X145500000Y-184500000D03*
X144000000Y-185000000D03*
X142500000Y-187000000D03*
X142500000Y-189000000D03*
X143000000Y-191000000D03*
X149500000Y-183500000D03*
X150500000Y-182500000D03*
X152500000Y-182500000D03*
X154500000Y-182500000D03*
X156500000Y-182500000D03*
X157000000Y-180500000D03*
G04 #@! TD*
D24*
G04 #@! TO.N,GND*
X160020000Y-148590000D02*
X160020000Y-152400000D01*
X160020000Y-152400000D02*
X160020000Y-153670000D01*
D25*
G04 #@! TO.N,Net-(R8-Pad2)*
X120500000Y-117000000D02*
X123750000Y-117000000D01*
X123750000Y-117000000D02*
X124500000Y-116250000D01*
X124500000Y-116250000D02*
X138250000Y-116250000D01*
X138250000Y-116250000D02*
X140250000Y-114250000D01*
X140250000Y-114250000D02*
X141750000Y-114250000D01*
G04 #@! TO.N,Net-(R7-Pad2)*
X140176998Y-115250000D02*
X138676998Y-116750000D01*
X141000000Y-115250000D02*
X140176998Y-115250000D01*
X138676998Y-116750000D02*
X124750000Y-116750000D01*
X122000000Y-119500000D02*
X120500000Y-119500000D01*
X124750000Y-116750000D02*
X122000000Y-119500000D01*
G04 #@! TO.N,Net-(R6-Pad2)*
X120500000Y-121750000D02*
X120899999Y-121350001D01*
X120899999Y-121350001D02*
X125000000Y-117250000D01*
X139250000Y-117250000D02*
X140250000Y-116250000D01*
X125000000Y-117250000D02*
X139250000Y-117250000D01*
G04 #@! TO.N,Net-(R5-Pad2)*
X140000000Y-117750000D02*
X135250000Y-117750000D01*
X135250000Y-117750000D02*
X125500000Y-117750000D01*
X125500000Y-117750000D02*
X122000000Y-121250000D01*
X122000000Y-121250000D02*
X122000000Y-122000000D01*
X122000000Y-123000000D02*
X120500000Y-124500000D01*
X122000000Y-122000000D02*
X122000000Y-123000000D01*
G04 #@! TO.N,Net-(R4-Pad2)*
X150800000Y-126500000D02*
X152549990Y-128249990D01*
X143500000Y-126500000D02*
X150800000Y-126500000D01*
X152549990Y-138049990D02*
X160500000Y-146000000D01*
X140000000Y-123000000D02*
X143500000Y-126500000D01*
X140000000Y-119000000D02*
X140000000Y-123000000D01*
X152549990Y-128249990D02*
X152549990Y-138049990D01*
X160500000Y-146000000D02*
X162500000Y-148000000D01*
X162500000Y-148000000D02*
X177500000Y-148000000D01*
G04 #@! TO.N,Net-(R3-Pad2)*
X153000000Y-137500000D02*
X153000000Y-128000000D01*
X153000000Y-128000000D02*
X151000000Y-126000000D01*
X159500000Y-144000000D02*
X153000000Y-137500000D01*
X151000000Y-126000000D02*
X144000000Y-126000000D01*
X141000000Y-123000000D02*
X141000000Y-119500000D01*
X144000000Y-126000000D02*
X141000000Y-123000000D01*
X159500000Y-144000000D02*
X163000000Y-147500000D01*
X163000000Y-147500000D02*
X176500000Y-147500000D01*
X176500000Y-147500000D02*
X177500000Y-146500000D01*
G04 #@! TO.N,Net-(R2-Pad2)*
X151186401Y-125549991D02*
X144549991Y-125549991D01*
X142000000Y-123000000D02*
X142000000Y-120000000D01*
X144549991Y-125549991D02*
X142000000Y-123000000D01*
X153500000Y-127863590D02*
X151186401Y-125549991D01*
X163500000Y-147000000D02*
X153500000Y-137000000D01*
X153500000Y-137000000D02*
X153500000Y-127863590D01*
X175500000Y-147000000D02*
X163500000Y-147000000D01*
X177500000Y-145000000D02*
X175500000Y-147000000D01*
G04 #@! TO.N,Net-(R1-Pad2)*
X151372802Y-125099982D02*
X154000000Y-127727180D01*
X154000000Y-127727180D02*
X154000000Y-136500000D01*
X154000000Y-136500000D02*
X157500000Y-140000000D01*
X151372802Y-125099982D02*
X145099982Y-125099982D01*
X145099982Y-125099982D02*
X143000000Y-123000000D01*
X143000000Y-123000000D02*
X143000000Y-120500000D01*
X157500000Y-140000000D02*
X164000000Y-146500000D01*
X164000000Y-146500000D02*
X174500000Y-146500000D01*
X174500000Y-146500000D02*
X177500000Y-143500000D01*
G04 #@! TO.N,PIN5*
X154600000Y-116800000D02*
X157900000Y-116840000D01*
X153200000Y-115500000D02*
X154600000Y-116800000D01*
G04 #@! TO.N,PIN21*
X155448000Y-115570000D02*
X159270000Y-115570000D01*
X159270000Y-115570000D02*
X161300000Y-117600000D01*
X170055000Y-117600000D02*
X173355000Y-114300000D01*
X161300000Y-117600000D02*
X170055000Y-117600000D01*
G04 #@! TO.N,PIN20*
X171995000Y-118200000D02*
X173355000Y-116840000D01*
X155200000Y-118200000D02*
X171995000Y-118200000D01*
G04 #@! TO.N,PIN14*
X155575000Y-122555000D02*
X156210000Y-123190000D01*
X156210000Y-123190000D02*
X162390000Y-123190000D01*
X171280000Y-132080000D02*
X173355000Y-132080000D01*
X162390000Y-123190000D02*
X171280000Y-132080000D01*
G04 #@! TO.N,PIN8*
X153880000Y-119080000D02*
X153880000Y-122130000D01*
X153562653Y-118762653D02*
X153880000Y-119080000D01*
X156210000Y-124460000D02*
X157900000Y-124460000D01*
X153880000Y-122130000D02*
X156210000Y-124460000D01*
X153537347Y-118762653D02*
X153562653Y-118762653D01*
G04 #@! TO.N,PIN12*
X117000000Y-110100000D02*
X117000000Y-107500000D01*
X118900000Y-112000000D02*
X117000000Y-110100000D01*
X149250000Y-121750000D02*
X149250000Y-117500000D01*
X149250000Y-117500000D02*
X143750000Y-112000000D01*
X155099980Y-127599980D02*
X149250000Y-121750000D01*
X143750000Y-112000000D02*
X118900000Y-112000000D01*
X155099980Y-131800000D02*
X155099980Y-127599980D01*
X156079980Y-132780000D02*
X155099980Y-131800000D01*
X156079980Y-132799980D02*
X156079980Y-132780000D01*
X157900000Y-134620000D02*
X156079980Y-132799980D01*
G04 #@! TO.N,PIN11*
X121450010Y-111450010D02*
X119500000Y-109500000D01*
X149750000Y-117250000D02*
X143950010Y-111450010D01*
X149750000Y-121500000D02*
X149750000Y-117250000D01*
X119500000Y-109500000D02*
X119500000Y-107500000D01*
X155549990Y-127299990D02*
X149750000Y-121500000D01*
X155549990Y-129729990D02*
X155549990Y-127299990D01*
X143950010Y-111450010D02*
X121450010Y-111450010D01*
X157900000Y-132080000D02*
X155549990Y-129729990D01*
G04 #@! TO.N,PIN10*
X150250000Y-121250000D02*
X156000000Y-127000000D01*
X156000000Y-127640000D02*
X157900000Y-129540000D01*
X131500000Y-107500000D02*
X131500000Y-108737436D01*
X150250000Y-117000000D02*
X150250000Y-121250000D01*
X133762564Y-111000000D02*
X144250000Y-111000000D01*
X131500000Y-108737436D02*
X133762564Y-111000000D01*
X156000000Y-127000000D02*
X156000000Y-127640000D01*
X144250000Y-111000000D02*
X150250000Y-117000000D01*
G04 #@! TO.N,PIN9*
X134000000Y-109000000D02*
X134000000Y-107500000D01*
X135500000Y-110500000D02*
X134000000Y-109000000D01*
X144500000Y-110500000D02*
X135500000Y-110500000D01*
X150750000Y-116750000D02*
X144500000Y-110500000D01*
X150750000Y-120750000D02*
X150750000Y-116750000D01*
X157000000Y-127000000D02*
X150750000Y-120750000D01*
X158115000Y-127000000D02*
X157000000Y-127000000D01*
G04 #@! TO.N,PIN4*
X146000000Y-109000000D02*
X146000000Y-107500000D01*
X147500000Y-110500000D02*
X146000000Y-109000000D01*
X154100000Y-110500000D02*
X147500000Y-110500000D01*
X157900000Y-114300000D02*
X154100000Y-110500000D01*
G04 #@! TO.N,PIN3*
X148500000Y-107500000D02*
X148500000Y-109000000D01*
X148500000Y-109000000D02*
X149000000Y-109500000D01*
X155640000Y-109500000D02*
X157900000Y-111760000D01*
X149000000Y-109500000D02*
X155640000Y-109500000D01*
G04 #@! TO.N,PIN15*
X189300000Y-124500000D02*
X193000000Y-124500000D01*
X184260000Y-129540000D02*
X189300000Y-124500000D01*
X173355000Y-129540000D02*
X184260000Y-129540000D01*
G04 #@! TO.N,PIN16*
X193000000Y-122000000D02*
X189000000Y-122000000D01*
X189000000Y-122000000D02*
X184000000Y-127000000D01*
X173355000Y-127000000D02*
X184000000Y-127000000D01*
G04 #@! TO.N,PIN18*
X170000000Y-142000000D02*
X170000000Y-143500000D01*
X163900000Y-135900000D02*
X170000000Y-142000000D01*
X163900000Y-130300000D02*
X163900000Y-135900000D01*
X164700000Y-129500000D02*
X163900000Y-130300000D01*
G04 #@! TO.N,PIN19*
X163100000Y-136362564D02*
X163100000Y-129400000D01*
X163100000Y-129400000D02*
X164500000Y-128000000D01*
X167500000Y-140762564D02*
X167500000Y-143500000D01*
X163100000Y-136362564D02*
X167500000Y-140762564D01*
G04 #@! TO.N,PIN22*
X174510000Y-111760000D02*
X173355000Y-111760000D01*
X185774999Y-113725001D02*
X176475001Y-113725001D01*
X176475001Y-113725001D02*
X174510000Y-111760000D01*
X189500000Y-110000000D02*
X185774999Y-113725001D01*
X193000000Y-110000000D02*
X189500000Y-110000000D01*
G04 #@! TO.N,PIN23*
X192024000Y-107500000D02*
X192024000Y-107442000D01*
X193000000Y-107500000D02*
X192024000Y-107500000D01*
X174154999Y-110019999D02*
X173355000Y-109220000D01*
X174635000Y-110500000D02*
X174154999Y-110019999D01*
X174635000Y-111135000D02*
X174635000Y-110500000D01*
X176750000Y-113250000D02*
X174635000Y-111135000D01*
X185500000Y-113250000D02*
X176750000Y-113250000D01*
X191250000Y-107500000D02*
X185500000Y-113250000D01*
X193000000Y-107500000D02*
X191250000Y-107500000D01*
D26*
G04 #@! TO.N,+3V3*
X173775000Y-142000000D02*
X178375000Y-137400000D01*
X183700000Y-135100000D02*
X190400000Y-128400000D01*
X190400000Y-128325000D02*
X190400000Y-128400000D01*
X191725000Y-127000000D02*
X193000000Y-127000000D01*
X190400000Y-128325000D02*
X191725000Y-127000000D01*
X183700000Y-135100000D02*
X183656000Y-135100000D01*
X183656000Y-135100000D02*
X181356000Y-137400000D01*
X178375000Y-137400000D02*
X181356000Y-137400000D01*
X151000000Y-106225000D02*
X151000000Y-107500000D01*
X151795001Y-105429999D02*
X151000000Y-106225000D01*
X174244000Y-112960001D02*
X167824001Y-112960001D01*
X163956000Y-109111999D02*
X160274000Y-105429999D01*
X163975999Y-109111999D02*
X163956000Y-109111999D01*
X167824001Y-112960001D02*
X163975999Y-109111999D01*
X186436000Y-115062000D02*
X176345999Y-115062000D01*
X160274000Y-105429999D02*
X151795001Y-105429999D01*
X193000000Y-112500000D02*
X192554000Y-112500000D01*
X188537999Y-112960001D02*
X186436000Y-115062000D01*
X192093999Y-112960001D02*
X188537999Y-112960001D01*
X192554000Y-112500000D02*
X192093999Y-112960001D01*
X176345999Y-115062000D02*
X174244000Y-112960001D01*
X172500000Y-143500000D02*
X172500000Y-143300000D01*
X173775000Y-142025000D02*
X173775000Y-142000000D01*
X172500000Y-143300000D02*
X173775000Y-142025000D01*
G04 #@! TD*
D27*
G04 #@! TO.N,VIN*
G36*
X150550000Y-143186396D02*
X150550000Y-150000000D01*
X150584254Y-150172208D01*
X150718887Y-150351391D01*
X153218887Y-152351391D01*
X153374757Y-152432220D01*
X153500000Y-152450000D01*
X157550000Y-152450000D01*
X157550000Y-182800000D01*
X151250000Y-182800000D01*
X151077792Y-182834254D01*
X150931802Y-182931802D01*
X149681802Y-184181802D01*
X149584254Y-184327792D01*
X149550000Y-184500000D01*
X149550000Y-186261638D01*
X149487727Y-186168439D01*
X148939073Y-185881638D01*
X147801035Y-187019676D01*
X147679111Y-187069377D01*
X147729390Y-186949899D01*
X148868362Y-185810927D01*
X148581561Y-185262273D01*
X147233878Y-184662466D01*
X145759245Y-184624051D01*
X144382160Y-185152879D01*
X144218439Y-185262273D01*
X143931638Y-185810927D01*
X145069676Y-186948965D01*
X145119377Y-187070889D01*
X144999899Y-187020610D01*
X143860927Y-185881638D01*
X143312273Y-186168439D01*
X142712466Y-187516122D01*
X142674051Y-188990755D01*
X143202879Y-190367840D01*
X143312273Y-190531561D01*
X143860927Y-190818362D01*
X144998965Y-189680324D01*
X145120889Y-189630623D01*
X145070610Y-189750101D01*
X143931638Y-190889073D01*
X144015760Y-191050000D01*
X142450000Y-191050000D01*
X142450000Y-141450000D01*
X148813604Y-141450000D01*
X150550000Y-143186396D01*
X150550000Y-143186396D01*
G37*
X150550000Y-143186396D02*
X150550000Y-150000000D01*
X150584254Y-150172208D01*
X150718887Y-150351391D01*
X153218887Y-152351391D01*
X153374757Y-152432220D01*
X153500000Y-152450000D01*
X157550000Y-152450000D01*
X157550000Y-182800000D01*
X151250000Y-182800000D01*
X151077792Y-182834254D01*
X150931802Y-182931802D01*
X149681802Y-184181802D01*
X149584254Y-184327792D01*
X149550000Y-184500000D01*
X149550000Y-186261638D01*
X149487727Y-186168439D01*
X148939073Y-185881638D01*
X147801035Y-187019676D01*
X147679111Y-187069377D01*
X147729390Y-186949899D01*
X148868362Y-185810927D01*
X148581561Y-185262273D01*
X147233878Y-184662466D01*
X145759245Y-184624051D01*
X144382160Y-185152879D01*
X144218439Y-185262273D01*
X143931638Y-185810927D01*
X145069676Y-186948965D01*
X145119377Y-187070889D01*
X144999899Y-187020610D01*
X143860927Y-185881638D01*
X143312273Y-186168439D01*
X142712466Y-187516122D01*
X142674051Y-188990755D01*
X143202879Y-190367840D01*
X143312273Y-190531561D01*
X143860927Y-190818362D01*
X144998965Y-189680324D01*
X145120889Y-189630623D01*
X145070610Y-189750101D01*
X143931638Y-190889073D01*
X144015760Y-191050000D01*
X142450000Y-191050000D01*
X142450000Y-141450000D01*
X148813604Y-141450000D01*
X150550000Y-143186396D01*
G36*
X145399999Y-189420712D02*
X145309312Y-189511399D01*
X145235579Y-189514421D01*
X145238601Y-189440688D01*
X145329288Y-189350001D01*
X145399999Y-189420712D01*
X145399999Y-189420712D01*
G37*
X145399999Y-189420712D02*
X145309312Y-189511399D01*
X145235579Y-189514421D01*
X145238601Y-189440688D01*
X145329288Y-189350001D01*
X145399999Y-189420712D01*
G36*
X145561399Y-189259312D02*
X145470712Y-189349999D01*
X145400001Y-189279288D01*
X145490688Y-189188601D01*
X145564421Y-189185579D01*
X145561399Y-189259312D01*
X145561399Y-189259312D01*
G37*
X145561399Y-189259312D02*
X145470712Y-189349999D01*
X145400001Y-189279288D01*
X145490688Y-189188601D01*
X145564421Y-189185579D01*
X145561399Y-189259312D01*
G36*
X145800101Y-187679390D02*
X146400000Y-188279289D01*
X146998965Y-187680324D01*
X147120889Y-187630623D01*
X147070610Y-187750101D01*
X146470711Y-188350000D01*
X146484853Y-188364142D01*
X146414142Y-188434853D01*
X146400000Y-188420711D01*
X145801035Y-189019676D01*
X145679111Y-189069377D01*
X145729390Y-188949899D01*
X146329289Y-188350000D01*
X145730324Y-187751035D01*
X145680623Y-187629111D01*
X145800101Y-187679390D01*
X145800101Y-187679390D01*
G37*
X145800101Y-187679390D02*
X146400000Y-188279289D01*
X146998965Y-187680324D01*
X147120889Y-187630623D01*
X147070610Y-187750101D01*
X146470711Y-188350000D01*
X146484853Y-188364142D01*
X146414142Y-188434853D01*
X146400000Y-188420711D01*
X145801035Y-189019676D01*
X145679111Y-189069377D01*
X145729390Y-188949899D01*
X146329289Y-188350000D01*
X145730324Y-187751035D01*
X145680623Y-187629111D01*
X145800101Y-187679390D01*
G36*
X145561399Y-187440688D02*
X145564421Y-187514421D01*
X145490688Y-187511399D01*
X145400001Y-187420712D01*
X145470712Y-187350001D01*
X145561399Y-187440688D01*
X145561399Y-187440688D01*
G37*
X145561399Y-187440688D02*
X145564421Y-187514421D01*
X145490688Y-187511399D01*
X145400001Y-187420712D01*
X145470712Y-187350001D01*
X145561399Y-187440688D01*
G36*
X147399999Y-187420712D02*
X147309312Y-187511399D01*
X147235579Y-187514421D01*
X147238601Y-187440688D01*
X147329288Y-187350001D01*
X147399999Y-187420712D01*
X147399999Y-187420712D01*
G37*
X147399999Y-187420712D02*
X147309312Y-187511399D01*
X147235579Y-187514421D01*
X147238601Y-187440688D01*
X147329288Y-187350001D01*
X147399999Y-187420712D01*
G36*
X147561399Y-187259312D02*
X147470712Y-187349999D01*
X147400001Y-187279288D01*
X147490688Y-187188601D01*
X147564421Y-187185579D01*
X147561399Y-187259312D01*
X147561399Y-187259312D01*
G37*
X147561399Y-187259312D02*
X147470712Y-187349999D01*
X147400001Y-187279288D01*
X147490688Y-187188601D01*
X147564421Y-187185579D01*
X147561399Y-187259312D01*
G36*
X145309312Y-187188601D02*
X145399999Y-187279288D01*
X145329288Y-187349999D01*
X145238601Y-187259312D01*
X145235579Y-187185579D01*
X145309312Y-187188601D01*
X145309312Y-187188601D01*
G37*
X145309312Y-187188601D02*
X145399999Y-187279288D01*
X145329288Y-187349999D01*
X145238601Y-187259312D01*
X145235579Y-187185579D01*
X145309312Y-187188601D01*
G04 #@! TO.N,GND*
G36*
X140550000Y-140182478D02*
X140550000Y-191500000D01*
X140660375Y-192054891D01*
X140974695Y-192525305D01*
X141445109Y-192839625D01*
X141466843Y-192843948D01*
X141316041Y-193069639D01*
X141200000Y-193653018D01*
X141200000Y-195046981D01*
X141316041Y-195630360D01*
X141758081Y-196291919D01*
X142419639Y-196733959D01*
X143200000Y-196889182D01*
X143980360Y-196733959D01*
X144641919Y-196291919D01*
X145083959Y-195630361D01*
X145200000Y-195046982D01*
X145200000Y-193653019D01*
X145200000Y-193653018D01*
X154800000Y-193653018D01*
X154800000Y-195046981D01*
X154916041Y-195630360D01*
X155358081Y-196291919D01*
X156019639Y-196733959D01*
X156800000Y-196889182D01*
X157580360Y-196733959D01*
X158241919Y-196291919D01*
X158683959Y-195630361D01*
X158800000Y-195046982D01*
X158800000Y-193653019D01*
X158694929Y-193124786D01*
X189600000Y-193124786D01*
X189600000Y-194875214D01*
X190269860Y-196492400D01*
X191507600Y-197730140D01*
X193124786Y-198400000D01*
X194875214Y-198400000D01*
X196492400Y-197730140D01*
X197730140Y-196492400D01*
X198400000Y-194875214D01*
X198400000Y-193124786D01*
X197730140Y-191507600D01*
X196968527Y-190745987D01*
X197280361Y-190683959D01*
X197941919Y-190241919D01*
X198383959Y-189580361D01*
X198539182Y-188800000D01*
X198383959Y-188019639D01*
X197941919Y-187358081D01*
X197280361Y-186916041D01*
X196696982Y-186800000D01*
X195303018Y-186800000D01*
X194719639Y-186916041D01*
X194058081Y-187358081D01*
X193616041Y-188019639D01*
X193460818Y-188800000D01*
X193616041Y-189580361D01*
X193629163Y-189600000D01*
X193124786Y-189600000D01*
X191507600Y-190269860D01*
X190269860Y-191507600D01*
X189600000Y-193124786D01*
X158694929Y-193124786D01*
X158683959Y-193069639D01*
X158241919Y-192408081D01*
X157580361Y-191966041D01*
X156800000Y-191810818D01*
X156019640Y-191966041D01*
X155358082Y-192408081D01*
X154916041Y-193069639D01*
X154800000Y-193653018D01*
X145200000Y-193653018D01*
X145083959Y-193069639D01*
X145004019Y-192950000D01*
X148000000Y-192950000D01*
X148554891Y-192839625D01*
X149025305Y-192525305D01*
X150845079Y-190705531D01*
X151060927Y-190818362D01*
X152198965Y-189680324D01*
X152320889Y-189630623D01*
X152270610Y-189750101D01*
X151131638Y-190889073D01*
X151418439Y-191437727D01*
X152766122Y-192037534D01*
X154240755Y-192075949D01*
X155617840Y-191547121D01*
X155781561Y-191437727D01*
X156068362Y-190889073D01*
X154930324Y-189751035D01*
X154880623Y-189629111D01*
X155000101Y-189679390D01*
X156139073Y-190818362D01*
X156687727Y-190531561D01*
X157287534Y-189183878D01*
X157325949Y-187709245D01*
X156797121Y-186332160D01*
X156687727Y-186168439D01*
X156139073Y-185881638D01*
X155001035Y-187019676D01*
X154879111Y-187069377D01*
X154929390Y-186949899D01*
X156068362Y-185810927D01*
X155781561Y-185262273D01*
X154518212Y-184700000D01*
X158000000Y-184700000D01*
X158554891Y-184589625D01*
X159025305Y-184275305D01*
X159339625Y-183804891D01*
X159450000Y-183250000D01*
X159450000Y-177614296D01*
X186050000Y-177614296D01*
X186050000Y-179185704D01*
X186651352Y-180637495D01*
X187762505Y-181748648D01*
X188687776Y-182131908D01*
X187982160Y-182402879D01*
X187818439Y-182512273D01*
X187531638Y-183060927D01*
X188669676Y-184198965D01*
X188719377Y-184320889D01*
X188599899Y-184270610D01*
X187460927Y-183131638D01*
X186912273Y-183418439D01*
X186312466Y-184766122D01*
X186274051Y-186240755D01*
X186802879Y-187617840D01*
X186912273Y-187781561D01*
X187460927Y-188068362D01*
X188598965Y-186930324D01*
X188720889Y-186880623D01*
X188670610Y-187000101D01*
X187531638Y-188139073D01*
X187818439Y-188687727D01*
X189166122Y-189287534D01*
X190640755Y-189325949D01*
X192017840Y-188797121D01*
X192181561Y-188687727D01*
X192468362Y-188139073D01*
X191330324Y-187001035D01*
X191280623Y-186879111D01*
X191400101Y-186929390D01*
X192539073Y-188068362D01*
X193087727Y-187781561D01*
X193687534Y-186433878D01*
X193725949Y-184959245D01*
X193197121Y-183582160D01*
X193087727Y-183418439D01*
X192539073Y-183131638D01*
X191401035Y-184269676D01*
X191279111Y-184319377D01*
X191329390Y-184199899D01*
X192468362Y-183060927D01*
X192181561Y-182512273D01*
X191319843Y-182128752D01*
X192237495Y-181748648D01*
X193348648Y-180637495D01*
X193950000Y-179185704D01*
X193950000Y-177614296D01*
X193348648Y-176162505D01*
X192386143Y-175200000D01*
X193460818Y-175200000D01*
X193616041Y-175980361D01*
X194058081Y-176641919D01*
X194719639Y-177083959D01*
X195303018Y-177200000D01*
X196696982Y-177200000D01*
X197280361Y-177083959D01*
X197941919Y-176641919D01*
X198383959Y-175980361D01*
X198539182Y-175200000D01*
X198383959Y-174419639D01*
X197941919Y-173758081D01*
X197280361Y-173316041D01*
X196696982Y-173200000D01*
X195303018Y-173200000D01*
X194719639Y-173316041D01*
X194058081Y-173758081D01*
X193616041Y-174419639D01*
X193460818Y-175200000D01*
X192386143Y-175200000D01*
X192237495Y-175051352D01*
X190785704Y-174450000D01*
X189214296Y-174450000D01*
X187762505Y-175051352D01*
X186651352Y-176162505D01*
X186050000Y-177614296D01*
X159450000Y-177614296D01*
X159450000Y-157614296D01*
X186050000Y-157614296D01*
X186050000Y-159185704D01*
X186651352Y-160637495D01*
X187762505Y-161748648D01*
X188687776Y-162131908D01*
X187982160Y-162402879D01*
X187818439Y-162512273D01*
X187531638Y-163060927D01*
X188669676Y-164198965D01*
X188719377Y-164320889D01*
X188599899Y-164270610D01*
X187460927Y-163131638D01*
X186912273Y-163418439D01*
X186312466Y-164766122D01*
X186274051Y-166240755D01*
X186802879Y-167617840D01*
X186912273Y-167781561D01*
X187460927Y-168068362D01*
X188598965Y-166930324D01*
X188720889Y-166880623D01*
X188670610Y-167000101D01*
X187531638Y-168139073D01*
X187818439Y-168687727D01*
X189166122Y-169287534D01*
X190640755Y-169325949D01*
X192010342Y-168800000D01*
X193460818Y-168800000D01*
X193616041Y-169580361D01*
X194058081Y-170241919D01*
X194719639Y-170683959D01*
X195303018Y-170800000D01*
X196696982Y-170800000D01*
X197280361Y-170683959D01*
X197941919Y-170241919D01*
X198383959Y-169580361D01*
X198539182Y-168800000D01*
X198383959Y-168019639D01*
X197941919Y-167358081D01*
X197280361Y-166916041D01*
X196696982Y-166800000D01*
X195303018Y-166800000D01*
X194719639Y-166916041D01*
X194058081Y-167358081D01*
X193616041Y-168019639D01*
X193460818Y-168800000D01*
X192010342Y-168800000D01*
X192017840Y-168797121D01*
X192181561Y-168687727D01*
X192468362Y-168139073D01*
X191330324Y-167001035D01*
X191280623Y-166879111D01*
X191400101Y-166929390D01*
X192539073Y-168068362D01*
X193087727Y-167781561D01*
X193687534Y-166433878D01*
X193725949Y-164959245D01*
X193197121Y-163582160D01*
X193087727Y-163418439D01*
X192539073Y-163131638D01*
X191401035Y-164269676D01*
X191279111Y-164319377D01*
X191329390Y-164199899D01*
X192468362Y-163060927D01*
X192181561Y-162512273D01*
X191319843Y-162128752D01*
X192237495Y-161748648D01*
X193348648Y-160637495D01*
X193950000Y-159185704D01*
X193950000Y-157614296D01*
X193348648Y-156162505D01*
X192386143Y-155200000D01*
X193460818Y-155200000D01*
X193616041Y-155980361D01*
X194058081Y-156641919D01*
X194719639Y-157083959D01*
X195303018Y-157200000D01*
X196696982Y-157200000D01*
X197280361Y-157083959D01*
X197941919Y-156641919D01*
X198383959Y-155980361D01*
X198539182Y-155200000D01*
X198383959Y-154419639D01*
X197941919Y-153758081D01*
X197280361Y-153316041D01*
X196696982Y-153200000D01*
X195303018Y-153200000D01*
X194719639Y-153316041D01*
X194058081Y-153758081D01*
X193616041Y-154419639D01*
X193460818Y-155200000D01*
X192386143Y-155200000D01*
X192237495Y-155051352D01*
X190785704Y-154450000D01*
X189214296Y-154450000D01*
X187762505Y-155051352D01*
X186651352Y-156162505D01*
X186050000Y-157614296D01*
X159450000Y-157614296D01*
X159450000Y-152450000D01*
X198725001Y-152450000D01*
X198725001Y-196759114D01*
X198708746Y-196849455D01*
X198645835Y-197389060D01*
X198512189Y-197757248D01*
X198297424Y-198084817D01*
X198013067Y-198354191D01*
X197674361Y-198550927D01*
X197282449Y-198669626D01*
X196884438Y-198705147D01*
X196788990Y-198725000D01*
X103240881Y-198725000D01*
X103150545Y-198708746D01*
X102610940Y-198645835D01*
X102242752Y-198512189D01*
X101915183Y-198297424D01*
X101645809Y-198013067D01*
X101449073Y-197674361D01*
X101330374Y-197282449D01*
X101294853Y-196884438D01*
X101275000Y-196788990D01*
X101275000Y-193124786D01*
X117600000Y-193124786D01*
X117600000Y-194875214D01*
X118269860Y-196492400D01*
X119507600Y-197730140D01*
X121124786Y-198400000D01*
X122875214Y-198400000D01*
X124492400Y-197730140D01*
X125730140Y-196492400D01*
X126400000Y-194875214D01*
X126400000Y-193124786D01*
X125730140Y-191507600D01*
X124492400Y-190269860D01*
X122875214Y-189600000D01*
X121124786Y-189600000D01*
X119507600Y-190269860D01*
X118269860Y-191507600D01*
X117600000Y-193124786D01*
X101275000Y-193124786D01*
X101275000Y-187800000D01*
X101460818Y-187800000D01*
X101616041Y-188580361D01*
X102058081Y-189241919D01*
X102719639Y-189683959D01*
X103303018Y-189800000D01*
X104696982Y-189800000D01*
X105280361Y-189683959D01*
X105941919Y-189241919D01*
X106383959Y-188580361D01*
X106539182Y-187800000D01*
X106383959Y-187019639D01*
X105941919Y-186358081D01*
X105280361Y-185916041D01*
X104696982Y-185800000D01*
X103303018Y-185800000D01*
X102719639Y-185916041D01*
X102058081Y-186358081D01*
X101616041Y-187019639D01*
X101460818Y-187800000D01*
X101275000Y-187800000D01*
X101275000Y-183814296D01*
X106050000Y-183814296D01*
X106050000Y-185385704D01*
X106651352Y-186837495D01*
X107762505Y-187948648D01*
X109214296Y-188550000D01*
X110785704Y-188550000D01*
X112237495Y-187948648D01*
X113348648Y-186837495D01*
X113950000Y-185385704D01*
X113950000Y-183814296D01*
X113348648Y-182362505D01*
X112237495Y-181251352D01*
X111312224Y-180868092D01*
X112017840Y-180597121D01*
X112181561Y-180487727D01*
X112468362Y-179939073D01*
X111330324Y-178801035D01*
X111280623Y-178679111D01*
X111400101Y-178729390D01*
X112539073Y-179868362D01*
X113087727Y-179581561D01*
X113687534Y-178233878D01*
X113725949Y-176759245D01*
X113197121Y-175382160D01*
X113087727Y-175218439D01*
X112539073Y-174931638D01*
X111401035Y-176069676D01*
X111279111Y-176119377D01*
X111329390Y-175999899D01*
X112468362Y-174860927D01*
X112181561Y-174312273D01*
X110833878Y-173712466D01*
X109359245Y-173674051D01*
X107982160Y-174202879D01*
X107818439Y-174312273D01*
X107531638Y-174860927D01*
X108669676Y-175998965D01*
X108719377Y-176120889D01*
X108599899Y-176070610D01*
X107460927Y-174931638D01*
X106912273Y-175218439D01*
X106312466Y-176566122D01*
X106274051Y-178040755D01*
X106802879Y-179417840D01*
X106912273Y-179581561D01*
X107460927Y-179868362D01*
X108598965Y-178730324D01*
X108720889Y-178680623D01*
X108670610Y-178800101D01*
X107531638Y-179939073D01*
X107818439Y-180487727D01*
X108680157Y-180871248D01*
X107762505Y-181251352D01*
X106651352Y-182362505D01*
X106050000Y-183814296D01*
X101275000Y-183814296D01*
X101275000Y-174200000D01*
X101460818Y-174200000D01*
X101616041Y-174980361D01*
X102058081Y-175641919D01*
X102719639Y-176083959D01*
X103303018Y-176200000D01*
X104696982Y-176200000D01*
X105280361Y-176083959D01*
X105941919Y-175641919D01*
X106383959Y-174980361D01*
X106539182Y-174200000D01*
X106383959Y-173419639D01*
X105941919Y-172758081D01*
X105280361Y-172316041D01*
X104696982Y-172200000D01*
X103303018Y-172200000D01*
X102719639Y-172316041D01*
X102058081Y-172758081D01*
X101616041Y-173419639D01*
X101460818Y-174200000D01*
X101275000Y-174200000D01*
X101275000Y-167800000D01*
X101460818Y-167800000D01*
X101616041Y-168580361D01*
X102058081Y-169241919D01*
X102719639Y-169683959D01*
X103303018Y-169800000D01*
X104696982Y-169800000D01*
X105280361Y-169683959D01*
X105941919Y-169241919D01*
X106383959Y-168580361D01*
X106539182Y-167800000D01*
X106383959Y-167019639D01*
X105941919Y-166358081D01*
X105280361Y-165916041D01*
X104696982Y-165800000D01*
X103303018Y-165800000D01*
X102719639Y-165916041D01*
X102058081Y-166358081D01*
X101616041Y-167019639D01*
X101460818Y-167800000D01*
X101275000Y-167800000D01*
X101275000Y-163814296D01*
X106050000Y-163814296D01*
X106050000Y-165385704D01*
X106651352Y-166837495D01*
X107762505Y-167948648D01*
X109214296Y-168550000D01*
X110785704Y-168550000D01*
X112237495Y-167948648D01*
X113348648Y-166837495D01*
X113950000Y-165385704D01*
X113950000Y-163814296D01*
X113348648Y-162362505D01*
X112237495Y-161251352D01*
X111312224Y-160868092D01*
X112017840Y-160597121D01*
X112181561Y-160487727D01*
X112468362Y-159939073D01*
X111330324Y-158801035D01*
X111280623Y-158679111D01*
X111400101Y-158729390D01*
X112539073Y-159868362D01*
X113087727Y-159581561D01*
X113687534Y-158233878D01*
X113725949Y-156759245D01*
X113197121Y-155382160D01*
X113087727Y-155218439D01*
X112539073Y-154931638D01*
X111401035Y-156069676D01*
X111279111Y-156119377D01*
X111329390Y-155999899D01*
X112468362Y-154860927D01*
X112181561Y-154312273D01*
X110833878Y-153712466D01*
X109359245Y-153674051D01*
X107982160Y-154202879D01*
X107818439Y-154312273D01*
X107531638Y-154860927D01*
X108669676Y-155998965D01*
X108719377Y-156120889D01*
X108599899Y-156070610D01*
X107460927Y-154931638D01*
X106912273Y-155218439D01*
X106312466Y-156566122D01*
X106274051Y-158040755D01*
X106802879Y-159417840D01*
X106912273Y-159581561D01*
X107460927Y-159868362D01*
X108598965Y-158730324D01*
X108720889Y-158680623D01*
X108670610Y-158800101D01*
X107531638Y-159939073D01*
X107818439Y-160487727D01*
X108680157Y-160871248D01*
X107762505Y-161251352D01*
X106651352Y-162362505D01*
X106050000Y-163814296D01*
X101275000Y-163814296D01*
X101275000Y-154200000D01*
X101460818Y-154200000D01*
X101616041Y-154980361D01*
X102058081Y-155641919D01*
X102719639Y-156083959D01*
X103303018Y-156200000D01*
X104696982Y-156200000D01*
X105280361Y-156083959D01*
X105941919Y-155641919D01*
X106383959Y-154980361D01*
X106539182Y-154200000D01*
X106383959Y-153419639D01*
X105941919Y-152758081D01*
X105280361Y-152316041D01*
X104696982Y-152200000D01*
X103303018Y-152200000D01*
X102719639Y-152316041D01*
X102058081Y-152758081D01*
X101616041Y-153419639D01*
X101460818Y-154200000D01*
X101275000Y-154200000D01*
X101275000Y-147800000D01*
X101460818Y-147800000D01*
X101616041Y-148580361D01*
X102058081Y-149241919D01*
X102719639Y-149683959D01*
X103303018Y-149800000D01*
X104696982Y-149800000D01*
X105280361Y-149683959D01*
X105941919Y-149241919D01*
X106383959Y-148580361D01*
X106539182Y-147800000D01*
X106383959Y-147019639D01*
X105941919Y-146358081D01*
X105280361Y-145916041D01*
X104696982Y-145800000D01*
X103303018Y-145800000D01*
X102719639Y-145916041D01*
X102058081Y-146358081D01*
X101616041Y-147019639D01*
X101460818Y-147800000D01*
X101275000Y-147800000D01*
X101275000Y-143814296D01*
X106050000Y-143814296D01*
X106050000Y-145385704D01*
X106651352Y-146837495D01*
X107762505Y-147948648D01*
X109214296Y-148550000D01*
X110785704Y-148550000D01*
X112237495Y-147948648D01*
X113348648Y-146837495D01*
X113950000Y-145385704D01*
X113950000Y-143814296D01*
X113348648Y-142362505D01*
X112237495Y-141251352D01*
X111312224Y-140868092D01*
X112017840Y-140597121D01*
X112181561Y-140487727D01*
X112468362Y-139939073D01*
X111330324Y-138801035D01*
X111280623Y-138679111D01*
X111400101Y-138729390D01*
X112539073Y-139868362D01*
X113087727Y-139581561D01*
X113687534Y-138233878D01*
X113725949Y-136759245D01*
X113197121Y-135382160D01*
X113087727Y-135218439D01*
X112539073Y-134931638D01*
X111401035Y-136069676D01*
X111279111Y-136119377D01*
X111329390Y-135999899D01*
X112468362Y-134860927D01*
X112181561Y-134312273D01*
X110833878Y-133712466D01*
X109359245Y-133674051D01*
X107982160Y-134202879D01*
X107818439Y-134312273D01*
X107531638Y-134860927D01*
X108669676Y-135998965D01*
X108719377Y-136120889D01*
X108599899Y-136070610D01*
X107460927Y-134931638D01*
X106912273Y-135218439D01*
X106312466Y-136566122D01*
X106274051Y-138040755D01*
X106802879Y-139417840D01*
X106912273Y-139581561D01*
X107460927Y-139868362D01*
X108598965Y-138730324D01*
X108720889Y-138680623D01*
X108670610Y-138800101D01*
X107531638Y-139939073D01*
X107818439Y-140487727D01*
X108680157Y-140871248D01*
X107762505Y-141251352D01*
X106651352Y-142362505D01*
X106050000Y-143814296D01*
X101275000Y-143814296D01*
X101275000Y-134200000D01*
X101460818Y-134200000D01*
X101616041Y-134980361D01*
X102058081Y-135641919D01*
X102719639Y-136083959D01*
X103303018Y-136200000D01*
X104696982Y-136200000D01*
X105280361Y-136083959D01*
X105941919Y-135641919D01*
X106383959Y-134980361D01*
X106539182Y-134200000D01*
X106383959Y-133419639D01*
X105941919Y-132758081D01*
X105280361Y-132316041D01*
X104696982Y-132200000D01*
X103303018Y-132200000D01*
X102719639Y-132316041D01*
X102058081Y-132758081D01*
X101616041Y-133419639D01*
X101460818Y-134200000D01*
X101275000Y-134200000D01*
X101275000Y-131260000D01*
X131889662Y-131260000D01*
X140550000Y-140182478D01*
X140550000Y-140182478D01*
G37*
X140550000Y-140182478D02*
X140550000Y-191500000D01*
X140660375Y-192054891D01*
X140974695Y-192525305D01*
X141445109Y-192839625D01*
X141466843Y-192843948D01*
X141316041Y-193069639D01*
X141200000Y-193653018D01*
X141200000Y-195046981D01*
X141316041Y-195630360D01*
X141758081Y-196291919D01*
X142419639Y-196733959D01*
X143200000Y-196889182D01*
X143980360Y-196733959D01*
X144641919Y-196291919D01*
X145083959Y-195630361D01*
X145200000Y-195046982D01*
X145200000Y-193653019D01*
X145200000Y-193653018D01*
X154800000Y-193653018D01*
X154800000Y-195046981D01*
X154916041Y-195630360D01*
X155358081Y-196291919D01*
X156019639Y-196733959D01*
X156800000Y-196889182D01*
X157580360Y-196733959D01*
X158241919Y-196291919D01*
X158683959Y-195630361D01*
X158800000Y-195046982D01*
X158800000Y-193653019D01*
X158694929Y-193124786D01*
X189600000Y-193124786D01*
X189600000Y-194875214D01*
X190269860Y-196492400D01*
X191507600Y-197730140D01*
X193124786Y-198400000D01*
X194875214Y-198400000D01*
X196492400Y-197730140D01*
X197730140Y-196492400D01*
X198400000Y-194875214D01*
X198400000Y-193124786D01*
X197730140Y-191507600D01*
X196968527Y-190745987D01*
X197280361Y-190683959D01*
X197941919Y-190241919D01*
X198383959Y-189580361D01*
X198539182Y-188800000D01*
X198383959Y-188019639D01*
X197941919Y-187358081D01*
X197280361Y-186916041D01*
X196696982Y-186800000D01*
X195303018Y-186800000D01*
X194719639Y-186916041D01*
X194058081Y-187358081D01*
X193616041Y-188019639D01*
X193460818Y-188800000D01*
X193616041Y-189580361D01*
X193629163Y-189600000D01*
X193124786Y-189600000D01*
X191507600Y-190269860D01*
X190269860Y-191507600D01*
X189600000Y-193124786D01*
X158694929Y-193124786D01*
X158683959Y-193069639D01*
X158241919Y-192408081D01*
X157580361Y-191966041D01*
X156800000Y-191810818D01*
X156019640Y-191966041D01*
X155358082Y-192408081D01*
X154916041Y-193069639D01*
X154800000Y-193653018D01*
X145200000Y-193653018D01*
X145083959Y-193069639D01*
X145004019Y-192950000D01*
X148000000Y-192950000D01*
X148554891Y-192839625D01*
X149025305Y-192525305D01*
X150845079Y-190705531D01*
X151060927Y-190818362D01*
X152198965Y-189680324D01*
X152320889Y-189630623D01*
X152270610Y-189750101D01*
X151131638Y-190889073D01*
X151418439Y-191437727D01*
X152766122Y-192037534D01*
X154240755Y-192075949D01*
X155617840Y-191547121D01*
X155781561Y-191437727D01*
X156068362Y-190889073D01*
X154930324Y-189751035D01*
X154880623Y-189629111D01*
X155000101Y-189679390D01*
X156139073Y-190818362D01*
X156687727Y-190531561D01*
X157287534Y-189183878D01*
X157325949Y-187709245D01*
X156797121Y-186332160D01*
X156687727Y-186168439D01*
X156139073Y-185881638D01*
X155001035Y-187019676D01*
X154879111Y-187069377D01*
X154929390Y-186949899D01*
X156068362Y-185810927D01*
X155781561Y-185262273D01*
X154518212Y-184700000D01*
X158000000Y-184700000D01*
X158554891Y-184589625D01*
X159025305Y-184275305D01*
X159339625Y-183804891D01*
X159450000Y-183250000D01*
X159450000Y-177614296D01*
X186050000Y-177614296D01*
X186050000Y-179185704D01*
X186651352Y-180637495D01*
X187762505Y-181748648D01*
X188687776Y-182131908D01*
X187982160Y-182402879D01*
X187818439Y-182512273D01*
X187531638Y-183060927D01*
X188669676Y-184198965D01*
X188719377Y-184320889D01*
X188599899Y-184270610D01*
X187460927Y-183131638D01*
X186912273Y-183418439D01*
X186312466Y-184766122D01*
X186274051Y-186240755D01*
X186802879Y-187617840D01*
X186912273Y-187781561D01*
X187460927Y-188068362D01*
X188598965Y-186930324D01*
X188720889Y-186880623D01*
X188670610Y-187000101D01*
X187531638Y-188139073D01*
X187818439Y-188687727D01*
X189166122Y-189287534D01*
X190640755Y-189325949D01*
X192017840Y-188797121D01*
X192181561Y-188687727D01*
X192468362Y-188139073D01*
X191330324Y-187001035D01*
X191280623Y-186879111D01*
X191400101Y-186929390D01*
X192539073Y-188068362D01*
X193087727Y-187781561D01*
X193687534Y-186433878D01*
X193725949Y-184959245D01*
X193197121Y-183582160D01*
X193087727Y-183418439D01*
X192539073Y-183131638D01*
X191401035Y-184269676D01*
X191279111Y-184319377D01*
X191329390Y-184199899D01*
X192468362Y-183060927D01*
X192181561Y-182512273D01*
X191319843Y-182128752D01*
X192237495Y-181748648D01*
X193348648Y-180637495D01*
X193950000Y-179185704D01*
X193950000Y-177614296D01*
X193348648Y-176162505D01*
X192386143Y-175200000D01*
X193460818Y-175200000D01*
X193616041Y-175980361D01*
X194058081Y-176641919D01*
X194719639Y-177083959D01*
X195303018Y-177200000D01*
X196696982Y-177200000D01*
X197280361Y-177083959D01*
X197941919Y-176641919D01*
X198383959Y-175980361D01*
X198539182Y-175200000D01*
X198383959Y-174419639D01*
X197941919Y-173758081D01*
X197280361Y-173316041D01*
X196696982Y-173200000D01*
X195303018Y-173200000D01*
X194719639Y-173316041D01*
X194058081Y-173758081D01*
X193616041Y-174419639D01*
X193460818Y-175200000D01*
X192386143Y-175200000D01*
X192237495Y-175051352D01*
X190785704Y-174450000D01*
X189214296Y-174450000D01*
X187762505Y-175051352D01*
X186651352Y-176162505D01*
X186050000Y-177614296D01*
X159450000Y-177614296D01*
X159450000Y-157614296D01*
X186050000Y-157614296D01*
X186050000Y-159185704D01*
X186651352Y-160637495D01*
X187762505Y-161748648D01*
X188687776Y-162131908D01*
X187982160Y-162402879D01*
X187818439Y-162512273D01*
X187531638Y-163060927D01*
X188669676Y-164198965D01*
X188719377Y-164320889D01*
X188599899Y-164270610D01*
X187460927Y-163131638D01*
X186912273Y-163418439D01*
X186312466Y-164766122D01*
X186274051Y-166240755D01*
X186802879Y-167617840D01*
X186912273Y-167781561D01*
X187460927Y-168068362D01*
X188598965Y-166930324D01*
X188720889Y-166880623D01*
X188670610Y-167000101D01*
X187531638Y-168139073D01*
X187818439Y-168687727D01*
X189166122Y-169287534D01*
X190640755Y-169325949D01*
X192010342Y-168800000D01*
X193460818Y-168800000D01*
X193616041Y-169580361D01*
X194058081Y-170241919D01*
X194719639Y-170683959D01*
X195303018Y-170800000D01*
X196696982Y-170800000D01*
X197280361Y-170683959D01*
X197941919Y-170241919D01*
X198383959Y-169580361D01*
X198539182Y-168800000D01*
X198383959Y-168019639D01*
X197941919Y-167358081D01*
X197280361Y-166916041D01*
X196696982Y-166800000D01*
X195303018Y-166800000D01*
X194719639Y-166916041D01*
X194058081Y-167358081D01*
X193616041Y-168019639D01*
X193460818Y-168800000D01*
X192010342Y-168800000D01*
X192017840Y-168797121D01*
X192181561Y-168687727D01*
X192468362Y-168139073D01*
X191330324Y-167001035D01*
X191280623Y-166879111D01*
X191400101Y-166929390D01*
X192539073Y-168068362D01*
X193087727Y-167781561D01*
X193687534Y-166433878D01*
X193725949Y-164959245D01*
X193197121Y-163582160D01*
X193087727Y-163418439D01*
X192539073Y-163131638D01*
X191401035Y-164269676D01*
X191279111Y-164319377D01*
X191329390Y-164199899D01*
X192468362Y-163060927D01*
X192181561Y-162512273D01*
X191319843Y-162128752D01*
X192237495Y-161748648D01*
X193348648Y-160637495D01*
X193950000Y-159185704D01*
X193950000Y-157614296D01*
X193348648Y-156162505D01*
X192386143Y-155200000D01*
X193460818Y-155200000D01*
X193616041Y-155980361D01*
X194058081Y-156641919D01*
X194719639Y-157083959D01*
X195303018Y-157200000D01*
X196696982Y-157200000D01*
X197280361Y-157083959D01*
X197941919Y-156641919D01*
X198383959Y-155980361D01*
X198539182Y-155200000D01*
X198383959Y-154419639D01*
X197941919Y-153758081D01*
X197280361Y-153316041D01*
X196696982Y-153200000D01*
X195303018Y-153200000D01*
X194719639Y-153316041D01*
X194058081Y-153758081D01*
X193616041Y-154419639D01*
X193460818Y-155200000D01*
X192386143Y-155200000D01*
X192237495Y-155051352D01*
X190785704Y-154450000D01*
X189214296Y-154450000D01*
X187762505Y-155051352D01*
X186651352Y-156162505D01*
X186050000Y-157614296D01*
X159450000Y-157614296D01*
X159450000Y-152450000D01*
X198725001Y-152450000D01*
X198725001Y-196759114D01*
X198708746Y-196849455D01*
X198645835Y-197389060D01*
X198512189Y-197757248D01*
X198297424Y-198084817D01*
X198013067Y-198354191D01*
X197674361Y-198550927D01*
X197282449Y-198669626D01*
X196884438Y-198705147D01*
X196788990Y-198725000D01*
X103240881Y-198725000D01*
X103150545Y-198708746D01*
X102610940Y-198645835D01*
X102242752Y-198512189D01*
X101915183Y-198297424D01*
X101645809Y-198013067D01*
X101449073Y-197674361D01*
X101330374Y-197282449D01*
X101294853Y-196884438D01*
X101275000Y-196788990D01*
X101275000Y-193124786D01*
X117600000Y-193124786D01*
X117600000Y-194875214D01*
X118269860Y-196492400D01*
X119507600Y-197730140D01*
X121124786Y-198400000D01*
X122875214Y-198400000D01*
X124492400Y-197730140D01*
X125730140Y-196492400D01*
X126400000Y-194875214D01*
X126400000Y-193124786D01*
X125730140Y-191507600D01*
X124492400Y-190269860D01*
X122875214Y-189600000D01*
X121124786Y-189600000D01*
X119507600Y-190269860D01*
X118269860Y-191507600D01*
X117600000Y-193124786D01*
X101275000Y-193124786D01*
X101275000Y-187800000D01*
X101460818Y-187800000D01*
X101616041Y-188580361D01*
X102058081Y-189241919D01*
X102719639Y-189683959D01*
X103303018Y-189800000D01*
X104696982Y-189800000D01*
X105280361Y-189683959D01*
X105941919Y-189241919D01*
X106383959Y-188580361D01*
X106539182Y-187800000D01*
X106383959Y-187019639D01*
X105941919Y-186358081D01*
X105280361Y-185916041D01*
X104696982Y-185800000D01*
X103303018Y-185800000D01*
X102719639Y-185916041D01*
X102058081Y-186358081D01*
X101616041Y-187019639D01*
X101460818Y-187800000D01*
X101275000Y-187800000D01*
X101275000Y-183814296D01*
X106050000Y-183814296D01*
X106050000Y-185385704D01*
X106651352Y-186837495D01*
X107762505Y-187948648D01*
X109214296Y-188550000D01*
X110785704Y-188550000D01*
X112237495Y-187948648D01*
X113348648Y-186837495D01*
X113950000Y-185385704D01*
X113950000Y-183814296D01*
X113348648Y-182362505D01*
X112237495Y-181251352D01*
X111312224Y-180868092D01*
X112017840Y-180597121D01*
X112181561Y-180487727D01*
X112468362Y-179939073D01*
X111330324Y-178801035D01*
X111280623Y-178679111D01*
X111400101Y-178729390D01*
X112539073Y-179868362D01*
X113087727Y-179581561D01*
X113687534Y-178233878D01*
X113725949Y-176759245D01*
X113197121Y-175382160D01*
X113087727Y-175218439D01*
X112539073Y-174931638D01*
X111401035Y-176069676D01*
X111279111Y-176119377D01*
X111329390Y-175999899D01*
X112468362Y-174860927D01*
X112181561Y-174312273D01*
X110833878Y-173712466D01*
X109359245Y-173674051D01*
X107982160Y-174202879D01*
X107818439Y-174312273D01*
X107531638Y-174860927D01*
X108669676Y-175998965D01*
X108719377Y-176120889D01*
X108599899Y-176070610D01*
X107460927Y-174931638D01*
X106912273Y-175218439D01*
X106312466Y-176566122D01*
X106274051Y-178040755D01*
X106802879Y-179417840D01*
X106912273Y-179581561D01*
X107460927Y-179868362D01*
X108598965Y-178730324D01*
X108720889Y-178680623D01*
X108670610Y-178800101D01*
X107531638Y-179939073D01*
X107818439Y-180487727D01*
X108680157Y-180871248D01*
X107762505Y-181251352D01*
X106651352Y-182362505D01*
X106050000Y-183814296D01*
X101275000Y-183814296D01*
X101275000Y-174200000D01*
X101460818Y-174200000D01*
X101616041Y-174980361D01*
X102058081Y-175641919D01*
X102719639Y-176083959D01*
X103303018Y-176200000D01*
X104696982Y-176200000D01*
X105280361Y-176083959D01*
X105941919Y-175641919D01*
X106383959Y-174980361D01*
X106539182Y-174200000D01*
X106383959Y-173419639D01*
X105941919Y-172758081D01*
X105280361Y-172316041D01*
X104696982Y-172200000D01*
X103303018Y-172200000D01*
X102719639Y-172316041D01*
X102058081Y-172758081D01*
X101616041Y-173419639D01*
X101460818Y-174200000D01*
X101275000Y-174200000D01*
X101275000Y-167800000D01*
X101460818Y-167800000D01*
X101616041Y-168580361D01*
X102058081Y-169241919D01*
X102719639Y-169683959D01*
X103303018Y-169800000D01*
X104696982Y-169800000D01*
X105280361Y-169683959D01*
X105941919Y-169241919D01*
X106383959Y-168580361D01*
X106539182Y-167800000D01*
X106383959Y-167019639D01*
X105941919Y-166358081D01*
X105280361Y-165916041D01*
X104696982Y-165800000D01*
X103303018Y-165800000D01*
X102719639Y-165916041D01*
X102058081Y-166358081D01*
X101616041Y-167019639D01*
X101460818Y-167800000D01*
X101275000Y-167800000D01*
X101275000Y-163814296D01*
X106050000Y-163814296D01*
X106050000Y-165385704D01*
X106651352Y-166837495D01*
X107762505Y-167948648D01*
X109214296Y-168550000D01*
X110785704Y-168550000D01*
X112237495Y-167948648D01*
X113348648Y-166837495D01*
X113950000Y-165385704D01*
X113950000Y-163814296D01*
X113348648Y-162362505D01*
X112237495Y-161251352D01*
X111312224Y-160868092D01*
X112017840Y-160597121D01*
X112181561Y-160487727D01*
X112468362Y-159939073D01*
X111330324Y-158801035D01*
X111280623Y-158679111D01*
X111400101Y-158729390D01*
X112539073Y-159868362D01*
X113087727Y-159581561D01*
X113687534Y-158233878D01*
X113725949Y-156759245D01*
X113197121Y-155382160D01*
X113087727Y-155218439D01*
X112539073Y-154931638D01*
X111401035Y-156069676D01*
X111279111Y-156119377D01*
X111329390Y-155999899D01*
X112468362Y-154860927D01*
X112181561Y-154312273D01*
X110833878Y-153712466D01*
X109359245Y-153674051D01*
X107982160Y-154202879D01*
X107818439Y-154312273D01*
X107531638Y-154860927D01*
X108669676Y-155998965D01*
X108719377Y-156120889D01*
X108599899Y-156070610D01*
X107460927Y-154931638D01*
X106912273Y-155218439D01*
X106312466Y-156566122D01*
X106274051Y-158040755D01*
X106802879Y-159417840D01*
X106912273Y-159581561D01*
X107460927Y-159868362D01*
X108598965Y-158730324D01*
X108720889Y-158680623D01*
X108670610Y-158800101D01*
X107531638Y-159939073D01*
X107818439Y-160487727D01*
X108680157Y-160871248D01*
X107762505Y-161251352D01*
X106651352Y-162362505D01*
X106050000Y-163814296D01*
X101275000Y-163814296D01*
X101275000Y-154200000D01*
X101460818Y-154200000D01*
X101616041Y-154980361D01*
X102058081Y-155641919D01*
X102719639Y-156083959D01*
X103303018Y-156200000D01*
X104696982Y-156200000D01*
X105280361Y-156083959D01*
X105941919Y-155641919D01*
X106383959Y-154980361D01*
X106539182Y-154200000D01*
X106383959Y-153419639D01*
X105941919Y-152758081D01*
X105280361Y-152316041D01*
X104696982Y-152200000D01*
X103303018Y-152200000D01*
X102719639Y-152316041D01*
X102058081Y-152758081D01*
X101616041Y-153419639D01*
X101460818Y-154200000D01*
X101275000Y-154200000D01*
X101275000Y-147800000D01*
X101460818Y-147800000D01*
X101616041Y-148580361D01*
X102058081Y-149241919D01*
X102719639Y-149683959D01*
X103303018Y-149800000D01*
X104696982Y-149800000D01*
X105280361Y-149683959D01*
X105941919Y-149241919D01*
X106383959Y-148580361D01*
X106539182Y-147800000D01*
X106383959Y-147019639D01*
X105941919Y-146358081D01*
X105280361Y-145916041D01*
X104696982Y-145800000D01*
X103303018Y-145800000D01*
X102719639Y-145916041D01*
X102058081Y-146358081D01*
X101616041Y-147019639D01*
X101460818Y-147800000D01*
X101275000Y-147800000D01*
X101275000Y-143814296D01*
X106050000Y-143814296D01*
X106050000Y-145385704D01*
X106651352Y-146837495D01*
X107762505Y-147948648D01*
X109214296Y-148550000D01*
X110785704Y-148550000D01*
X112237495Y-147948648D01*
X113348648Y-146837495D01*
X113950000Y-145385704D01*
X113950000Y-143814296D01*
X113348648Y-142362505D01*
X112237495Y-141251352D01*
X111312224Y-140868092D01*
X112017840Y-140597121D01*
X112181561Y-140487727D01*
X112468362Y-139939073D01*
X111330324Y-138801035D01*
X111280623Y-138679111D01*
X111400101Y-138729390D01*
X112539073Y-139868362D01*
X113087727Y-139581561D01*
X113687534Y-138233878D01*
X113725949Y-136759245D01*
X113197121Y-135382160D01*
X113087727Y-135218439D01*
X112539073Y-134931638D01*
X111401035Y-136069676D01*
X111279111Y-136119377D01*
X111329390Y-135999899D01*
X112468362Y-134860927D01*
X112181561Y-134312273D01*
X110833878Y-133712466D01*
X109359245Y-133674051D01*
X107982160Y-134202879D01*
X107818439Y-134312273D01*
X107531638Y-134860927D01*
X108669676Y-135998965D01*
X108719377Y-136120889D01*
X108599899Y-136070610D01*
X107460927Y-134931638D01*
X106912273Y-135218439D01*
X106312466Y-136566122D01*
X106274051Y-138040755D01*
X106802879Y-139417840D01*
X106912273Y-139581561D01*
X107460927Y-139868362D01*
X108598965Y-138730324D01*
X108720889Y-138680623D01*
X108670610Y-138800101D01*
X107531638Y-139939073D01*
X107818439Y-140487727D01*
X108680157Y-140871248D01*
X107762505Y-141251352D01*
X106651352Y-142362505D01*
X106050000Y-143814296D01*
X101275000Y-143814296D01*
X101275000Y-134200000D01*
X101460818Y-134200000D01*
X101616041Y-134980361D01*
X102058081Y-135641919D01*
X102719639Y-136083959D01*
X103303018Y-136200000D01*
X104696982Y-136200000D01*
X105280361Y-136083959D01*
X105941919Y-135641919D01*
X106383959Y-134980361D01*
X106539182Y-134200000D01*
X106383959Y-133419639D01*
X105941919Y-132758081D01*
X105280361Y-132316041D01*
X104696982Y-132200000D01*
X103303018Y-132200000D01*
X102719639Y-132316041D01*
X102058081Y-132758081D01*
X101616041Y-133419639D01*
X101460818Y-134200000D01*
X101275000Y-134200000D01*
X101275000Y-131260000D01*
X131889662Y-131260000D01*
X140550000Y-140182478D01*
G36*
X191161399Y-186690688D02*
X191164421Y-186764421D01*
X191090688Y-186761399D01*
X191000001Y-186670712D01*
X191070712Y-186600001D01*
X191161399Y-186690688D01*
X191161399Y-186690688D01*
G37*
X191161399Y-186690688D02*
X191164421Y-186764421D01*
X191090688Y-186761399D01*
X191000001Y-186670712D01*
X191070712Y-186600001D01*
X191161399Y-186690688D01*
G36*
X188999999Y-186670712D02*
X188909312Y-186761399D01*
X188835579Y-186764421D01*
X188838601Y-186690688D01*
X188929288Y-186600001D01*
X188999999Y-186670712D01*
X188999999Y-186670712D01*
G37*
X188999999Y-186670712D02*
X188909312Y-186761399D01*
X188835579Y-186764421D01*
X188838601Y-186690688D01*
X188929288Y-186600001D01*
X188999999Y-186670712D01*
G36*
X190909312Y-186438601D02*
X190999999Y-186529288D01*
X190929288Y-186599999D01*
X190838601Y-186509312D01*
X190835579Y-186435579D01*
X190909312Y-186438601D01*
X190909312Y-186438601D01*
G37*
X190909312Y-186438601D02*
X190999999Y-186529288D01*
X190929288Y-186599999D01*
X190838601Y-186509312D01*
X190835579Y-186435579D01*
X190909312Y-186438601D01*
G36*
X189161399Y-186509312D02*
X189070712Y-186599999D01*
X189000001Y-186529288D01*
X189090688Y-186438601D01*
X189164421Y-186435579D01*
X189161399Y-186509312D01*
X189161399Y-186509312D01*
G37*
X189161399Y-186509312D02*
X189070712Y-186599999D01*
X189000001Y-186529288D01*
X189090688Y-186438601D01*
X189164421Y-186435579D01*
X189161399Y-186509312D01*
G36*
X189400101Y-184929390D02*
X190000000Y-185529289D01*
X190598965Y-184930324D01*
X190720889Y-184880623D01*
X190670610Y-185000101D01*
X190070711Y-185600000D01*
X190669676Y-186198965D01*
X190719377Y-186320889D01*
X190599899Y-186270610D01*
X190000000Y-185670711D01*
X189401035Y-186269676D01*
X189279111Y-186319377D01*
X189329390Y-186199899D01*
X189929289Y-185600000D01*
X189330324Y-185001035D01*
X189280623Y-184879111D01*
X189400101Y-184929390D01*
X189400101Y-184929390D01*
G37*
X189400101Y-184929390D02*
X190000000Y-185529289D01*
X190598965Y-184930324D01*
X190720889Y-184880623D01*
X190670610Y-185000101D01*
X190070711Y-185600000D01*
X190669676Y-186198965D01*
X190719377Y-186320889D01*
X190599899Y-186270610D01*
X190000000Y-185670711D01*
X189401035Y-186269676D01*
X189279111Y-186319377D01*
X189329390Y-186199899D01*
X189929289Y-185600000D01*
X189330324Y-185001035D01*
X189280623Y-184879111D01*
X189400101Y-184929390D01*
G36*
X189161399Y-184690688D02*
X189164421Y-184764421D01*
X189090688Y-184761399D01*
X189000001Y-184670712D01*
X189070712Y-184600001D01*
X189161399Y-184690688D01*
X189161399Y-184690688D01*
G37*
X189161399Y-184690688D02*
X189164421Y-184764421D01*
X189090688Y-184761399D01*
X189000001Y-184670712D01*
X189070712Y-184600001D01*
X189161399Y-184690688D01*
G36*
X190999999Y-184670712D02*
X190909312Y-184761399D01*
X190835579Y-184764421D01*
X190838601Y-184690688D01*
X190929288Y-184600001D01*
X190999999Y-184670712D01*
X190999999Y-184670712D01*
G37*
X190999999Y-184670712D02*
X190909312Y-184761399D01*
X190835579Y-184764421D01*
X190838601Y-184690688D01*
X190929288Y-184600001D01*
X190999999Y-184670712D01*
G36*
X191161399Y-184509312D02*
X191070712Y-184599999D01*
X191000001Y-184529288D01*
X191090688Y-184438601D01*
X191164421Y-184435579D01*
X191161399Y-184509312D01*
X191161399Y-184509312D01*
G37*
X191161399Y-184509312D02*
X191070712Y-184599999D01*
X191000001Y-184529288D01*
X191090688Y-184438601D01*
X191164421Y-184435579D01*
X191161399Y-184509312D01*
G36*
X188909312Y-184438601D02*
X188999999Y-184529288D01*
X188929288Y-184599999D01*
X188838601Y-184509312D01*
X188835579Y-184435579D01*
X188909312Y-184438601D01*
X188909312Y-184438601D01*
G37*
X188909312Y-184438601D02*
X188999999Y-184529288D01*
X188929288Y-184599999D01*
X188838601Y-184509312D01*
X188835579Y-184435579D01*
X188909312Y-184438601D01*
G36*
X108999999Y-178470712D02*
X108909312Y-178561399D01*
X108835579Y-178564421D01*
X108838601Y-178490688D01*
X108929288Y-178400001D01*
X108999999Y-178470712D01*
X108999999Y-178470712D01*
G37*
X108999999Y-178470712D02*
X108909312Y-178561399D01*
X108835579Y-178564421D01*
X108838601Y-178490688D01*
X108929288Y-178400001D01*
X108999999Y-178470712D01*
G36*
X111161399Y-178490688D02*
X111164421Y-178564421D01*
X111090688Y-178561399D01*
X111000001Y-178470712D01*
X111070712Y-178400001D01*
X111161399Y-178490688D01*
X111161399Y-178490688D01*
G37*
X111161399Y-178490688D02*
X111164421Y-178564421D01*
X111090688Y-178561399D01*
X111000001Y-178470712D01*
X111070712Y-178400001D01*
X111161399Y-178490688D01*
G36*
X110909312Y-178238601D02*
X110999999Y-178329288D01*
X110929288Y-178399999D01*
X110838601Y-178309312D01*
X110835579Y-178235579D01*
X110909312Y-178238601D01*
X110909312Y-178238601D01*
G37*
X110909312Y-178238601D02*
X110999999Y-178329288D01*
X110929288Y-178399999D01*
X110838601Y-178309312D01*
X110835579Y-178235579D01*
X110909312Y-178238601D01*
G36*
X109161399Y-178309312D02*
X109070712Y-178399999D01*
X109000001Y-178329288D01*
X109090688Y-178238601D01*
X109164421Y-178235579D01*
X109161399Y-178309312D01*
X109161399Y-178309312D01*
G37*
X109161399Y-178309312D02*
X109070712Y-178399999D01*
X109000001Y-178329288D01*
X109090688Y-178238601D01*
X109164421Y-178235579D01*
X109161399Y-178309312D01*
G36*
X109400101Y-176729390D02*
X110000000Y-177329289D01*
X110598965Y-176730324D01*
X110720889Y-176680623D01*
X110670610Y-176800101D01*
X110070711Y-177400000D01*
X110669676Y-177998965D01*
X110719377Y-178120889D01*
X110599899Y-178070610D01*
X110000000Y-177470711D01*
X109401035Y-178069676D01*
X109279111Y-178119377D01*
X109329390Y-177999899D01*
X109929289Y-177400000D01*
X109330324Y-176801035D01*
X109280623Y-176679111D01*
X109400101Y-176729390D01*
X109400101Y-176729390D01*
G37*
X109400101Y-176729390D02*
X110000000Y-177329289D01*
X110598965Y-176730324D01*
X110720889Y-176680623D01*
X110670610Y-176800101D01*
X110070711Y-177400000D01*
X110669676Y-177998965D01*
X110719377Y-178120889D01*
X110599899Y-178070610D01*
X110000000Y-177470711D01*
X109401035Y-178069676D01*
X109279111Y-178119377D01*
X109329390Y-177999899D01*
X109929289Y-177400000D01*
X109330324Y-176801035D01*
X109280623Y-176679111D01*
X109400101Y-176729390D01*
G36*
X109161399Y-176490688D02*
X109164421Y-176564421D01*
X109090688Y-176561399D01*
X109000001Y-176470712D01*
X109070712Y-176400001D01*
X109161399Y-176490688D01*
X109161399Y-176490688D01*
G37*
X109161399Y-176490688D02*
X109164421Y-176564421D01*
X109090688Y-176561399D01*
X109000001Y-176470712D01*
X109070712Y-176400001D01*
X109161399Y-176490688D01*
G36*
X110999999Y-176470712D02*
X110909312Y-176561399D01*
X110835579Y-176564421D01*
X110838601Y-176490688D01*
X110929288Y-176400001D01*
X110999999Y-176470712D01*
X110999999Y-176470712D01*
G37*
X110999999Y-176470712D02*
X110909312Y-176561399D01*
X110835579Y-176564421D01*
X110838601Y-176490688D01*
X110929288Y-176400001D01*
X110999999Y-176470712D01*
G36*
X108909312Y-176238601D02*
X108999999Y-176329288D01*
X108929288Y-176399999D01*
X108838601Y-176309312D01*
X108835579Y-176235579D01*
X108909312Y-176238601D01*
X108909312Y-176238601D01*
G37*
X108909312Y-176238601D02*
X108999999Y-176329288D01*
X108929288Y-176399999D01*
X108838601Y-176309312D01*
X108835579Y-176235579D01*
X108909312Y-176238601D01*
G36*
X111161399Y-176309312D02*
X111070712Y-176399999D01*
X111000001Y-176329288D01*
X111090688Y-176238601D01*
X111164421Y-176235579D01*
X111161399Y-176309312D01*
X111161399Y-176309312D01*
G37*
X111161399Y-176309312D02*
X111070712Y-176399999D01*
X111000001Y-176329288D01*
X111090688Y-176238601D01*
X111164421Y-176235579D01*
X111161399Y-176309312D01*
G36*
X191161399Y-166690688D02*
X191164421Y-166764421D01*
X191090688Y-166761399D01*
X191000001Y-166670712D01*
X191070712Y-166600001D01*
X191161399Y-166690688D01*
X191161399Y-166690688D01*
G37*
X191161399Y-166690688D02*
X191164421Y-166764421D01*
X191090688Y-166761399D01*
X191000001Y-166670712D01*
X191070712Y-166600001D01*
X191161399Y-166690688D01*
G36*
X188999999Y-166670712D02*
X188909312Y-166761399D01*
X188835579Y-166764421D01*
X188838601Y-166690688D01*
X188929288Y-166600001D01*
X188999999Y-166670712D01*
X188999999Y-166670712D01*
G37*
X188999999Y-166670712D02*
X188909312Y-166761399D01*
X188835579Y-166764421D01*
X188838601Y-166690688D01*
X188929288Y-166600001D01*
X188999999Y-166670712D01*
G36*
X189161399Y-166509312D02*
X189070712Y-166599999D01*
X189000001Y-166529288D01*
X189090688Y-166438601D01*
X189164421Y-166435579D01*
X189161399Y-166509312D01*
X189161399Y-166509312D01*
G37*
X189161399Y-166509312D02*
X189070712Y-166599999D01*
X189000001Y-166529288D01*
X189090688Y-166438601D01*
X189164421Y-166435579D01*
X189161399Y-166509312D01*
G36*
X190909312Y-166438601D02*
X190999999Y-166529288D01*
X190929288Y-166599999D01*
X190838601Y-166509312D01*
X190835579Y-166435579D01*
X190909312Y-166438601D01*
X190909312Y-166438601D01*
G37*
X190909312Y-166438601D02*
X190999999Y-166529288D01*
X190929288Y-166599999D01*
X190838601Y-166509312D01*
X190835579Y-166435579D01*
X190909312Y-166438601D01*
G36*
X189400101Y-164929390D02*
X190000000Y-165529289D01*
X190598965Y-164930324D01*
X190720889Y-164880623D01*
X190670610Y-165000101D01*
X190070711Y-165600000D01*
X190669676Y-166198965D01*
X190719377Y-166320889D01*
X190599899Y-166270610D01*
X190000000Y-165670711D01*
X189401035Y-166269676D01*
X189279111Y-166319377D01*
X189329390Y-166199899D01*
X189929289Y-165600000D01*
X189330324Y-165001035D01*
X189280623Y-164879111D01*
X189400101Y-164929390D01*
X189400101Y-164929390D01*
G37*
X189400101Y-164929390D02*
X190000000Y-165529289D01*
X190598965Y-164930324D01*
X190720889Y-164880623D01*
X190670610Y-165000101D01*
X190070711Y-165600000D01*
X190669676Y-166198965D01*
X190719377Y-166320889D01*
X190599899Y-166270610D01*
X190000000Y-165670711D01*
X189401035Y-166269676D01*
X189279111Y-166319377D01*
X189329390Y-166199899D01*
X189929289Y-165600000D01*
X189330324Y-165001035D01*
X189280623Y-164879111D01*
X189400101Y-164929390D01*
G36*
X190999999Y-164670712D02*
X190909312Y-164761399D01*
X190835579Y-164764421D01*
X190838601Y-164690688D01*
X190929288Y-164600001D01*
X190999999Y-164670712D01*
X190999999Y-164670712D01*
G37*
X190999999Y-164670712D02*
X190909312Y-164761399D01*
X190835579Y-164764421D01*
X190838601Y-164690688D01*
X190929288Y-164600001D01*
X190999999Y-164670712D01*
G36*
X189161399Y-164690688D02*
X189164421Y-164764421D01*
X189090688Y-164761399D01*
X189000001Y-164670712D01*
X189070712Y-164600001D01*
X189161399Y-164690688D01*
X189161399Y-164690688D01*
G37*
X189161399Y-164690688D02*
X189164421Y-164764421D01*
X189090688Y-164761399D01*
X189000001Y-164670712D01*
X189070712Y-164600001D01*
X189161399Y-164690688D01*
G36*
X188909312Y-164438601D02*
X188999999Y-164529288D01*
X188929288Y-164599999D01*
X188838601Y-164509312D01*
X188835579Y-164435579D01*
X188909312Y-164438601D01*
X188909312Y-164438601D01*
G37*
X188909312Y-164438601D02*
X188999999Y-164529288D01*
X188929288Y-164599999D01*
X188838601Y-164509312D01*
X188835579Y-164435579D01*
X188909312Y-164438601D01*
G36*
X191161399Y-164509312D02*
X191070712Y-164599999D01*
X191000001Y-164529288D01*
X191090688Y-164438601D01*
X191164421Y-164435579D01*
X191161399Y-164509312D01*
X191161399Y-164509312D01*
G37*
X191161399Y-164509312D02*
X191070712Y-164599999D01*
X191000001Y-164529288D01*
X191090688Y-164438601D01*
X191164421Y-164435579D01*
X191161399Y-164509312D01*
G36*
X111161399Y-158490688D02*
X111164421Y-158564421D01*
X111090688Y-158561399D01*
X111000001Y-158470712D01*
X111070712Y-158400001D01*
X111161399Y-158490688D01*
X111161399Y-158490688D01*
G37*
X111161399Y-158490688D02*
X111164421Y-158564421D01*
X111090688Y-158561399D01*
X111000001Y-158470712D01*
X111070712Y-158400001D01*
X111161399Y-158490688D01*
G36*
X108999999Y-158470712D02*
X108909312Y-158561399D01*
X108835579Y-158564421D01*
X108838601Y-158490688D01*
X108929288Y-158400001D01*
X108999999Y-158470712D01*
X108999999Y-158470712D01*
G37*
X108999999Y-158470712D02*
X108909312Y-158561399D01*
X108835579Y-158564421D01*
X108838601Y-158490688D01*
X108929288Y-158400001D01*
X108999999Y-158470712D01*
G36*
X109161399Y-158309312D02*
X109070712Y-158399999D01*
X109000001Y-158329288D01*
X109090688Y-158238601D01*
X109164421Y-158235579D01*
X109161399Y-158309312D01*
X109161399Y-158309312D01*
G37*
X109161399Y-158309312D02*
X109070712Y-158399999D01*
X109000001Y-158329288D01*
X109090688Y-158238601D01*
X109164421Y-158235579D01*
X109161399Y-158309312D01*
G36*
X110909312Y-158238601D02*
X110999999Y-158329288D01*
X110929288Y-158399999D01*
X110838601Y-158309312D01*
X110835579Y-158235579D01*
X110909312Y-158238601D01*
X110909312Y-158238601D01*
G37*
X110909312Y-158238601D02*
X110999999Y-158329288D01*
X110929288Y-158399999D01*
X110838601Y-158309312D01*
X110835579Y-158235579D01*
X110909312Y-158238601D01*
G36*
X109400101Y-156729390D02*
X110000000Y-157329289D01*
X110598965Y-156730324D01*
X110720889Y-156680623D01*
X110670610Y-156800101D01*
X110070711Y-157400000D01*
X110669676Y-157998965D01*
X110719377Y-158120889D01*
X110599899Y-158070610D01*
X110000000Y-157470711D01*
X109401035Y-158069676D01*
X109279111Y-158119377D01*
X109329390Y-157999899D01*
X109929289Y-157400000D01*
X109330324Y-156801035D01*
X109280623Y-156679111D01*
X109400101Y-156729390D01*
X109400101Y-156729390D01*
G37*
X109400101Y-156729390D02*
X110000000Y-157329289D01*
X110598965Y-156730324D01*
X110720889Y-156680623D01*
X110670610Y-156800101D01*
X110070711Y-157400000D01*
X110669676Y-157998965D01*
X110719377Y-158120889D01*
X110599899Y-158070610D01*
X110000000Y-157470711D01*
X109401035Y-158069676D01*
X109279111Y-158119377D01*
X109329390Y-157999899D01*
X109929289Y-157400000D01*
X109330324Y-156801035D01*
X109280623Y-156679111D01*
X109400101Y-156729390D01*
G36*
X110999999Y-156470712D02*
X110909312Y-156561399D01*
X110835579Y-156564421D01*
X110838601Y-156490688D01*
X110929288Y-156400001D01*
X110999999Y-156470712D01*
X110999999Y-156470712D01*
G37*
X110999999Y-156470712D02*
X110909312Y-156561399D01*
X110835579Y-156564421D01*
X110838601Y-156490688D01*
X110929288Y-156400001D01*
X110999999Y-156470712D01*
G36*
X109161399Y-156490688D02*
X109164421Y-156564421D01*
X109090688Y-156561399D01*
X109000001Y-156470712D01*
X109070712Y-156400001D01*
X109161399Y-156490688D01*
X109161399Y-156490688D01*
G37*
X109161399Y-156490688D02*
X109164421Y-156564421D01*
X109090688Y-156561399D01*
X109000001Y-156470712D01*
X109070712Y-156400001D01*
X109161399Y-156490688D01*
G36*
X111161399Y-156309312D02*
X111070712Y-156399999D01*
X111000001Y-156329288D01*
X111090688Y-156238601D01*
X111164421Y-156235579D01*
X111161399Y-156309312D01*
X111161399Y-156309312D01*
G37*
X111161399Y-156309312D02*
X111070712Y-156399999D01*
X111000001Y-156329288D01*
X111090688Y-156238601D01*
X111164421Y-156235579D01*
X111161399Y-156309312D01*
G36*
X108909312Y-156238601D02*
X108999999Y-156329288D01*
X108929288Y-156399999D01*
X108838601Y-156309312D01*
X108835579Y-156235579D01*
X108909312Y-156238601D01*
X108909312Y-156238601D01*
G37*
X108909312Y-156238601D02*
X108999999Y-156329288D01*
X108929288Y-156399999D01*
X108838601Y-156309312D01*
X108835579Y-156235579D01*
X108909312Y-156238601D01*
G36*
X108999999Y-138470712D02*
X108909312Y-138561399D01*
X108835579Y-138564421D01*
X108838601Y-138490688D01*
X108929288Y-138400001D01*
X108999999Y-138470712D01*
X108999999Y-138470712D01*
G37*
X108999999Y-138470712D02*
X108909312Y-138561399D01*
X108835579Y-138564421D01*
X108838601Y-138490688D01*
X108929288Y-138400001D01*
X108999999Y-138470712D01*
G36*
X111161399Y-138490688D02*
X111164421Y-138564421D01*
X111090688Y-138561399D01*
X111000001Y-138470712D01*
X111070712Y-138400001D01*
X111161399Y-138490688D01*
X111161399Y-138490688D01*
G37*
X111161399Y-138490688D02*
X111164421Y-138564421D01*
X111090688Y-138561399D01*
X111000001Y-138470712D01*
X111070712Y-138400001D01*
X111161399Y-138490688D01*
G36*
X110909312Y-138238601D02*
X110999999Y-138329288D01*
X110929288Y-138399999D01*
X110838601Y-138309312D01*
X110835579Y-138235579D01*
X110909312Y-138238601D01*
X110909312Y-138238601D01*
G37*
X110909312Y-138238601D02*
X110999999Y-138329288D01*
X110929288Y-138399999D01*
X110838601Y-138309312D01*
X110835579Y-138235579D01*
X110909312Y-138238601D01*
G36*
X109161399Y-138309312D02*
X109070712Y-138399999D01*
X109000001Y-138329288D01*
X109090688Y-138238601D01*
X109164421Y-138235579D01*
X109161399Y-138309312D01*
X109161399Y-138309312D01*
G37*
X109161399Y-138309312D02*
X109070712Y-138399999D01*
X109000001Y-138329288D01*
X109090688Y-138238601D01*
X109164421Y-138235579D01*
X109161399Y-138309312D01*
G36*
X109400101Y-136729390D02*
X110000000Y-137329289D01*
X110598965Y-136730324D01*
X110720889Y-136680623D01*
X110670610Y-136800101D01*
X110070711Y-137400000D01*
X110669676Y-137998965D01*
X110719377Y-138120889D01*
X110599899Y-138070610D01*
X110000000Y-137470711D01*
X109401035Y-138069676D01*
X109279111Y-138119377D01*
X109329390Y-137999899D01*
X109929289Y-137400000D01*
X109330324Y-136801035D01*
X109280623Y-136679111D01*
X109400101Y-136729390D01*
X109400101Y-136729390D01*
G37*
X109400101Y-136729390D02*
X110000000Y-137329289D01*
X110598965Y-136730324D01*
X110720889Y-136680623D01*
X110670610Y-136800101D01*
X110070711Y-137400000D01*
X110669676Y-137998965D01*
X110719377Y-138120889D01*
X110599899Y-138070610D01*
X110000000Y-137470711D01*
X109401035Y-138069676D01*
X109279111Y-138119377D01*
X109329390Y-137999899D01*
X109929289Y-137400000D01*
X109330324Y-136801035D01*
X109280623Y-136679111D01*
X109400101Y-136729390D01*
G36*
X110999999Y-136470712D02*
X110909312Y-136561399D01*
X110835579Y-136564421D01*
X110838601Y-136490688D01*
X110929288Y-136400001D01*
X110999999Y-136470712D01*
X110999999Y-136470712D01*
G37*
X110999999Y-136470712D02*
X110909312Y-136561399D01*
X110835579Y-136564421D01*
X110838601Y-136490688D01*
X110929288Y-136400001D01*
X110999999Y-136470712D01*
G36*
X109161399Y-136490688D02*
X109164421Y-136564421D01*
X109090688Y-136561399D01*
X109000001Y-136470712D01*
X109070712Y-136400001D01*
X109161399Y-136490688D01*
X109161399Y-136490688D01*
G37*
X109161399Y-136490688D02*
X109164421Y-136564421D01*
X109090688Y-136561399D01*
X109000001Y-136470712D01*
X109070712Y-136400001D01*
X109161399Y-136490688D01*
G36*
X108909312Y-136238601D02*
X108999999Y-136329288D01*
X108929288Y-136399999D01*
X108838601Y-136309312D01*
X108835579Y-136235579D01*
X108909312Y-136238601D01*
X108909312Y-136238601D01*
G37*
X108909312Y-136238601D02*
X108999999Y-136329288D01*
X108929288Y-136399999D01*
X108838601Y-136309312D01*
X108835579Y-136235579D01*
X108909312Y-136238601D01*
G36*
X111161399Y-136309312D02*
X111070712Y-136399999D01*
X111000001Y-136329288D01*
X111090688Y-136238601D01*
X111164421Y-136235579D01*
X111161399Y-136309312D01*
X111161399Y-136309312D01*
G37*
X111161399Y-136309312D02*
X111070712Y-136399999D01*
X111000001Y-136329288D01*
X111090688Y-136238601D01*
X111164421Y-136235579D01*
X111161399Y-136309312D01*
G36*
X152599999Y-189420712D02*
X152509312Y-189511399D01*
X152435579Y-189514421D01*
X152438601Y-189440688D01*
X152529288Y-189350001D01*
X152599999Y-189420712D01*
X152599999Y-189420712D01*
G37*
X152599999Y-189420712D02*
X152509312Y-189511399D01*
X152435579Y-189514421D01*
X152438601Y-189440688D01*
X152529288Y-189350001D01*
X152599999Y-189420712D01*
G36*
X154761399Y-189440688D02*
X154764421Y-189514421D01*
X154690688Y-189511399D01*
X154600001Y-189420712D01*
X154670712Y-189350001D01*
X154761399Y-189440688D01*
X154761399Y-189440688D01*
G37*
X154761399Y-189440688D02*
X154764421Y-189514421D01*
X154690688Y-189511399D01*
X154600001Y-189420712D01*
X154670712Y-189350001D01*
X154761399Y-189440688D01*
G36*
X154509312Y-189188601D02*
X154599999Y-189279288D01*
X154529288Y-189349999D01*
X154438601Y-189259312D01*
X154435579Y-189185579D01*
X154509312Y-189188601D01*
X154509312Y-189188601D01*
G37*
X154509312Y-189188601D02*
X154599999Y-189279288D01*
X154529288Y-189349999D01*
X154438601Y-189259312D01*
X154435579Y-189185579D01*
X154509312Y-189188601D01*
G36*
X152761399Y-189259312D02*
X152670712Y-189349999D01*
X152600001Y-189279288D01*
X152690688Y-189188601D01*
X152764421Y-189185579D01*
X152761399Y-189259312D01*
X152761399Y-189259312D01*
G37*
X152761399Y-189259312D02*
X152670712Y-189349999D01*
X152600001Y-189279288D01*
X152690688Y-189188601D01*
X152764421Y-189185579D01*
X152761399Y-189259312D01*
G36*
X154270610Y-187750101D02*
X153670711Y-188350000D01*
X154269676Y-188948965D01*
X154319377Y-189070889D01*
X154199899Y-189020610D01*
X153600000Y-188420711D01*
X153001035Y-189019676D01*
X152879111Y-189069377D01*
X152929390Y-188949899D01*
X153529289Y-188350000D01*
X153515147Y-188335858D01*
X153585858Y-188265147D01*
X153600000Y-188279289D01*
X154198965Y-187680324D01*
X154320889Y-187630623D01*
X154270610Y-187750101D01*
X154270610Y-187750101D01*
G37*
X154270610Y-187750101D02*
X153670711Y-188350000D01*
X154269676Y-188948965D01*
X154319377Y-189070889D01*
X154199899Y-189020610D01*
X153600000Y-188420711D01*
X153001035Y-189019676D01*
X152879111Y-189069377D01*
X152929390Y-188949899D01*
X153529289Y-188350000D01*
X153515147Y-188335858D01*
X153585858Y-188265147D01*
X153600000Y-188279289D01*
X154198965Y-187680324D01*
X154320889Y-187630623D01*
X154270610Y-187750101D01*
G36*
X154599999Y-187420712D02*
X154509312Y-187511399D01*
X154435579Y-187514421D01*
X154438601Y-187440688D01*
X154529288Y-187350001D01*
X154599999Y-187420712D01*
X154599999Y-187420712D01*
G37*
X154599999Y-187420712D02*
X154509312Y-187511399D01*
X154435579Y-187514421D01*
X154438601Y-187440688D01*
X154529288Y-187350001D01*
X154599999Y-187420712D01*
G36*
X154761399Y-187259312D02*
X154670712Y-187349999D01*
X154600001Y-187279288D01*
X154690688Y-187188601D01*
X154764421Y-187185579D01*
X154761399Y-187259312D01*
X154761399Y-187259312D01*
G37*
X154761399Y-187259312D02*
X154670712Y-187349999D01*
X154600001Y-187279288D01*
X154690688Y-187188601D01*
X154764421Y-187185579D01*
X154761399Y-187259312D01*
D28*
G36*
X156680000Y-101314250D02*
X156838750Y-101473000D01*
X157988000Y-101473000D01*
X157988000Y-101453000D01*
X158242000Y-101453000D01*
X158242000Y-101473000D01*
X159391250Y-101473000D01*
X159550000Y-101314250D01*
X159550000Y-100710000D01*
X172215604Y-100710000D01*
X172138466Y-100787138D01*
X171920000Y-101314561D01*
X171920000Y-101885439D01*
X172138466Y-102412862D01*
X172542138Y-102816534D01*
X172671216Y-102870000D01*
X172542138Y-102923466D01*
X172138466Y-103327138D01*
X172085000Y-103456216D01*
X172031534Y-103327138D01*
X171627862Y-102923466D01*
X171100439Y-102705000D01*
X170529561Y-102705000D01*
X170002138Y-102923466D01*
X169598466Y-103327138D01*
X169380000Y-103854561D01*
X169380000Y-104425439D01*
X169598466Y-104952862D01*
X170002138Y-105356534D01*
X170529561Y-105575000D01*
X171100439Y-105575000D01*
X171627862Y-105356534D01*
X172031534Y-104952862D01*
X172085000Y-104823784D01*
X172138466Y-104952862D01*
X172542138Y-105356534D01*
X172671216Y-105410000D01*
X172542138Y-105463466D01*
X172138466Y-105867138D01*
X171920000Y-106394561D01*
X171920000Y-106965439D01*
X172138466Y-107492862D01*
X172542138Y-107896534D01*
X172671216Y-107950000D01*
X172542138Y-108003466D01*
X172138466Y-108407138D01*
X172085000Y-108536216D01*
X172031534Y-108407138D01*
X171627862Y-108003466D01*
X171100439Y-107785000D01*
X170529561Y-107785000D01*
X170002138Y-108003466D01*
X169598466Y-108407138D01*
X169380000Y-108934561D01*
X169380000Y-109505439D01*
X169598466Y-110032862D01*
X170002138Y-110436534D01*
X170131216Y-110490000D01*
X170002138Y-110543466D01*
X169598466Y-110947138D01*
X169380000Y-111474561D01*
X169380000Y-112045439D01*
X169412956Y-112125001D01*
X168169869Y-112125001D01*
X164624586Y-108579719D01*
X164578000Y-108509998D01*
X164448014Y-108423144D01*
X160922587Y-104897719D01*
X160876001Y-104827998D01*
X160599801Y-104643447D01*
X160356237Y-104594999D01*
X160356233Y-104594999D01*
X160274000Y-104578642D01*
X160191767Y-104594999D01*
X159479766Y-104594999D01*
X159550000Y-104425439D01*
X159550000Y-103854561D01*
X159331534Y-103327138D01*
X159039396Y-103035000D01*
X159041310Y-103035000D01*
X159274699Y-102938327D01*
X159453327Y-102759698D01*
X159550000Y-102526309D01*
X159550000Y-101885750D01*
X159391250Y-101727000D01*
X158242000Y-101727000D01*
X158242000Y-101747000D01*
X157988000Y-101747000D01*
X157988000Y-101727000D01*
X156838750Y-101727000D01*
X156680000Y-101885750D01*
X156680000Y-102526309D01*
X156776673Y-102759698D01*
X156955301Y-102938327D01*
X157188690Y-103035000D01*
X157190604Y-103035000D01*
X156898466Y-103327138D01*
X156680000Y-103854561D01*
X156680000Y-104425439D01*
X156750234Y-104594999D01*
X151877233Y-104594999D01*
X151795000Y-104578642D01*
X151712767Y-104594999D01*
X151712764Y-104594999D01*
X151469200Y-104643447D01*
X151193000Y-104827998D01*
X151146415Y-104897717D01*
X150467720Y-105576413D01*
X150397999Y-105622999D01*
X150213448Y-105899200D01*
X150197861Y-105977560D01*
X150125000Y-105977560D01*
X149877235Y-106026843D01*
X149667191Y-106167191D01*
X149526843Y-106377235D01*
X149524496Y-106389034D01*
X149355346Y-106219884D01*
X148800358Y-105990000D01*
X148199642Y-105990000D01*
X147644654Y-106219884D01*
X147250000Y-106614538D01*
X146855346Y-106219884D01*
X146300358Y-105990000D01*
X145699642Y-105990000D01*
X145144654Y-106219884D01*
X144719884Y-106644654D01*
X144710879Y-106666394D01*
X144562060Y-106617545D01*
X143679605Y-107500000D01*
X144562060Y-108382455D01*
X144710879Y-108333606D01*
X144719884Y-108355346D01*
X145144654Y-108780116D01*
X145240000Y-108819610D01*
X145240000Y-108925153D01*
X145225112Y-109000000D01*
X145240000Y-109074847D01*
X145240000Y-109074851D01*
X145284096Y-109296536D01*
X145452071Y-109547929D01*
X145515530Y-109590331D01*
X146909673Y-110984476D01*
X146952071Y-111047929D01*
X147015524Y-111090327D01*
X147015526Y-111090329D01*
X147140902Y-111174102D01*
X147203463Y-111215904D01*
X147425148Y-111260000D01*
X147425152Y-111260000D01*
X147499999Y-111274888D01*
X147574846Y-111260000D01*
X153785199Y-111260000D01*
X156680000Y-114154802D01*
X156680000Y-114585439D01*
X156773016Y-114810000D01*
X156151711Y-114810000D01*
X156034280Y-114692569D01*
X155653874Y-114535000D01*
X155242126Y-114535000D01*
X154861720Y-114692569D01*
X154570569Y-114983720D01*
X154413000Y-115364126D01*
X154413000Y-115589230D01*
X154235000Y-115423945D01*
X154235000Y-115294126D01*
X154077431Y-114913720D01*
X153786280Y-114622569D01*
X153405874Y-114465000D01*
X152994126Y-114465000D01*
X152613720Y-114622569D01*
X152322569Y-114913720D01*
X152165000Y-115294126D01*
X152165000Y-115705874D01*
X152322569Y-116086280D01*
X152613720Y-116377431D01*
X152994126Y-116535000D01*
X153197710Y-116535000D01*
X154014157Y-117293130D01*
X154045471Y-117341247D01*
X154123917Y-117395050D01*
X154137707Y-117407855D01*
X154185551Y-117437322D01*
X154294808Y-117512257D01*
X154313711Y-117516256D01*
X154330162Y-117526388D01*
X154398862Y-117537427D01*
X154322569Y-117613720D01*
X154184779Y-117946374D01*
X154123627Y-117885222D01*
X153743221Y-117727653D01*
X153331473Y-117727653D01*
X152951067Y-117885222D01*
X152659916Y-118176373D01*
X152502347Y-118556779D01*
X152502347Y-118968527D01*
X152659916Y-119348933D01*
X152951067Y-119640084D01*
X153120000Y-119710058D01*
X153120001Y-122045200D01*
X151510000Y-120435199D01*
X151510000Y-116824848D01*
X151524888Y-116750000D01*
X151510000Y-116675152D01*
X151510000Y-116675148D01*
X151465904Y-116453463D01*
X151465904Y-116453462D01*
X151340329Y-116265527D01*
X151297929Y-116202071D01*
X151234473Y-116159671D01*
X145090331Y-110015530D01*
X145047929Y-109952071D01*
X144796537Y-109784096D01*
X144574852Y-109740000D01*
X144574847Y-109740000D01*
X144500000Y-109725112D01*
X144425153Y-109740000D01*
X135814803Y-109740000D01*
X134855043Y-108780242D01*
X134855346Y-108780116D01*
X135024496Y-108610966D01*
X135026843Y-108622765D01*
X135167191Y-108832809D01*
X135377235Y-108973157D01*
X135625000Y-109022440D01*
X137375000Y-109022440D01*
X137622765Y-108973157D01*
X137832809Y-108832809D01*
X137973157Y-108622765D01*
X137985231Y-108562060D01*
X142617545Y-108562060D01*
X142700884Y-108815953D01*
X143265306Y-109021590D01*
X143865458Y-108995579D01*
X144299116Y-108815953D01*
X144382455Y-108562060D01*
X143500000Y-107679605D01*
X142617545Y-108562060D01*
X137985231Y-108562060D01*
X138022440Y-108375000D01*
X138022440Y-107265306D01*
X141978410Y-107265306D01*
X142004421Y-107865458D01*
X142184047Y-108299116D01*
X142437940Y-108382455D01*
X143320395Y-107500000D01*
X142437940Y-106617545D01*
X142184047Y-106700884D01*
X141978410Y-107265306D01*
X138022440Y-107265306D01*
X138022440Y-106625000D01*
X137985232Y-106437940D01*
X142617545Y-106437940D01*
X143500000Y-107320395D01*
X144382455Y-106437940D01*
X144299116Y-106184047D01*
X143734694Y-105978410D01*
X143134542Y-106004421D01*
X142700884Y-106184047D01*
X142617545Y-106437940D01*
X137985232Y-106437940D01*
X137973157Y-106377235D01*
X137832809Y-106167191D01*
X137622765Y-106026843D01*
X137375000Y-105977560D01*
X135625000Y-105977560D01*
X135377235Y-106026843D01*
X135167191Y-106167191D01*
X135026843Y-106377235D01*
X135024496Y-106389034D01*
X134855346Y-106219884D01*
X134300358Y-105990000D01*
X133699642Y-105990000D01*
X133144654Y-106219884D01*
X132750000Y-106614538D01*
X132355346Y-106219884D01*
X131800358Y-105990000D01*
X131199642Y-105990000D01*
X130644654Y-106219884D01*
X130219884Y-106644654D01*
X130210879Y-106666394D01*
X130062060Y-106617545D01*
X129179605Y-107500000D01*
X130062060Y-108382455D01*
X130210879Y-108333606D01*
X130219884Y-108355346D01*
X130644654Y-108780116D01*
X130741588Y-108820268D01*
X130784097Y-109033973D01*
X130897347Y-109203463D01*
X130952072Y-109285365D01*
X131015528Y-109327765D01*
X132377772Y-110690010D01*
X121764812Y-110690010D01*
X120260000Y-109185199D01*
X120260000Y-108819610D01*
X120355346Y-108780116D01*
X120524496Y-108610966D01*
X120526843Y-108622765D01*
X120667191Y-108832809D01*
X120877235Y-108973157D01*
X121125000Y-109022440D01*
X122875000Y-109022440D01*
X123122765Y-108973157D01*
X123332809Y-108832809D01*
X123473157Y-108622765D01*
X123485231Y-108562060D01*
X128117545Y-108562060D01*
X128200884Y-108815953D01*
X128765306Y-109021590D01*
X129365458Y-108995579D01*
X129799116Y-108815953D01*
X129882455Y-108562060D01*
X129000000Y-107679605D01*
X128117545Y-108562060D01*
X123485231Y-108562060D01*
X123522440Y-108375000D01*
X123522440Y-107265306D01*
X127478410Y-107265306D01*
X127504421Y-107865458D01*
X127684047Y-108299116D01*
X127937940Y-108382455D01*
X128820395Y-107500000D01*
X127937940Y-106617545D01*
X127684047Y-106700884D01*
X127478410Y-107265306D01*
X123522440Y-107265306D01*
X123522440Y-106625000D01*
X123485232Y-106437940D01*
X128117545Y-106437940D01*
X129000000Y-107320395D01*
X129882455Y-106437940D01*
X129799116Y-106184047D01*
X129234694Y-105978410D01*
X128634542Y-106004421D01*
X128200884Y-106184047D01*
X128117545Y-106437940D01*
X123485232Y-106437940D01*
X123473157Y-106377235D01*
X123332809Y-106167191D01*
X123122765Y-106026843D01*
X122875000Y-105977560D01*
X121125000Y-105977560D01*
X120877235Y-106026843D01*
X120667191Y-106167191D01*
X120526843Y-106377235D01*
X120524496Y-106389034D01*
X120355346Y-106219884D01*
X119800358Y-105990000D01*
X119199642Y-105990000D01*
X118644654Y-106219884D01*
X118250000Y-106614538D01*
X117855346Y-106219884D01*
X117300358Y-105990000D01*
X116699642Y-105990000D01*
X116144654Y-106219884D01*
X115719884Y-106644654D01*
X115710879Y-106666394D01*
X115562060Y-106617545D01*
X114679605Y-107500000D01*
X115562060Y-108382455D01*
X115710879Y-108333606D01*
X115719884Y-108355346D01*
X116144654Y-108780116D01*
X116240000Y-108819610D01*
X116240000Y-110025153D01*
X116225112Y-110100000D01*
X116240000Y-110174847D01*
X116240000Y-110174851D01*
X116284096Y-110396536D01*
X116452071Y-110647929D01*
X116515530Y-110690331D01*
X118309670Y-112484472D01*
X118352071Y-112547929D01*
X118415527Y-112590329D01*
X118603462Y-112715904D01*
X118651605Y-112725480D01*
X118825148Y-112760000D01*
X118825152Y-112760000D01*
X118900000Y-112774888D01*
X118974848Y-112760000D01*
X143435199Y-112760000D01*
X148490001Y-117814803D01*
X148490000Y-121675153D01*
X148475112Y-121750000D01*
X148490000Y-121824847D01*
X148490000Y-121824851D01*
X148534096Y-122046536D01*
X148702071Y-122297929D01*
X148765530Y-122340331D01*
X150765181Y-124339982D01*
X145414784Y-124339982D01*
X143760000Y-122685199D01*
X143760000Y-121203711D01*
X143877431Y-121086280D01*
X144035000Y-120705874D01*
X144035000Y-120294126D01*
X143877431Y-119913720D01*
X143586280Y-119622569D01*
X143205874Y-119465000D01*
X142898672Y-119465000D01*
X142877431Y-119413720D01*
X142586280Y-119122569D01*
X142205874Y-118965000D01*
X141898672Y-118965000D01*
X141877431Y-118913720D01*
X141586280Y-118622569D01*
X141205874Y-118465000D01*
X140898672Y-118465000D01*
X140877431Y-118413720D01*
X140838711Y-118375000D01*
X140877431Y-118336280D01*
X141035000Y-117955874D01*
X141035000Y-117544126D01*
X140877431Y-117163720D01*
X140838711Y-117125000D01*
X141127431Y-116836280D01*
X141285000Y-116455874D01*
X141285000Y-116252225D01*
X141586280Y-116127431D01*
X141877431Y-115836280D01*
X142035000Y-115455874D01*
X142035000Y-115252225D01*
X142336280Y-115127431D01*
X142627431Y-114836280D01*
X142785000Y-114455874D01*
X142785000Y-114044126D01*
X142627431Y-113663720D01*
X142336280Y-113372569D01*
X141955874Y-113215000D01*
X141544126Y-113215000D01*
X141163720Y-113372569D01*
X141046289Y-113490000D01*
X140324846Y-113490000D01*
X140249999Y-113475112D01*
X140175152Y-113490000D01*
X140175148Y-113490000D01*
X139953463Y-113534096D01*
X139702071Y-113702071D01*
X139659671Y-113765527D01*
X137935199Y-115490000D01*
X124574846Y-115490000D01*
X124499999Y-115475112D01*
X124425152Y-115490000D01*
X124425148Y-115490000D01*
X124203463Y-115534096D01*
X123952071Y-115702071D01*
X123909671Y-115765527D01*
X123435199Y-116240000D01*
X121203711Y-116240000D01*
X121086280Y-116122569D01*
X120705874Y-115965000D01*
X120294126Y-115965000D01*
X119913720Y-116122569D01*
X119622569Y-116413720D01*
X119465000Y-116794126D01*
X119465000Y-117205874D01*
X119622569Y-117586280D01*
X119913720Y-117877431D01*
X120294126Y-118035000D01*
X120705874Y-118035000D01*
X121086280Y-117877431D01*
X121203711Y-117760000D01*
X122665198Y-117760000D01*
X121685199Y-118740000D01*
X121203711Y-118740000D01*
X121086280Y-118622569D01*
X120705874Y-118465000D01*
X120294126Y-118465000D01*
X119913720Y-118622569D01*
X119622569Y-118913720D01*
X119465000Y-119294126D01*
X119465000Y-119705874D01*
X119622569Y-120086280D01*
X119913720Y-120377431D01*
X120294126Y-120535000D01*
X120640199Y-120535000D01*
X120460199Y-120715000D01*
X120294126Y-120715000D01*
X119913720Y-120872569D01*
X119622569Y-121163720D01*
X119465000Y-121544126D01*
X119465000Y-121955874D01*
X119622569Y-122336280D01*
X119913720Y-122627431D01*
X120294126Y-122785000D01*
X120705874Y-122785000D01*
X121086280Y-122627431D01*
X121240000Y-122473711D01*
X121240001Y-122685197D01*
X120460198Y-123465000D01*
X120294126Y-123465000D01*
X119913720Y-123622569D01*
X119622569Y-123913720D01*
X119465000Y-124294126D01*
X119465000Y-124705874D01*
X119622569Y-125086280D01*
X119913720Y-125377431D01*
X120294126Y-125535000D01*
X120705874Y-125535000D01*
X121086280Y-125377431D01*
X121377431Y-125086280D01*
X121535000Y-124705874D01*
X121535000Y-124539802D01*
X122484476Y-123590327D01*
X122547929Y-123547929D01*
X122590327Y-123484476D01*
X122590329Y-123484474D01*
X122715903Y-123296538D01*
X122715904Y-123296537D01*
X122760000Y-123074852D01*
X122760000Y-123074848D01*
X122774888Y-123000001D01*
X122760000Y-122925154D01*
X122760000Y-121564801D01*
X125814803Y-118510000D01*
X139082689Y-118510000D01*
X138965000Y-118794126D01*
X138965000Y-119205874D01*
X139122569Y-119586280D01*
X139240000Y-119703711D01*
X139240001Y-122925148D01*
X139225112Y-123000000D01*
X139284097Y-123296537D01*
X139407158Y-123480710D01*
X139452072Y-123547929D01*
X139515528Y-123590329D01*
X142909673Y-126984476D01*
X142952071Y-127047929D01*
X143015524Y-127090327D01*
X143015526Y-127090329D01*
X143140902Y-127174102D01*
X143203463Y-127215904D01*
X143425148Y-127260000D01*
X143425152Y-127260000D01*
X143499999Y-127274888D01*
X143574846Y-127260000D01*
X150485199Y-127260000D01*
X151789990Y-128564792D01*
X151789991Y-137975138D01*
X151775102Y-138049990D01*
X151789991Y-138124842D01*
X151834087Y-138346527D01*
X152002062Y-138597919D01*
X152065518Y-138640319D01*
X160015527Y-146590329D01*
X160015530Y-146590331D01*
X161909671Y-148484473D01*
X161952071Y-148547929D01*
X162203463Y-148715904D01*
X162425148Y-148760000D01*
X162425152Y-148760000D01*
X162499999Y-148774888D01*
X162574846Y-148760000D01*
X176796289Y-148760000D01*
X176913720Y-148877431D01*
X177294126Y-149035000D01*
X177705874Y-149035000D01*
X178086280Y-148877431D01*
X178377431Y-148586280D01*
X178535000Y-148205874D01*
X178535000Y-147794126D01*
X178377431Y-147413720D01*
X178213711Y-147250000D01*
X178377431Y-147086280D01*
X178535000Y-146705874D01*
X178535000Y-146294126D01*
X178377431Y-145913720D01*
X178213711Y-145750000D01*
X178377431Y-145586280D01*
X178428042Y-145464093D01*
X186700001Y-145464093D01*
X186700001Y-146054652D01*
X186796674Y-146288041D01*
X186975302Y-146466670D01*
X187208691Y-146563343D01*
X187799251Y-146563343D01*
X187958001Y-146404593D01*
X187958001Y-145305343D01*
X188212001Y-145305343D01*
X188212001Y-146404593D01*
X188370751Y-146563343D01*
X188961311Y-146563343D01*
X189194700Y-146466670D01*
X189373328Y-146288041D01*
X189418486Y-146179019D01*
X191975001Y-146179019D01*
X191975001Y-147157667D01*
X192349514Y-148061821D01*
X193041523Y-148753830D01*
X193945677Y-149128343D01*
X194924325Y-149128343D01*
X195828479Y-148753830D01*
X196520488Y-148061821D01*
X196895001Y-147157667D01*
X196895001Y-146179019D01*
X196520488Y-145274865D01*
X195828479Y-144582856D01*
X194924325Y-144208343D01*
X193945677Y-144208343D01*
X193041523Y-144582856D01*
X192349514Y-145274865D01*
X191975001Y-146179019D01*
X189418486Y-146179019D01*
X189470001Y-146054652D01*
X189470001Y-145464093D01*
X189311251Y-145305343D01*
X188212001Y-145305343D01*
X187958001Y-145305343D01*
X186858751Y-145305343D01*
X186700001Y-145464093D01*
X178428042Y-145464093D01*
X178535000Y-145205874D01*
X178535000Y-144794126D01*
X178377431Y-144413720D01*
X178213711Y-144250000D01*
X178377431Y-144086280D01*
X178535000Y-143705874D01*
X178535000Y-143294126D01*
X178377431Y-142913720D01*
X178086280Y-142622569D01*
X177705874Y-142465000D01*
X177294126Y-142465000D01*
X176913720Y-142622569D01*
X176622569Y-142913720D01*
X176465000Y-143294126D01*
X176465000Y-143460198D01*
X174185199Y-145740000D01*
X164314802Y-145740000D01*
X163136862Y-144562060D01*
X164117545Y-144562060D01*
X164200884Y-144815953D01*
X164765306Y-145021590D01*
X165365458Y-144995579D01*
X165799116Y-144815953D01*
X165882455Y-144562060D01*
X165000000Y-143679605D01*
X164117545Y-144562060D01*
X163136862Y-144562060D01*
X161840108Y-143265306D01*
X163478410Y-143265306D01*
X163504421Y-143865458D01*
X163684047Y-144299116D01*
X163937940Y-144382455D01*
X164820395Y-143500000D01*
X163937940Y-142617545D01*
X163684047Y-142700884D01*
X163478410Y-143265306D01*
X161840108Y-143265306D01*
X161012742Y-142437940D01*
X164117545Y-142437940D01*
X165000000Y-143320395D01*
X165882455Y-142437940D01*
X165799116Y-142184047D01*
X165234694Y-141978410D01*
X164634542Y-142004421D01*
X164200884Y-142184047D01*
X164117545Y-142437940D01*
X161012742Y-142437940D01*
X158090333Y-139515532D01*
X158090329Y-139515526D01*
X154760000Y-136185199D01*
X154760000Y-132534821D01*
X155449420Y-133224243D01*
X155532051Y-133347909D01*
X155595510Y-133390311D01*
X156680000Y-134474802D01*
X156680000Y-134905439D01*
X156898466Y-135432862D01*
X157302138Y-135836534D01*
X157829561Y-136055000D01*
X158400439Y-136055000D01*
X158927862Y-135836534D01*
X159331534Y-135432862D01*
X159550000Y-134905439D01*
X159550000Y-134334561D01*
X159331534Y-133807138D01*
X158927862Y-133403466D01*
X158798784Y-133350000D01*
X158927862Y-133296534D01*
X159331534Y-132892862D01*
X159550000Y-132365439D01*
X159550000Y-131794561D01*
X159331534Y-131267138D01*
X158927862Y-130863466D01*
X158798784Y-130810000D01*
X158927862Y-130756534D01*
X159331534Y-130352862D01*
X159550000Y-129825439D01*
X159550000Y-129254561D01*
X159331534Y-128727138D01*
X158927862Y-128323466D01*
X158798784Y-128270000D01*
X158927862Y-128216534D01*
X159331534Y-127812862D01*
X159550000Y-127285439D01*
X159550000Y-126714561D01*
X159331534Y-126187138D01*
X158927862Y-125783466D01*
X158798784Y-125730000D01*
X158927862Y-125676534D01*
X159331534Y-125272862D01*
X159550000Y-124745439D01*
X159550000Y-124174561D01*
X159456984Y-123950000D01*
X162075199Y-123950000D01*
X170689671Y-132564473D01*
X170732071Y-132627929D01*
X170983463Y-132795904D01*
X171205148Y-132840000D01*
X171205152Y-132840000D01*
X171280000Y-132854888D01*
X171354848Y-132840000D01*
X172116570Y-132840000D01*
X172138466Y-132892862D01*
X172542138Y-133296534D01*
X172671216Y-133350000D01*
X172542138Y-133403466D01*
X172138466Y-133807138D01*
X172085000Y-133936216D01*
X172031534Y-133807138D01*
X171627862Y-133403466D01*
X171100439Y-133185000D01*
X170529561Y-133185000D01*
X170002138Y-133403466D01*
X169598466Y-133807138D01*
X169545000Y-133936216D01*
X169491534Y-133807138D01*
X169087862Y-133403466D01*
X168560439Y-133185000D01*
X167989561Y-133185000D01*
X167462138Y-133403466D01*
X167058466Y-133807138D01*
X167011475Y-133920583D01*
X166988864Y-133865995D01*
X166742745Y-133791861D01*
X165914605Y-134620000D01*
X166742745Y-135448139D01*
X166988864Y-135374005D01*
X167009874Y-135315552D01*
X167058466Y-135432862D01*
X167462138Y-135836534D01*
X167989561Y-136055000D01*
X168560439Y-136055000D01*
X169087862Y-135836534D01*
X169491534Y-135432862D01*
X169545000Y-135303784D01*
X169598466Y-135432862D01*
X170002138Y-135836534D01*
X170529561Y-136055000D01*
X171100439Y-136055000D01*
X171627862Y-135836534D01*
X172031534Y-135432862D01*
X172085000Y-135303784D01*
X172138466Y-135432862D01*
X172542138Y-135836534D01*
X173069561Y-136055000D01*
X173640439Y-136055000D01*
X174167862Y-135836534D01*
X174571534Y-135432862D01*
X174790000Y-134905439D01*
X174790000Y-134334561D01*
X174571534Y-133807138D01*
X174167862Y-133403466D01*
X174038784Y-133350000D01*
X174167862Y-133296534D01*
X174571534Y-132892862D01*
X174790000Y-132365439D01*
X174790000Y-131794561D01*
X174571534Y-131267138D01*
X174167862Y-130863466D01*
X174038784Y-130810000D01*
X174167862Y-130756534D01*
X174571534Y-130352862D01*
X174593430Y-130300000D01*
X184185153Y-130300000D01*
X184260000Y-130314888D01*
X184334847Y-130300000D01*
X184334852Y-130300000D01*
X184556537Y-130255904D01*
X184807929Y-130087929D01*
X184850331Y-130024470D01*
X189614803Y-125260000D01*
X191680390Y-125260000D01*
X191719884Y-125355346D01*
X191889034Y-125524496D01*
X191877235Y-125526843D01*
X191667191Y-125667191D01*
X191526843Y-125877235D01*
X191477560Y-126125000D01*
X191477560Y-126197861D01*
X191399199Y-126213448D01*
X191122999Y-126397999D01*
X191076415Y-126467718D01*
X189867720Y-127676413D01*
X189797999Y-127722999D01*
X189613448Y-127999200D01*
X189611838Y-128007294D01*
X183256322Y-134362811D01*
X183053999Y-134497999D01*
X183007415Y-134567717D01*
X181010133Y-136565000D01*
X178457232Y-136565000D01*
X178374999Y-136548643D01*
X178292766Y-136565000D01*
X178292763Y-136565000D01*
X178067056Y-136609896D01*
X178049199Y-136613448D01*
X177867248Y-136735024D01*
X177772999Y-136797999D01*
X177726417Y-136867714D01*
X173242720Y-141351413D01*
X173172999Y-141397999D01*
X173076074Y-141543057D01*
X172641572Y-141977560D01*
X171625000Y-141977560D01*
X171377235Y-142026843D01*
X171167191Y-142167191D01*
X171026843Y-142377235D01*
X171024496Y-142389034D01*
X170855346Y-142219884D01*
X170760000Y-142180390D01*
X170760000Y-142074848D01*
X170774888Y-142000000D01*
X170760000Y-141925152D01*
X170760000Y-141925148D01*
X170715904Y-141703463D01*
X170715904Y-141703462D01*
X170590329Y-141515527D01*
X170547929Y-141452071D01*
X170484473Y-141409671D01*
X164804705Y-135729903D01*
X164906861Y-135627747D01*
X164980995Y-135873864D01*
X165518223Y-136066965D01*
X166088454Y-136039778D01*
X166489005Y-135873864D01*
X166563139Y-135627745D01*
X165735000Y-134799605D01*
X165720858Y-134813748D01*
X165541252Y-134634142D01*
X165555395Y-134620000D01*
X164727255Y-133791861D01*
X164660000Y-133812119D01*
X164660000Y-133612255D01*
X164906861Y-133612255D01*
X165735000Y-134440395D01*
X166563139Y-133612255D01*
X166489005Y-133366136D01*
X165951777Y-133173035D01*
X165381546Y-133200222D01*
X164980995Y-133366136D01*
X164906861Y-133612255D01*
X164660000Y-133612255D01*
X164660000Y-130614801D01*
X164739801Y-130535000D01*
X164905874Y-130535000D01*
X165286280Y-130377431D01*
X165577431Y-130086280D01*
X165735000Y-129705874D01*
X165735000Y-129294126D01*
X165577431Y-128913720D01*
X165313711Y-128650000D01*
X165377431Y-128586280D01*
X165535000Y-128205874D01*
X165535000Y-127794126D01*
X165377431Y-127413720D01*
X165086280Y-127122569D01*
X164705874Y-126965000D01*
X164294126Y-126965000D01*
X163913720Y-127122569D01*
X163622569Y-127413720D01*
X163465000Y-127794126D01*
X163465000Y-127960198D01*
X162615528Y-128809671D01*
X162552072Y-128852071D01*
X162509672Y-128915527D01*
X162509671Y-128915528D01*
X162384097Y-129103463D01*
X162325112Y-129400000D01*
X162340001Y-129474852D01*
X162340000Y-136287717D01*
X162325112Y-136362564D01*
X162340000Y-136437411D01*
X162340000Y-136437415D01*
X162384096Y-136659100D01*
X162552071Y-136910493D01*
X162615530Y-136952895D01*
X166740000Y-141077366D01*
X166740001Y-142180390D01*
X166644654Y-142219884D01*
X166219884Y-142644654D01*
X166210879Y-142666394D01*
X166062060Y-142617545D01*
X165179605Y-143500000D01*
X166062060Y-144382455D01*
X166210879Y-144333606D01*
X166219884Y-144355346D01*
X166644654Y-144780116D01*
X167199642Y-145010000D01*
X167800358Y-145010000D01*
X168355346Y-144780116D01*
X168750000Y-144385462D01*
X169144654Y-144780116D01*
X169699642Y-145010000D01*
X170300358Y-145010000D01*
X170855346Y-144780116D01*
X171024496Y-144610966D01*
X171026843Y-144622765D01*
X171167191Y-144832809D01*
X171377235Y-144973157D01*
X171625000Y-145022440D01*
X173375000Y-145022440D01*
X173622765Y-144973157D01*
X173832809Y-144832809D01*
X173973157Y-144622765D01*
X174022440Y-144375000D01*
X174022440Y-142958428D01*
X174307286Y-142673583D01*
X174377001Y-142627001D01*
X174433470Y-142542490D01*
X174473929Y-142481938D01*
X178720869Y-138235000D01*
X181273767Y-138235000D01*
X181356000Y-138251357D01*
X181438233Y-138235000D01*
X181438237Y-138235000D01*
X181681801Y-138186552D01*
X181958001Y-138002001D01*
X182004587Y-137932280D01*
X184099681Y-135837187D01*
X184283690Y-135714236D01*
X184160001Y-136012849D01*
X184160001Y-136563837D01*
X184370854Y-137072883D01*
X184760461Y-137462490D01*
X184991871Y-137558343D01*
X184760461Y-137654196D01*
X184370854Y-138043803D01*
X184160001Y-138552849D01*
X184160001Y-139103837D01*
X184370854Y-139612883D01*
X184760461Y-140002490D01*
X184991871Y-140098343D01*
X184760461Y-140194196D01*
X184370854Y-140583803D01*
X184160001Y-141092849D01*
X184160001Y-141643837D01*
X184370854Y-142152883D01*
X184760461Y-142542490D01*
X184991871Y-142638343D01*
X184760461Y-142734196D01*
X184370854Y-143123803D01*
X184160001Y-143632849D01*
X184160001Y-144183837D01*
X184370854Y-144692883D01*
X184760461Y-145082490D01*
X185269507Y-145293343D01*
X185820495Y-145293343D01*
X186329541Y-145082490D01*
X186700001Y-144712030D01*
X186700001Y-144892593D01*
X186858751Y-145051343D01*
X187958001Y-145051343D01*
X187958001Y-145031343D01*
X188212001Y-145031343D01*
X188212001Y-145051343D01*
X189311251Y-145051343D01*
X189470001Y-144892593D01*
X189470001Y-144302034D01*
X189373328Y-144068645D01*
X189194700Y-143890016D01*
X188961311Y-143793343D01*
X188825138Y-143793343D01*
X188876913Y-143609860D01*
X188085001Y-142817948D01*
X187293089Y-143609860D01*
X187344864Y-143793343D01*
X187208691Y-143793343D01*
X186975302Y-143890016D01*
X186930001Y-143935317D01*
X186930001Y-143632849D01*
X186719148Y-143123803D01*
X186329541Y-142734196D01*
X186098131Y-142638343D01*
X186329541Y-142542490D01*
X186438517Y-142433514D01*
X186687800Y-142433514D01*
X186715771Y-142983791D01*
X186872541Y-143362266D01*
X187113484Y-143430255D01*
X187905396Y-142638343D01*
X188264606Y-142638343D01*
X189056518Y-143430255D01*
X189297461Y-143362266D01*
X189482202Y-142843172D01*
X189454231Y-142292895D01*
X189297461Y-141914420D01*
X189056518Y-141846431D01*
X188264606Y-142638343D01*
X187905396Y-142638343D01*
X187113484Y-141846431D01*
X186872541Y-141914420D01*
X186687800Y-142433514D01*
X186438517Y-142433514D01*
X186719148Y-142152883D01*
X186930001Y-141643837D01*
X186930001Y-141092849D01*
X186920479Y-141069860D01*
X187293089Y-141069860D01*
X187361078Y-141310803D01*
X187510512Y-141363985D01*
X187361078Y-141425883D01*
X187293089Y-141666826D01*
X188085001Y-142458738D01*
X188876913Y-141666826D01*
X188808924Y-141425883D01*
X188659490Y-141372701D01*
X188808924Y-141310803D01*
X188876913Y-141069860D01*
X188085001Y-140277948D01*
X187293089Y-141069860D01*
X186920479Y-141069860D01*
X186719148Y-140583803D01*
X186329541Y-140194196D01*
X186098131Y-140098343D01*
X186329541Y-140002490D01*
X186438517Y-139893514D01*
X186687800Y-139893514D01*
X186715771Y-140443791D01*
X186872541Y-140822266D01*
X187113484Y-140890255D01*
X187905396Y-140098343D01*
X188264606Y-140098343D01*
X189056518Y-140890255D01*
X189297461Y-140822266D01*
X189482202Y-140303172D01*
X189454231Y-139752895D01*
X189297461Y-139374420D01*
X189056518Y-139306431D01*
X188264606Y-140098343D01*
X187905396Y-140098343D01*
X187113484Y-139306431D01*
X186872541Y-139374420D01*
X186687800Y-139893514D01*
X186438517Y-139893514D01*
X186719148Y-139612883D01*
X186930001Y-139103837D01*
X186930001Y-138552849D01*
X186920479Y-138529860D01*
X187293089Y-138529860D01*
X187361078Y-138770803D01*
X187510512Y-138823985D01*
X187361078Y-138885883D01*
X187293089Y-139126826D01*
X188085001Y-139918738D01*
X188876913Y-139126826D01*
X188808924Y-138885883D01*
X188659490Y-138832701D01*
X188808924Y-138770803D01*
X188876913Y-138529860D01*
X188085001Y-137737948D01*
X187293089Y-138529860D01*
X186920479Y-138529860D01*
X186719148Y-138043803D01*
X186329541Y-137654196D01*
X186098131Y-137558343D01*
X186329541Y-137462490D01*
X186438517Y-137353514D01*
X186687800Y-137353514D01*
X186715771Y-137903791D01*
X186872541Y-138282266D01*
X187113484Y-138350255D01*
X187905396Y-137558343D01*
X188264606Y-137558343D01*
X189056518Y-138350255D01*
X189297461Y-138282266D01*
X189482202Y-137763172D01*
X189454231Y-137212895D01*
X189297461Y-136834420D01*
X189056518Y-136766431D01*
X188264606Y-137558343D01*
X187905396Y-137558343D01*
X187113484Y-136766431D01*
X186872541Y-136834420D01*
X186687800Y-137353514D01*
X186438517Y-137353514D01*
X186719148Y-137072883D01*
X186920478Y-136586826D01*
X187293089Y-136586826D01*
X188085001Y-137378738D01*
X188876913Y-136586826D01*
X188808924Y-136345883D01*
X188289830Y-136161142D01*
X187739553Y-136189113D01*
X187361078Y-136345883D01*
X187293089Y-136586826D01*
X186920478Y-136586826D01*
X186930001Y-136563837D01*
X186930001Y-136012849D01*
X186719148Y-135503803D01*
X186329541Y-135114196D01*
X185820495Y-134903343D01*
X185269507Y-134903343D01*
X184941773Y-135039095D01*
X185671849Y-134309019D01*
X191975001Y-134309019D01*
X191975001Y-135287667D01*
X192349514Y-136191821D01*
X193041523Y-136883830D01*
X193945677Y-137258343D01*
X194924325Y-137258343D01*
X195828479Y-136883830D01*
X196520488Y-136191821D01*
X196895001Y-135287667D01*
X196895001Y-134309019D01*
X196520488Y-133404865D01*
X195828479Y-132712856D01*
X194924325Y-132338343D01*
X193945677Y-132338343D01*
X193041523Y-132712856D01*
X192349514Y-133404865D01*
X191975001Y-134309019D01*
X185671849Y-134309019D01*
X190932283Y-129048585D01*
X191002001Y-129002001D01*
X191153753Y-128774888D01*
X191186552Y-128725801D01*
X191188162Y-128717705D01*
X191629487Y-128276381D01*
X191667191Y-128332809D01*
X191877235Y-128473157D01*
X192125000Y-128522440D01*
X193875000Y-128522440D01*
X194122765Y-128473157D01*
X194332809Y-128332809D01*
X194473157Y-128122765D01*
X194522440Y-127875000D01*
X194522440Y-126125000D01*
X194473157Y-125877235D01*
X194332809Y-125667191D01*
X194122765Y-125526843D01*
X194110966Y-125524496D01*
X194280116Y-125355346D01*
X194510000Y-124800358D01*
X194510000Y-124199642D01*
X194280116Y-123644654D01*
X193885462Y-123250000D01*
X194280116Y-122855346D01*
X194510000Y-122300358D01*
X194510000Y-121699642D01*
X194280116Y-121144654D01*
X193855346Y-120719884D01*
X193833606Y-120710879D01*
X193882455Y-120562060D01*
X193000000Y-119679605D01*
X192117545Y-120562060D01*
X192166394Y-120710879D01*
X192144654Y-120719884D01*
X191719884Y-121144654D01*
X191680390Y-121240000D01*
X189074848Y-121240000D01*
X189000000Y-121225112D01*
X188925152Y-121240000D01*
X188925148Y-121240000D01*
X188751605Y-121274520D01*
X188703462Y-121284096D01*
X188597180Y-121355112D01*
X188452071Y-121452071D01*
X188409671Y-121515527D01*
X183685199Y-126240000D01*
X174593430Y-126240000D01*
X174571534Y-126187138D01*
X174167862Y-125783466D01*
X174038784Y-125730000D01*
X174167862Y-125676534D01*
X174571534Y-125272862D01*
X174790000Y-124745439D01*
X174790000Y-124174561D01*
X174571534Y-123647138D01*
X174167862Y-123243466D01*
X174038784Y-123190000D01*
X174167862Y-123136534D01*
X174571534Y-122732862D01*
X174790000Y-122205439D01*
X174790000Y-121634561D01*
X174571534Y-121107138D01*
X174167862Y-120703466D01*
X174038784Y-120650000D01*
X174167862Y-120596534D01*
X174571534Y-120192862D01*
X174790000Y-119665439D01*
X174790000Y-119265306D01*
X191478410Y-119265306D01*
X191504421Y-119865458D01*
X191684047Y-120299116D01*
X191937940Y-120382455D01*
X192820395Y-119500000D01*
X193179605Y-119500000D01*
X194062060Y-120382455D01*
X194315953Y-120299116D01*
X194521590Y-119734694D01*
X194495579Y-119134542D01*
X194315953Y-118700884D01*
X194062060Y-118617545D01*
X193179605Y-119500000D01*
X192820395Y-119500000D01*
X191937940Y-118617545D01*
X191684047Y-118700884D01*
X191478410Y-119265306D01*
X174790000Y-119265306D01*
X174790000Y-119094561D01*
X174571534Y-118567138D01*
X174442336Y-118437940D01*
X192117545Y-118437940D01*
X193000000Y-119320395D01*
X193882455Y-118437940D01*
X193799116Y-118184047D01*
X193234694Y-117978410D01*
X192634542Y-118004421D01*
X192200884Y-118184047D01*
X192117545Y-118437940D01*
X174442336Y-118437940D01*
X174167862Y-118163466D01*
X174038784Y-118110000D01*
X174167862Y-118056534D01*
X174571534Y-117652862D01*
X174790000Y-117125439D01*
X174790000Y-116554561D01*
X174571534Y-116027138D01*
X174167862Y-115623466D01*
X174038784Y-115570000D01*
X174167862Y-115516534D01*
X174571534Y-115112862D01*
X174760292Y-114657161D01*
X175697416Y-115594285D01*
X175743998Y-115664001D01*
X175813713Y-115710583D01*
X175813714Y-115710584D01*
X175849468Y-115734474D01*
X176020198Y-115848552D01*
X176263762Y-115897000D01*
X176263765Y-115897000D01*
X176345998Y-115913357D01*
X176428231Y-115897000D01*
X186353767Y-115897000D01*
X186436000Y-115913357D01*
X186518233Y-115897000D01*
X186518237Y-115897000D01*
X186761801Y-115848552D01*
X187038001Y-115664001D01*
X187084587Y-115594280D01*
X188883868Y-113795001D01*
X191641928Y-113795001D01*
X191667191Y-113832809D01*
X191877235Y-113973157D01*
X192125000Y-114022440D01*
X193875000Y-114022440D01*
X194122765Y-113973157D01*
X194332809Y-113832809D01*
X194473157Y-113622765D01*
X194522440Y-113375000D01*
X194522440Y-111625000D01*
X194473157Y-111377235D01*
X194332809Y-111167191D01*
X194122765Y-111026843D01*
X194110966Y-111024496D01*
X194280116Y-110855346D01*
X194510000Y-110300358D01*
X194510000Y-109699642D01*
X194280116Y-109144654D01*
X193885462Y-108750000D01*
X194280116Y-108355346D01*
X194510000Y-107800358D01*
X194510000Y-107199642D01*
X194280116Y-106644654D01*
X193855346Y-106219884D01*
X193833606Y-106210879D01*
X193882455Y-106062060D01*
X193000000Y-105179605D01*
X192117545Y-106062060D01*
X192166394Y-106210879D01*
X192144654Y-106219884D01*
X191719884Y-106644654D01*
X191680390Y-106740000D01*
X191324847Y-106740000D01*
X191250000Y-106725112D01*
X191175153Y-106740000D01*
X191175148Y-106740000D01*
X190953463Y-106784096D01*
X190702071Y-106952071D01*
X190659671Y-107015527D01*
X185185199Y-112490000D01*
X177064802Y-112490000D01*
X175395000Y-110820199D01*
X175395000Y-110574847D01*
X175409888Y-110500000D01*
X175395000Y-110425153D01*
X175395000Y-110425148D01*
X175350904Y-110203463D01*
X175182929Y-109952071D01*
X175119470Y-109909669D01*
X174768103Y-109558302D01*
X174790000Y-109505439D01*
X174790000Y-108934561D01*
X174571534Y-108407138D01*
X174167862Y-108003466D01*
X174038784Y-107950000D01*
X174167862Y-107896534D01*
X174571534Y-107492862D01*
X174790000Y-106965439D01*
X174790000Y-106394561D01*
X174571534Y-105867138D01*
X174167862Y-105463466D01*
X174038784Y-105410000D01*
X174167862Y-105356534D01*
X174287225Y-105237171D01*
X177165000Y-105237171D01*
X177165000Y-106762829D01*
X177748844Y-108172353D01*
X178827647Y-109251156D01*
X180237171Y-109835000D01*
X181762829Y-109835000D01*
X183172353Y-109251156D01*
X184251156Y-108172353D01*
X184835000Y-106762829D01*
X184835000Y-105237171D01*
X184639548Y-104765306D01*
X191478410Y-104765306D01*
X191504421Y-105365458D01*
X191684047Y-105799116D01*
X191937940Y-105882455D01*
X192820395Y-105000000D01*
X193179605Y-105000000D01*
X194062060Y-105882455D01*
X194315953Y-105799116D01*
X194521590Y-105234694D01*
X194495579Y-104634542D01*
X194315953Y-104200884D01*
X194062060Y-104117545D01*
X193179605Y-105000000D01*
X192820395Y-105000000D01*
X191937940Y-104117545D01*
X191684047Y-104200884D01*
X191478410Y-104765306D01*
X184639548Y-104765306D01*
X184296841Y-103937940D01*
X192117545Y-103937940D01*
X193000000Y-104820395D01*
X193882455Y-103937940D01*
X193799116Y-103684047D01*
X193234694Y-103478410D01*
X192634542Y-103504421D01*
X192200884Y-103684047D01*
X192117545Y-103937940D01*
X184296841Y-103937940D01*
X184251156Y-103827647D01*
X183172353Y-102748844D01*
X181762829Y-102165000D01*
X180237171Y-102165000D01*
X178827647Y-102748844D01*
X177748844Y-103827647D01*
X177165000Y-105237171D01*
X174287225Y-105237171D01*
X174571534Y-104952862D01*
X174790000Y-104425439D01*
X174790000Y-103854561D01*
X174571534Y-103327138D01*
X174167862Y-102923466D01*
X174038784Y-102870000D01*
X174167862Y-102816534D01*
X174571534Y-102412862D01*
X174790000Y-101885439D01*
X174790000Y-101314561D01*
X174571534Y-100787138D01*
X174494396Y-100710000D01*
X196814715Y-100710000D01*
X196825301Y-100713937D01*
X196914884Y-100730055D01*
X197519918Y-100800594D01*
X198011944Y-100979191D01*
X198449692Y-101266192D01*
X198809668Y-101646190D01*
X199072576Y-102098821D01*
X199227220Y-102609416D01*
X199267910Y-103065338D01*
X199290000Y-103171538D01*
X199290000Y-149873000D01*
X154542333Y-149873000D01*
X152627000Y-148436500D01*
X152627000Y-142000000D01*
X152617333Y-141951399D01*
X152589803Y-141910197D01*
X149589803Y-138910197D01*
X149548601Y-138882667D01*
X149500000Y-138873000D01*
X143552403Y-138873000D01*
X133439558Y-128814954D01*
X133398282Y-128787536D01*
X133350000Y-128778000D01*
X100710000Y-128778000D01*
X100710000Y-125027463D01*
X103041222Y-125027463D01*
X103041222Y-126006111D01*
X103415735Y-126910265D01*
X104107744Y-127602274D01*
X105011898Y-127976787D01*
X105990546Y-127976787D01*
X106894700Y-127602274D01*
X107586709Y-126910265D01*
X107961222Y-126006111D01*
X107961222Y-125027463D01*
X107586709Y-124123309D01*
X107191704Y-123728304D01*
X111059310Y-123728304D01*
X111127299Y-123969247D01*
X111646393Y-124153988D01*
X112196670Y-124126017D01*
X112575145Y-123969247D01*
X112643134Y-123728304D01*
X111851222Y-122936392D01*
X111059310Y-123728304D01*
X107191704Y-123728304D01*
X106894700Y-123431300D01*
X105990546Y-123056787D01*
X105011898Y-123056787D01*
X104107744Y-123431300D01*
X103415735Y-124123309D01*
X103041222Y-125027463D01*
X100710000Y-125027463D01*
X100710000Y-122551958D01*
X110454021Y-122551958D01*
X110481992Y-123102235D01*
X110638762Y-123480710D01*
X110879705Y-123548699D01*
X111671617Y-122756787D01*
X112030827Y-122756787D01*
X112822739Y-123548699D01*
X113063682Y-123480710D01*
X113248423Y-122961616D01*
X113220452Y-122411339D01*
X113063682Y-122032864D01*
X112822739Y-121964875D01*
X112030827Y-122756787D01*
X111671617Y-122756787D01*
X110879705Y-121964875D01*
X110638762Y-122032864D01*
X110454021Y-122551958D01*
X100710000Y-122551958D01*
X100710000Y-121188304D01*
X111059310Y-121188304D01*
X111127299Y-121429247D01*
X111276733Y-121482429D01*
X111127299Y-121544327D01*
X111059310Y-121785270D01*
X111851222Y-122577182D01*
X112643134Y-121785270D01*
X112575145Y-121544327D01*
X112425711Y-121491145D01*
X112575145Y-121429247D01*
X112643134Y-121188304D01*
X111851222Y-120396392D01*
X111059310Y-121188304D01*
X100710000Y-121188304D01*
X100710000Y-120011958D01*
X110454021Y-120011958D01*
X110481992Y-120562235D01*
X110638762Y-120940710D01*
X110879705Y-121008699D01*
X111671617Y-120216787D01*
X112030827Y-120216787D01*
X112822739Y-121008699D01*
X113063682Y-120940710D01*
X113248423Y-120421616D01*
X113220452Y-119871339D01*
X113063682Y-119492864D01*
X112822739Y-119424875D01*
X112030827Y-120216787D01*
X111671617Y-120216787D01*
X110879705Y-119424875D01*
X110638762Y-119492864D01*
X110454021Y-120011958D01*
X100710000Y-120011958D01*
X100710000Y-118648304D01*
X111059310Y-118648304D01*
X111127299Y-118889247D01*
X111276733Y-118942429D01*
X111127299Y-119004327D01*
X111059310Y-119245270D01*
X111851222Y-120037182D01*
X112643134Y-119245270D01*
X112575145Y-119004327D01*
X112425711Y-118951145D01*
X112575145Y-118889247D01*
X112643134Y-118648304D01*
X111851222Y-117856392D01*
X111059310Y-118648304D01*
X100710000Y-118648304D01*
X100710000Y-117471958D01*
X110454021Y-117471958D01*
X110481992Y-118022235D01*
X110638762Y-118400710D01*
X110879705Y-118468699D01*
X111671617Y-117676787D01*
X112030827Y-117676787D01*
X112822739Y-118468699D01*
X113063682Y-118400710D01*
X113248423Y-117881616D01*
X113220452Y-117331339D01*
X113063682Y-116952864D01*
X112822739Y-116884875D01*
X112030827Y-117676787D01*
X111671617Y-117676787D01*
X110879705Y-116884875D01*
X110638762Y-116952864D01*
X110454021Y-117471958D01*
X100710000Y-117471958D01*
X100710000Y-113157463D01*
X103041222Y-113157463D01*
X103041222Y-114136111D01*
X103415735Y-115040265D01*
X104107744Y-115732274D01*
X105011898Y-116106787D01*
X105990546Y-116106787D01*
X106894700Y-115732274D01*
X107204437Y-115422537D01*
X110466222Y-115422537D01*
X110466222Y-116013096D01*
X110562895Y-116246485D01*
X110741523Y-116425114D01*
X110974912Y-116521787D01*
X111111085Y-116521787D01*
X111059310Y-116705270D01*
X111851222Y-117497182D01*
X112643134Y-116705270D01*
X112591359Y-116521787D01*
X112727532Y-116521787D01*
X112960921Y-116425114D01*
X113006222Y-116379813D01*
X113006222Y-116682281D01*
X113217075Y-117191327D01*
X113606682Y-117580934D01*
X113838092Y-117676787D01*
X113606682Y-117772640D01*
X113217075Y-118162247D01*
X113006222Y-118671293D01*
X113006222Y-119222281D01*
X113217075Y-119731327D01*
X113606682Y-120120934D01*
X113838092Y-120216787D01*
X113606682Y-120312640D01*
X113217075Y-120702247D01*
X113006222Y-121211293D01*
X113006222Y-121762281D01*
X113217075Y-122271327D01*
X113606682Y-122660934D01*
X113838092Y-122756787D01*
X113606682Y-122852640D01*
X113217075Y-123242247D01*
X113006222Y-123751293D01*
X113006222Y-124302281D01*
X113217075Y-124811327D01*
X113606682Y-125200934D01*
X114115728Y-125411787D01*
X114666716Y-125411787D01*
X115175762Y-125200934D01*
X115565369Y-124811327D01*
X115776222Y-124302281D01*
X115776222Y-123751293D01*
X115565369Y-123242247D01*
X115175762Y-122852640D01*
X114944352Y-122756787D01*
X115175762Y-122660934D01*
X115565369Y-122271327D01*
X115776222Y-121762281D01*
X115776222Y-121211293D01*
X115565369Y-120702247D01*
X115175762Y-120312640D01*
X114944352Y-120216787D01*
X115175762Y-120120934D01*
X115565369Y-119731327D01*
X115776222Y-119222281D01*
X115776222Y-118671293D01*
X115565369Y-118162247D01*
X115175762Y-117772640D01*
X114944352Y-117676787D01*
X115175762Y-117580934D01*
X115565369Y-117191327D01*
X115776222Y-116682281D01*
X115776222Y-116131293D01*
X115565369Y-115622247D01*
X115175762Y-115232640D01*
X114666716Y-115021787D01*
X114115728Y-115021787D01*
X113606682Y-115232640D01*
X113236222Y-115603100D01*
X113236222Y-115422537D01*
X113077472Y-115263787D01*
X111978222Y-115263787D01*
X111978222Y-115283787D01*
X111724222Y-115283787D01*
X111724222Y-115263787D01*
X110624972Y-115263787D01*
X110466222Y-115422537D01*
X107204437Y-115422537D01*
X107586709Y-115040265D01*
X107909707Y-114260478D01*
X110466222Y-114260478D01*
X110466222Y-114851037D01*
X110624972Y-115009787D01*
X111724222Y-115009787D01*
X111724222Y-113910537D01*
X111978222Y-113910537D01*
X111978222Y-115009787D01*
X113077472Y-115009787D01*
X113236222Y-114851037D01*
X113236222Y-114260478D01*
X113139549Y-114027089D01*
X112960921Y-113848460D01*
X112727532Y-113751787D01*
X112136972Y-113751787D01*
X111978222Y-113910537D01*
X111724222Y-113910537D01*
X111565472Y-113751787D01*
X110974912Y-113751787D01*
X110741523Y-113848460D01*
X110562895Y-114027089D01*
X110466222Y-114260478D01*
X107909707Y-114260478D01*
X107961222Y-114136111D01*
X107961222Y-113157463D01*
X107586709Y-112253309D01*
X106894700Y-111561300D01*
X105990546Y-111186787D01*
X105011898Y-111186787D01*
X104107744Y-111561300D01*
X103415735Y-112253309D01*
X103041222Y-113157463D01*
X100710000Y-113157463D01*
X100710000Y-105237171D01*
X102165000Y-105237171D01*
X102165000Y-106762829D01*
X102748844Y-108172353D01*
X103827647Y-109251156D01*
X105237171Y-109835000D01*
X106762829Y-109835000D01*
X108172353Y-109251156D01*
X108861449Y-108562060D01*
X113617545Y-108562060D01*
X113700884Y-108815953D01*
X114265306Y-109021590D01*
X114865458Y-108995579D01*
X115299116Y-108815953D01*
X115382455Y-108562060D01*
X114500000Y-107679605D01*
X113617545Y-108562060D01*
X108861449Y-108562060D01*
X109251156Y-108172353D01*
X109626867Y-107265306D01*
X112978410Y-107265306D01*
X113004421Y-107865458D01*
X113184047Y-108299116D01*
X113437940Y-108382455D01*
X114320395Y-107500000D01*
X113437940Y-106617545D01*
X113184047Y-106700884D01*
X112978410Y-107265306D01*
X109626867Y-107265306D01*
X109835000Y-106762829D01*
X109835000Y-106437940D01*
X113617545Y-106437940D01*
X114500000Y-107320395D01*
X115382455Y-106437940D01*
X115299116Y-106184047D01*
X114734694Y-105978410D01*
X114134542Y-106004421D01*
X113700884Y-106184047D01*
X113617545Y-106437940D01*
X109835000Y-106437940D01*
X109835000Y-105237171D01*
X109251156Y-103827647D01*
X108172353Y-102748844D01*
X106762829Y-102165000D01*
X105237171Y-102165000D01*
X103827647Y-102748844D01*
X102748844Y-103827647D01*
X102165000Y-105237171D01*
X100710000Y-105237171D01*
X100710000Y-103185285D01*
X100713937Y-103174699D01*
X100730055Y-103085116D01*
X100800594Y-102480082D01*
X100979191Y-101988056D01*
X101266192Y-101550308D01*
X101646190Y-101190332D01*
X102098821Y-100927424D01*
X102609416Y-100772780D01*
X103065338Y-100732090D01*
X103171538Y-100710000D01*
X156680000Y-100710000D01*
X156680000Y-101314250D01*
X156680000Y-101314250D01*
G37*
X156680000Y-101314250D02*
X156838750Y-101473000D01*
X157988000Y-101473000D01*
X157988000Y-101453000D01*
X158242000Y-101453000D01*
X158242000Y-101473000D01*
X159391250Y-101473000D01*
X159550000Y-101314250D01*
X159550000Y-100710000D01*
X172215604Y-100710000D01*
X172138466Y-100787138D01*
X171920000Y-101314561D01*
X171920000Y-101885439D01*
X172138466Y-102412862D01*
X172542138Y-102816534D01*
X172671216Y-102870000D01*
X172542138Y-102923466D01*
X172138466Y-103327138D01*
X172085000Y-103456216D01*
X172031534Y-103327138D01*
X171627862Y-102923466D01*
X171100439Y-102705000D01*
X170529561Y-102705000D01*
X170002138Y-102923466D01*
X169598466Y-103327138D01*
X169380000Y-103854561D01*
X169380000Y-104425439D01*
X169598466Y-104952862D01*
X170002138Y-105356534D01*
X170529561Y-105575000D01*
X171100439Y-105575000D01*
X171627862Y-105356534D01*
X172031534Y-104952862D01*
X172085000Y-104823784D01*
X172138466Y-104952862D01*
X172542138Y-105356534D01*
X172671216Y-105410000D01*
X172542138Y-105463466D01*
X172138466Y-105867138D01*
X171920000Y-106394561D01*
X171920000Y-106965439D01*
X172138466Y-107492862D01*
X172542138Y-107896534D01*
X172671216Y-107950000D01*
X172542138Y-108003466D01*
X172138466Y-108407138D01*
X172085000Y-108536216D01*
X172031534Y-108407138D01*
X171627862Y-108003466D01*
X171100439Y-107785000D01*
X170529561Y-107785000D01*
X170002138Y-108003466D01*
X169598466Y-108407138D01*
X169380000Y-108934561D01*
X169380000Y-109505439D01*
X169598466Y-110032862D01*
X170002138Y-110436534D01*
X170131216Y-110490000D01*
X170002138Y-110543466D01*
X169598466Y-110947138D01*
X169380000Y-111474561D01*
X169380000Y-112045439D01*
X169412956Y-112125001D01*
X168169869Y-112125001D01*
X164624586Y-108579719D01*
X164578000Y-108509998D01*
X164448014Y-108423144D01*
X160922587Y-104897719D01*
X160876001Y-104827998D01*
X160599801Y-104643447D01*
X160356237Y-104594999D01*
X160356233Y-104594999D01*
X160274000Y-104578642D01*
X160191767Y-104594999D01*
X159479766Y-104594999D01*
X159550000Y-104425439D01*
X159550000Y-103854561D01*
X159331534Y-103327138D01*
X159039396Y-103035000D01*
X159041310Y-103035000D01*
X159274699Y-102938327D01*
X159453327Y-102759698D01*
X159550000Y-102526309D01*
X159550000Y-101885750D01*
X159391250Y-101727000D01*
X158242000Y-101727000D01*
X158242000Y-101747000D01*
X157988000Y-101747000D01*
X157988000Y-101727000D01*
X156838750Y-101727000D01*
X156680000Y-101885750D01*
X156680000Y-102526309D01*
X156776673Y-102759698D01*
X156955301Y-102938327D01*
X157188690Y-103035000D01*
X157190604Y-103035000D01*
X156898466Y-103327138D01*
X156680000Y-103854561D01*
X156680000Y-104425439D01*
X156750234Y-104594999D01*
X151877233Y-104594999D01*
X151795000Y-104578642D01*
X151712767Y-104594999D01*
X151712764Y-104594999D01*
X151469200Y-104643447D01*
X151193000Y-104827998D01*
X151146415Y-104897717D01*
X150467720Y-105576413D01*
X150397999Y-105622999D01*
X150213448Y-105899200D01*
X150197861Y-105977560D01*
X150125000Y-105977560D01*
X149877235Y-106026843D01*
X149667191Y-106167191D01*
X149526843Y-106377235D01*
X149524496Y-106389034D01*
X149355346Y-106219884D01*
X148800358Y-105990000D01*
X148199642Y-105990000D01*
X147644654Y-106219884D01*
X147250000Y-106614538D01*
X146855346Y-106219884D01*
X146300358Y-105990000D01*
X145699642Y-105990000D01*
X145144654Y-106219884D01*
X144719884Y-106644654D01*
X144710879Y-106666394D01*
X144562060Y-106617545D01*
X143679605Y-107500000D01*
X144562060Y-108382455D01*
X144710879Y-108333606D01*
X144719884Y-108355346D01*
X145144654Y-108780116D01*
X145240000Y-108819610D01*
X145240000Y-108925153D01*
X145225112Y-109000000D01*
X145240000Y-109074847D01*
X145240000Y-109074851D01*
X145284096Y-109296536D01*
X145452071Y-109547929D01*
X145515530Y-109590331D01*
X146909673Y-110984476D01*
X146952071Y-111047929D01*
X147015524Y-111090327D01*
X147015526Y-111090329D01*
X147140902Y-111174102D01*
X147203463Y-111215904D01*
X147425148Y-111260000D01*
X147425152Y-111260000D01*
X147499999Y-111274888D01*
X147574846Y-111260000D01*
X153785199Y-111260000D01*
X156680000Y-114154802D01*
X156680000Y-114585439D01*
X156773016Y-114810000D01*
X156151711Y-114810000D01*
X156034280Y-114692569D01*
X155653874Y-114535000D01*
X155242126Y-114535000D01*
X154861720Y-114692569D01*
X154570569Y-114983720D01*
X154413000Y-115364126D01*
X154413000Y-115589230D01*
X154235000Y-115423945D01*
X154235000Y-115294126D01*
X154077431Y-114913720D01*
X153786280Y-114622569D01*
X153405874Y-114465000D01*
X152994126Y-114465000D01*
X152613720Y-114622569D01*
X152322569Y-114913720D01*
X152165000Y-115294126D01*
X152165000Y-115705874D01*
X152322569Y-116086280D01*
X152613720Y-116377431D01*
X152994126Y-116535000D01*
X153197710Y-116535000D01*
X154014157Y-117293130D01*
X154045471Y-117341247D01*
X154123917Y-117395050D01*
X154137707Y-117407855D01*
X154185551Y-117437322D01*
X154294808Y-117512257D01*
X154313711Y-117516256D01*
X154330162Y-117526388D01*
X154398862Y-117537427D01*
X154322569Y-117613720D01*
X154184779Y-117946374D01*
X154123627Y-117885222D01*
X153743221Y-117727653D01*
X153331473Y-117727653D01*
X152951067Y-117885222D01*
X152659916Y-118176373D01*
X152502347Y-118556779D01*
X152502347Y-118968527D01*
X152659916Y-119348933D01*
X152951067Y-119640084D01*
X153120000Y-119710058D01*
X153120001Y-122045200D01*
X151510000Y-120435199D01*
X151510000Y-116824848D01*
X151524888Y-116750000D01*
X151510000Y-116675152D01*
X151510000Y-116675148D01*
X151465904Y-116453463D01*
X151465904Y-116453462D01*
X151340329Y-116265527D01*
X151297929Y-116202071D01*
X151234473Y-116159671D01*
X145090331Y-110015530D01*
X145047929Y-109952071D01*
X144796537Y-109784096D01*
X144574852Y-109740000D01*
X144574847Y-109740000D01*
X144500000Y-109725112D01*
X144425153Y-109740000D01*
X135814803Y-109740000D01*
X134855043Y-108780242D01*
X134855346Y-108780116D01*
X135024496Y-108610966D01*
X135026843Y-108622765D01*
X135167191Y-108832809D01*
X135377235Y-108973157D01*
X135625000Y-109022440D01*
X137375000Y-109022440D01*
X137622765Y-108973157D01*
X137832809Y-108832809D01*
X137973157Y-108622765D01*
X137985231Y-108562060D01*
X142617545Y-108562060D01*
X142700884Y-108815953D01*
X143265306Y-109021590D01*
X143865458Y-108995579D01*
X144299116Y-108815953D01*
X144382455Y-108562060D01*
X143500000Y-107679605D01*
X142617545Y-108562060D01*
X137985231Y-108562060D01*
X138022440Y-108375000D01*
X138022440Y-107265306D01*
X141978410Y-107265306D01*
X142004421Y-107865458D01*
X142184047Y-108299116D01*
X142437940Y-108382455D01*
X143320395Y-107500000D01*
X142437940Y-106617545D01*
X142184047Y-106700884D01*
X141978410Y-107265306D01*
X138022440Y-107265306D01*
X138022440Y-106625000D01*
X137985232Y-106437940D01*
X142617545Y-106437940D01*
X143500000Y-107320395D01*
X144382455Y-106437940D01*
X144299116Y-106184047D01*
X143734694Y-105978410D01*
X143134542Y-106004421D01*
X142700884Y-106184047D01*
X142617545Y-106437940D01*
X137985232Y-106437940D01*
X137973157Y-106377235D01*
X137832809Y-106167191D01*
X137622765Y-106026843D01*
X137375000Y-105977560D01*
X135625000Y-105977560D01*
X135377235Y-106026843D01*
X135167191Y-106167191D01*
X135026843Y-106377235D01*
X135024496Y-106389034D01*
X134855346Y-106219884D01*
X134300358Y-105990000D01*
X133699642Y-105990000D01*
X133144654Y-106219884D01*
X132750000Y-106614538D01*
X132355346Y-106219884D01*
X131800358Y-105990000D01*
X131199642Y-105990000D01*
X130644654Y-106219884D01*
X130219884Y-106644654D01*
X130210879Y-106666394D01*
X130062060Y-106617545D01*
X129179605Y-107500000D01*
X130062060Y-108382455D01*
X130210879Y-108333606D01*
X130219884Y-108355346D01*
X130644654Y-108780116D01*
X130741588Y-108820268D01*
X130784097Y-109033973D01*
X130897347Y-109203463D01*
X130952072Y-109285365D01*
X131015528Y-109327765D01*
X132377772Y-110690010D01*
X121764812Y-110690010D01*
X120260000Y-109185199D01*
X120260000Y-108819610D01*
X120355346Y-108780116D01*
X120524496Y-108610966D01*
X120526843Y-108622765D01*
X120667191Y-108832809D01*
X120877235Y-108973157D01*
X121125000Y-109022440D01*
X122875000Y-109022440D01*
X123122765Y-108973157D01*
X123332809Y-108832809D01*
X123473157Y-108622765D01*
X123485231Y-108562060D01*
X128117545Y-108562060D01*
X128200884Y-108815953D01*
X128765306Y-109021590D01*
X129365458Y-108995579D01*
X129799116Y-108815953D01*
X129882455Y-108562060D01*
X129000000Y-107679605D01*
X128117545Y-108562060D01*
X123485231Y-108562060D01*
X123522440Y-108375000D01*
X123522440Y-107265306D01*
X127478410Y-107265306D01*
X127504421Y-107865458D01*
X127684047Y-108299116D01*
X127937940Y-108382455D01*
X128820395Y-107500000D01*
X127937940Y-106617545D01*
X127684047Y-106700884D01*
X127478410Y-107265306D01*
X123522440Y-107265306D01*
X123522440Y-106625000D01*
X123485232Y-106437940D01*
X128117545Y-106437940D01*
X129000000Y-107320395D01*
X129882455Y-106437940D01*
X129799116Y-106184047D01*
X129234694Y-105978410D01*
X128634542Y-106004421D01*
X128200884Y-106184047D01*
X128117545Y-106437940D01*
X123485232Y-106437940D01*
X123473157Y-106377235D01*
X123332809Y-106167191D01*
X123122765Y-106026843D01*
X122875000Y-105977560D01*
X121125000Y-105977560D01*
X120877235Y-106026843D01*
X120667191Y-106167191D01*
X120526843Y-106377235D01*
X120524496Y-106389034D01*
X120355346Y-106219884D01*
X119800358Y-105990000D01*
X119199642Y-105990000D01*
X118644654Y-106219884D01*
X118250000Y-106614538D01*
X117855346Y-106219884D01*
X117300358Y-105990000D01*
X116699642Y-105990000D01*
X116144654Y-106219884D01*
X115719884Y-106644654D01*
X115710879Y-106666394D01*
X115562060Y-106617545D01*
X114679605Y-107500000D01*
X115562060Y-108382455D01*
X115710879Y-108333606D01*
X115719884Y-108355346D01*
X116144654Y-108780116D01*
X116240000Y-108819610D01*
X116240000Y-110025153D01*
X116225112Y-110100000D01*
X116240000Y-110174847D01*
X116240000Y-110174851D01*
X116284096Y-110396536D01*
X116452071Y-110647929D01*
X116515530Y-110690331D01*
X118309670Y-112484472D01*
X118352071Y-112547929D01*
X118415527Y-112590329D01*
X118603462Y-112715904D01*
X118651605Y-112725480D01*
X118825148Y-112760000D01*
X118825152Y-112760000D01*
X118900000Y-112774888D01*
X118974848Y-112760000D01*
X143435199Y-112760000D01*
X148490001Y-117814803D01*
X148490000Y-121675153D01*
X148475112Y-121750000D01*
X148490000Y-121824847D01*
X148490000Y-121824851D01*
X148534096Y-122046536D01*
X148702071Y-122297929D01*
X148765530Y-122340331D01*
X150765181Y-124339982D01*
X145414784Y-124339982D01*
X143760000Y-122685199D01*
X143760000Y-121203711D01*
X143877431Y-121086280D01*
X144035000Y-120705874D01*
X144035000Y-120294126D01*
X143877431Y-119913720D01*
X143586280Y-119622569D01*
X143205874Y-119465000D01*
X142898672Y-119465000D01*
X142877431Y-119413720D01*
X142586280Y-119122569D01*
X142205874Y-118965000D01*
X141898672Y-118965000D01*
X141877431Y-118913720D01*
X141586280Y-118622569D01*
X141205874Y-118465000D01*
X140898672Y-118465000D01*
X140877431Y-118413720D01*
X140838711Y-118375000D01*
X140877431Y-118336280D01*
X141035000Y-117955874D01*
X141035000Y-117544126D01*
X140877431Y-117163720D01*
X140838711Y-117125000D01*
X141127431Y-116836280D01*
X141285000Y-116455874D01*
X141285000Y-116252225D01*
X141586280Y-116127431D01*
X141877431Y-115836280D01*
X142035000Y-115455874D01*
X142035000Y-115252225D01*
X142336280Y-115127431D01*
X142627431Y-114836280D01*
X142785000Y-114455874D01*
X142785000Y-114044126D01*
X142627431Y-113663720D01*
X142336280Y-113372569D01*
X141955874Y-113215000D01*
X141544126Y-113215000D01*
X141163720Y-113372569D01*
X141046289Y-113490000D01*
X140324846Y-113490000D01*
X140249999Y-113475112D01*
X140175152Y-113490000D01*
X140175148Y-113490000D01*
X139953463Y-113534096D01*
X139702071Y-113702071D01*
X139659671Y-113765527D01*
X137935199Y-115490000D01*
X124574846Y-115490000D01*
X124499999Y-115475112D01*
X124425152Y-115490000D01*
X124425148Y-115490000D01*
X124203463Y-115534096D01*
X123952071Y-115702071D01*
X123909671Y-115765527D01*
X123435199Y-116240000D01*
X121203711Y-116240000D01*
X121086280Y-116122569D01*
X120705874Y-115965000D01*
X120294126Y-115965000D01*
X119913720Y-116122569D01*
X119622569Y-116413720D01*
X119465000Y-116794126D01*
X119465000Y-117205874D01*
X119622569Y-117586280D01*
X119913720Y-117877431D01*
X120294126Y-118035000D01*
X120705874Y-118035000D01*
X121086280Y-117877431D01*
X121203711Y-117760000D01*
X122665198Y-117760000D01*
X121685199Y-118740000D01*
X121203711Y-118740000D01*
X121086280Y-118622569D01*
X120705874Y-118465000D01*
X120294126Y-118465000D01*
X119913720Y-118622569D01*
X119622569Y-118913720D01*
X119465000Y-119294126D01*
X119465000Y-119705874D01*
X119622569Y-120086280D01*
X119913720Y-120377431D01*
X120294126Y-120535000D01*
X120640199Y-120535000D01*
X120460199Y-120715000D01*
X120294126Y-120715000D01*
X119913720Y-120872569D01*
X119622569Y-121163720D01*
X119465000Y-121544126D01*
X119465000Y-121955874D01*
X119622569Y-122336280D01*
X119913720Y-122627431D01*
X120294126Y-122785000D01*
X120705874Y-122785000D01*
X121086280Y-122627431D01*
X121240000Y-122473711D01*
X121240001Y-122685197D01*
X120460198Y-123465000D01*
X120294126Y-123465000D01*
X119913720Y-123622569D01*
X119622569Y-123913720D01*
X119465000Y-124294126D01*
X119465000Y-124705874D01*
X119622569Y-125086280D01*
X119913720Y-125377431D01*
X120294126Y-125535000D01*
X120705874Y-125535000D01*
X121086280Y-125377431D01*
X121377431Y-125086280D01*
X121535000Y-124705874D01*
X121535000Y-124539802D01*
X122484476Y-123590327D01*
X122547929Y-123547929D01*
X122590327Y-123484476D01*
X122590329Y-123484474D01*
X122715903Y-123296538D01*
X122715904Y-123296537D01*
X122760000Y-123074852D01*
X122760000Y-123074848D01*
X122774888Y-123000001D01*
X122760000Y-122925154D01*
X122760000Y-121564801D01*
X125814803Y-118510000D01*
X139082689Y-118510000D01*
X138965000Y-118794126D01*
X138965000Y-119205874D01*
X139122569Y-119586280D01*
X139240000Y-119703711D01*
X139240001Y-122925148D01*
X139225112Y-123000000D01*
X139284097Y-123296537D01*
X139407158Y-123480710D01*
X139452072Y-123547929D01*
X139515528Y-123590329D01*
X142909673Y-126984476D01*
X142952071Y-127047929D01*
X143015524Y-127090327D01*
X143015526Y-127090329D01*
X143140902Y-127174102D01*
X143203463Y-127215904D01*
X143425148Y-127260000D01*
X143425152Y-127260000D01*
X143499999Y-127274888D01*
X143574846Y-127260000D01*
X150485199Y-127260000D01*
X151789990Y-128564792D01*
X151789991Y-137975138D01*
X151775102Y-138049990D01*
X151789991Y-138124842D01*
X151834087Y-138346527D01*
X152002062Y-138597919D01*
X152065518Y-138640319D01*
X160015527Y-146590329D01*
X160015530Y-146590331D01*
X161909671Y-148484473D01*
X161952071Y-148547929D01*
X162203463Y-148715904D01*
X162425148Y-148760000D01*
X162425152Y-148760000D01*
X162499999Y-148774888D01*
X162574846Y-148760000D01*
X176796289Y-148760000D01*
X176913720Y-148877431D01*
X177294126Y-149035000D01*
X177705874Y-149035000D01*
X178086280Y-148877431D01*
X178377431Y-148586280D01*
X178535000Y-148205874D01*
X178535000Y-147794126D01*
X178377431Y-147413720D01*
X178213711Y-147250000D01*
X178377431Y-147086280D01*
X178535000Y-146705874D01*
X178535000Y-146294126D01*
X178377431Y-145913720D01*
X178213711Y-145750000D01*
X178377431Y-145586280D01*
X178428042Y-145464093D01*
X186700001Y-145464093D01*
X186700001Y-146054652D01*
X186796674Y-146288041D01*
X186975302Y-146466670D01*
X187208691Y-146563343D01*
X187799251Y-146563343D01*
X187958001Y-146404593D01*
X187958001Y-145305343D01*
X188212001Y-145305343D01*
X188212001Y-146404593D01*
X188370751Y-146563343D01*
X188961311Y-146563343D01*
X189194700Y-146466670D01*
X189373328Y-146288041D01*
X189418486Y-146179019D01*
X191975001Y-146179019D01*
X191975001Y-147157667D01*
X192349514Y-148061821D01*
X193041523Y-148753830D01*
X193945677Y-149128343D01*
X194924325Y-149128343D01*
X195828479Y-148753830D01*
X196520488Y-148061821D01*
X196895001Y-147157667D01*
X196895001Y-146179019D01*
X196520488Y-145274865D01*
X195828479Y-144582856D01*
X194924325Y-144208343D01*
X193945677Y-144208343D01*
X193041523Y-144582856D01*
X192349514Y-145274865D01*
X191975001Y-146179019D01*
X189418486Y-146179019D01*
X189470001Y-146054652D01*
X189470001Y-145464093D01*
X189311251Y-145305343D01*
X188212001Y-145305343D01*
X187958001Y-145305343D01*
X186858751Y-145305343D01*
X186700001Y-145464093D01*
X178428042Y-145464093D01*
X178535000Y-145205874D01*
X178535000Y-144794126D01*
X178377431Y-144413720D01*
X178213711Y-144250000D01*
X178377431Y-144086280D01*
X178535000Y-143705874D01*
X178535000Y-143294126D01*
X178377431Y-142913720D01*
X178086280Y-142622569D01*
X177705874Y-142465000D01*
X177294126Y-142465000D01*
X176913720Y-142622569D01*
X176622569Y-142913720D01*
X176465000Y-143294126D01*
X176465000Y-143460198D01*
X174185199Y-145740000D01*
X164314802Y-145740000D01*
X163136862Y-144562060D01*
X164117545Y-144562060D01*
X164200884Y-144815953D01*
X164765306Y-145021590D01*
X165365458Y-144995579D01*
X165799116Y-144815953D01*
X165882455Y-144562060D01*
X165000000Y-143679605D01*
X164117545Y-144562060D01*
X163136862Y-144562060D01*
X161840108Y-143265306D01*
X163478410Y-143265306D01*
X163504421Y-143865458D01*
X163684047Y-144299116D01*
X163937940Y-144382455D01*
X164820395Y-143500000D01*
X163937940Y-142617545D01*
X163684047Y-142700884D01*
X163478410Y-143265306D01*
X161840108Y-143265306D01*
X161012742Y-142437940D01*
X164117545Y-142437940D01*
X165000000Y-143320395D01*
X165882455Y-142437940D01*
X165799116Y-142184047D01*
X165234694Y-141978410D01*
X164634542Y-142004421D01*
X164200884Y-142184047D01*
X164117545Y-142437940D01*
X161012742Y-142437940D01*
X158090333Y-139515532D01*
X158090329Y-139515526D01*
X154760000Y-136185199D01*
X154760000Y-132534821D01*
X155449420Y-133224243D01*
X155532051Y-133347909D01*
X155595510Y-133390311D01*
X156680000Y-134474802D01*
X156680000Y-134905439D01*
X156898466Y-135432862D01*
X157302138Y-135836534D01*
X157829561Y-136055000D01*
X158400439Y-136055000D01*
X158927862Y-135836534D01*
X159331534Y-135432862D01*
X159550000Y-134905439D01*
X159550000Y-134334561D01*
X159331534Y-133807138D01*
X158927862Y-133403466D01*
X158798784Y-133350000D01*
X158927862Y-133296534D01*
X159331534Y-132892862D01*
X159550000Y-132365439D01*
X159550000Y-131794561D01*
X159331534Y-131267138D01*
X158927862Y-130863466D01*
X158798784Y-130810000D01*
X158927862Y-130756534D01*
X159331534Y-130352862D01*
X159550000Y-129825439D01*
X159550000Y-129254561D01*
X159331534Y-128727138D01*
X158927862Y-128323466D01*
X158798784Y-128270000D01*
X158927862Y-128216534D01*
X159331534Y-127812862D01*
X159550000Y-127285439D01*
X159550000Y-126714561D01*
X159331534Y-126187138D01*
X158927862Y-125783466D01*
X158798784Y-125730000D01*
X158927862Y-125676534D01*
X159331534Y-125272862D01*
X159550000Y-124745439D01*
X159550000Y-124174561D01*
X159456984Y-123950000D01*
X162075199Y-123950000D01*
X170689671Y-132564473D01*
X170732071Y-132627929D01*
X170983463Y-132795904D01*
X171205148Y-132840000D01*
X171205152Y-132840000D01*
X171280000Y-132854888D01*
X171354848Y-132840000D01*
X172116570Y-132840000D01*
X172138466Y-132892862D01*
X172542138Y-133296534D01*
X172671216Y-133350000D01*
X172542138Y-133403466D01*
X172138466Y-133807138D01*
X172085000Y-133936216D01*
X172031534Y-133807138D01*
X171627862Y-133403466D01*
X171100439Y-133185000D01*
X170529561Y-133185000D01*
X170002138Y-133403466D01*
X169598466Y-133807138D01*
X169545000Y-133936216D01*
X169491534Y-133807138D01*
X169087862Y-133403466D01*
X168560439Y-133185000D01*
X167989561Y-133185000D01*
X167462138Y-133403466D01*
X167058466Y-133807138D01*
X167011475Y-133920583D01*
X166988864Y-133865995D01*
X166742745Y-133791861D01*
X165914605Y-134620000D01*
X166742745Y-135448139D01*
X166988864Y-135374005D01*
X167009874Y-135315552D01*
X167058466Y-135432862D01*
X167462138Y-135836534D01*
X167989561Y-136055000D01*
X168560439Y-136055000D01*
X169087862Y-135836534D01*
X169491534Y-135432862D01*
X169545000Y-135303784D01*
X169598466Y-135432862D01*
X170002138Y-135836534D01*
X170529561Y-136055000D01*
X171100439Y-136055000D01*
X171627862Y-135836534D01*
X172031534Y-135432862D01*
X172085000Y-135303784D01*
X172138466Y-135432862D01*
X172542138Y-135836534D01*
X173069561Y-136055000D01*
X173640439Y-136055000D01*
X174167862Y-135836534D01*
X174571534Y-135432862D01*
X174790000Y-134905439D01*
X174790000Y-134334561D01*
X174571534Y-133807138D01*
X174167862Y-133403466D01*
X174038784Y-133350000D01*
X174167862Y-133296534D01*
X174571534Y-132892862D01*
X174790000Y-132365439D01*
X174790000Y-131794561D01*
X174571534Y-131267138D01*
X174167862Y-130863466D01*
X174038784Y-130810000D01*
X174167862Y-130756534D01*
X174571534Y-130352862D01*
X174593430Y-130300000D01*
X184185153Y-130300000D01*
X184260000Y-130314888D01*
X184334847Y-130300000D01*
X184334852Y-130300000D01*
X184556537Y-130255904D01*
X184807929Y-130087929D01*
X184850331Y-130024470D01*
X189614803Y-125260000D01*
X191680390Y-125260000D01*
X191719884Y-125355346D01*
X191889034Y-125524496D01*
X191877235Y-125526843D01*
X191667191Y-125667191D01*
X191526843Y-125877235D01*
X191477560Y-126125000D01*
X191477560Y-126197861D01*
X191399199Y-126213448D01*
X191122999Y-126397999D01*
X191076415Y-126467718D01*
X189867720Y-127676413D01*
X189797999Y-127722999D01*
X189613448Y-127999200D01*
X189611838Y-128007294D01*
X183256322Y-134362811D01*
X183053999Y-134497999D01*
X183007415Y-134567717D01*
X181010133Y-136565000D01*
X178457232Y-136565000D01*
X178374999Y-136548643D01*
X178292766Y-136565000D01*
X178292763Y-136565000D01*
X178067056Y-136609896D01*
X178049199Y-136613448D01*
X177867248Y-136735024D01*
X177772999Y-136797999D01*
X177726417Y-136867714D01*
X173242720Y-141351413D01*
X173172999Y-141397999D01*
X173076074Y-141543057D01*
X172641572Y-141977560D01*
X171625000Y-141977560D01*
X171377235Y-142026843D01*
X171167191Y-142167191D01*
X171026843Y-142377235D01*
X171024496Y-142389034D01*
X170855346Y-142219884D01*
X170760000Y-142180390D01*
X170760000Y-142074848D01*
X170774888Y-142000000D01*
X170760000Y-141925152D01*
X170760000Y-141925148D01*
X170715904Y-141703463D01*
X170715904Y-141703462D01*
X170590329Y-141515527D01*
X170547929Y-141452071D01*
X170484473Y-141409671D01*
X164804705Y-135729903D01*
X164906861Y-135627747D01*
X164980995Y-135873864D01*
X165518223Y-136066965D01*
X166088454Y-136039778D01*
X166489005Y-135873864D01*
X166563139Y-135627745D01*
X165735000Y-134799605D01*
X165720858Y-134813748D01*
X165541252Y-134634142D01*
X165555395Y-134620000D01*
X164727255Y-133791861D01*
X164660000Y-133812119D01*
X164660000Y-133612255D01*
X164906861Y-133612255D01*
X165735000Y-134440395D01*
X166563139Y-133612255D01*
X166489005Y-133366136D01*
X165951777Y-133173035D01*
X165381546Y-133200222D01*
X164980995Y-133366136D01*
X164906861Y-133612255D01*
X164660000Y-133612255D01*
X164660000Y-130614801D01*
X164739801Y-130535000D01*
X164905874Y-130535000D01*
X165286280Y-130377431D01*
X165577431Y-130086280D01*
X165735000Y-129705874D01*
X165735000Y-129294126D01*
X165577431Y-128913720D01*
X165313711Y-128650000D01*
X165377431Y-128586280D01*
X165535000Y-128205874D01*
X165535000Y-127794126D01*
X165377431Y-127413720D01*
X165086280Y-127122569D01*
X164705874Y-126965000D01*
X164294126Y-126965000D01*
X163913720Y-127122569D01*
X163622569Y-127413720D01*
X163465000Y-127794126D01*
X163465000Y-127960198D01*
X162615528Y-128809671D01*
X162552072Y-128852071D01*
X162509672Y-128915527D01*
X162509671Y-128915528D01*
X162384097Y-129103463D01*
X162325112Y-129400000D01*
X162340001Y-129474852D01*
X162340000Y-136287717D01*
X162325112Y-136362564D01*
X162340000Y-136437411D01*
X162340000Y-136437415D01*
X162384096Y-136659100D01*
X162552071Y-136910493D01*
X162615530Y-136952895D01*
X166740000Y-141077366D01*
X166740001Y-142180390D01*
X166644654Y-142219884D01*
X166219884Y-142644654D01*
X166210879Y-142666394D01*
X166062060Y-142617545D01*
X165179605Y-143500000D01*
X166062060Y-144382455D01*
X166210879Y-144333606D01*
X166219884Y-144355346D01*
X166644654Y-144780116D01*
X167199642Y-145010000D01*
X167800358Y-145010000D01*
X168355346Y-144780116D01*
X168750000Y-144385462D01*
X169144654Y-144780116D01*
X169699642Y-145010000D01*
X170300358Y-145010000D01*
X170855346Y-144780116D01*
X171024496Y-144610966D01*
X171026843Y-144622765D01*
X171167191Y-144832809D01*
X171377235Y-144973157D01*
X171625000Y-145022440D01*
X173375000Y-145022440D01*
X173622765Y-144973157D01*
X173832809Y-144832809D01*
X173973157Y-144622765D01*
X174022440Y-144375000D01*
X174022440Y-142958428D01*
X174307286Y-142673583D01*
X174377001Y-142627001D01*
X174433470Y-142542490D01*
X174473929Y-142481938D01*
X178720869Y-138235000D01*
X181273767Y-138235000D01*
X181356000Y-138251357D01*
X181438233Y-138235000D01*
X181438237Y-138235000D01*
X181681801Y-138186552D01*
X181958001Y-138002001D01*
X182004587Y-137932280D01*
X184099681Y-135837187D01*
X184283690Y-135714236D01*
X184160001Y-136012849D01*
X184160001Y-136563837D01*
X184370854Y-137072883D01*
X184760461Y-137462490D01*
X184991871Y-137558343D01*
X184760461Y-137654196D01*
X184370854Y-138043803D01*
X184160001Y-138552849D01*
X184160001Y-139103837D01*
X184370854Y-139612883D01*
X184760461Y-140002490D01*
X184991871Y-140098343D01*
X184760461Y-140194196D01*
X184370854Y-140583803D01*
X184160001Y-141092849D01*
X184160001Y-141643837D01*
X184370854Y-142152883D01*
X184760461Y-142542490D01*
X184991871Y-142638343D01*
X184760461Y-142734196D01*
X184370854Y-143123803D01*
X184160001Y-143632849D01*
X184160001Y-144183837D01*
X184370854Y-144692883D01*
X184760461Y-145082490D01*
X185269507Y-145293343D01*
X185820495Y-145293343D01*
X186329541Y-145082490D01*
X186700001Y-144712030D01*
X186700001Y-144892593D01*
X186858751Y-145051343D01*
X187958001Y-145051343D01*
X187958001Y-145031343D01*
X188212001Y-145031343D01*
X188212001Y-145051343D01*
X189311251Y-145051343D01*
X189470001Y-144892593D01*
X189470001Y-144302034D01*
X189373328Y-144068645D01*
X189194700Y-143890016D01*
X188961311Y-143793343D01*
X188825138Y-143793343D01*
X188876913Y-143609860D01*
X188085001Y-142817948D01*
X187293089Y-143609860D01*
X187344864Y-143793343D01*
X187208691Y-143793343D01*
X186975302Y-143890016D01*
X186930001Y-143935317D01*
X186930001Y-143632849D01*
X186719148Y-143123803D01*
X186329541Y-142734196D01*
X186098131Y-142638343D01*
X186329541Y-142542490D01*
X186438517Y-142433514D01*
X186687800Y-142433514D01*
X186715771Y-142983791D01*
X186872541Y-143362266D01*
X187113484Y-143430255D01*
X187905396Y-142638343D01*
X188264606Y-142638343D01*
X189056518Y-143430255D01*
X189297461Y-143362266D01*
X189482202Y-142843172D01*
X189454231Y-142292895D01*
X189297461Y-141914420D01*
X189056518Y-141846431D01*
X188264606Y-142638343D01*
X187905396Y-142638343D01*
X187113484Y-141846431D01*
X186872541Y-141914420D01*
X186687800Y-142433514D01*
X186438517Y-142433514D01*
X186719148Y-142152883D01*
X186930001Y-141643837D01*
X186930001Y-141092849D01*
X186920479Y-141069860D01*
X187293089Y-141069860D01*
X187361078Y-141310803D01*
X187510512Y-141363985D01*
X187361078Y-141425883D01*
X187293089Y-141666826D01*
X188085001Y-142458738D01*
X188876913Y-141666826D01*
X188808924Y-141425883D01*
X188659490Y-141372701D01*
X188808924Y-141310803D01*
X188876913Y-141069860D01*
X188085001Y-140277948D01*
X187293089Y-141069860D01*
X186920479Y-141069860D01*
X186719148Y-140583803D01*
X186329541Y-140194196D01*
X186098131Y-140098343D01*
X186329541Y-140002490D01*
X186438517Y-139893514D01*
X186687800Y-139893514D01*
X186715771Y-140443791D01*
X186872541Y-140822266D01*
X187113484Y-140890255D01*
X187905396Y-140098343D01*
X188264606Y-140098343D01*
X189056518Y-140890255D01*
X189297461Y-140822266D01*
X189482202Y-140303172D01*
X189454231Y-139752895D01*
X189297461Y-139374420D01*
X189056518Y-139306431D01*
X188264606Y-140098343D01*
X187905396Y-140098343D01*
X187113484Y-139306431D01*
X186872541Y-139374420D01*
X186687800Y-139893514D01*
X186438517Y-139893514D01*
X186719148Y-139612883D01*
X186930001Y-139103837D01*
X186930001Y-138552849D01*
X186920479Y-138529860D01*
X187293089Y-138529860D01*
X187361078Y-138770803D01*
X187510512Y-138823985D01*
X187361078Y-138885883D01*
X187293089Y-139126826D01*
X188085001Y-139918738D01*
X188876913Y-139126826D01*
X188808924Y-138885883D01*
X188659490Y-138832701D01*
X188808924Y-138770803D01*
X188876913Y-138529860D01*
X188085001Y-137737948D01*
X187293089Y-138529860D01*
X186920479Y-138529860D01*
X186719148Y-138043803D01*
X186329541Y-137654196D01*
X186098131Y-137558343D01*
X186329541Y-137462490D01*
X186438517Y-137353514D01*
X186687800Y-137353514D01*
X186715771Y-137903791D01*
X186872541Y-138282266D01*
X187113484Y-138350255D01*
X187905396Y-137558343D01*
X188264606Y-137558343D01*
X189056518Y-138350255D01*
X189297461Y-138282266D01*
X189482202Y-137763172D01*
X189454231Y-137212895D01*
X189297461Y-136834420D01*
X189056518Y-136766431D01*
X188264606Y-137558343D01*
X187905396Y-137558343D01*
X187113484Y-136766431D01*
X186872541Y-136834420D01*
X186687800Y-137353514D01*
X186438517Y-137353514D01*
X186719148Y-137072883D01*
X186920478Y-136586826D01*
X187293089Y-136586826D01*
X188085001Y-137378738D01*
X188876913Y-136586826D01*
X188808924Y-136345883D01*
X188289830Y-136161142D01*
X187739553Y-136189113D01*
X187361078Y-136345883D01*
X187293089Y-136586826D01*
X186920478Y-136586826D01*
X186930001Y-136563837D01*
X186930001Y-136012849D01*
X186719148Y-135503803D01*
X186329541Y-135114196D01*
X185820495Y-134903343D01*
X185269507Y-134903343D01*
X184941773Y-135039095D01*
X185671849Y-134309019D01*
X191975001Y-134309019D01*
X191975001Y-135287667D01*
X192349514Y-136191821D01*
X193041523Y-136883830D01*
X193945677Y-137258343D01*
X194924325Y-137258343D01*
X195828479Y-136883830D01*
X196520488Y-136191821D01*
X196895001Y-135287667D01*
X196895001Y-134309019D01*
X196520488Y-133404865D01*
X195828479Y-132712856D01*
X194924325Y-132338343D01*
X193945677Y-132338343D01*
X193041523Y-132712856D01*
X192349514Y-133404865D01*
X191975001Y-134309019D01*
X185671849Y-134309019D01*
X190932283Y-129048585D01*
X191002001Y-129002001D01*
X191153753Y-128774888D01*
X191186552Y-128725801D01*
X191188162Y-128717705D01*
X191629487Y-128276381D01*
X191667191Y-128332809D01*
X191877235Y-128473157D01*
X192125000Y-128522440D01*
X193875000Y-128522440D01*
X194122765Y-128473157D01*
X194332809Y-128332809D01*
X194473157Y-128122765D01*
X194522440Y-127875000D01*
X194522440Y-126125000D01*
X194473157Y-125877235D01*
X194332809Y-125667191D01*
X194122765Y-125526843D01*
X194110966Y-125524496D01*
X194280116Y-125355346D01*
X194510000Y-124800358D01*
X194510000Y-124199642D01*
X194280116Y-123644654D01*
X193885462Y-123250000D01*
X194280116Y-122855346D01*
X194510000Y-122300358D01*
X194510000Y-121699642D01*
X194280116Y-121144654D01*
X193855346Y-120719884D01*
X193833606Y-120710879D01*
X193882455Y-120562060D01*
X193000000Y-119679605D01*
X192117545Y-120562060D01*
X192166394Y-120710879D01*
X192144654Y-120719884D01*
X191719884Y-121144654D01*
X191680390Y-121240000D01*
X189074848Y-121240000D01*
X189000000Y-121225112D01*
X188925152Y-121240000D01*
X188925148Y-121240000D01*
X188751605Y-121274520D01*
X188703462Y-121284096D01*
X188597180Y-121355112D01*
X188452071Y-121452071D01*
X188409671Y-121515527D01*
X183685199Y-126240000D01*
X174593430Y-126240000D01*
X174571534Y-126187138D01*
X174167862Y-125783466D01*
X174038784Y-125730000D01*
X174167862Y-125676534D01*
X174571534Y-125272862D01*
X174790000Y-124745439D01*
X174790000Y-124174561D01*
X174571534Y-123647138D01*
X174167862Y-123243466D01*
X174038784Y-123190000D01*
X174167862Y-123136534D01*
X174571534Y-122732862D01*
X174790000Y-122205439D01*
X174790000Y-121634561D01*
X174571534Y-121107138D01*
X174167862Y-120703466D01*
X174038784Y-120650000D01*
X174167862Y-120596534D01*
X174571534Y-120192862D01*
X174790000Y-119665439D01*
X174790000Y-119265306D01*
X191478410Y-119265306D01*
X191504421Y-119865458D01*
X191684047Y-120299116D01*
X191937940Y-120382455D01*
X192820395Y-119500000D01*
X193179605Y-119500000D01*
X194062060Y-120382455D01*
X194315953Y-120299116D01*
X194521590Y-119734694D01*
X194495579Y-119134542D01*
X194315953Y-118700884D01*
X194062060Y-118617545D01*
X193179605Y-119500000D01*
X192820395Y-119500000D01*
X191937940Y-118617545D01*
X191684047Y-118700884D01*
X191478410Y-119265306D01*
X174790000Y-119265306D01*
X174790000Y-119094561D01*
X174571534Y-118567138D01*
X174442336Y-118437940D01*
X192117545Y-118437940D01*
X193000000Y-119320395D01*
X193882455Y-118437940D01*
X193799116Y-118184047D01*
X193234694Y-117978410D01*
X192634542Y-118004421D01*
X192200884Y-118184047D01*
X192117545Y-118437940D01*
X174442336Y-118437940D01*
X174167862Y-118163466D01*
X174038784Y-118110000D01*
X174167862Y-118056534D01*
X174571534Y-117652862D01*
X174790000Y-117125439D01*
X174790000Y-116554561D01*
X174571534Y-116027138D01*
X174167862Y-115623466D01*
X174038784Y-115570000D01*
X174167862Y-115516534D01*
X174571534Y-115112862D01*
X174760292Y-114657161D01*
X175697416Y-115594285D01*
X175743998Y-115664001D01*
X175813713Y-115710583D01*
X175813714Y-115710584D01*
X175849468Y-115734474D01*
X176020198Y-115848552D01*
X176263762Y-115897000D01*
X176263765Y-115897000D01*
X176345998Y-115913357D01*
X176428231Y-115897000D01*
X186353767Y-115897000D01*
X186436000Y-115913357D01*
X186518233Y-115897000D01*
X186518237Y-115897000D01*
X186761801Y-115848552D01*
X187038001Y-115664001D01*
X187084587Y-115594280D01*
X188883868Y-113795001D01*
X191641928Y-113795001D01*
X191667191Y-113832809D01*
X191877235Y-113973157D01*
X192125000Y-114022440D01*
X193875000Y-114022440D01*
X194122765Y-113973157D01*
X194332809Y-113832809D01*
X194473157Y-113622765D01*
X194522440Y-113375000D01*
X194522440Y-111625000D01*
X194473157Y-111377235D01*
X194332809Y-111167191D01*
X194122765Y-111026843D01*
X194110966Y-111024496D01*
X194280116Y-110855346D01*
X194510000Y-110300358D01*
X194510000Y-109699642D01*
X194280116Y-109144654D01*
X193885462Y-108750000D01*
X194280116Y-108355346D01*
X194510000Y-107800358D01*
X194510000Y-107199642D01*
X194280116Y-106644654D01*
X193855346Y-106219884D01*
X193833606Y-106210879D01*
X193882455Y-106062060D01*
X193000000Y-105179605D01*
X192117545Y-106062060D01*
X192166394Y-106210879D01*
X192144654Y-106219884D01*
X191719884Y-106644654D01*
X191680390Y-106740000D01*
X191324847Y-106740000D01*
X191250000Y-106725112D01*
X191175153Y-106740000D01*
X191175148Y-106740000D01*
X190953463Y-106784096D01*
X190702071Y-106952071D01*
X190659671Y-107015527D01*
X185185199Y-112490000D01*
X177064802Y-112490000D01*
X175395000Y-110820199D01*
X175395000Y-110574847D01*
X175409888Y-110500000D01*
X175395000Y-110425153D01*
X175395000Y-110425148D01*
X175350904Y-110203463D01*
X175182929Y-109952071D01*
X175119470Y-109909669D01*
X174768103Y-109558302D01*
X174790000Y-109505439D01*
X174790000Y-108934561D01*
X174571534Y-108407138D01*
X174167862Y-108003466D01*
X174038784Y-107950000D01*
X174167862Y-107896534D01*
X174571534Y-107492862D01*
X174790000Y-106965439D01*
X174790000Y-106394561D01*
X174571534Y-105867138D01*
X174167862Y-105463466D01*
X174038784Y-105410000D01*
X174167862Y-105356534D01*
X174287225Y-105237171D01*
X177165000Y-105237171D01*
X177165000Y-106762829D01*
X177748844Y-108172353D01*
X178827647Y-109251156D01*
X180237171Y-109835000D01*
X181762829Y-109835000D01*
X183172353Y-109251156D01*
X184251156Y-108172353D01*
X184835000Y-106762829D01*
X184835000Y-105237171D01*
X184639548Y-104765306D01*
X191478410Y-104765306D01*
X191504421Y-105365458D01*
X191684047Y-105799116D01*
X191937940Y-105882455D01*
X192820395Y-105000000D01*
X193179605Y-105000000D01*
X194062060Y-105882455D01*
X194315953Y-105799116D01*
X194521590Y-105234694D01*
X194495579Y-104634542D01*
X194315953Y-104200884D01*
X194062060Y-104117545D01*
X193179605Y-105000000D01*
X192820395Y-105000000D01*
X191937940Y-104117545D01*
X191684047Y-104200884D01*
X191478410Y-104765306D01*
X184639548Y-104765306D01*
X184296841Y-103937940D01*
X192117545Y-103937940D01*
X193000000Y-104820395D01*
X193882455Y-103937940D01*
X193799116Y-103684047D01*
X193234694Y-103478410D01*
X192634542Y-103504421D01*
X192200884Y-103684047D01*
X192117545Y-103937940D01*
X184296841Y-103937940D01*
X184251156Y-103827647D01*
X183172353Y-102748844D01*
X181762829Y-102165000D01*
X180237171Y-102165000D01*
X178827647Y-102748844D01*
X177748844Y-103827647D01*
X177165000Y-105237171D01*
X174287225Y-105237171D01*
X174571534Y-104952862D01*
X174790000Y-104425439D01*
X174790000Y-103854561D01*
X174571534Y-103327138D01*
X174167862Y-102923466D01*
X174038784Y-102870000D01*
X174167862Y-102816534D01*
X174571534Y-102412862D01*
X174790000Y-101885439D01*
X174790000Y-101314561D01*
X174571534Y-100787138D01*
X174494396Y-100710000D01*
X196814715Y-100710000D01*
X196825301Y-100713937D01*
X196914884Y-100730055D01*
X197519918Y-100800594D01*
X198011944Y-100979191D01*
X198449692Y-101266192D01*
X198809668Y-101646190D01*
X199072576Y-102098821D01*
X199227220Y-102609416D01*
X199267910Y-103065338D01*
X199290000Y-103171538D01*
X199290000Y-149873000D01*
X154542333Y-149873000D01*
X152627000Y-148436500D01*
X152627000Y-142000000D01*
X152617333Y-141951399D01*
X152589803Y-141910197D01*
X149589803Y-138910197D01*
X149548601Y-138882667D01*
X149500000Y-138873000D01*
X143552403Y-138873000D01*
X133439558Y-128814954D01*
X133398282Y-128787536D01*
X133350000Y-128778000D01*
X100710000Y-128778000D01*
X100710000Y-125027463D01*
X103041222Y-125027463D01*
X103041222Y-126006111D01*
X103415735Y-126910265D01*
X104107744Y-127602274D01*
X105011898Y-127976787D01*
X105990546Y-127976787D01*
X106894700Y-127602274D01*
X107586709Y-126910265D01*
X107961222Y-126006111D01*
X107961222Y-125027463D01*
X107586709Y-124123309D01*
X107191704Y-123728304D01*
X111059310Y-123728304D01*
X111127299Y-123969247D01*
X111646393Y-124153988D01*
X112196670Y-124126017D01*
X112575145Y-123969247D01*
X112643134Y-123728304D01*
X111851222Y-122936392D01*
X111059310Y-123728304D01*
X107191704Y-123728304D01*
X106894700Y-123431300D01*
X105990546Y-123056787D01*
X105011898Y-123056787D01*
X104107744Y-123431300D01*
X103415735Y-124123309D01*
X103041222Y-125027463D01*
X100710000Y-125027463D01*
X100710000Y-122551958D01*
X110454021Y-122551958D01*
X110481992Y-123102235D01*
X110638762Y-123480710D01*
X110879705Y-123548699D01*
X111671617Y-122756787D01*
X112030827Y-122756787D01*
X112822739Y-123548699D01*
X113063682Y-123480710D01*
X113248423Y-122961616D01*
X113220452Y-122411339D01*
X113063682Y-122032864D01*
X112822739Y-121964875D01*
X112030827Y-122756787D01*
X111671617Y-122756787D01*
X110879705Y-121964875D01*
X110638762Y-122032864D01*
X110454021Y-122551958D01*
X100710000Y-122551958D01*
X100710000Y-121188304D01*
X111059310Y-121188304D01*
X111127299Y-121429247D01*
X111276733Y-121482429D01*
X111127299Y-121544327D01*
X111059310Y-121785270D01*
X111851222Y-122577182D01*
X112643134Y-121785270D01*
X112575145Y-121544327D01*
X112425711Y-121491145D01*
X112575145Y-121429247D01*
X112643134Y-121188304D01*
X111851222Y-120396392D01*
X111059310Y-121188304D01*
X100710000Y-121188304D01*
X100710000Y-120011958D01*
X110454021Y-120011958D01*
X110481992Y-120562235D01*
X110638762Y-120940710D01*
X110879705Y-121008699D01*
X111671617Y-120216787D01*
X112030827Y-120216787D01*
X112822739Y-121008699D01*
X113063682Y-120940710D01*
X113248423Y-120421616D01*
X113220452Y-119871339D01*
X113063682Y-119492864D01*
X112822739Y-119424875D01*
X112030827Y-120216787D01*
X111671617Y-120216787D01*
X110879705Y-119424875D01*
X110638762Y-119492864D01*
X110454021Y-120011958D01*
X100710000Y-120011958D01*
X100710000Y-118648304D01*
X111059310Y-118648304D01*
X111127299Y-118889247D01*
X111276733Y-118942429D01*
X111127299Y-119004327D01*
X111059310Y-119245270D01*
X111851222Y-120037182D01*
X112643134Y-119245270D01*
X112575145Y-119004327D01*
X112425711Y-118951145D01*
X112575145Y-118889247D01*
X112643134Y-118648304D01*
X111851222Y-117856392D01*
X111059310Y-118648304D01*
X100710000Y-118648304D01*
X100710000Y-117471958D01*
X110454021Y-117471958D01*
X110481992Y-118022235D01*
X110638762Y-118400710D01*
X110879705Y-118468699D01*
X111671617Y-117676787D01*
X112030827Y-117676787D01*
X112822739Y-118468699D01*
X113063682Y-118400710D01*
X113248423Y-117881616D01*
X113220452Y-117331339D01*
X113063682Y-116952864D01*
X112822739Y-116884875D01*
X112030827Y-117676787D01*
X111671617Y-117676787D01*
X110879705Y-116884875D01*
X110638762Y-116952864D01*
X110454021Y-117471958D01*
X100710000Y-117471958D01*
X100710000Y-113157463D01*
X103041222Y-113157463D01*
X103041222Y-114136111D01*
X103415735Y-115040265D01*
X104107744Y-115732274D01*
X105011898Y-116106787D01*
X105990546Y-116106787D01*
X106894700Y-115732274D01*
X107204437Y-115422537D01*
X110466222Y-115422537D01*
X110466222Y-116013096D01*
X110562895Y-116246485D01*
X110741523Y-116425114D01*
X110974912Y-116521787D01*
X111111085Y-116521787D01*
X111059310Y-116705270D01*
X111851222Y-117497182D01*
X112643134Y-116705270D01*
X112591359Y-116521787D01*
X112727532Y-116521787D01*
X112960921Y-116425114D01*
X113006222Y-116379813D01*
X113006222Y-116682281D01*
X113217075Y-117191327D01*
X113606682Y-117580934D01*
X113838092Y-117676787D01*
X113606682Y-117772640D01*
X113217075Y-118162247D01*
X113006222Y-118671293D01*
X113006222Y-119222281D01*
X113217075Y-119731327D01*
X113606682Y-120120934D01*
X113838092Y-120216787D01*
X113606682Y-120312640D01*
X113217075Y-120702247D01*
X113006222Y-121211293D01*
X113006222Y-121762281D01*
X113217075Y-122271327D01*
X113606682Y-122660934D01*
X113838092Y-122756787D01*
X113606682Y-122852640D01*
X113217075Y-123242247D01*
X113006222Y-123751293D01*
X113006222Y-124302281D01*
X113217075Y-124811327D01*
X113606682Y-125200934D01*
X114115728Y-125411787D01*
X114666716Y-125411787D01*
X115175762Y-125200934D01*
X115565369Y-124811327D01*
X115776222Y-124302281D01*
X115776222Y-123751293D01*
X115565369Y-123242247D01*
X115175762Y-122852640D01*
X114944352Y-122756787D01*
X115175762Y-122660934D01*
X115565369Y-122271327D01*
X115776222Y-121762281D01*
X115776222Y-121211293D01*
X115565369Y-120702247D01*
X115175762Y-120312640D01*
X114944352Y-120216787D01*
X115175762Y-120120934D01*
X115565369Y-119731327D01*
X115776222Y-119222281D01*
X115776222Y-118671293D01*
X115565369Y-118162247D01*
X115175762Y-117772640D01*
X114944352Y-117676787D01*
X115175762Y-117580934D01*
X115565369Y-117191327D01*
X115776222Y-116682281D01*
X115776222Y-116131293D01*
X115565369Y-115622247D01*
X115175762Y-115232640D01*
X114666716Y-115021787D01*
X114115728Y-115021787D01*
X113606682Y-115232640D01*
X113236222Y-115603100D01*
X113236222Y-115422537D01*
X113077472Y-115263787D01*
X111978222Y-115263787D01*
X111978222Y-115283787D01*
X111724222Y-115283787D01*
X111724222Y-115263787D01*
X110624972Y-115263787D01*
X110466222Y-115422537D01*
X107204437Y-115422537D01*
X107586709Y-115040265D01*
X107909707Y-114260478D01*
X110466222Y-114260478D01*
X110466222Y-114851037D01*
X110624972Y-115009787D01*
X111724222Y-115009787D01*
X111724222Y-113910537D01*
X111978222Y-113910537D01*
X111978222Y-115009787D01*
X113077472Y-115009787D01*
X113236222Y-114851037D01*
X113236222Y-114260478D01*
X113139549Y-114027089D01*
X112960921Y-113848460D01*
X112727532Y-113751787D01*
X112136972Y-113751787D01*
X111978222Y-113910537D01*
X111724222Y-113910537D01*
X111565472Y-113751787D01*
X110974912Y-113751787D01*
X110741523Y-113848460D01*
X110562895Y-114027089D01*
X110466222Y-114260478D01*
X107909707Y-114260478D01*
X107961222Y-114136111D01*
X107961222Y-113157463D01*
X107586709Y-112253309D01*
X106894700Y-111561300D01*
X105990546Y-111186787D01*
X105011898Y-111186787D01*
X104107744Y-111561300D01*
X103415735Y-112253309D01*
X103041222Y-113157463D01*
X100710000Y-113157463D01*
X100710000Y-105237171D01*
X102165000Y-105237171D01*
X102165000Y-106762829D01*
X102748844Y-108172353D01*
X103827647Y-109251156D01*
X105237171Y-109835000D01*
X106762829Y-109835000D01*
X108172353Y-109251156D01*
X108861449Y-108562060D01*
X113617545Y-108562060D01*
X113700884Y-108815953D01*
X114265306Y-109021590D01*
X114865458Y-108995579D01*
X115299116Y-108815953D01*
X115382455Y-108562060D01*
X114500000Y-107679605D01*
X113617545Y-108562060D01*
X108861449Y-108562060D01*
X109251156Y-108172353D01*
X109626867Y-107265306D01*
X112978410Y-107265306D01*
X113004421Y-107865458D01*
X113184047Y-108299116D01*
X113437940Y-108382455D01*
X114320395Y-107500000D01*
X113437940Y-106617545D01*
X113184047Y-106700884D01*
X112978410Y-107265306D01*
X109626867Y-107265306D01*
X109835000Y-106762829D01*
X109835000Y-106437940D01*
X113617545Y-106437940D01*
X114500000Y-107320395D01*
X115382455Y-106437940D01*
X115299116Y-106184047D01*
X114734694Y-105978410D01*
X114134542Y-106004421D01*
X113700884Y-106184047D01*
X113617545Y-106437940D01*
X109835000Y-106437940D01*
X109835000Y-105237171D01*
X109251156Y-103827647D01*
X108172353Y-102748844D01*
X106762829Y-102165000D01*
X105237171Y-102165000D01*
X103827647Y-102748844D01*
X102748844Y-103827647D01*
X102165000Y-105237171D01*
X100710000Y-105237171D01*
X100710000Y-103185285D01*
X100713937Y-103174699D01*
X100730055Y-103085116D01*
X100800594Y-102480082D01*
X100979191Y-101988056D01*
X101266192Y-101550308D01*
X101646190Y-101190332D01*
X102098821Y-100927424D01*
X102609416Y-100772780D01*
X103065338Y-100732090D01*
X103171538Y-100710000D01*
X156680000Y-100710000D01*
X156680000Y-101314250D01*
G36*
X171971506Y-118970215D02*
X171920000Y-119094561D01*
X171920000Y-119665439D01*
X172138466Y-120192862D01*
X172542138Y-120596534D01*
X172671216Y-120650000D01*
X172542138Y-120703466D01*
X172138466Y-121107138D01*
X171920000Y-121634561D01*
X171920000Y-122205439D01*
X172138466Y-122732862D01*
X172542138Y-123136534D01*
X172671216Y-123190000D01*
X172542138Y-123243466D01*
X172138466Y-123647138D01*
X171920000Y-124174561D01*
X171920000Y-124745439D01*
X172138466Y-125272862D01*
X172542138Y-125676534D01*
X172671216Y-125730000D01*
X172542138Y-125783466D01*
X172138466Y-126187138D01*
X171920000Y-126714561D01*
X171920000Y-127285439D01*
X172138466Y-127812862D01*
X172542138Y-128216534D01*
X172671216Y-128270000D01*
X172542138Y-128323466D01*
X172138466Y-128727138D01*
X171920000Y-129254561D01*
X171920000Y-129825439D01*
X172138466Y-130352862D01*
X172542138Y-130756534D01*
X172671216Y-130810000D01*
X172542138Y-130863466D01*
X172138466Y-131267138D01*
X172116570Y-131320000D01*
X171594802Y-131320000D01*
X162980331Y-122705530D01*
X162937929Y-122642071D01*
X162686537Y-122474096D01*
X162464852Y-122430000D01*
X162464847Y-122430000D01*
X162390000Y-122415112D01*
X162315153Y-122430000D01*
X159456984Y-122430000D01*
X159550000Y-122205439D01*
X159550000Y-121634561D01*
X159331534Y-121107138D01*
X158927862Y-120703466D01*
X158798784Y-120650000D01*
X158927862Y-120596534D01*
X159331534Y-120192862D01*
X159550000Y-119665439D01*
X159550000Y-119094561D01*
X159494263Y-118960000D01*
X171920153Y-118960000D01*
X171971506Y-118970215D01*
X171971506Y-118970215D01*
G37*
X171971506Y-118970215D02*
X171920000Y-119094561D01*
X171920000Y-119665439D01*
X172138466Y-120192862D01*
X172542138Y-120596534D01*
X172671216Y-120650000D01*
X172542138Y-120703466D01*
X172138466Y-121107138D01*
X171920000Y-121634561D01*
X171920000Y-122205439D01*
X172138466Y-122732862D01*
X172542138Y-123136534D01*
X172671216Y-123190000D01*
X172542138Y-123243466D01*
X172138466Y-123647138D01*
X171920000Y-124174561D01*
X171920000Y-124745439D01*
X172138466Y-125272862D01*
X172542138Y-125676534D01*
X172671216Y-125730000D01*
X172542138Y-125783466D01*
X172138466Y-126187138D01*
X171920000Y-126714561D01*
X171920000Y-127285439D01*
X172138466Y-127812862D01*
X172542138Y-128216534D01*
X172671216Y-128270000D01*
X172542138Y-128323466D01*
X172138466Y-128727138D01*
X171920000Y-129254561D01*
X171920000Y-129825439D01*
X172138466Y-130352862D01*
X172542138Y-130756534D01*
X172671216Y-130810000D01*
X172542138Y-130863466D01*
X172138466Y-131267138D01*
X172116570Y-131320000D01*
X171594802Y-131320000D01*
X162980331Y-122705530D01*
X162937929Y-122642071D01*
X162686537Y-122474096D01*
X162464852Y-122430000D01*
X162464847Y-122430000D01*
X162390000Y-122415112D01*
X162315153Y-122430000D01*
X159456984Y-122430000D01*
X159550000Y-122205439D01*
X159550000Y-121634561D01*
X159331534Y-121107138D01*
X158927862Y-120703466D01*
X158798784Y-120650000D01*
X158927862Y-120596534D01*
X159331534Y-120192862D01*
X159550000Y-119665439D01*
X159550000Y-119094561D01*
X159494263Y-118960000D01*
X171920153Y-118960000D01*
X171971506Y-118970215D01*
G36*
X191719884Y-122855346D02*
X192114538Y-123250000D01*
X191719884Y-123644654D01*
X191680390Y-123740000D01*
X189374846Y-123740000D01*
X189299999Y-123725112D01*
X189225152Y-123740000D01*
X189225148Y-123740000D01*
X189003463Y-123784096D01*
X189003461Y-123784097D01*
X189003462Y-123784097D01*
X188815526Y-123909671D01*
X188815524Y-123909673D01*
X188752071Y-123952071D01*
X188709673Y-124015524D01*
X183945199Y-128780000D01*
X174593430Y-128780000D01*
X174571534Y-128727138D01*
X174167862Y-128323466D01*
X174038784Y-128270000D01*
X174167862Y-128216534D01*
X174571534Y-127812862D01*
X174593430Y-127760000D01*
X183925153Y-127760000D01*
X184000000Y-127774888D01*
X184074847Y-127760000D01*
X184074852Y-127760000D01*
X184296537Y-127715904D01*
X184547929Y-127547929D01*
X184590331Y-127484470D01*
X189314802Y-122760000D01*
X191680390Y-122760000D01*
X191719884Y-122855346D01*
X191719884Y-122855346D01*
G37*
X191719884Y-122855346D02*
X192114538Y-123250000D01*
X191719884Y-123644654D01*
X191680390Y-123740000D01*
X189374846Y-123740000D01*
X189299999Y-123725112D01*
X189225152Y-123740000D01*
X189225148Y-123740000D01*
X189003463Y-123784096D01*
X189003461Y-123784097D01*
X189003462Y-123784097D01*
X188815526Y-123909671D01*
X188815524Y-123909673D01*
X188752071Y-123952071D01*
X188709673Y-124015524D01*
X183945199Y-128780000D01*
X174593430Y-128780000D01*
X174571534Y-128727138D01*
X174167862Y-128323466D01*
X174038784Y-128270000D01*
X174167862Y-128216534D01*
X174571534Y-127812862D01*
X174593430Y-127760000D01*
X183925153Y-127760000D01*
X184000000Y-127774888D01*
X184074847Y-127760000D01*
X184074852Y-127760000D01*
X184296537Y-127715904D01*
X184547929Y-127547929D01*
X184590331Y-127484470D01*
X189314802Y-122760000D01*
X191680390Y-122760000D01*
X191719884Y-122855346D01*
G36*
X163307417Y-109644285D02*
X163353999Y-109714000D01*
X163423714Y-109760582D01*
X163423715Y-109760583D01*
X163477523Y-109796536D01*
X163483991Y-109800858D01*
X167175416Y-113492284D01*
X167222000Y-113562002D01*
X167498200Y-113746553D01*
X167741764Y-113795001D01*
X167824001Y-113811359D01*
X167906238Y-113795001D01*
X169470945Y-113795001D01*
X169380000Y-114014561D01*
X169380000Y-114585439D01*
X169598466Y-115112862D01*
X170002138Y-115516534D01*
X170529561Y-115735000D01*
X170845199Y-115735000D01*
X169740199Y-116840000D01*
X161614802Y-116840000D01*
X159860331Y-115085530D01*
X159817929Y-115022071D01*
X159566537Y-114854096D01*
X159448448Y-114830607D01*
X159550000Y-114585439D01*
X159550000Y-114014561D01*
X159331534Y-113487138D01*
X158927862Y-113083466D01*
X158798784Y-113030000D01*
X158927862Y-112976534D01*
X159331534Y-112572862D01*
X159550000Y-112045439D01*
X159550000Y-111474561D01*
X159331534Y-110947138D01*
X158927862Y-110543466D01*
X158798784Y-110490000D01*
X158927862Y-110436534D01*
X159331534Y-110032862D01*
X159550000Y-109505439D01*
X159550000Y-108934561D01*
X159331534Y-108407138D01*
X158927862Y-108003466D01*
X158798784Y-107950000D01*
X158927862Y-107896534D01*
X159331534Y-107492862D01*
X159550000Y-106965439D01*
X159550000Y-106394561D01*
X159496334Y-106264999D01*
X159928133Y-106264999D01*
X163307417Y-109644285D01*
X163307417Y-109644285D01*
G37*
X163307417Y-109644285D02*
X163353999Y-109714000D01*
X163423714Y-109760582D01*
X163423715Y-109760583D01*
X163477523Y-109796536D01*
X163483991Y-109800858D01*
X167175416Y-113492284D01*
X167222000Y-113562002D01*
X167498200Y-113746553D01*
X167741764Y-113795001D01*
X167824001Y-113811359D01*
X167906238Y-113795001D01*
X169470945Y-113795001D01*
X169380000Y-114014561D01*
X169380000Y-114585439D01*
X169598466Y-115112862D01*
X170002138Y-115516534D01*
X170529561Y-115735000D01*
X170845199Y-115735000D01*
X169740199Y-116840000D01*
X161614802Y-116840000D01*
X159860331Y-115085530D01*
X159817929Y-115022071D01*
X159566537Y-114854096D01*
X159448448Y-114830607D01*
X159550000Y-114585439D01*
X159550000Y-114014561D01*
X159331534Y-113487138D01*
X158927862Y-113083466D01*
X158798784Y-113030000D01*
X158927862Y-112976534D01*
X159331534Y-112572862D01*
X159550000Y-112045439D01*
X159550000Y-111474561D01*
X159331534Y-110947138D01*
X158927862Y-110543466D01*
X158798784Y-110490000D01*
X158927862Y-110436534D01*
X159331534Y-110032862D01*
X159550000Y-109505439D01*
X159550000Y-108934561D01*
X159331534Y-108407138D01*
X158927862Y-108003466D01*
X158798784Y-107950000D01*
X158927862Y-107896534D01*
X159331534Y-107492862D01*
X159550000Y-106965439D01*
X159550000Y-106394561D01*
X159496334Y-106264999D01*
X159928133Y-106264999D01*
X163307417Y-109644285D01*
G36*
X156680000Y-106394561D02*
X156680000Y-106965439D01*
X156898466Y-107492862D01*
X157302138Y-107896534D01*
X157431216Y-107950000D01*
X157302138Y-108003466D01*
X156898466Y-108407138D01*
X156680000Y-108934561D01*
X156680000Y-109465199D01*
X156230331Y-109015530D01*
X156187929Y-108952071D01*
X155936537Y-108784096D01*
X155714852Y-108740000D01*
X155714847Y-108740000D01*
X155640000Y-108725112D01*
X155565153Y-108740000D01*
X152394822Y-108740000D01*
X152473157Y-108622765D01*
X152522440Y-108375000D01*
X152522440Y-106625000D01*
X152473157Y-106377235D01*
X152398163Y-106264999D01*
X156733666Y-106264999D01*
X156680000Y-106394561D01*
X156680000Y-106394561D01*
G37*
X156680000Y-106394561D02*
X156680000Y-106965439D01*
X156898466Y-107492862D01*
X157302138Y-107896534D01*
X157431216Y-107950000D01*
X157302138Y-108003466D01*
X156898466Y-108407138D01*
X156680000Y-108934561D01*
X156680000Y-109465199D01*
X156230331Y-109015530D01*
X156187929Y-108952071D01*
X155936537Y-108784096D01*
X155714852Y-108740000D01*
X155714847Y-108740000D01*
X155640000Y-108725112D01*
X155565153Y-108740000D01*
X152394822Y-108740000D01*
X152473157Y-108622765D01*
X152522440Y-108375000D01*
X152522440Y-106625000D01*
X152473157Y-106377235D01*
X152398163Y-106264999D01*
X156733666Y-106264999D01*
X156680000Y-106394561D01*
G04 #@! TD*
M02*
