M48
;DRILL file {KiCad (5.0.0-3-g5ebb6b6)} date Monday, October 08, 2018 at 08:22:20 PM
;FORMAT={-:-/ absolute / inch / decimal}
FMAT,2
INCH,TZ
T1C0.0118
T2C0.0157
T3C0.0197
T4C0.0236
T5C0.0354
T6C0.0394
T7C0.0433
T8C0.1024
T9C0.1260
%
G90
G05
M72
T1
X7.4016Y-7.0236
X7.4016Y-7.3071
X7.4252Y-6.9685
X7.4252Y-7.0787
X7.4252Y-7.252
X7.4252Y-7.3622
X7.4803Y-6.9449
X7.4803Y-7.1024
X7.4803Y-7.2283
X7.4803Y-7.3858
X7.5354Y-6.9685
X7.5354Y-7.0787
X7.5354Y-7.252
X7.5354Y-7.3622
X7.5591Y-7.0236
X7.5591Y-7.3071
X4.252Y-6.9843
X4.252Y-7.2677
X4.2756Y-6.9291
X4.2756Y-7.0394
X4.2756Y-7.2126
X4.2756Y-7.3228
X4.3307Y-6.9055
X4.3307Y-7.063
X4.3307Y-7.189
X4.3307Y-7.3465
X4.3858Y-6.9291
X4.3858Y-7.0394
X4.3858Y-7.2126
X4.3858Y-7.3228
X4.4094Y-6.9843
X4.4094Y-7.2677
X4.252Y-5.4094
X4.252Y-5.6929
X4.2756Y-5.3543
X4.2756Y-5.4646
X4.2756Y-5.6378
X4.2756Y-5.748
X4.3307Y-5.3307
X4.3307Y-5.4882
X4.3307Y-5.6142
X4.3307Y-5.7717
X4.3858Y-5.3543
X4.3858Y-5.4646
X4.3858Y-5.6378
X4.3858Y-5.748
X4.4094Y-5.4094
X4.4094Y-5.6929
X4.252Y-6.1969
X4.252Y-6.4803
X4.2756Y-6.1417
X4.2756Y-6.252
X4.2756Y-6.4252
X4.2756Y-6.5354
X4.3307Y-6.1181
X4.3307Y-6.2756
X4.3307Y-6.4016
X4.3307Y-6.5591
X4.3858Y-6.1417
X4.3858Y-6.252
X4.3858Y-6.4252
X4.3858Y-6.5354
X4.4094Y-6.1969
X4.4094Y-6.4803
X7.4016Y-6.2362
X7.4016Y-6.5197
X7.4252Y-6.1811
X7.4252Y-6.2913
X7.4252Y-6.4646
X7.4252Y-6.5748
X7.4803Y-6.1575
X7.4803Y-6.315
X7.4803Y-6.4409
X7.4803Y-6.5984
X7.5354Y-6.1811
X7.5354Y-6.2913
X7.5354Y-6.4646
X7.5354Y-6.5748
X7.5591Y-6.2362
X7.5591Y-6.5197
X5.685Y-7.4154
X5.7087Y-7.3602
X5.7087Y-7.4705
X5.7638Y-7.3366
X5.7638Y-7.4941
X5.8189Y-7.3602
X5.8189Y-7.4705
X5.8425Y-7.4154
X5.9685Y-7.4154
X5.9921Y-7.3602
X5.9921Y-7.4705
X6.0472Y-7.3366
X6.0472Y-7.4941
X6.1024Y-7.3602
X6.1024Y-7.4705
X6.126Y-7.4154
T2
X0.0787Y-5.3346
X3.9961Y-4.0945
X4.0157Y-4.0157
X4.0157Y-7.7165
X4.0354Y-4.6063
X4.0354Y-4.7835
X4.05Y-5.2
X4.0551Y-7.7953
X4.0945Y-3.9961
X4.15Y-5.2
X4.1732Y-7.7953
X4.2126Y-5.2953
X4.2126Y-5.5315
X4.2126Y-6.0827
X4.2126Y-6.3189
X4.2126Y-6.8701
X4.2126Y-7.1063
X4.25Y-5.2
X4.2717Y-5.0394
X4.2913Y-7.7953
X4.311Y-4.5866
X4.311Y-4.685
X4.311Y-4.7835
X4.35Y-5.2
X4.3898Y-5.0394
X4.4094Y-7.7953
X4.4488Y-5.2953
X4.4488Y-5.5315
X4.4488Y-6.0827
X4.4488Y-6.3189
X4.4488Y-6.8701
X4.4488Y-7.1063
X4.45Y-5.2
X4.4882Y-5.0394
X4.5276Y-7.7953
X4.5669Y-4.0551
X4.5669Y-5.2165
X4.5669Y-6.0039
X4.5866Y-5.0394
X4.6063Y-6.5354
X4.6457Y-7.7953
X4.6654Y-5.8268
X4.6654Y-6.6142
X4.6654Y-7.4016
X4.685Y-5.0394
X4.7441Y-4.0551
X4.7441Y-4.6063
X4.7441Y-4.7047
X4.7441Y-4.7933
X4.7441Y-4.9016
X4.7835Y-5.0394
X4.8425Y-5.7087
X4.8425Y-5.8661
X4.8425Y-6.4961
X4.8425Y-6.6535
X4.8425Y-7.2835
X4.8425Y-7.4016
X4.8819Y-5.0394
X4.9213Y-7.7953
X4.9311Y-4.7539
X4.9606Y-7.4803
X4.9803Y-5.0394
X5.0394Y-5.2138
X5.0394Y-7.7953
X5.1181Y-4.8425
X5.1181Y-4.9016
X5.1181Y-4.9606
X5.1378Y-4.0551
X5.1575Y-7.3327
X5.1575Y-7.4508
X5.1575Y-7.7953
X5.1772Y-4.7244
X5.1772Y-4.8425
X5.1772Y-4.9016
X5.1772Y-4.9606
X5.2362Y-4.8425
X5.2362Y-4.9016
X5.2362Y-4.9606
X5.2756Y-6.6929
X5.2756Y-7.7953
X5.2953Y-7.5
X5.315Y-4.0551
X5.35Y-5.1
X5.374Y-5.374
X5.3937Y-7.7953
X5.4232Y-7.2441
X5.4232Y-7.4114
X5.4331Y-5.4331
X5.5Y-5.5
X5.5118Y-4.6358
X5.5118Y-4.685
X5.5118Y-5.8661
X5.5118Y-5.9449
X5.5118Y-6.0236
X5.5118Y-6.1024
X5.5118Y-6.1811
X5.5118Y-6.2598
X5.5118Y-6.6732
X5.5118Y-6.752
X5.5118Y-6.8307
X5.5118Y-7.1752
X5.5118Y-7.2539
X5.5118Y-7.3425
X5.5118Y-7.4409
X5.5118Y-7.5394
X5.5118Y-7.7953
X5.5217Y-4.5768
X5.5512Y-4.5374
X5.5512Y-4.7047
X5.5512Y-5.0394
X5.5512Y-5.1969
X5.5807Y-4.498
X5.5906Y-4.7244
X5.6102Y-5.1181
X5.6102Y-5.2559
X5.6102Y-7.3622
X5.6102Y-7.4409
X5.6299Y-4.7441
X5.6299Y-5.6102
X5.6299Y-5.6693
X5.6299Y-5.7874
X5.6299Y-5.8661
X5.6299Y-5.9449
X5.6299Y-6.0236
X5.6299Y-6.1024
X5.6299Y-6.1811
X5.6299Y-6.2598
X5.6299Y-6.3386
X5.6299Y-6.3976
X5.6299Y-6.4567
X5.6299Y-6.5157
X5.6299Y-6.5748
X5.6299Y-6.6732
X5.6299Y-6.7717
X5.6299Y-7.5197
X5.6299Y-7.7953
X5.6496Y-6.8898
X5.6496Y-6.9488
X5.6496Y-7.0079
X5.6496Y-7.0669
X5.6496Y-7.126
X5.6693Y-6.2992
X5.6693Y-6.6142
X5.6693Y-7.2835
X5.689Y-5.8268
X5.689Y-6.8504
X5.7087Y-4.0551
X5.7283Y-5.0591
X5.7283Y-5.1181
X5.7283Y-5.1772
X5.7283Y-7.2638
X5.7283Y-7.6181
X5.748Y-7.7953
X5.7677Y-5.8268
X5.7677Y-6.2992
X5.7677Y-6.6142
X5.775Y-4.725
X5.775Y-4.825
X5.7874Y-5.0591
X5.7874Y-5.1181
X5.7874Y-5.1772
X5.7874Y-5.2756
X5.7874Y-6.8504
X5.8071Y-7.2638
X5.8071Y-7.6083
X5.8268Y-5.6102
X5.8268Y-5.6693
X5.8268Y-5.7874
X5.8268Y-6.3386
X5.8268Y-6.3976
X5.8268Y-6.4567
X5.8268Y-6.5157
X5.8268Y-6.5748
X5.8268Y-6.8898
X5.8268Y-6.9488
X5.8268Y-7.0079
X5.8268Y-7.0669
X5.8268Y-7.126
X5.8465Y-5.0591
X5.8465Y-5.1181
X5.8465Y-5.1772
X5.8661Y-7.2835
X5.8661Y-7.7953
X5.8858Y-4.0551
X5.8858Y-7.2244
X5.8957Y-7.5787
X5.9055Y-5.9449
X5.9055Y-6.0433
X5.9055Y-6.1417
X5.9252Y-5.4528
X5.9252Y-7.185
X5.9449Y-7.5394
X5.975Y-4.5
X5.9843Y-6.1614
X5.9843Y-6.2205
X5.9843Y-6.2795
X5.9843Y-6.3386
X5.9843Y-6.3976
X5.9843Y-6.7323
X5.9843Y-6.7913
X5.9843Y-6.8504
X5.9843Y-6.9094
X5.9843Y-6.9685
X5.9843Y-7.7953
X5.9941Y-7.5689
X6.0039Y-5.5315
X6.0039Y-7.185
X6.025Y-5.7
X6.0315Y-4.5472
X6.0433Y-6.1024
X6.0433Y-6.437
X6.0433Y-6.6929
X6.0433Y-7.0276
X6.0448Y-4.6757
X6.063Y-5.5906
X6.0728Y-7.5787
X6.0827Y-7.185
X6.1024Y-6.6929
X6.1024Y-7.0276
X6.1024Y-7.7953
X6.1102Y-4.6535
X6.12Y-4.55
X6.122Y-3.9961
X6.122Y-4.0945
X6.122Y-4.2126
X6.122Y-5.2953
X6.122Y-5.6496
X6.122Y-6.1024
X6.122Y-6.437
X6.125Y-4.825
X6.125Y-5.7
X6.1417Y-7.2835
X6.1614Y-7.185
X6.1811Y-5.7677
X6.1811Y-6.0236
X6.1811Y-6.1614
X6.1811Y-6.2205
X6.1811Y-6.2795
X6.1811Y-6.3386
X6.1811Y-6.3976
X6.1811Y-6.7323
X6.1811Y-6.7913
X6.1811Y-6.8504
X6.1811Y-6.9094
X6.1811Y-6.9685
X6.1811Y-7.1063
X6.1909Y-7.3425
X6.1909Y-7.4902
X6.2106Y-7.4213
X6.2205Y-7.7953
X6.25Y-5.85
X6.2598Y-7.2835
X6.2992Y-5.5315
X6.3Y-5.8
X6.3Y-5.85
X6.3Y-6.
X6.3Y-6.05
X6.3189Y-3.9961
X6.3189Y-7.0374
X6.3386Y-7.7953
X6.35Y-5.85
X6.35Y-5.85
X6.35Y-5.85
X6.378Y-7.1555
X6.378Y-7.5886
X6.3937Y-5.4094
X6.3937Y-5.622
X6.4173Y-4.3898
X6.4173Y-4.5669
X6.4173Y-4.7047
X6.4173Y-4.8031
X6.4173Y-7.3228
X6.4567Y-4.1535
X6.4567Y-5.8661
X6.4567Y-6.0236
X6.4567Y-7.7953
X6.4764Y-5.0394
X6.4843Y-5.0984
X6.5118Y-5.5512
X6.5157Y-4.9016
X6.5354Y-5.1772
X6.5354Y-5.374
X6.5748Y-5.8661
X6.5748Y-6.0236
X6.5748Y-7.7953
X6.6142Y-4.0945
X6.6142Y-4.311
X6.6142Y-4.5669
X6.6535Y-5.0197
X6.6535Y-5.2165
X6.6535Y-6.1122
X6.6535Y-6.8996
X6.6732Y-5.8661
X6.6929Y-4.7047
X6.6929Y-6.0236
X6.7323Y-4.9213
X6.7323Y-5.0984
X6.75Y-7.8
X6.7717Y-5.8661
X6.811Y-6.0236
X6.8189Y-5.4488
X6.8701Y-5.8661
X6.9291Y-4.626
X6.9291Y-4.9213
X6.9291Y-5.0591
X6.9291Y-5.1575
X6.9291Y-5.3346
X6.9291Y-6.0236
X6.937Y-5.6063
X6.9587Y-4.0059
X6.9685Y-4.252
X6.9685Y-6.0728
X6.9685Y-6.2303
X6.9685Y-6.8602
X6.9685Y-7.0177
X6.9882Y-5.6496
X6.9882Y-5.7087
X6.9882Y-5.7677
X6.9882Y-5.8268
X7.0079Y-4.3898
X7.0472Y-6.0236
X7.0472Y-7.7953
X7.1063Y-5.3346
X7.126Y-6.8996
X7.1457Y-6.1122
X7.1654Y-6.0236
X7.1654Y-7.7953
X7.185Y-5.0591
X7.185Y-5.1575
X7.2047Y-4.9213
X7.2244Y-6.0827
X7.2441Y-4.0059
X7.2441Y-4.3898
X7.2441Y-5.8661
X7.2441Y-6.7224
X7.2835Y-4.2913
X7.2835Y-6.0236
X7.2835Y-7.7953
X7.3228Y-4.1339
X7.3228Y-4.626
X7.3228Y-4.8031
X7.3425Y-5.8661
X7.3622Y-6.4173
X7.3622Y-6.6339
X7.3622Y-7.185
X7.3622Y-7.4213
X7.4016Y-5.0394
X7.4016Y-6.0236
X7.4016Y-7.7953
X7.4213Y-5.2559
X7.4409Y-4.0157
X7.4409Y-5.8661
X7.4803Y-4.1339
X7.4803Y-5.4724
X7.4803Y-5.5709
X7.4803Y-5.6693
X7.5197Y-6.0236
X7.5197Y-7.7953
X7.5394Y-5.1181
X7.5394Y-5.8661
X7.5591Y-4.5276
X7.5984Y-6.4173
X7.5984Y-6.6339
X7.5984Y-7.185
X7.5984Y-7.4213
X7.6378Y-6.0236
X7.6772Y-3.9961
X7.6969Y-7.815
X7.7559Y-4.3701
X7.7559Y-4.7638
X7.7559Y-4.9409
X7.7559Y-5.4528
X7.7559Y-5.6299
X7.7559Y-5.8661
X7.7559Y-6.0236
X7.7756Y-4.0157
X7.7756Y-4.1929
X7.7953Y-7.5197
X7.7953Y-7.7953
X7.815Y-4.0945
X7.815Y-7.6969
X7.8346Y-5.8661
T3
X4.7087Y-7.6378
X4.7363Y-7.571
X4.7363Y-7.7046
X4.8031Y-7.5433
X4.8031Y-7.7323
X4.87Y-7.571
X4.87Y-7.7046
X4.8976Y-7.6378
X7.0315Y-4.1732
X7.0592Y-4.1064
X7.0592Y-4.24
X7.126Y-4.0787
X7.126Y-4.2677
X7.1928Y-4.1064
X7.1928Y-4.24
X7.2205Y-4.1732
X7.5433Y-7.6378
X7.571Y-7.571
X7.571Y-7.7046
X7.6378Y-7.5433
X7.6378Y-7.7323
X7.7046Y-7.571
X7.7046Y-7.7046
X7.7323Y-7.6378
X4.0787Y-4.1732
X4.1064Y-4.1064
X4.1064Y-4.24
X4.1732Y-4.0787
X4.1732Y-4.2677
X4.24Y-4.1064
X4.24Y-4.24
X4.2677Y-4.1732
T5
X4.4036Y-4.5329
X4.4036Y-4.6329
X4.4036Y-4.7329
X4.4036Y-4.8329
X4.5036Y-4.5829
X4.5036Y-4.6829
X4.5036Y-4.7829
X4.5036Y-4.8829
X7.3049Y-5.3657
X7.3049Y-5.4657
X7.3049Y-5.5657
X7.3049Y-5.6657
X7.4049Y-5.4157
X7.4049Y-5.5157
X7.4049Y-5.6157
X7.4049Y-5.7157
T6
X6.4961Y-5.6496
X6.5945Y-5.6496
X6.6929Y-5.6496
X6.7913Y-5.6496
X7.5984Y-4.7047
X7.5984Y-4.8031
X7.5984Y-4.9016
X7.5984Y-5.
X7.5984Y-4.1339
X7.5984Y-4.2323
X7.5984Y-4.3307
X7.5984Y-4.4291
X4.5079Y-4.2323
X4.6063Y-4.2323
X4.7047Y-4.2323
X4.8031Y-4.2323
X5.6496Y-4.2323
X5.748Y-4.2323
X5.8465Y-4.2323
X5.9449Y-4.2323
X5.0787Y-4.2323
X5.1772Y-4.2323
X5.2756Y-4.2323
X5.374Y-4.2323
T7
X6.225Y-4.
X6.225Y-4.1
X6.225Y-4.2
X6.225Y-4.3
X6.225Y-4.4
X6.225Y-4.5
X6.225Y-4.6
X6.225Y-4.7
X6.225Y-4.8
X6.225Y-4.9
X6.225Y-5.
X6.225Y-5.1
X6.225Y-5.2
X6.225Y-5.3
X6.525Y-5.3
X6.625Y-5.3
X6.725Y-4.1
X6.725Y-4.3
X6.725Y-4.4
X6.725Y-4.5
X6.725Y-5.3
X6.825Y-4.
X6.825Y-4.1
X6.825Y-4.2
X6.825Y-4.3
X6.825Y-4.4
X6.825Y-4.5
X6.825Y-4.6
X6.825Y-4.7
X6.825Y-4.8
X6.825Y-4.9
X6.825Y-5.
X6.825Y-5.1
X6.825Y-5.2
X6.825Y-5.3
T8
X4.3307Y-6.9843
X4.3307Y-7.2677
X4.3307Y-5.4094
X4.3307Y-5.6929
X4.3307Y-6.1969
X4.3307Y-6.4803
X7.4803Y-6.2362
X7.4803Y-6.5197
X5.7638Y-7.4154
X6.0472Y-7.4154
X7.4803Y-7.0236
X7.4803Y-7.3071
T9
X4.8031Y-7.6378
X7.126Y-4.1732
X7.6378Y-7.6378
X4.1732Y-4.1732
T4
X4.0748Y-6.8583G85X4.1142Y-6.8583
G05
X4.0748Y-7.3937G85X4.1142Y-7.3937
G05
X4.0748Y-5.2835G85X4.1142Y-5.2835
G05
X4.0748Y-5.8189G85X4.1142Y-5.8189
G05
X4.0748Y-6.0709G85X4.1142Y-6.0709
G05
X4.0748Y-6.6063G85X4.1142Y-6.6063
G05
X7.7362Y-6.1102G85X7.6969Y-6.1102
G05
X7.7362Y-6.6457G85X7.6969Y-6.6457
G05
X5.6378Y-7.6713G85X5.6378Y-7.6319
G05
X6.1732Y-7.6713G85X6.1732Y-7.6319
G05
X7.7362Y-6.8976G85X7.6969Y-6.8976
G05
X7.7362Y-7.4331G85X7.6969Y-7.4331
G05
T0
M30
